<?xml version="1.0" encoding="utf-8"?>
<!-- Generator: Adobe Illustrator 18.0.0, SVG Export Plug-In . SVG Version: 6.00 Build 0)  -->
<!DOCTYPE svg PUBLIC "-//W3C//DTD SVG 1.1//EN" "http://www.w3.org/Graphics/SVG/1.1/DTD/svg11.dtd">
<svg version="1.1" id="Layer_1" xmlns="http://www.w3.org/2000/svg" xmlns:xlink="http://www.w3.org/1999/xlink" x="0px" y="0px"
	 viewBox="0 0 230 30" enable-background="new 0 0 230 30" xml:space="preserve">
<path fill="#FFFFFF" d="M103.1,20.4c0,0,0.1,0.2,0.1,0.3c0.1-0.1,0.1-0.1,0.3-0.4l0-0.1C103.4,20.2,103.2,20.3,103.1,20.4z
	 M104.8,21.7c0.1,0.1,0.2,0.1,0.3,0.2l0.2-0.2c-0.1,0-0.2-0.1-0.3-0.1L104.8,21.7z M103.5,20.3l0,0.1c0.1-0.1,0.1-0.2,0.2-0.3
	l-0.1-0.1L103.5,20.3z M103.7,20.1L103.7,20.1c0.1-0.1,0.2-0.1,0.3-0.3C103.9,19.9,103.9,19.8,103.7,20.1z M108.6,23.7l0.2,0.1
	c0.1,0,0.2-0.1,0.3-0.2l-0.2-0.1C108.8,23.5,108.7,23.6,108.6,23.7z M103.5,20l0.1,0.1c0-0.1,0.1-0.2,0.2-0.4L103.5,20z M109.2,24.7
	l0.2,0.2c0-0.1,0.1-0.2,0.1-0.3l-0.2-0.2C109.3,24.5,109.2,24.6,109.2,24.7z M113.1,25.3l0,0.1c0.1-0.1,0.1-0.2,0.2-0.3l-0.1-0.1
	L113.1,25.3z M113.2,25.1L113.2,25.1c0.1-0.1,0.2-0.1,0.3-0.3C113.5,24.9,113.4,24.8,113.2,25.1z M112.7,25.4c0,0,0.1,0.2,0.1,0.3
	c0.1-0.1,0.1-0.1,0.3-0.4l0-0.1C112.9,25.3,112.8,25.3,112.7,25.4z M110.5,21c0,0.1,0.1,0.2,0.2,0.3l0.2-0.2
	c-0.1-0.1-0.1-0.2-0.2-0.3L110.5,21z M100.4,20.8c0,0.1,0.1,0.2,0.2,0.3l0.2-0.2c-0.1-0.1-0.1-0.2-0.2-0.3L100.4,20.8z M113.5,23.2
	c0-0.1-0.1-0.3-0.2-0.4c-0.3,0.2-0.5,0.5-0.8,0.7c0.1,0.1,0.3,0.2,0.5,0.3C113.2,23.6,113.4,23.4,113.5,23.2z M113.1,25l0.1,0.1
	c0-0.1,0.1-0.2,0.2-0.4L113.1,25z M57.5,21.2l0.2,0.2c0-0.1,0.1-0.2,0.1-0.3l-0.2-0.2C57.6,21,57.5,21.1,57.5,21.2z M24.6,29.8
	l0.2,0.2c0.1-0.1,0.2-0.1,0.3-0.2l-0.2-0.1C24.8,29.6,24.7,29.7,24.6,29.8z M16.4,22.2c0.1,0,0.2,0.1,0.3,0.1l0.2-0.2
	c-0.1-0.1-0.2-0.1-0.3-0.2L16.4,22.2z M17.3,21.7c0.1,0.1,0.2,0.1,0.3,0.2l0.2-0.2c-0.1,0-0.2-0.1-0.3-0.1L17.3,21.7z M115.9,22.3
	c0.3,0.2,0.6,0.4,0.9,0.6c0-0.1,0.1-0.3,0.2-0.6c-0.2-0.1-0.5-0.2-0.7-0.2C116.1,22.1,116,22.2,115.9,22.3z M11.1,20.7
	c0-0.1,0.1-0.2,0.1-0.4l-0.3-0.2C11,20.4,11.1,20.6,11.1,20.7z M95.6,21.4l0.2-0.2C95.9,21.1,95.8,20.9,95.6,21.4z M96.8,22.8
	c0.1,0.1,0.2,0.1,0.3,0.2l0.2-0.2c-0.1,0-0.2-0.1-0.3-0.1L96.8,22.8z M95.4,21.9L95.4,21.9l0.2,0c0-0.2,0.1-0.4,0.1-0.5l-0.2,0.1
	C95.4,21.7,95.4,21.8,95.4,21.9z M94.9,21.9h0.4c0,0,0,0,0,0c-0.1-0.1-0.1-0.2-0.2-0.3C95.1,21.7,95,21.8,94.9,21.9z M71.2,19.6
	l0.2,0.2c0.1-0.1,0.1-0.2,0.2-0.3l-0.2-0.2C71.3,19.4,71.2,19.5,71.2,19.6z M95.4,21.1c0,0.1,0,0.3,0,0.5l0.1,0
	c0.1-0.3,0.1-0.7,0.2-1.2C95.5,20.8,95.4,21,95.4,21.1z M75.1,19.3c0.1,0.1,0.1,0.2,0.2,0.3l0.1-0.2c0-0.1-0.1-0.2-0.2-0.3
	L75.1,19.3z M100,22l0.2,0.2c0-0.1,0.1-0.2,0.1-0.3l-0.2-0.2C100.1,21.8,100,21.9,100,22z M209.9,24L209.9,24l0.2,0
	c0-0.2,0.1-0.4,0.1-0.5l-0.2,0.1C209.9,23.8,209.9,23.9,209.9,24z M214.2,22.7c0.1,0.1,0.3,0.2,0.4,0.2c0.2,0,0.4-0.2,0.6-0.3
	c-0.1-0.1-0.3-0.2-0.4-0.3C214.6,22.5,214.4,22.6,214.2,22.7z M190.4,21.2l0.2,0.2c0-0.1,0.1-0.2,0.1-0.3l-0.2-0.2
	C190.5,21,190.4,21.1,190.4,21.2z M209.4,24h0.4c0,0,0,0,0,0c-0.1-0.1-0.1-0.2-0.2-0.3C209.6,23.8,209.5,23.9,209.4,24z M204.1,19.6
	l0.2,0.2c0.1-0.1,0.1-0.2,0.2-0.3l-0.2-0.2C204.2,19.4,204.1,19.5,204.1,19.6z M209.8,23.2c0,0.1,0,0.3,0,0.5l0.1,0
	c0.1-0.3,0.1-0.7,0.2-1.2C210,22.9,209.9,23,209.8,23.2z M208,19.3c0.1,0.1,0.1,0.2,0.2,0.3l0.1-0.2c0-0.1-0.1-0.2-0.2-0.3L208,19.3
	z M210.1,23.5l0.2-0.2C210.3,23.2,210.3,23,210.1,23.5z M214.5,24L214.5,24C214.5,24,214.5,23.9,214.5,24
	C214.5,23.9,214.5,24,214.5,24z M224.8,23.9c0.1,0,0.1,0.1,0.2,0.1h0.3c0.1-0.1,0.2-0.2,0.3-0.3c-0.1-0.1-0.3-0.1-0.7-0.2
	C224.9,23.5,224.8,23.7,224.8,23.9z M167,0c0.1,0.1,0.1,0.1,0.2,0.2l0,0.1v0c-0.1,0-0.1-0.1-0.2-0.2C166.9,0.1,167,0,167,0h-25.7
	c-0.1,0.1-0.1,0.1-0.2,0.2c0-0.1-0.1-0.1-0.1-0.2H-2.3v19.9c0.4,0,0.9-0.3,1.3-0.4c0,0.7,0.6,0.7,1,1c0.3,0.2,0.5,0.3,0.5-0.2
	c0-0.8,0-1.6-1.1-1.7l0-0.2c1.3-0.5,1.6,0.6,2,1.3c0.1,0.2,0.2,0.3,0.3,0.5C1.9,19.9,2,19.7,2,19.4c0,0,0-0.1,0-0.1l-0.4,0.1
	c0-0.1,0.1-0.2,0.1-0.3c0.1,0,0.2,0.1,0.3,0.1c0-0.5,0.2-0.7,0.8-0.5c0.6,0.2,1.1,0.4,1.7,0.6c0.2,0.1,0.6,0.2,0.6,0.2
	c0.6-1,1.2-0.2,1.8-0.1c0.3,0.1,0.7,0,1,0c0.5-0.1,0.8,0,1.1,0.4c0.4,0.4,0.9,0.9,0.9-0.2l0.6-0.2c0,0,0,0,0,0c0-0.2,0.1,0.1,0.2,0
	c0.2-0.2,0.4,0.4,0.8,0.4h0l0-0.5c0.2,0.5,0.4,0.9,0.5,1.5c0.1,0,0.1-0.1,0.3-0.1c1-0.7,1.4-0.7,2.2,0.1c0.2,0.1,0.2,0.4,0.3,0.6
	c0.1,0.1,0.2,0.2,0.3,0.3c0.1-0.1,0.2-0.3,0.2-0.4c0.3-1.2,0.3-1.2,1.1-0.7c0.5,0.3,0.4,0.3,0.9-0.6c0.2-0.4,0.9-0.7,1.3-0.6
	c0.7,0.2,1.3,0.2,2-0.1c0.6-0.3,3.4-0.5,4.1-0.5c0.5,0,1.3,1.5,1.6,1.2c0.6-0.6,0.8,0.5,1.2,0.2c1-0.8,2.1-0.5,3.2-0.7
	c0.7-0.1,1.6-0.3,2.1-0.5v0.1c0.5,0.5,1.7,0.2,2.4,0.1c1.1-0.2,2.1,0.6,3.2-0.1c0.1-0.1,0.5,0.1,0.6,0.2c0.7,0.8,1.2,0.3,1.9-0.5
	c0.6-0.7,0.5,0.1,0.5,0.3c0,0.8,0.3,1.1,1,0.5c0.1-0.1,0.3-0.2,0.3-0.2c0.5,0.2,1.4,0.7,1.5,0.6c0.6-0.6,1-1.5,1.4-1.4
	c0.6,0.2,1.3-0.3,1.8,0.3c0.1,0.1,0.6-0.2,1-0.3c0.4-0.2,0.8-0.2,0.8,0.4c0.1,0.5,0.3,0.4,0.6,0.1c0.3-0.4,0.7-0.4,0.9,0.1
	c0.1,0.2,0.2,0.4,0.3,0.6c0.1-0.1,0.2-0.3,0.2-0.4c0.2-0.4,0.3-0.9,0.4-1.3c0-0.1,0.2-0.2,0.3-0.2c0.1,0.1,0.2,0.3,0.2,0.4
	c0,0.7,0,1.5,1.1,0.7c0.1-0.1,0.5,0.1,0.7,0.2c0.3,0.2,0.5,0.9,0.8-0.2c0.2-0.7,1.6-0.5,2.4,0.2c0.2,0.2,0.6-0.7,0.8-0.8
	c0.8-0.4,0.7-0.4,1.2,0.1c0.2,0.3,0.5,0.6,0.8,0.9c0.2,0.2,0.4,0.3,0.5,0.4c0.1-0.2,0.1-0.4,0.2-0.7c0-0.3-0.1-0.7,0-1
	c0-0.1,0.4-0.3,0.6-0.3c0.1,0,0.4,0.1,0.4,0.2c0.1,0.3,0,0.7,0.1,1c0.1,0.4,0.1,0.8,0.2,1.2c0.6-0.3,0.1-0.8,0.3-1.2
	c0.1-0.3,0.2-0.5,0.4-0.7c0.1-0.1,0.4,0.1,0.6,0.3c0.2,0.2,0.3,0.5,0.5,0.8c0.1,0.2,0.5,0.4,0.5,0.3c0.2-0.2,0.3-0.4,0.4-0.7
	c0.1-0.1-0.1-0.4,0-0.5c0.1-0.2,0.3-0.3,0.5-0.3c0.2,0,0.4,0.3,0.4,0.4c0.1,0.7,0,1.4,0.9,0.4c0.3-0.3,0.8-0.3,1.3-0.5
	c0,0.2,0.1,0.3,0.1,0.5c0,0.2,0,0.3,0,0.5c0.2-0.1,0.5-0.1,0.6-0.2c0.5-0.6,1.7-0.9,2.5-0.6c0.6,0.2,0.9,0.3,0.9-0.4
	c0.1-0.5,0.3-0.5,0.5-0.1c0.1,0.3,0.3,0.6,0.5,0.8c0.3,0.3,0.5,0.3,0.5-0.2c0.1-0.3,0.3-0.6,0.5-0.8l0.4,0c0.1,1,0.4,0.6,0.8,0.2
	c0.3,0.8,1-0.2,1.5,0.3c0.2,0.2,0.9-0.3,1.4-0.4c0.4,0,0.9,0.1,1.4,0.2c0.7,0.2,1.6,0.2,2.5,0.1c0.5-0.1,1-0.2,1,0.6l0.4,0
	c0.3-0.4,0.6-0.3,1-0.1c0.3,0.2,0.9,1.5,1-0.1c0.8-0.1,1.6-0.3,2.4-0.2c0.4,0,0.7,0.5,1,0.8c0.4,0.4,0.3,0.4,0.5,0.1
	c0.1-0.3,0.3-0.5,0.4-0.8c0.3-0.6,0.5-0.6,0.9-0.1c0.2,0.3,0.4,0.5,0.6,0.8c0.1,0.3-0.2,0.9,0.4,0.9c0.2,0,0.4-0.3,0.6-0.5
	c0.2-0.4,0.3-0.9,0.4-1.3c0.1-0.2,0.1-0.4,0.2-0.7c0.1,0.2,0.2,0.4,0.3,0.6c0.1,0.2,0,0.5,0,0.7c0.1,1.2,0.5,0.2,0.8,0.1
	c0.4-0.2,0.9-0.3,1.3-0.5c0.6-0.3,0.9-0.1,0.9,0.6c0,0.3-0.1,0.7,0.1,1c0.1,0.3,0.4,0.5,0.7,0.7c0.1-0.2,0.2-0.5,0.3-0.7
	c0-0.2,0-0.5,0-0.7c0-0.5-0.2-1,0.6-1c0.6,0,0.9,0.2,0.9,0.8c0,0.2,0.2,0.4,0.2,0.6c0.1-0.2,0.2-0.4,0.2-0.6c0-0.3,0-0.7,0-1
	c0-0.1,0.1-0.3,0.2-0.4c0.1,0.1,0.2,0.2,0.3,0.4c0.1,0.7,0.1,1.5,0.1,2.2c0,0.1,0.2,0.2,0.3,0.3l0.2-0.2c-0.4-0.5,0.9-0.8,0.2-1.4
	c-0.4-0.4-0.2-0.7,0.1-1c0.1-0.1,0.2-0.2,0.3-0.4c0.1,0.1,0.3,0.2,0.3,0.3c0.1,0.4,0,0.8,0.1,1.2c0,0.1,0.2,0.3,0.2,0.4
	c0.1-0.2,0.2-0.4,0.2-0.6c0.2-0.5,0.5-0.5,0.9-0.2c0.6,0.5,1,0.5,1-0.4l0.4-0.1c0.2,0.3,0.5,0.6,0.5,1c0.1,0.6,0.1,1.3,0.1,2
	l0.2,0.2c0.1-0.1,0.3-0.2,0.3-0.2c-0.4-1.2,0.6-1.9,0.9-2.9c0-0.1,0.2-0.2,0.2-0.4c0.1,0.1,0.2,0.2,0.2,0.4c0,0.2,0,0.5,0.1,0.7
	c0.1,0.4,0.2,0.8,0.3,1.3c0.2-0.4,0.4-0.8,0.6-1.2c0.1-0.2,0.2-0.4,0.3-0.7c0.6,0.9,0.9-0.6,1.3-0.1c0.4,0.5,0.7,1.1-0.1,1.5
	c0-0.6-0.5-0.6-0.8-0.4c-0.4,0.4-0.4,0.8,0.3,0.9c0,0.2,0,0.3,0,0.5c0,0.1,0.1,0.3,0.2,0.4c0.1-0.1,0.2-0.3,0.3-0.4
	c0-0.1,0-0.3,0-0.5c0.2-0.5,1,1.4,1-0.2c0-0.5-0.1-1-0.1-1.5c0-0.1,0.2-0.2,0.2-0.4c0.1,0.1,0.2,0.2,0.2,0.4
	c0.1,0.4,0.2,0.7,0.3,1.1c0.1,0.2,0.3,0.3,0.5,0.4c0.1-0.2,0.1-0.4,0.2-0.7c0.1-0.3,0.2-0.5,0.3-0.7c0.2,0.2,0.7,0.4,0.7,0.7
	c0,0.6,0.6,0.1,0.6-0.6c0.1,0,0.3,0,0.3,0c0.1,0.1,0.1,0.3,0.1,0.5c0,0.4,0,0.9,0.6,0.8c0.2,0,0.3-0.5,0.4-0.7
	c0.1-0.2,0.1-0.5,0.1-0.7c0.9,0.6,1.1-0.3,1.5-0.7c0.1,0.2,0.3,0.5,0.3,0.6c-0.3,0.5-0.6,1-0.4,1.6c0.1,0.3,0.4,0.5,0.7,0.7
	c0.1-0.2,0.3-0.5,0.3-0.7c0-0.4-0.1-0.8,0-1.2c0-0.3-0.3-1,0.3-0.8c0.3,0.2,1.3-0.1,1.2,0.8c0,0.2,0,0.5,0,0.7
	c-0.1,0.2-0.6,0.5-0.1,0.7c0.5,0.2,0.7-0.1,0.7-0.7c0-0.2-0.1-0.4,0-0.5c0.3-0.3,0.7-0.6,1.1-0.8c0.1,0,0.4,0.5,0.5,0.8
	c0.1,0.2,0.2,0.4,0.3,0.6c0.1,0.1,0.2,0.3,0.2,0.4c0.1-0.2,0.2-0.4,0.2-0.6c0-0.2-0.1-0.5,0.1-0.7c0.1-0.2,0.4-0.2,0.6-0.2
	c0,0.2,0,0.4,0,0.5c0.1,0.3,0.3,0.6,0.4,0.9c0.1-0.1,0.2-0.3,0.3-0.4l0-0.2c0.7-1.7,0.8-1.7,1.9-0.2c0.1,0.1,0.2,0.2,0.3,0.3
	c0.1-0.1,0.2-0.3,0.2-0.4c0-0.2-0.1-0.4,0-0.5c0.1-0.2,0.3-0.4,0.5-0.6c0.1,0.1,0.3,0.3,0.4,0.4c0.1,0.1,0,0.3,0,0.5
	c0.1,0.2,0.2,0.5,0.4,0.5c0.2,0,0.5-0.1,0.6-0.3c0.1-0.2,0.1-0.4,0.2-0.7c0.1,0.2,0.3,0.3,0.3,0.5c0.1,0.2,0,0.6,0.1,0.7
	c0.2,0.2,0.6,0.4,0.9,0.5c-0.1-0.3-0.2-0.6-0.2-0.8c0-0.2,0-0.3,0.1-0.5c0.2,0.1,0.6,0.1,0.6,0.2c0.1,0.3,0.1,0.6,0.1,1
	c0,0,0.3,0,0.5,0c-0.1-0.8,0.1-0.7,0.7-0.4c0.4,0.2,1.1-0.2,1.6-0.3c0,0.7,0.6,0.7,1,1c0.3,0.2,0.5,0.3,0.5-0.2c0-0.8,0-1.6-1.1-1.7
	l0-0.2c1.3-0.5,1.6,0.6,2,1.3c0.1,0.2,0.2,0.3,0.3,0.5c0.1-0.2,0.2-0.5,0.1-0.7c-0.1-0.6,0.1-0.9,0.8-0.7c0.6,0.2,1.1,0.4,1.7,0.6
	c0.2,0.1,0.6,0.2,0.6,0.2c0.6-1,1.2-0.2,1.8-0.1c0.3,0.1,0.7,0,1,0c0.5-0.1,0.8,0,1.1,0.4c0.4,0.4,0.9,0.9,0.9-0.2l0.6-0.2
	c0.2,0.2,0.2,0.5,0.4,0.8c0.1,0.2,0.2,0.4,0.3,0.6c0.1-0.2,0.1-0.4,0.2-0.6c0.2-0.5,0.4-0.4,0.5,0c0.1,0.1,0.2,0.1,0.3-0.3h0
	c0.1,0,0.2-0.1,0.4,0c-0.2,0.3-0.3,0.6-0.5,0.8c0.1,0,0.1-0.1,0.2-0.1c1-0.7,1.4-0.7,2.2,0.1c0.2,0.1,0.2,0.4,0.3,0.6
	c0.1,0.1,0.2,0.2,0.3,0.3c0.1-0.1,0.2-0.3,0.2-0.4c0.3-1.2,0.3-1.2,1.1-0.7c0.5,0.3,0.4,0.3,0.9-0.6c0.2-0.4,0.9-0.7,1.3-0.6
	c0.7,0.2,1.3,0.2,2-0.1c0.6-0.3,3.4-0.5,4.1-0.5c0.5,0,1.3,1.5,1.6,1.2c0.6-0.6,0.8,0.5,1.2,0.2c1-0.8,2.1-0.5,3.2-0.7
	c0.7-0.1,1.6-0.3,2.1-0.5v0.1c0.5,0.5,1.7,0.2,2.4,0.1c1.1-0.2,2.1,0.6,3.2-0.1c0.1-0.1,0.5,0.1,0.6,0.2c0.7,0.8,1.2,0.3,1.9-0.5
	c0.6-0.7,0.5,0.1,0.5,0.3c0,0.8,0.3,1.1,1,0.5c0.1-0.1,0.3-0.2,0.3-0.2c0.5,0.2,1.4,0.7,1.5,0.6c0.6-0.6,1-1.5,1.4-1.4
	c0.6,0.2,1.3-0.3,1.8,0.3c0.1,0.1,0.6-0.2,1-0.3c0.4-0.2,0.8-0.2,0.8,0.4c0.1,0.5,0.3,0.4,0.6,0.1c0.3-0.4,0.7-0.4,0.9,0.1
	c0.1,0.2,0.2,0.4,0.3,0.6c0.1-0.1,0.2-0.3,0.2-0.4c0.2-0.4,0.3-0.9,0.4-1.3c0-0.1,0.2-0.2,0.3-0.2c0.1,0.1,0.2,0.3,0.2,0.4
	c0,0.7,0,1.5,1.1,0.7c0.1-0.1,0.5,0.1,0.7,0.2c0.3,0.2,0.5,0.9,0.8-0.2c0.2-0.7,1.6-0.5,2.4,0.2c0.2,0.2,0.6-0.7,0.8-0.8
	c0.8-0.4,0.7-0.4,1.2,0.1c0.2,0.3,0.5,0.6,0.8,0.9c0.2,0.2,0.4,0.3,0.5,0.4c0.1-0.2,0.1-0.4,0.2-0.7c0-0.3-0.1-0.7,0-1
	c0-0.1,0.4-0.3,0.6-0.3c0.1,0,0.4,0.1,0.4,0.2c0.1,0.3,0,0.7,0.1,1c0.1,0.4,0.1,0.8,0.2,1.2c0.6-0.3,0.1-0.8,0.3-1.2
	c0.1-0.3,0.2-0.5,0.4-0.7c0.1-0.1,0.4,0.1,0.6,0.3c0.2,0.2,0.3,0.5,0.5,0.8c0.1,0.2,0.5,0.4,0.5,0.3c0.2-0.2,0.3-0.4,0.4-0.7
	c0.1-0.1-0.1-0.4,0-0.5c0.1-0.2,0.3-0.3,0.5-0.3c0.2,0,0.4,0.3,0.4,0.4c0.1,0.7,0,1.4,0.9,0.4c0.3-0.3,0.8-0.3,1.3-0.5
	c0,0.2,0.1,0.3,0.1,0.5c0,0.2,0,0.3,0,0.5c0.2-0.1,0.5-0.1,0.6-0.2c0.5-0.6,1.7-0.9,2.5-0.6c0.6,0.2,0.9,0.3,0.9-0.4
	c0.1-0.5,0.3-0.5,0.5-0.1c0.1,0.3,0.3,0.6,0.5,0.8c0.3,0.3,0.5,0.3,0.5-0.2c0.1-0.3,0.3-0.6,0.5-0.8l0.4,0c0.1,1,0.4,0.6,0.8,0.2
	c0.3,0.8,1-0.2,1.5,0.3c0.2,0.2,0.9-0.3,1.4-0.4c0.4,0,0.9,0.1,1.4,0.2c0.7,0.2,1.6,0.2,2.5,0.1c0.5-0.1,1-0.2,1,0.6l0.4,0
	c0.3-0.4,0.6-0.3,1-0.1c0.3,0.2,0.9,1.5,1-0.1c0.8-0.1,1.6-0.3,2.4-0.2c0.4,0,0.7,0.5,1,0.8c0.4,0.4,0.3,0.4,0.5,0.1
	c0.1-0.3,0.3-0.5,0.4-0.8c0.3-0.6,0.5-0.6,0.9-0.1c0.2,0.3,0.4,0.5,0.6,0.8c0.1,0.3-0.2,0.9,0.4,0.9c0.2,0,0.4-0.3,0.6-0.5
	c0.2-0.4,0.3-0.9,0.4-1.3c0.1-0.2,0.1-0.4,0.2-0.7c0.1,0.2,0.2,0.4,0.3,0.6c0.1,0.2,0,0.5,0,0.7c0.1,1.2,0.5,0.2,0.8,0.1
	c0.4-0.2,0.9-0.3,1.3-0.5c0.6-0.3,0.9-0.1,0.9,0.6c0,0.3-0.1,0.7,0.1,1c0.1,0.3,0.4,0.5,0.7,0.7c0.1-0.2,0.2-0.5,0.3-0.7
	c0-0.2,0-0.5,0-0.7c0-0.5-0.2-1,0.6-1c0.6,0,0.9,0.2,0.9,0.8c0,0.2,0.2,0.4,0.2,0.6c0.1-0.2,0.2-0.4,0.2-0.6c0-0.3,0-0.7,0-1
	c0-0.1,0.1-0.3,0.2-0.4c0.1,0.1,0.1,0.2,0.2,0.3V0H167z M-2,8.3L-2,8.3c-0.1,0-0.2,0-0.3-0.1c0,0,0,0,0,0C-2.1,8.2-2,8.2-2,8.3
	L-2,8.3z M1.7,3L1.7,3C1.7,3,1.6,3,1.5,2.9l0,0C1.6,2.9,1.7,3,1.7,3L1.7,3z M2.4,12.1c-0.1,0-0.1-0.1-0.2-0.1l0,0l0,0
	C2.3,11.9,2.4,12,2.4,12.1C2.5,12,2.5,12,2.4,12.1z M3,1.5C3,1.5,3,1.5,3,1.5c0.1-0.1,0.1-0.1,0.2-0.1c0,0,0,0,0,0
	C3.2,1.5,3.1,1.5,3,1.5z M3.9,10.6c0-0.1-0.1-0.2-0.1-0.3l0,0C3.9,10.4,3.9,10.5,3.9,10.6L3.9,10.6z M10.5,2.8
	c0,0.1,0.1,0.1,0.1,0.2l0,0C10.5,3,10.5,2.9,10.5,2.8L10.5,2.8z M7,8.3L7,8.3c-0.1,0-0.2,0-0.3-0.1c0,0,0,0,0,0
	C6.8,8.2,6.9,8.2,7,8.3L7,8.3z M7.5,12.8c0,0-0.1-0.2-0.1-0.3c0-0.1,0-0.2-0.1-0.3c0.1,0,0.3,0,0.4,0l0.2,0c0.4,0.1,0.8,0.3,1.2,0.5
	c0,0,0,0.1,0,0.2c0,0.1,0,0.1,0,0.2C8.5,12.9,8,12.9,7.5,12.8z M9.9,7.5c-0.4-0.4-0.7-0.8-1-1.2C8.9,6.2,9,6.1,9.1,6l0.1-0.2l0,0
	c0.5,0.2,1,0.5,1.6,0.8C10.5,7,10.2,7.3,9.9,7.5z M12.2,0.7C12.2,0.7,12.2,0.7,12.2,0.7c0,0.1-0.1,0.1-0.2,0.1c0,0,0,0,0,0
	C12,0.7,12.1,0.7,12.2,0.7z M11.6,18.7l0,0.2c0,0,0,0,0,0L11.6,18.7C11.6,18.7,11.6,18.7,11.6,18.7l0-0.2c0.1,0,0.3-0.7,0.5-0.6
	l0.1,0.1l0,0C12.1,18.1,11.9,18.3,11.6,18.7z M13.4,2.3C13.4,2.3,13.4,2.3,13.4,2.3c0.1-0.1,0.1-0.1,0.2-0.1c0,0,0,0,0,0
	C13.6,2.2,13.5,2.3,13.4,2.3z M16.4,10.9c-0.3-0.2-0.7-0.4-1-0.5c0.5-0.3,1-0.7,1.5-0.7l0,0L17,9.7c0.2,0.1,0.4,0.4,0.6,0.7
	C17.3,10.5,16.9,10.7,16.4,10.9z M22.5,12.9c0,0-0.1,0.2-0.3,0.3c-0.1,0.1-0.3,0.2-0.4,0.3c-0.1-0.3-0.2-0.7-0.4-1
	c0.1-0.3,0.2-0.5,0.4-0.7C22.1,12.2,22.4,12.6,22.5,12.9L22.5,12.9z M22.8,5.4L22.8,5.4c-0.2-0.1-0.3-0.3-0.5-0.4
	c0.2-0.3,0.4-0.6,0.6-0.7l0,0c0.1,0,0.4,0.2,0.8,0.5C23.3,5.1,23,5.4,22.8,5.4z M24.7,15.8c0-0.1-0.1-0.2-0.1-0.2l0,0
	C24.7,15.7,24.8,15.7,24.7,15.8L24.7,15.8z M26.2,18.1c0-0.1-0.1-0.1-0.1-0.2c0,0,0,0,0,0C26.2,17.9,26.2,18,26.2,18.1L26.2,18.1z
	 M26.4,11.1c-0.1,0.1-0.1,0.1-0.2,0.2c0,0,0,0,0,0l0-0.1C26.2,11.1,26.3,11.1,26.4,11.1L26.4,11.1z M30,10.3L30,10.3
	c0,0.1,0,0.2-0.1,0.3l0,0l0,0C29.9,10.5,29.9,10.4,30,10.3z M30,15.8L30,15.8c-0.1,0-0.1-0.1-0.1-0.2l0,0C29.9,15.7,30,15.7,30,15.8
	z M29.1,0.6c0,0.1,0.1,0.2,0.1,0.3l0,0C29.2,0.8,29.1,0.7,29.1,0.6L29.1,0.6z M27.8,11.1c0,0.1-0.1,0.2-0.2,0.3
	c-0.3-0.2-0.6-0.4-0.9-0.6c0-0.1,0.1-0.2,0.2-0.3c0.1-0.1,0.2-0.3,0.2-0.4c0.4,0.3,0.7,0.6,0.7,0.8l0,0C27.9,10.9,27.8,11,27.8,11.1
	z M28.4,8.3L28.4,8.3c-0.4-0.1-0.7-0.2-0.9-0.4c0,0,0.1-0.2,0.1-0.3c0-0.1,0.1-0.2,0.1-0.3c0.3,0.3,0.5,0.5,0.8,0.8
	C28.5,8.2,28.5,8.3,28.4,8.3z M29.1,18.8c0-0.1-0.1-0.1-0.1-0.2c0-0.1-0.1-0.2-0.1-0.2c0.3-0.5,0.6-0.9,0.9-1.4
	c0.3,0.3,0.6,0.6,0.9,0.9C30.2,18.2,29.7,18.5,29.1,18.8z M35.8,6.8C35.8,6.8,35.8,6.8,35.8,6.8c0-0.1,0.1-0.1,0.2-0.1c0,0,0,0,0,0
	C35.9,6.7,35.9,6.8,35.8,6.8z M39.7,3.1c-0.1,0-0.1-0.1-0.2-0.1l0,0l0,0C39.6,2.9,39.7,3,39.7,3.1C39.7,3,39.7,3,39.7,3.1z M41,3
	c0.1-0.1,0.3-0.2,0.5-0.3c0.2,0.3,0.4,0.5,0.6,0.8l0,0c0,0,0,0.1-0.1,0.2c0,0,0,0.1-0.1,0.1C41.6,3.5,41.3,3.2,41,3z M41.8,17.9
	c-0.1-0.3-0.2-0.6-0.2-0.9l0,0v0c0-0.2,0.1-0.3,0.2-0.6c0.1,0.2,0.2,0.5,0.4,0.8C42.1,17.4,42,17.7,41.8,17.9z M42.5,15.9
	C42.5,15.8,42.5,15.8,42.5,15.9c0-0.2,0-0.2,0.1-0.3l0.1,0l0,0C42.7,15.7,42.6,15.8,42.5,15.9z M43.3,12.1
	C43.2,12,43.2,12,43.3,12.1c0-0.1,0.1-0.1,0.2-0.1c0,0,0,0,0,0C43.4,12,43.3,12,43.3,12.1z M45.2,6.2L45.2,6.2c-0.1,0-0.2,0-0.3-0.1
	c-0.1,0-0.1-0.1-0.2-0.1c0.2-0.2,0.3-0.4,0.5-0.6c0.2-0.2,0.3-0.3,0.4-0.3c0.1,0,0.2,0.1,0.4,0.3c0.1,0.1,0.2,0.3,0.4,0.4
	C45.9,6,45.6,6.1,45.2,6.2z M48.6,5.5L48.6,5.5L48.6,5.5L48.6,5.5c0,0.1,0,0.1-0.1,0.3c0,0.1-0.1,0.1-0.1,0.2
	c-0.2-0.5-0.3-0.8-0.5-1.1c0.1,0,0.1-0.1,0.2-0.1c0.1,0,0.2-0.1,0.2-0.1l0,0c0.1,0,0.2,0.1,0.2,0.1c0,0,0,0.1,0,0.2
	C48.6,5.2,48.6,5.3,48.6,5.5z M48.8,16.7C48.8,16.7,48.9,16.7,48.8,16.7c0.1,0,0.1-0.1,0.2-0.1c0,0.1,0.1,0.2,0.1,0.3L48.8,16.7z
	 M55.1,12.1c-0.1,0.1-0.1,0.2-0.2,0.3c-0.3-0.6-0.6-1.1-0.9-1.6c0,0,0-0.1,0.1-0.2c0,0,0.1-0.1,0.1-0.1C54.5,11,54.8,11.5,55.1,12.1
	L55.1,12.1z M64,16L64,16c-0.1,0-0.2,0-0.3-0.1c0,0,0,0,0,0C63.8,15.9,63.9,15.9,64,16L64,16z M66.1,16.1C66.1,16,66,15.9,66,15.9
	l0-0.1v0C66.1,15.9,66.2,15.9,66.1,16.1C66.2,16,66.2,16,66.1,16.1z M66.8,13C66.8,13,66.8,13,66.8,13c0-0.1,0-0.2,0.1-0.3l0,0l0,0
	C66.9,12.9,66.8,13,66.8,13z M68.5,14.6L68.5,14.6c0,0-0.1,0-0.2-0.1c0,0-0.1,0-0.1-0.1c0.2-0.1,0.4-0.2,0.6-0.3
	c0.1,0.1,0.3,0.2,0.4,0.2C68.9,14.5,68.7,14.6,68.5,14.6z M78.1,11.6c0-0.1-0.1-0.2-0.1-0.3l0,0C78,11.4,78.1,11.5,78.1,11.6
	L78.1,11.6z M79.5,13.1c0-0.1-0.1-0.2-0.1-0.3l0,0C79.5,12.9,79.5,13,79.5,13.1L79.5,13.1z M81.6,3.2c0.1,0,0.2-0.1,0.2-0.1
	c0,0,0,0,0,0C81.8,3.2,81.7,3.2,81.6,3.2C81.6,3.2,81.6,3.2,81.6,3.2z M82.4,14.8c-0.3-0.1-0.5-0.2-0.6-0.3c0.1-0.1,0.3-0.2,0.4-0.3
	l0,0c0,0,0.1,0,0.2,0.1c0,0,0.1,0.1,0.2,0.1C82.5,14.5,82.4,14.6,82.4,14.8z M87.1,5.3c0,0-0.1,0.1-0.1,0.2
	c-0.1-0.1-0.3-0.1-0.4-0.2c0.1-0.3,0.2-0.5,0.3-0.6C87,4.9,87.1,5,87.2,5.1l0,0l0,0C87.2,5.2,87.1,5.2,87.1,5.3z M91.6,16.8
	l-0.3-0.2c0.3-0.3,0.5-0.5,0.8-0.7c0.1,0.1,0.1,0.2,0.2,0.2l0.1,0.1C92.1,16.5,91.9,16.7,91.6,16.8z M92.3,12.9
	C92.3,12.8,92.3,12.8,92.3,12.9c0.1,0,0.1,0,0.1,0C92.4,12.8,92.3,12.9,92.3,12.9z M92.6,12.7c0,0-0.1,0-0.1,0
	C92.5,12.8,92.6,12.7,92.6,12.7L92.6,12.7C92.6,12.7,92.6,12.7,92.6,12.7c0.3-0.1,0.6-0.2,1-0.3c0,0.1,0.1,0.2,0.2,0.3
	C93.3,12.8,93,12.8,92.6,12.7z M94.4,1c0,0-0.1,0.1-0.1,0.1c0-0.3-0.1-0.5-0.1-0.7l0-0.1c0,0,0.1,0,0.1-0.1c0,0,0.1,0,0.1,0
	c0.1,0.3,0.1,0.5,0.2,0.7C94.6,0.9,94.5,0.9,94.4,1z M98.8,9.2c-0.1-0.1-0.1-0.3-0.2-0.6c0.3-0.1,0.6-0.3,0.9-0.3l0,0
	c0,0,0.1,0,0.2,0.1c0,0,0.1,0.1,0.1,0.1L98.8,9.2z M99.6,5.5L99.6,5.5L99.6,5.5c0-0.1,0-0.2,0.1-0.3c0,0,0.1,0.1,0.1,0.1
	C99.7,5.4,99.6,5.5,99.6,5.5z M100.5,4.7c0,0-0.1,0.1-0.1,0.1c-0.1-0.1-0.2-0.3-0.3-0.4c0.1-0.2,0.2-0.3,0.4-0.5
	c0.1,0.2,0.2,0.4,0.2,0.6l0,0C100.6,4.5,100.5,4.6,100.5,4.7z M103.3,10.8C103.3,10.8,103.3,10.8,103.3,10.8c0-0.1,0-0.2,0.1-0.3
	l0,0l0,0C103.4,10.6,103.4,10.7,103.3,10.8z M106.2,8.5C106.2,8.5,106.2,8.5,106.2,8.5c0-0.1,0.1-0.1,0.2-0.1c0,0,0,0,0,0
	C106.4,8.4,106.3,8.5,106.2,8.5z M107.7,4.8C107.7,4.7,107.7,4.7,107.7,4.8c0-0.1,0.1-0.1,0.2-0.1c0,0,0,0,0,0
	C107.9,4.7,107.8,4.7,107.7,4.8z M110.7,13.8L110.7,13.8c0-0.1,0.1-0.1,0.2-0.1c0,0,0,0,0,0C110.9,13.7,110.8,13.7,110.7,13.8z
	 M111.2,8.7c-0.2-0.2-0.4-0.5-0.6-0.8l0,0c0,0,0-0.1,0.1-0.2c0,0,0-0.1,0.1-0.1l1,0.7C111.5,8.5,111.4,8.6,111.2,8.7z M112.4,13.6
	c-0.1-0.2-0.3-0.4-0.4-0.6c0.1-0.3,0.2-0.5,0.3-0.7c0.1,0.2,0.3,0.5,0.3,0.7l0,0l0,0.1C112.5,13.2,112.4,13.4,112.4,13.6z M114.7,5
	c-0.2,0.1-0.3,0.3-0.5,0.5c-0.1-0.5-0.3-0.9-0.4-1.4c0.1-0.3,0.2-0.6,0.4-1c0.4,0.5,0.8,0.9,0.9,1.4l0,0C115,4.6,114.9,4.8,114.7,5z
	 M120.9,3.8c-0.1-0.2-0.3-0.5-0.3-0.7l0,0l0-0.1c0-0.2,0.1-0.4,0.1-0.6c0.1,0.2,0.3,0.4,0.4,0.6C121.1,3.3,121,3.6,120.9,3.8z
	 M122.4,2.3L122.4,2.3c0,0.1-0.1,0.1-0.2,0.1c0,0,0,0,0,0C122.3,2.4,122.3,2.3,122.4,2.3z M122.5,8.3c0,0,0,0.1-0.1,0.1l-1-0.7
	c0.1-0.1,0.3-0.2,0.5-0.3c0.2,0.2,0.4,0.5,0.6,0.8l0,0C122.6,8.1,122.5,8.2,122.5,8.3z M125.2,11.4
	C125.2,11.4,125.2,11.4,125.2,11.4c0-0.1,0.1-0.1,0.2-0.1c0,0,0,0,0,0C125.4,11.4,125.3,11.4,125.2,11.4z M126.7,7.7
	C126.7,7.7,126.7,7.7,126.7,7.7c0-0.1,0.1-0.1,0.2-0.1c0,0,0,0,0,0C126.9,7.6,126.8,7.7,126.7,7.7z M129.7,5.5L129.7,5.5L129.7,5.5
	c0-0.1,0-0.2,0.1-0.3c0,0,0,0,0,0C129.8,5.4,129.8,5.4,129.7,5.5z M132.8,12.1c-0.1-0.2-0.2-0.4-0.2-0.6l0,0c0,0,0-0.1,0.1-0.1
	c0,0,0.1-0.1,0.1-0.1c0.1,0.1,0.2,0.3,0.3,0.4C133,11.9,132.9,12,132.8,12.1z M133.5,10.8C133.4,10.7,133.4,10.7,133.5,10.8
	c0-0.2,0-0.2,0.1-0.3l0.1,0l0,0C133.6,10.6,133.5,10.7,133.5,10.8z M133.7,7.8L133.7,7.8c0,0-0.1,0-0.2-0.1c0,0-0.1-0.1-0.1-0.1
	l1-0.7c0.1,0.1,0.1,0.3,0.2,0.6C134.3,7.6,134,7.8,133.7,7.8z M138.9,15.8c0,0-0.1,0-0.1,0.1c0,0-0.1,0-0.1,0
	c-0.1-0.3-0.1-0.5-0.2-0.7c0,0,0.1-0.1,0.2-0.1c0,0,0.1-0.1,0.1-0.1C138.9,15.3,138.9,15.5,138.9,15.8L138.9,15.8z M140.6,3.3
	L140.6,3.3C140.5,3.3,140.5,3.3,140.6,3.3c-0.3,0.1-0.6,0.2-1,0.3c0-0.1-0.1-0.2-0.2-0.3C139.8,3.2,140.2,3.3,140.6,3.3
	C140.6,3.3,140.6,3.3,140.6,3.3C140.6,3.3,140.6,3.3,140.6,3.3z M140.8,3.3C140.8,3.2,140.8,3.2,140.8,3.3
	C140.8,3.2,140.8,3.2,140.8,3.3C140.9,3.2,140.8,3.3,140.8,3.3z M146.3,11.4c-0.1-0.1-0.2-0.3-0.3-0.4l0,0l0,0c0,0,0-0.1,0.1-0.2
	c0,0,0.1-0.1,0.1-0.2c0.1,0.1,0.3,0.1,0.4,0.2C146.4,11,146.3,11.2,146.3,11.4z M151,1.8c0,0-0.1,0-0.2-0.1c0,0-0.1-0.1-0.2-0.1
	c0.1-0.1,0.1-0.3,0.2-0.4c0.3,0.1,0.5,0.2,0.6,0.3C151.2,1.7,151.1,1.8,151,1.8L151,1.8z M151.3,12.9
	C151.3,12.9,151.3,12.9,151.3,12.9c0-0.1,0.1-0.1,0.2-0.1c0,0,0,0,0,0C151.4,12.9,151.4,12.9,151.3,12.9z M153.7,3.3
	c0-0.1-0.1-0.2-0.1-0.3l0,0C153.6,3.1,153.7,3.2,153.7,3.3L153.7,3.3z M155.2,4.8c0-0.1-0.1-0.2-0.1-0.3l0,0
	C155.1,4.6,155.2,4.7,155.2,4.8L155.2,4.8z M164.4,1.9c-0.1-0.1-0.3-0.2-0.4-0.2c0.2-0.1,0.4-0.2,0.6-0.2l0,0c0,0,0.1,0,0.2,0.1
	c0,0,0.1,0.1,0.1,0.1C164.7,1.7,164.5,1.8,164.4,1.9z M166.3,3.3L166.3,3.3L166.3,3.3c0-0.1,0-0.2,0.1-0.3c0,0,0,0,0,0
	C166.3,3.1,166.3,3.2,166.3,3.3z M169.4,0.2c-0.1,0-0.1-0.1-0.2-0.1l0,0l0,0C169.2,0.1,169.3,0.1,169.4,0.2
	C169.4,0.2,169.4,0.2,169.4,0.2z M175.2,18.3L175.2,18.3L175.2,18.3c0-0.1,0-0.2,0.1-0.3l0,0C175.3,18.1,175.2,18.2,175.2,18.3z
	 M179.1,5.4c0,0-0.1,0.1-0.1,0.1c-0.3-0.5-0.7-1-0.9-1.5l0,0c0.1-0.1,0.1-0.2,0.2-0.3c0.3,0.6,0.6,1.1,0.9,1.6
	C179.2,5.3,179.1,5.3,179.1,5.4z M185.1,11.3c-0.1,0-0.2,0.1-0.2,0.1l0,0c-0.1,0-0.2-0.1-0.2-0.1c0,0,0-0.1,0-0.2c0-0.1,0-0.3,0-0.5
	l0-0.1l0,0v0c0,0,0-0.1,0.1-0.2c0-0.1,0.1-0.1,0.1-0.2c0.2,0.5,0.3,0.8,0.5,1.1C185.2,11.2,185.1,11.3,185.1,11.3z M185.3,18.5
	L185.3,18.5c0-0.1,0-0.2,0.1-0.3l0,0l0,0C185.4,18.3,185.3,18.4,185.3,18.5z M188,10.7c-0.2,0.2-0.3,0.3-0.4,0.3
	c-0.1,0-0.2-0.1-0.4-0.3c-0.1-0.1-0.2-0.3-0.4-0.4c0.4-0.1,0.8-0.3,1.1-0.4l0,0c0.1,0,0.1,0,0.3,0.1c0.1,0,0.1,0.1,0.2,0.1
	C188.3,10.3,188.1,10.5,188,10.7z M189.7,4.1C189.7,4.1,189.7,4.1,189.7,4.1c0-0.1,0.1-0.1,0.2-0.1c0,0,0,0,0,0
	C189.8,4.1,189.8,4.1,189.7,4.1z M190.5,0.4L190.5,0.4L190.5,0.4c0-0.1,0-0.2,0.1-0.3c0,0,0.1,0.1,0.1,0.1
	C190.6,0.3,190.6,0.4,190.5,0.4z M191.6,13.4c-0.2-0.3-0.4-0.5-0.6-0.8l0,0c0,0,0-0.1,0.1-0.2c0,0,0-0.1,0.1-0.1
	c0.3,0.3,0.6,0.5,0.9,0.8C192,13.2,191.9,13.3,191.6,13.4z M193.7,13.1L193.7,13.1c-0.1,0-0.2,0-0.3-0.1c0,0,0,0,0,0
	C193.5,13,193.6,13.1,193.7,13.1L193.7,13.1z M197.2,9.4C197.2,9.4,197.1,9.4,197.2,9.4c0-0.1,0.1-0.1,0.2-0.1c0,0,0,0,0,0
	C197.3,9.3,197.2,9.4,197.2,9.4z M203.2,0.2c0,0.1,0.1,0.2,0.1,0.2l0,0C203.2,0.4,203.2,0.3,203.2,0.2L203.2,0.2z M203.2,5.7
	L203.2,5.7c0-0.1,0-0.2,0.1-0.3l0,0l0,0C203.3,5.5,203.2,5.6,203.2,5.7z M204,15.5c0-0.1-0.1-0.2-0.1-0.3l0,0
	C204,15.3,204,15.4,204,15.5L204,15.5z M205.5,8.4c0,0.1-0.1,0.2-0.1,0.3c-0.3-0.3-0.5-0.5-0.8-0.8c0-0.1,0.1-0.1,0.1-0.2l0-0.1
	c0.3,0.1,0.7,0.3,0.9,0.5C205.6,8.2,205.6,8.3,205.5,8.4z M206.2,5.6c-0.1,0.1-0.2,0.3-0.2,0.4c-0.4-0.3-0.7-0.6-0.7-0.8l0,0
	c0,0,0-0.2,0.1-0.3c0-0.1,0.1-0.2,0.2-0.3c0.3,0.2,0.6,0.4,0.9,0.6C206.4,5.3,206.3,5.5,206.2,5.6z M206.7,5L206.7,5
	c0.1-0.1,0.1-0.2,0.2-0.2c0,0,0,0,0,0l0,0.1C206.9,4.9,206.8,5,206.7,5z M208.5,0.5c0-0.1-0.1-0.1-0.1-0.2l0,0
	C208.4,0.3,208.5,0.4,208.5,0.5L208.5,0.5z M210.2,11.8L210.2,11.8c-0.1,0-0.4-0.2-0.8-0.5c0.4-0.3,0.7-0.6,0.9-0.7l0.1,0
	c0.1,0.1,0.3,0.2,0.4,0.4C210.6,11.3,210.4,11.6,210.2,11.8z M211.4,4.2c-0.3-0.4-0.7-0.7-0.7-1v0c0,0,0.1-0.2,0.3-0.3
	c0.1-0.1,0.3-0.2,0.4-0.3c0.1,0.3,0.2,0.7,0.4,1C211.6,3.8,211.5,4,211.4,4.2z M212.3,17.5c0,0-0.1,0.1-0.1,0.2
	c-0.1-0.1-0.3-0.1-0.4-0.2c0.1-0.3,0.2-0.5,0.3-0.6c0.1,0.1,0.2,0.3,0.3,0.4l0,0l0,0C212.4,17.3,212.3,17.4,212.3,17.5z M216.7,17
	c0-0.1-0.1-0.2-0.1-0.3l0,0C216.6,16.8,216.7,16.9,216.7,17L216.7,17z M216.2,6.5L216.2,6.5l-0.1-0.1c-0.2-0.1-0.4-0.4-0.6-0.7
	c0.4-0.2,0.8-0.3,1.2-0.5c0.3,0.2,0.7,0.4,1,0.5C217.2,6,216.7,6.4,216.2,6.5z M219.5,13.9C219.5,13.9,219.5,13.9,219.5,13.9
	c0.1-0.1,0.1-0.1,0.2-0.1c0,0,0,0,0,0C219.7,13.8,219.6,13.9,219.5,13.9z M221,15.4C221,15.4,221,15.4,221,15.4
	c0-0.1,0.1-0.1,0.2-0.1c0,0,0,0,0,0C221.1,15.3,221.1,15.4,221,15.4z M222.6,13.2c0-0.1-0.1-0.1-0.1-0.2l0,0
	C222.6,13,222.6,13.1,222.6,13.2L222.6,13.2z M225.4,3.9l-0.2,0c-0.4-0.1-0.8-0.3-1.2-0.5c0,0,0-0.1,0-0.2c0-0.1,0-0.1,0-0.2
	c0.6,0,1.1,0,1.6,0.2c0,0,0.1,0.2,0.1,0.3c0,0.1,0,0.2,0.1,0.3C225.6,3.9,225.5,3.9,225.4,3.9z M226.4,7.9c-0.1,0-0.1-0.1-0.2-0.1
	l0,0l0,0C226.3,7.8,226.4,7.8,226.4,7.9C226.4,7.9,226.4,7.9,226.4,7.9z M229.3,5.7c0-0.1-0.1-0.2-0.1-0.3l0,0
	C229.3,5.5,229.3,5.6,229.3,5.7L229.3,5.7z M229.9,14.6C229.9,14.6,229.9,14.6,229.9,14.6c0.1-0.1,0.1-0.1,0.2-0.1c0,0,0,0,0,0
	C230.1,14.6,230,14.6,229.9,14.6z M230.9,4.1L230.9,4.1c-0.1,0-0.2,0-0.3-0.1c0,0,0,0,0,0C230.8,4,230.8,4.1,230.9,4.1L230.9,4.1z
	 M231.6,13.2c-0.1,0-0.1-0.1-0.2-0.1l0,0l0,0C231.5,13,231.6,13.1,231.6,13.2L231.6,13.2z M116,25.5c0,0.2,0.2,0.3,0.3,0.4
	c0-0.1,0.1-0.3,0.2-0.7c-0.1,0-0.3-0.1-0.4-0.2C116.1,25.3,116,25.4,116,25.5z M215,21.2c-0.2-0.2-0.5-0.5-0.7-0.7
	c-0.1,0.2-0.3,0.5-0.2,0.6c0.2,0.2,0.5,0.3,0.7,0.3L215,21.2z M221.8,23.8c0,0,0,0.1,0.1,0.1h0.2c0-0.1-0.1-0.2-0.2-0.3L221.8,23.8z
	 M229.7,22.8c0.1,0.1,0.2,0.1,0.3,0.2l0.2-0.2c-0.1,0-0.2-0.1-0.3-0.1L229.7,22.8z M120.7,25.3L120.7,25.3c0,0.1,0.1,0.2,0.2,0.3
	C120.8,25.5,120.7,25.4,120.7,25.3z M120.7,24.7C120.7,24.7,120.7,24.7,120.7,24.7c0.1,0,0.1-0.1,0.1-0.2c0.1-0.2-0.2-0.5-0.3-0.7
	l-0.6,0.2c0,0.3,0,0.5,0.3,0.9c0.1-0.1,0.2-0.2,0.3-0.3C120.6,24.7,120.6,24.7,120.7,24.7z M120.5,25.3c-0.1,0.1-0.2,0.2-0.2,0.3
	c0.1,0,0.2,0.1,0.3,0.1l-0.1-0.1l0.2-0.2L120.5,25.3z M120.2,20.6c-0.1,0-0.2-0.1-0.3-0.1l-0.2,0.2c0.1,0.1,0.2,0.1,0.3,0.2
	L120.2,20.6z M120.6,25.7l0.2,0.1C120.8,25.8,120.8,25.7,120.6,25.7z M118.3,24.4l-0.2,0.2c0,0.5,0,1.1,0.5,1.4h0.4
	c0-0.1,0.1-0.2,0.1-0.3c-0.2-0.4-0.3-0.8-0.5-1.2C118.6,24.5,118.4,24.4,118.3,24.4z M157.5,29.8l0.2,0.2c0.1-0.1,0.2-0.1,0.3-0.2
	l-0.2-0.1C157.7,29.6,157.6,29.7,157.5,29.8z M127.6,30.1h0.3C127.8,30.1,127.8,30.1,127.6,30.1L127.6,30.1z M124.4,24.8
	c0,0.1,0.1,0.2,0.2,0.3l0.2-0.2c-0.1-0.1-0.1-0.2-0.2-0.3L124.4,24.8z M150.2,21.7c0.1,0.1,0.2,0.1,0.3,0.2l0.2-0.2
	c-0.1,0-0.2-0.1-0.3-0.1L150.2,21.7z M149.3,22.2c0.1,0,0.2,0.1,0.3,0.1l0.2-0.2c-0.1-0.1-0.2-0.1-0.3-0.2L149.3,22.2z M124,27.4
	l0.2,0.1c0.1,0,0.2-0.1,0.3-0.2l-0.2-0.2C124.2,27.3,124.1,27.4,124,27.4z M124.8,23.4l0.2,0.2c0.1-0.1,0.2-0.1,0.3-0.2l-0.2-0.1
	C125,23.3,124.9,23.3,124.8,23.4z"/>
</svg>
