<?xml version="1.0" encoding="utf-8"?>
<!-- Generator: Adobe Illustrator 18.0.0, SVG Export Plug-In . SVG Version: 6.00 Build 0)  -->
<!DOCTYPE svg PUBLIC "-//W3C//DTD SVG 1.1//EN" "http://www.w3.org/Graphics/SVG/1.1/DTD/svg11.dtd">
<svg version="1.1" id="Layer_1" xmlns="http://www.w3.org/2000/svg" xmlns:xlink="http://www.w3.org/1999/xlink" x="0px" y="0px"
	 viewBox="0 0 30 230" enable-background="new 0 0 30 230" xml:space="preserve">
<path fill="#FFFFFF" d="M20.3,126.9c0,0,0.2-0.1,0.3-0.1c-0.1-0.1-0.1-0.1-0.4-0.3l-0.1,0C20.2,126.7,20.2,126.8,20.3,126.9z
	 M21.6,125.3c0.1-0.1,0.1-0.2,0.2-0.3l-0.2-0.2c0,0.1-0.1,0.2-0.1,0.3L21.6,125.3z M20.2,126.6l0.1,0c-0.1-0.1-0.2-0.1-0.3-0.2
	l-0.1,0.1L20.2,126.6z M20.1,126.4L20.1,126.4c-0.1-0.1-0.1-0.2-0.3-0.3C19.8,126.1,19.7,126.2,20.1,126.4z M23.6,121.5l0.1-0.2
	c0-0.1-0.1-0.2-0.2-0.3l-0.1,0.2C23.5,121.3,23.6,121.4,23.6,121.5z M19.9,126.6l0.1-0.1c-0.1,0-0.2-0.1-0.4-0.2L19.9,126.6z
	 M24.7,120.9l0.2-0.2c-0.1,0-0.2-0.1-0.3-0.1l-0.2,0.2C24.4,120.8,24.5,120.8,24.7,120.9z M25.2,117l0.1,0c-0.1-0.1-0.2-0.1-0.3-0.2
	l-0.1,0.1L25.2,117z M25.1,116.8L25.1,116.8c-0.1-0.1-0.1-0.2-0.3-0.3C24.8,116.6,24.8,116.6,25.1,116.8z M25.3,117.4
	c0,0,0.2-0.1,0.3-0.1c-0.1-0.1-0.1-0.1-0.4-0.3l-0.1,0C25.2,117.1,25.2,117.3,25.3,117.4z M20.9,119.6c0.1,0,0.2-0.1,0.3-0.2
	l-0.2-0.2c-0.1,0.1-0.2,0.1-0.3,0.2L20.9,119.6z M20.8,129.6c0.1,0,0.2-0.1,0.3-0.2l-0.2-0.2c-0.1,0.1-0.2,0.1-0.3,0.2L20.8,129.6z
	 M23.1,116.6c-0.1,0-0.3,0.1-0.4,0.2c0.2,0.3,0.5,0.5,0.7,0.8c0.1-0.1,0.2-0.3,0.3-0.5C23.6,116.9,23.4,116.7,23.1,116.6z M24.9,117
	l0.1-0.1c-0.1,0-0.2-0.1-0.4-0.2L24.9,117z M21.2,172.6l0.2-0.2c-0.1,0-0.2-0.1-0.3-0.1l-0.2,0.2C21,172.5,21.1,172.5,21.2,172.6z
	 M29.7,205.5l0.2-0.2c-0.1-0.1-0.1-0.2-0.2-0.3l-0.1,0.2C29.6,205.3,29.6,205.4,29.7,205.5z M22.1,213.7c0-0.1,0.1-0.2,0.1-0.3
	l-0.2-0.2c-0.1,0.1-0.1,0.2-0.2,0.3L22.1,213.7z M21.6,212.7c0.1-0.1,0.1-0.2,0.2-0.3l-0.2-0.2c0,0.1-0.1,0.2-0.1,0.3L21.6,212.7z
	 M22.3,114.2c0.2-0.3,0.4-0.6,0.6-0.9c-0.1,0-0.3-0.1-0.6-0.2c-0.1,0.2-0.2,0.5-0.2,0.7C22,113.9,22.2,114.1,22.3,114.2z
	 M20.7,218.9c-0.1,0-0.2-0.1-0.4-0.1l-0.2,0.3C20.3,219.1,20.5,219,20.7,218.9z M21.4,134.4l-0.2-0.2
	C21,134.2,20.9,134.3,21.4,134.4z M22.7,133.3c0.1-0.1,0.1-0.2,0.2-0.3l-0.2-0.2c0,0.1-0.1,0.2-0.1,0.3L22.7,133.3z M21.8,134.7
	L21.8,134.7l0-0.2c-0.2,0-0.4-0.1-0.5-0.1l0.1,0.2C21.6,134.7,21.7,134.7,21.8,134.7z M21.8,135.1v-0.4c0,0,0,0,0,0
	c-0.1,0.1-0.2,0.1-0.3,0.2C21.6,135,21.7,135.1,21.8,135.1z M19.5,158.9l0.2-0.2c-0.1-0.1-0.2-0.1-0.3-0.2l-0.2,0.2
	C19.3,158.8,19.4,158.9,19.5,158.9z M21.1,134.7c0.1,0,0.3,0,0.5,0l0-0.1c-0.3-0.1-0.7-0.1-1.2-0.2
	C20.7,134.6,20.9,134.7,21.1,134.7z M19.2,155c0.1-0.1,0.2-0.1,0.3-0.2l-0.2-0.1c-0.1,0-0.2,0.1-0.3,0.2L19.2,155z M21.9,130.1
	l0.2-0.2c-0.1,0-0.2-0.1-0.3-0.1l-0.2,0.2C21.7,130,21.8,130,21.9,130.1z M23.9,20.2L23.9,20.2l0-0.2c-0.2,0-0.4-0.1-0.5-0.1
	l0.1,0.2C23.7,20.2,23.8,20.2,23.9,20.2z M22.6,15.8c0.1-0.1,0.2-0.3,0.2-0.4c0-0.2-0.2-0.4-0.3-0.6c-0.1,0.1-0.2,0.3-0.3,0.4
	C22.4,15.5,22.5,15.6,22.6,15.8z M21.2,39.7l0.2-0.2c-0.1,0-0.2-0.1-0.3-0.1l-0.2,0.2C21,39.6,21.1,39.6,21.2,39.7z M23.9,20.6v-0.4
	c0,0,0,0,0,0c-0.1,0.1-0.2,0.1-0.3,0.2C23.7,20.5,23.8,20.6,23.9,20.6z M19.5,26l0.2-0.2c-0.1-0.1-0.2-0.1-0.3-0.2l-0.2,0.2
	C19.3,25.9,19.4,26,19.5,26z M23.1,20.2c0.1,0,0.3,0,0.5,0l0-0.1c-0.3-0.1-0.7-0.1-1.2-0.2C22.8,20.1,23,20.2,23.1,20.2z M19.2,22.1
	c0.1-0.1,0.2-0.1,0.3-0.2l-0.2-0.1c-0.1,0-0.2,0.1-0.3,0.2L19.2,22.1z M23.4,19.9l-0.2-0.2C23.1,19.7,22.9,19.8,23.4,19.9z
	 M23.9,15.5L23.9,15.5C23.9,15.5,23.9,15.5,23.9,15.5C23.9,15.5,23.9,15.5,23.9,15.5z M23.8,5.3c0-0.1,0.1-0.1,0.1-0.2V4.8
	c-0.1-0.1-0.2-0.2-0.3-0.3c-0.1,0.1-0.1,0.3-0.2,0.7C23.4,5.2,23.6,5.2,23.8,5.3z M-0.1,63.1C0,63,0.1,63,0.1,62.9l0.1,0h0
	c0,0.1-0.1,0.1-0.2,0.2C0,63.1,0,63.1-0.1,63.1v25.7C0,88.9,0,88.9,0.1,89C0,89,0,89.1-0.1,89.1l0,143.3h19.9c0-0.4-0.3-0.9-0.4-1.3
	c0.7,0,0.7-0.6,1-1c0.2-0.3,0.3-0.5-0.2-0.5c-0.8,0-1.6,0-1.7,1.1l-0.2,0c-0.5-1.3,0.6-1.6,1.3-2c0.2-0.1,0.3-0.2,0.5-0.3
	c-0.2-0.1-0.5-0.2-0.7-0.1c0,0-0.1,0-0.1,0l0.1,0.4c-0.1,0-0.2-0.1-0.3-0.1c0-0.1,0.1-0.2,0.1-0.3c-0.5,0-0.7-0.2-0.5-0.8
	c0.2-0.6,0.4-1.1,0.6-1.7c0.1-0.2,0.2-0.6,0.2-0.6c-1-0.6-0.2-1.2-0.1-1.8c0.1-0.3,0-0.7,0-1c-0.1-0.5,0-0.8,0.4-1.1
	c0.4-0.4,0.9-0.9-0.2-0.9l-0.2-0.6c0,0,0,0,0,0c-0.2,0,0.1-0.1,0-0.2c-0.2-0.2,0.4-0.4,0.4-0.8v0l-0.5,0c0.5-0.2,0.9-0.4,1.5-0.5
	c0-0.1-0.1-0.1-0.1-0.3c-0.7-1-0.7-1.4,0.1-2.2c0.1-0.2,0.4-0.2,0.6-0.3c0.1-0.1,0.2-0.2,0.3-0.3c-0.1-0.1-0.3-0.2-0.4-0.2
	c-1.2-0.3-1.2-0.3-0.7-1.1c0.3-0.5,0.3-0.4-0.6-0.9c-0.4-0.2-0.7-0.9-0.6-1.3c0.2-0.7,0.2-1.3-0.1-2c-0.3-0.6-0.5-3.4-0.5-4.1
	c0-0.5,1.5-1.3,1.2-1.6c-0.6-0.6,0.5-0.8,0.2-1.2c-0.8-1-0.5-2.1-0.7-3.2c-0.1-0.7-0.3-1.6-0.5-2.1h0.1c0.5-0.5,0.2-1.7,0.1-2.4
	c-0.2-1.1,0.6-2.1-0.1-3.2c-0.1-0.1,0.1-0.5,0.2-0.6c0.8-0.7,0.3-1.2-0.5-1.9c-0.7-0.6,0.1-0.5,0.3-0.5c0.8,0,1.1-0.3,0.5-1
	c-0.1-0.1-0.2-0.3-0.2-0.3c0.2-0.5,0.7-1.4,0.6-1.5c-0.6-0.6-1.5-1-1.4-1.4c0.2-0.6-0.3-1.3,0.3-1.8c0.1-0.1-0.2-0.6-0.3-1
	c-0.2-0.4-0.2-0.8,0.4-0.8c0.5-0.1,0.4-0.3,0.1-0.6c-0.4-0.3-0.4-0.7,0.1-0.9c0.2-0.1,0.4-0.2,0.6-0.3c-0.1-0.1-0.3-0.2-0.4-0.2
	c-0.4-0.2-0.9-0.3-1.3-0.4c-0.1,0-0.2-0.2-0.2-0.3c0.1-0.1,0.3-0.2,0.4-0.2c0.7,0,1.5,0,0.7-1.1c-0.1-0.1,0.1-0.5,0.2-0.7
	c0.2-0.3,0.9-0.5-0.2-0.8c-0.7-0.2-0.5-1.6,0.2-2.4c0.2-0.2-0.7-0.6-0.8-0.8c-0.4-0.8-0.4-0.7,0.1-1.2c0.3-0.2,0.6-0.5,0.9-0.8
	c0.2-0.2,0.3-0.4,0.4-0.5c-0.2-0.1-0.4-0.1-0.7-0.2c-0.3,0-0.7,0.1-1,0c-0.1,0-0.3-0.4-0.3-0.6c0-0.1,0.1-0.4,0.2-0.4
	c0.3-0.1,0.7,0,1-0.1c0.4-0.1,0.8-0.1,1.2-0.2c-0.3-0.6-0.8-0.1-1.2-0.3c-0.3-0.1-0.5-0.2-0.7-0.4c-0.1-0.1,0.1-0.4,0.3-0.6
	c0.2-0.2,0.5-0.3,0.8-0.5c0.2-0.1,0.4-0.5,0.3-0.5c-0.2-0.2-0.4-0.3-0.7-0.4c-0.1-0.1-0.4,0.1-0.5,0c-0.2-0.1-0.3-0.3-0.3-0.5
	c0-0.2,0.3-0.4,0.4-0.4c0.7-0.1,1.4,0,0.4-0.9c-0.3-0.3-0.3-0.8-0.5-1.3c0.2,0,0.3-0.1,0.5-0.1c0.2,0,0.3,0,0.5,0
	c-0.1-0.2-0.1-0.5-0.2-0.6c-0.6-0.5-0.9-1.7-0.6-2.5c0.2-0.6,0.3-0.9-0.4-0.9c-0.5-0.1-0.5-0.3-0.1-0.5c0.3-0.1,0.6-0.3,0.8-0.5
	c0.3-0.3,0.3-0.5-0.2-0.5c-0.3-0.1-0.6-0.3-0.8-0.5l0-0.4c1-0.1,0.6-0.4,0.2-0.8c0.8-0.3-0.2-1,0.3-1.5c0.2-0.2-0.3-0.9-0.4-1.4
	c0-0.4,0.1-0.9,0.2-1.4c0.2-0.7,0.2-1.6,0.1-2.5c-0.1-0.5-0.2-1,0.6-1l0-0.4c-0.4-0.3-0.3-0.6-0.1-1c0.2-0.3,1.5-0.9-0.1-1
	c-0.1-0.8-0.3-1.6-0.2-2.4c0-0.4,0.5-0.7,0.8-1c0.4-0.4,0.4-0.3,0.1-0.5c-0.3-0.1-0.5-0.3-0.8-0.4c-0.6-0.3-0.6-0.5-0.1-0.9
	c0.3-0.2,0.5-0.4,0.8-0.6c0.3-0.1,0.9,0.2,0.9-0.4c0-0.2-0.3-0.4-0.5-0.6c-0.4-0.2-0.9-0.3-1.3-0.4c-0.2-0.1-0.4-0.1-0.7-0.2
	c0.2-0.1,0.4-0.2,0.6-0.3c0.2-0.1,0.5,0,0.7,0c1.2-0.1,0.2-0.5,0.1-0.8c-0.2-0.4-0.3-0.9-0.5-1.3c-0.3-0.6-0.1-0.9,0.6-0.9
	c0.3,0,0.7,0.1,1-0.1c0.3-0.1,0.5-0.4,0.7-0.7c-0.2-0.1-0.5-0.2-0.7-0.3c-0.2,0-0.5,0-0.7,0c-0.5,0-1,0.2-1-0.6
	c0-0.6,0.2-0.9,0.8-0.9c0.2,0,0.4-0.2,0.6-0.2c-0.2-0.1-0.4-0.2-0.6-0.2c-0.3,0-0.7,0-1,0c-0.1,0-0.3-0.1-0.4-0.2
	c0.1-0.1,0.2-0.2,0.4-0.3c0.7-0.1,1.5-0.1,2.2-0.1c0.1,0,0.2-0.2,0.3-0.3l-0.2-0.2c-0.5,0.4-0.8-0.9-1.4-0.2c-0.4,0.4-0.7,0.2-1-0.1
	c-0.1-0.1-0.2-0.2-0.4-0.3c0.1-0.1,0.2-0.3,0.3-0.3c0.4-0.1,0.8,0,1.2-0.1c0.1,0,0.3-0.2,0.4-0.2c-0.2-0.1-0.4-0.2-0.6-0.2
	c-0.5-0.2-0.5-0.5-0.2-0.9c0.5-0.6,0.5-1-0.4-1l-0.1-0.4c0.3-0.2,0.6-0.5,1-0.5c0.6-0.1,1.3-0.1,2-0.1l0.2-0.2
	c-0.1-0.1-0.2-0.3-0.2-0.3c-1.2,0.4-1.9-0.6-2.9-0.9c-0.1,0-0.2-0.2-0.4-0.2c0.1-0.1,0.2-0.2,0.4-0.2c0.2,0,0.5,0,0.7-0.1
	c0.4-0.1,0.8-0.2,1.3-0.3c-0.4-0.2-0.8-0.4-1.2-0.6c-0.2-0.1-0.4-0.2-0.7-0.3c0.9-0.6-0.6-0.9-0.1-1.3c0.5-0.4,1.1-0.7,1.5,0.1
	c-0.6,0-0.6,0.5-0.4,0.8c0.4,0.4,0.8,0.4,0.9-0.3c0.2,0,0.3,0,0.5,0c0.1,0,0.3-0.1,0.4-0.2c-0.1-0.1-0.3-0.2-0.4-0.3
	c-0.1,0-0.3,0-0.5,0c-0.5-0.2,1.4-1-0.2-1c-0.5,0-1,0.1-1.5,0.1c-0.1,0-0.2-0.2-0.4-0.2c0.1-0.1,0.2-0.2,0.4-0.2
	c0.4-0.1,0.7-0.2,1.1-0.3c0.2-0.1,0.3-0.3,0.4-0.5c-0.2-0.1-0.4-0.1-0.7-0.2c-0.3-0.1-0.5-0.2-0.7-0.3c0.2-0.2,0.4-0.7,0.7-0.7
	c0.6,0,0.1-0.6-0.6-0.6c0-0.1,0-0.3,0-0.3c0.1-0.1,0.3-0.1,0.5-0.1c0.4,0,0.9,0,0.8-0.6c0-0.2-0.5-0.3-0.7-0.4
	c-0.2-0.1-0.5-0.1-0.7-0.1c0.6-0.9-0.3-1.1-0.7-1.5c0.2-0.1,0.5-0.3,0.6-0.3c0.5,0.3,1,0.6,1.6,0.4c0.3-0.1,0.5-0.4,0.7-0.7
	c-0.2-0.1-0.5-0.3-0.7-0.3c-0.4,0-0.8,0.1-1.2,0c-0.3,0-1,0.3-0.8-0.3c0.2-0.3-0.1-1.3,0.8-1.2c0.2,0,0.5,0,0.7,0
	c0.2,0.1,0.5,0.6,0.7,0.1c0.2-0.5-0.1-0.7-0.7-0.7c-0.2,0-0.4,0.1-0.5,0c-0.3-0.3-0.6-0.7-0.8-1.1c0-0.1,0.5-0.4,0.8-0.5
	c0.2-0.1,0.4-0.2,0.6-0.3c0.1-0.1,0.3-0.2,0.4-0.2c-0.2-0.1-0.4-0.2-0.6-0.2c-0.2,0-0.5,0.1-0.7-0.1c-0.2-0.1-0.2-0.4-0.2-0.6
	c0.2,0,0.4,0,0.5,0c0.3-0.1,0.6-0.3,0.9-0.4c-0.1-0.1-0.3-0.2-0.4-0.3l-0.2,0c-1.7-0.7-1.7-0.8-0.2-1.9c0.1-0.1,0.2-0.2,0.3-0.3
	c-0.1-0.1-0.3-0.2-0.4-0.2c-0.2,0-0.4,0.1-0.5,0c-0.2-0.1-0.4-0.3-0.6-0.5c0.1-0.1,0.3-0.3,0.4-0.4c0.1-0.1,0.3,0,0.5,0
	c0.2-0.1,0.5-0.2,0.5-0.4c0-0.2-0.1-0.5-0.3-0.6c-0.2-0.1-0.4-0.1-0.7-0.2c0.2-0.1,0.3-0.3,0.5-0.3c0.2-0.1,0.6,0,0.7-0.1
	c0.2-0.2,0.4-0.6,0.5-0.9c-0.3,0.1-0.6,0.2-0.8,0.2c-0.2,0-0.3,0-0.5-0.1c0.1-0.2,0.1-0.6,0.2-0.6c0.3-0.1,0.6-0.1,1-0.1
	c0,0,0-0.3,0-0.5c-0.8,0.1-0.7-0.1-0.4-0.7c0.2-0.4-0.2-1.1-0.3-1.6c0.7,0,0.7-0.6,1-1c0.2-0.3,0.3-0.5-0.2-0.5
	c-0.8,0-1.6,0-1.7,1.1l-0.2,0c-0.5-1.3,0.6-1.6,1.3-2c0.2-0.1,0.3-0.2,0.5-0.3c-0.2-0.1-0.5-0.2-0.7-0.1c-0.6,0.1-0.9-0.1-0.7-0.8
	c0.2-0.6,0.4-1.1,0.6-1.7c0.1-0.2,0.2-0.6,0.2-0.6c-1-0.6-0.2-1.2-0.1-1.8c0.1-0.3,0-0.7,0-1c-0.1-0.5,0-0.8,0.4-1.1
	c0.4-0.4,0.9-0.9-0.2-0.9l-0.2-0.6c0.2-0.2,0.5-0.2,0.8-0.4c0.2-0.1,0.4-0.2,0.6-0.3c-0.2-0.1-0.4-0.1-0.6-0.2
	c-0.5-0.2-0.4-0.4,0-0.5c0.1-0.1,0.1-0.2-0.3-0.3v0c0-0.1-0.1-0.2,0-0.4c0.3,0.2,0.6,0.3,0.8,0.5c0-0.1-0.1-0.1-0.1-0.2
	c-0.7-1-0.7-1.4,0.1-2.2c0.1-0.2,0.4-0.2,0.6-0.3c0.1-0.1,0.2-0.2,0.3-0.3c-0.1-0.1-0.3-0.2-0.4-0.2c-1.2-0.3-1.2-0.3-0.7-1.1
	c0.3-0.5,0.3-0.4-0.6-0.9c-0.4-0.2-0.7-0.9-0.6-1.3c0.2-0.7,0.2-1.3-0.1-2c-0.3-0.6-0.5-3.4-0.5-4.1c0-0.5,1.5-1.3,1.2-1.6
	c-0.6-0.6,0.5-0.8,0.2-1.2c-0.8-1-0.5-2.1-0.7-3.2c-0.1-0.7-0.3-1.6-0.5-2.1h0.1c0.5-0.5,0.2-1.7,0.1-2.4c-0.2-1.1,0.6-2.1-0.1-3.2
	c-0.1-0.1,0.1-0.5,0.2-0.6c0.8-0.7,0.3-1.2-0.5-1.9c-0.7-0.6,0.1-0.5,0.3-0.5c0.8,0,1.1-0.3,0.5-1c-0.1-0.1-0.2-0.3-0.2-0.3
	c0.2-0.5,0.7-1.4,0.6-1.5c-0.6-0.6-1.5-1-1.4-1.4c0.2-0.6-0.3-1.3,0.3-1.8c0.1-0.1-0.2-0.6-0.3-1c-0.2-0.4-0.2-0.8,0.4-0.8
	c0.5-0.1,0.4-0.3,0.1-0.6c-0.4-0.3-0.4-0.7,0.1-0.9c0.2-0.1,0.4-0.2,0.6-0.3c-0.1-0.1-0.3-0.2-0.4-0.2c-0.4-0.2-0.9-0.3-1.3-0.4
	c-0.1,0-0.2-0.2-0.2-0.3c0.1-0.1,0.3-0.2,0.4-0.2c0.7,0,1.5,0,0.7-1.1c-0.1-0.1,0.1-0.5,0.2-0.7c0.2-0.3,0.9-0.5-0.2-0.8
	c-0.7-0.2-0.5-1.6,0.2-2.4c0.2-0.2-0.7-0.6-0.8-0.8c-0.4-0.8-0.4-0.7,0.1-1.2c0.3-0.2,0.6-0.5,0.9-0.8c0.2-0.2,0.3-0.4,0.4-0.5
	c-0.2-0.1-0.4-0.1-0.7-0.2c-0.3,0-0.7,0.1-1,0c-0.1,0-0.3-0.4-0.3-0.6c0-0.1,0.1-0.4,0.2-0.4c0.3-0.1,0.7,0,1-0.1
	c0.4-0.1,0.8-0.1,1.2-0.2c-0.3-0.6-0.8-0.1-1.2-0.3c-0.3-0.1-0.5-0.2-0.7-0.4c-0.1-0.1,0.1-0.4,0.3-0.6c0.2-0.2,0.5-0.3,0.8-0.5
	c0.2-0.1,0.4-0.5,0.3-0.5c-0.2-0.2-0.4-0.3-0.7-0.4c-0.1-0.1-0.4,0.1-0.5,0C18.2,32.4,18,32.2,18,32c0-0.2,0.3-0.4,0.4-0.4
	c0.7-0.1,1.4,0,0.4-0.9c-0.3-0.3-0.3-0.8-0.5-1.3c0.2,0,0.3-0.1,0.5-0.1c0.2,0,0.3,0,0.5,0c-0.1-0.2-0.1-0.5-0.2-0.6
	c-0.6-0.5-0.9-1.7-0.6-2.5c0.2-0.6,0.3-0.9-0.4-0.9c-0.5-0.1-0.5-0.3-0.1-0.5c0.3-0.1,0.6-0.3,0.8-0.5c0.3-0.3,0.3-0.5-0.2-0.5
	c-0.3-0.1-0.6-0.3-0.8-0.5l0-0.4c1-0.1,0.6-0.4,0.2-0.8c0.8-0.3-0.2-1,0.3-1.5c0.2-0.2-0.3-0.9-0.4-1.4c0-0.4,0.1-0.9,0.2-1.4
	c0.2-0.7,0.2-1.6,0.1-2.5c-0.1-0.5-0.2-1,0.6-1l0-0.4c-0.4-0.3-0.3-0.6-0.1-1c0.2-0.3,1.5-0.9-0.1-1c-0.1-0.8-0.3-1.6-0.2-2.4
	c0-0.4,0.5-0.7,0.8-1c0.4-0.4,0.4-0.3,0.1-0.5c-0.3-0.1-0.5-0.3-0.8-0.4c-0.6-0.3-0.6-0.5-0.1-0.9C18.7,6.4,19,6.2,19.2,6
	c0.3-0.1,0.9,0.2,0.9-0.4c0-0.2-0.3-0.4-0.5-0.6c-0.4-0.2-0.9-0.3-1.3-0.4c-0.2-0.1-0.4-0.1-0.7-0.2c0.2-0.1,0.4-0.2,0.6-0.3
	C18.5,4,18.7,4,19,4c1.2-0.1,0.2-0.5,0.1-0.8c-0.2-0.4-0.3-0.9-0.5-1.3c-0.3-0.6-0.1-0.9,0.6-0.9c0.3,0,0.7,0.1,1-0.1
	c0.3-0.1,0.5-0.4,0.7-0.7c-0.2-0.1-0.5-0.2-0.7-0.3c-0.2,0-0.5,0-0.7,0c-0.5,0-1,0.2-1-0.6c0-0.6,0.2-0.9,0.8-0.9
	c0.2,0,0.4-0.2,0.6-0.2c-0.2-0.1-0.4-0.2-0.6-0.2c-0.3,0-0.7,0-1,0c-0.1,0-0.3-0.1-0.4-0.2c0.1-0.1,0.2-0.1,0.3-0.2H-0.1L-0.1,63.1z
	 M8.2,232L8.2,232c0,0.1,0,0.2-0.1,0.3c0,0,0,0,0,0C8.1,232.2,8.2,232.1,8.2,232L8.2,232z M3,228.3L3,228.3c0,0.1,0,0.2-0.1,0.3l0,0
	C2.9,228.5,2.9,228.4,3,228.3L3,228.3z M12,227.6c0,0.1-0.1,0.1-0.1,0.2l0,0l0,0C11.9,227.8,11.9,227.7,12,227.6
	C12,227.6,12,227.6,12,227.6z M1.5,227.1C1.5,227.1,1.5,227.1,1.5,227.1c-0.1-0.1-0.1-0.1-0.1-0.2c0,0,0,0,0,0
	C1.4,226.9,1.5,227,1.5,227.1z M10.5,226.2c-0.1,0-0.2,0.1-0.3,0.1l0,0C10.4,226.2,10.4,226.2,10.5,226.2L10.5,226.2z M2.8,219.6
	c0.1,0,0.1-0.1,0.2-0.1l0,0C2.9,219.5,2.9,219.6,2.8,219.6L2.8,219.6z M8.2,223.1L8.2,223.1c0,0.1,0,0.2-0.1,0.3c0,0,0,0,0,0
	C8.1,223.2,8.2,223.2,8.2,223.1L8.2,223.1z M12.7,222.5c0,0-0.2,0.1-0.3,0.1c-0.1,0-0.2,0-0.3,0.1c0-0.1,0-0.3,0-0.4l0-0.2
	c0.1-0.4,0.3-0.8,0.5-1.2c0,0,0.1,0,0.2,0c0.1,0,0.1,0,0.2,0C12.9,221.6,12.9,222.1,12.7,222.5z M7.4,220.1c-0.4,0.4-0.8,0.7-1.2,1
	c-0.1,0-0.2-0.1-0.3-0.2l-0.2-0.1l0,0c0.2-0.5,0.5-1,0.8-1.6C6.9,219.6,7.2,219.9,7.4,220.1z M0.6,217.9
	C0.6,217.9,0.6,217.9,0.6,217.9c0.1,0,0.1,0.1,0.1,0.2c0,0,0,0,0,0C0.6,218.1,0.6,218,0.6,217.9z M18.6,218.5l0.2,0c0,0,0,0,0,0
	L18.6,218.5C18.6,218.5,18.6,218.5,18.6,218.5l-0.2,0c0-0.1-0.7-0.3-0.6-0.5l0.1-0.1l0,0C18,218,18.2,218.2,18.6,218.5z M2.2,216.6
	C2.2,216.7,2.2,216.7,2.2,216.6c-0.1-0.1-0.1-0.1-0.1-0.2c0,0,0,0,0,0C2.2,216.5,2.2,216.6,2.2,216.6z M10.8,213.7
	c-0.2,0.3-0.4,0.7-0.5,1c-0.3-0.5-0.7-1-0.7-1.5l0,0l0.1-0.1c0.1-0.2,0.4-0.4,0.7-0.6C10.4,212.8,10.6,213.2,10.8,213.7z
	 M12.8,207.6c0,0,0.2,0.1,0.3,0.3c0.1,0.1,0.2,0.3,0.3,0.4c-0.3,0.1-0.7,0.2-1,0.4c-0.3-0.1-0.5-0.2-0.7-0.4
	C12.2,208,12.5,207.6,12.8,207.6L12.8,207.6z M5.3,207.3L5.3,207.3c-0.1,0.2-0.3,0.3-0.4,0.5c-0.3-0.2-0.6-0.4-0.7-0.6l0,0
	c0-0.1,0.2-0.4,0.5-0.8C5,206.8,5.3,207,5.3,207.3z M15.8,205.3c-0.1,0-0.2,0.1-0.2,0.1l0,0C15.6,205.4,15.7,205.3,15.8,205.3
	L15.8,205.3z M18,203.8c-0.1,0-0.1,0.1-0.2,0.1c0,0,0,0,0,0C17.9,203.9,17.9,203.8,18,203.8L18,203.8z M11,203.6
	c0.1,0.1,0.1,0.1,0.2,0.2c0,0,0,0,0,0l-0.1,0C11.1,203.8,11,203.7,11,203.6L11,203.6z M10.3,200.1L10.3,200.1c0.1,0,0.2,0,0.3,0.1
	l0,0l0,0C10.4,200.2,10.4,200.1,10.3,200.1z M15.7,200.1L15.7,200.1c0,0.1-0.1,0.1-0.2,0.1l0,0C15.6,200.1,15.7,200.1,15.7,200.1z
	 M0.5,200.9c0.1,0,0.2-0.1,0.3-0.1l0,0C0.7,200.9,0.6,200.9,0.5,200.9L0.5,200.9z M11,202.3c0.1,0,0.2,0.1,0.3,0.2
	c-0.2,0.3-0.4,0.6-0.6,0.9c-0.1,0-0.2-0.1-0.3-0.2c-0.1-0.1-0.3-0.2-0.4-0.2c0.3-0.4,0.6-0.7,0.8-0.7l0,0
	C10.8,202.2,10.9,202.2,11,202.3z M8.3,201.7L8.3,201.7c-0.1,0.4-0.2,0.7-0.4,0.9c0,0-0.2-0.1-0.3-0.1c-0.1,0-0.2-0.1-0.3-0.1
	c0.3-0.3,0.5-0.5,0.8-0.8C8.1,201.6,8.2,201.6,8.3,201.7z M18.7,200.9c-0.1,0-0.1,0.1-0.2,0.1c-0.1,0-0.2,0.1-0.2,0.1
	c-0.5-0.3-0.9-0.6-1.4-0.9c0.3-0.3,0.6-0.6,0.9-0.9C18.1,199.8,18.4,200.4,18.7,200.9z M6.7,194.3C6.7,194.3,6.7,194.3,6.7,194.3
	c-0.1,0-0.1-0.1-0.1-0.2c0,0,0,0,0,0C6.7,194.1,6.7,194.2,6.7,194.3z M3,190.4c0,0.1-0.1,0.1-0.1,0.2l0,0l0,0
	C2.9,190.5,2.9,190.4,3,190.4C3,190.3,3,190.4,3,190.4z M2.9,189.1c-0.1-0.1-0.2-0.3-0.3-0.5c0.3-0.2,0.5-0.4,0.8-0.6l0,0
	c0,0,0.1,0,0.2,0.1c0,0,0.1,0,0.1,0.1C3.4,188.4,3.2,188.8,2.9,189.1z M17.8,188.2c-0.3,0.1-0.6,0.2-0.9,0.2l0,0h0
	c-0.2,0-0.3-0.1-0.6-0.2c0.2-0.1,0.5-0.2,0.8-0.4C17.4,188,17.6,188.1,17.8,188.2z M15.8,187.5C15.8,187.6,15.7,187.6,15.8,187.5
	c-0.2,0-0.2,0-0.3-0.1l0-0.1l0,0C15.7,187.4,15.7,187.5,15.8,187.5z M12,186.8C12,186.8,12,186.8,12,186.8c-0.1,0-0.1-0.1-0.1-0.2
	c0,0,0,0,0,0C11.9,186.7,11.9,186.7,12,186.8z M6.1,184.9L6.1,184.9c0,0.1,0,0.2-0.1,0.3c0,0.1-0.1,0.1-0.1,0.2
	c-0.2-0.2-0.4-0.3-0.6-0.5c-0.2-0.2-0.3-0.3-0.3-0.4c0-0.1,0.1-0.2,0.3-0.4c0.1-0.1,0.3-0.2,0.4-0.4C5.9,184.1,6,184.5,6.1,184.9z
	 M5.5,181.5L5.5,181.5L5.5,181.5L5.5,181.5c0.1,0,0.1,0,0.3,0.1c0.1,0,0.1,0.1,0.2,0.1c-0.5,0.2-0.8,0.3-1.1,0.5
	c0-0.1-0.1-0.1-0.1-0.2c0-0.1-0.1-0.2-0.1-0.2l0,0c0-0.1,0.1-0.2,0.1-0.2c0,0,0.1,0,0.2,0C5.1,181.5,5.3,181.5,5.5,181.5z
	 M16.6,181.3C16.6,181.2,16.6,181.2,16.6,181.3c0-0.1-0.1-0.1-0.1-0.2c0.1,0,0.2-0.1,0.3-0.1L16.6,181.3z M12,175
	c0.1,0.1,0.2,0.1,0.3,0.2c-0.6,0.3-1.1,0.6-1.6,0.9c0,0-0.1,0-0.2-0.1c0,0-0.1-0.1-0.1-0.1C11,175.6,11.5,175.2,12,175L12,175z
	 M15.9,166.1L15.9,166.1c0,0.1,0,0.2-0.1,0.3c0,0,0,0,0,0C15.8,166.2,15.9,166.1,15.9,166.1L15.9,166.1z M16,163.9
	c-0.1,0.1-0.1,0.1-0.2,0.2l-0.1,0h0C15.8,164,15.8,163.9,16,163.9C15.9,163.9,16,163.9,16,163.9z M13,163.3
	C13,163.3,13,163.3,13,163.3c-0.1,0-0.2,0-0.3-0.1l0,0l0,0C12.8,163.2,12.9,163.2,13,163.3z M14.6,161.6L14.6,161.6
	c0,0,0,0.1-0.1,0.2c0,0,0,0.1-0.1,0.1c-0.1-0.2-0.2-0.4-0.3-0.6c0.1-0.1,0.2-0.3,0.2-0.4C14.4,161.2,14.5,161.4,14.6,161.6z
	 M11.5,152c-0.1,0-0.2,0.1-0.3,0.1l0,0C11.3,152,11.4,152,11.5,152L11.5,152z M13,150.5c-0.1,0-0.2,0.1-0.3,0.1l0,0
	C12.8,150.6,12.9,150.5,13,150.5L13,150.5z M3.1,148.5c0-0.1-0.1-0.2-0.1-0.2c0,0,0,0,0,0C3.1,148.3,3.1,148.3,3.1,148.5
	C3.2,148.4,3.2,148.4,3.1,148.5z M14.7,147.7c-0.1,0.3-0.2,0.5-0.3,0.6c-0.1-0.1-0.2-0.3-0.3-0.4l0,0c0,0,0-0.1,0.1-0.2
	c0,0,0.1-0.1,0.1-0.2C14.4,147.6,14.6,147.6,14.7,147.7z M5.3,143c0,0,0.1,0.1,0.2,0.1c-0.1,0.1-0.1,0.3-0.2,0.4
	c-0.3-0.1-0.5-0.2-0.6-0.3c0.1-0.1,0.3-0.2,0.4-0.3l0,0l0,0C5.1,142.9,5.2,142.9,5.3,143z M16.8,138.5l-0.2,0.3
	c-0.3-0.3-0.5-0.5-0.7-0.8c0.1-0.1,0.2-0.1,0.2-0.2l0.1-0.1C16.4,137.9,16.6,138.2,16.8,138.5z M12.8,137.8
	C12.8,137.8,12.7,137.8,12.8,137.8c0-0.1,0-0.1,0-0.1C12.8,137.7,12.8,137.8,12.8,137.8z M12.7,137.5c0,0,0,0.1,0,0.1
	C12.7,137.5,12.7,137.5,12.7,137.5L12.7,137.5C12.7,137.5,12.7,137.5,12.7,137.5c-0.1-0.3-0.2-0.6-0.3-1c0.1,0,0.2-0.1,0.3-0.2
	C12.8,136.7,12.7,137.1,12.7,137.5z M0.9,135.6c0,0,0.1,0.1,0.1,0.1c-0.3,0-0.5,0.1-0.7,0.1l-0.1,0c0,0,0-0.1-0.1-0.1
	c0,0,0-0.1,0-0.1c0.3-0.1,0.5-0.1,0.7-0.2C0.8,135.5,0.9,135.6,0.9,135.6z M9.1,131.3c-0.1,0.1-0.3,0.1-0.6,0.2
	c-0.1-0.3-0.3-0.6-0.3-0.9l0,0c0,0,0-0.1,0.1-0.2c0,0,0.1-0.1,0.1-0.1L9.1,131.3z M5.5,130.5L5.5,130.5L5.5,130.5
	c-0.1,0-0.2,0-0.3-0.1c0,0,0.1-0.1,0.1-0.1C5.4,130.4,5.4,130.4,5.5,130.5z M4.6,129.6c0,0,0.1,0.1,0.1,0.1
	c-0.1,0.1-0.3,0.2-0.4,0.3c-0.2-0.1-0.3-0.2-0.5-0.4c0.2-0.1,0.4-0.2,0.6-0.2l0,0C4.5,129.5,4.5,129.5,4.6,129.6z M10.7,126.8
	C10.7,126.8,10.7,126.8,10.7,126.8c-0.1,0-0.2,0-0.3-0.1l0,0l0,0C10.6,126.7,10.6,126.7,10.7,126.8z M8.4,123.9
	C8.4,123.9,8.4,123.9,8.4,123.9c-0.1,0-0.1-0.1-0.1-0.2c0,0,0,0,0,0C8.4,123.7,8.4,123.8,8.4,123.9z M4.7,122.3
	C4.7,122.3,4.7,122.4,4.7,122.3c-0.1,0-0.1-0.1-0.1-0.2c0,0,0,0,0,0C4.6,122.2,4.6,122.3,4.7,122.3z M13.7,119.3L13.7,119.3
	c-0.1,0-0.1-0.1-0.1-0.2c0,0,0,0,0,0C13.6,119.2,13.6,119.3,13.7,119.3z M8.7,118.9c-0.2,0.2-0.5,0.4-0.8,0.6l0,0c0,0-0.1,0-0.2-0.1
	c0,0-0.1,0-0.1-0.1l0.7-1C8.4,118.5,8.5,118.7,8.7,118.9z M13.5,117.7c-0.2,0.1-0.4,0.3-0.6,0.4c-0.3-0.1-0.5-0.2-0.7-0.3
	c0.2-0.1,0.5-0.3,0.7-0.3l0,0l0.1,0C13.1,117.6,13.3,117.6,13.5,117.7z M4.9,115.4c0.1,0.2,0.3,0.3,0.5,0.5
	c-0.5,0.1-0.9,0.3-1.4,0.4c-0.3-0.1-0.6-0.2-1-0.4c0.5-0.4,0.9-0.8,1.4-0.9l0,0C4.5,115,4.7,115.2,4.9,115.4z M3.7,109.1
	c-0.2,0.1-0.5,0.3-0.7,0.3l0,0l-0.1,0c-0.2,0-0.4-0.1-0.6-0.1c0.2-0.1,0.4-0.3,0.6-0.4C3.3,109,3.5,109.1,3.7,109.1z M2.2,107.6
	L2.2,107.6c0.1,0,0.1,0.1,0.1,0.2c0,0,0,0,0,0C2.3,107.8,2.3,107.7,2.2,107.6z M8.2,107.6c0,0,0.1,0,0.1,0.1l-0.7,1
	c-0.1-0.1-0.2-0.3-0.3-0.5c0.2-0.2,0.5-0.4,0.8-0.6l0,0C8,107.5,8.1,107.5,8.2,107.6z M11.4,104.9C11.4,104.9,11.4,104.9,11.4,104.9
	c-0.1,0-0.1-0.1-0.1-0.2c0,0,0,0,0,0C11.3,104.7,11.4,104.8,11.4,104.9z M7.6,103.3C7.6,103.4,7.6,103.4,7.6,103.3
	c-0.1,0-0.1-0.1-0.1-0.2c0,0,0,0,0,0C7.6,103.2,7.6,103.3,7.6,103.3z M5.5,100.3L5.5,100.3L5.5,100.3c-0.1,0-0.2,0-0.3-0.1
	c0,0,0,0,0,0C5.3,100.2,5.4,100.3,5.5,100.3z M12.1,97.3c-0.2,0.1-0.4,0.2-0.6,0.2l0,0c0,0-0.1,0-0.1-0.1c0,0-0.1-0.1-0.1-0.1
	c0.1-0.1,0.3-0.2,0.4-0.3C11.8,97.1,11.9,97.2,12.1,97.3z M10.7,96.6C10.7,96.6,10.6,96.7,10.7,96.6c-0.2,0-0.2,0-0.3-0.1l0-0.1l0,0
	C10.6,96.5,10.6,96.5,10.7,96.6z M7.8,96.4L7.8,96.4c0,0,0,0.1-0.1,0.2c0,0-0.1,0.1-0.1,0.1l-0.7-1c0.1-0.1,0.3-0.1,0.6-0.2
	C7.6,95.8,7.7,96.1,7.8,96.4z M15.7,91.1c0,0,0,0.1,0.1,0.1c0,0,0,0.1,0,0.1c-0.3,0.1-0.5,0.1-0.7,0.2c0,0-0.1-0.1-0.1-0.2
	c0,0-0.1-0.1-0.1-0.1C15.2,91.2,15.5,91.1,15.7,91.1L15.7,91.1z M3.2,89.5L3.2,89.5C3.2,89.5,3.2,89.5,3.2,89.5
	c0.1,0.3,0.2,0.6,0.3,1c-0.1,0-0.2,0.1-0.3,0.2C3.2,90.3,3.2,89.9,3.2,89.5C3.2,89.5,3.2,89.5,3.2,89.5C3.2,89.5,3.2,89.5,3.2,89.5z
	 M3.2,89.3C3.2,89.3,3.2,89.3,3.2,89.3C3.1,89.3,3.1,89.2,3.2,89.3C3.2,89.2,3.2,89.2,3.2,89.3z M11.3,83.8
	c-0.1,0.1-0.3,0.2-0.4,0.3l0,0l0,0c0,0-0.1,0-0.2-0.1c0,0-0.1-0.1-0.2-0.1c0.1-0.1,0.1-0.3,0.2-0.4C11,83.7,11.1,83.7,11.3,83.8z
	 M1.8,79.1c0,0,0,0.1-0.1,0.2c0,0-0.1,0.1-0.1,0.2c-0.1-0.1-0.3-0.1-0.4-0.2c0.1-0.3,0.2-0.5,0.3-0.6C1.6,78.8,1.7,79,1.8,79.1
	L1.8,79.1z M12.9,78.8C12.9,78.8,12.9,78.8,12.9,78.8c-0.1,0-0.1-0.1-0.1-0.2c0,0,0,0,0,0C12.8,78.6,12.9,78.7,12.9,78.8z M3.2,76.4
	c-0.1,0-0.2,0.1-0.3,0.1l0,0C3,76.4,3.1,76.4,3.2,76.4L3.2,76.4z M4.7,74.9c-0.1,0-0.2,0.1-0.3,0.1l0,0C4.5,74.9,4.6,74.9,4.7,74.9
	L4.7,74.9z M1.8,65.7c-0.1,0.1-0.2,0.3-0.2,0.4c-0.1-0.2-0.2-0.4-0.2-0.6l0,0c0,0,0-0.1,0.1-0.2c0,0,0.1-0.1,0.1-0.1
	C1.6,65.3,1.7,65.5,1.8,65.7z M3.2,63.8L3.2,63.8L3.2,63.8c-0.1,0-0.2,0-0.3-0.1c0,0,0,0,0,0C3.1,63.7,3.1,63.8,3.2,63.8z M0.1,60.7
	c0,0.1-0.1,0.1-0.1,0.2l0,0l0,0C0,60.8,0.1,60.7,0.1,60.7C0.1,60.7,0.1,60.7,0.1,60.7z M18.2,54.9L18.2,54.9L18.2,54.9
	c-0.1,0-0.2,0-0.3-0.1l0,0C18.1,54.8,18.1,54.8,18.2,54.9z M5.3,51c0,0,0.1,0.1,0.1,0.1c-0.5,0.3-1,0.7-1.5,0.9l0,0
	c-0.1-0.1-0.2-0.1-0.3-0.2c0.6-0.3,1.1-0.6,1.6-0.9C5.2,50.9,5.3,50.9,5.3,51z M11.2,45c0,0.1,0.1,0.2,0.1,0.2l0,0
	c0,0.1-0.1,0.2-0.1,0.2c0,0-0.1,0-0.2,0c-0.1,0-0.3,0-0.5,0l-0.1,0l0,0h0c0,0-0.1,0-0.2-0.1c-0.1,0-0.1-0.1-0.2-0.1
	c0.5-0.2,0.8-0.3,1.1-0.5C11.2,44.9,11.2,44.9,11.2,45z M18.4,44.8L18.4,44.8c-0.1,0-0.2,0-0.3-0.1l0,0l0,0
	C18.2,44.7,18.3,44.7,18.4,44.8z M10.6,42.1c0.2,0.2,0.3,0.3,0.3,0.4c0,0.1-0.1,0.2-0.3,0.4c-0.1,0.1-0.3,0.2-0.4,0.4
	c-0.1-0.4-0.3-0.8-0.4-1.1l0,0c0-0.1,0-0.1,0.1-0.3c0-0.1,0.1-0.1,0.1-0.2C10.2,41.8,10.4,42,10.6,42.1z M4.1,40.4
	C4.1,40.4,4.1,40.4,4.1,40.4c-0.1,0-0.1-0.1-0.1-0.2c0,0,0,0,0,0C4,40.2,4.1,40.3,4.1,40.4z M0.4,39.6L0.4,39.6L0.4,39.6
	c-0.1,0-0.2,0-0.3-0.1c0,0,0.1-0.1,0.1-0.1C0.3,39.4,0.3,39.5,0.4,39.6z M13.3,38.4c-0.3,0.2-0.5,0.4-0.8,0.6l0,0c0,0-0.1,0-0.2-0.1
	c0,0-0.1,0-0.1-0.1c0.3-0.3,0.5-0.6,0.8-0.9C13.1,38.1,13.2,38.2,13.3,38.4z M13.1,36.4L13.1,36.4c0,0.1,0,0.2-0.1,0.3c0,0,0,0,0,0
	C13,36.6,13,36.5,13.1,36.4L13.1,36.4z M9.3,32.9C9.3,32.9,9.3,32.9,9.3,32.9c-0.1,0-0.1-0.1-0.1-0.2c0,0,0,0,0,0
	C9.3,32.8,9.3,32.8,9.3,32.9z M0.1,26.9c0.1,0,0.2-0.1,0.2-0.1l0,0C0.3,26.9,0.3,26.9,0.1,26.9L0.1,26.9z M5.6,26.9L5.6,26.9
	c-0.1,0-0.2,0-0.3-0.1l0,0l0,0C5.5,26.8,5.6,26.8,5.6,26.9z M15.4,26.1c-0.1,0-0.2,0.1-0.3,0.1l0,0C15.2,26.1,15.3,26.1,15.4,26.1
	L15.4,26.1z M8.4,24.5c0.1,0,0.2,0.1,0.3,0.1c-0.3,0.3-0.5,0.5-0.8,0.8c-0.1,0-0.1-0.1-0.2-0.1l-0.1,0c0.1-0.3,0.3-0.7,0.5-0.9
	C8.1,24.4,8.2,24.5,8.4,24.5z M5.5,23.8C5.7,23.9,5.8,24,6,24.1c-0.3,0.4-0.6,0.7-0.8,0.7l0,0c0,0-0.2,0-0.3-0.1
	c-0.1,0-0.2-0.1-0.3-0.2c0.2-0.3,0.4-0.6,0.6-0.9C5.3,23.7,5.4,23.8,5.5,23.8z M4.9,23.4L4.9,23.4c-0.1-0.1-0.2-0.1-0.2-0.2
	c0,0,0,0,0,0l0.1,0C4.9,23.2,4.9,23.3,4.9,23.4z M0.4,21.6c-0.1,0-0.1,0.1-0.2,0.1l0,0C0.2,21.6,0.3,21.6,0.4,21.6L0.4,21.6z
	 M11.7,19.9L11.7,19.9c0,0.1-0.2,0.4-0.5,0.8c-0.3-0.4-0.6-0.7-0.7-0.9l0-0.1c0.1-0.1,0.2-0.3,0.4-0.4
	C11.3,19.5,11.6,19.6,11.7,19.9z M4.1,18.7c-0.4,0.3-0.7,0.7-1,0.7h0c0,0-0.2-0.1-0.3-0.3c-0.1-0.1-0.2-0.3-0.3-0.4
	c0.3-0.1,0.7-0.2,1-0.4C3.7,18.5,3.9,18.6,4.1,18.7z M17.4,17.8c0,0,0.1,0.1,0.2,0.1c-0.1,0.1-0.1,0.3-0.2,0.4
	c-0.3-0.1-0.5-0.2-0.6-0.3c0.1-0.1,0.3-0.2,0.4-0.3l0,0l0,0C17.2,17.7,17.3,17.7,17.4,17.8z M16.9,13.4c-0.1,0-0.2,0.1-0.3,0.1l0,0
	C16.7,13.4,16.8,13.4,16.9,13.4L16.9,13.4z M6.4,13.8L6.4,13.8L6.3,14c-0.1,0.2-0.4,0.4-0.7,0.6c-0.2-0.4-0.3-0.8-0.5-1.2
	c0.2-0.3,0.4-0.7,0.5-1C6,12.9,6.3,13.4,6.4,13.8z M13.8,10.6C13.8,10.6,13.8,10.6,13.8,10.6c-0.1-0.1-0.1-0.1-0.1-0.2c0,0,0,0,0,0
	C13.8,10.4,13.8,10.5,13.8,10.6z M15.3,9.1C15.3,9.1,15.3,9.1,15.3,9.1c-0.1,0-0.1-0.1-0.1-0.2c0,0,0,0,0,0
	C15.3,8.9,15.3,9,15.3,9.1z M13.2,7.4c-0.1,0-0.1,0.1-0.2,0.1l0,0C13,7.5,13.1,7.4,13.2,7.4L13.2,7.4z M3.9,4.7l0,0.2
	C3.7,5.2,3.6,5.6,3.4,6c0,0-0.1,0-0.2,0C3.2,6,3.1,6,3,6c0-0.6,0-1.1,0.2-1.6c0,0,0.2-0.1,0.3-0.1c0.1,0,0.2,0,0.3-0.1
	C3.9,4.4,3.9,4.6,3.9,4.7z M7.8,3.7c0,0.1-0.1,0.1-0.1,0.2l0,0l0,0C7.7,3.8,7.8,3.7,7.8,3.7C7.8,3.6,7.8,3.7,7.8,3.7z M5.7,0.7
	c-0.1,0-0.2,0.1-0.3,0.1l0,0C5.5,0.8,5.5,0.7,5.7,0.7L5.7,0.7z M14.6,0.1C14.6,0.1,14.6,0.2,14.6,0.1c-0.1-0.1-0.1-0.1-0.1-0.2
	c0,0,0,0,0,0C14.5,0,14.6,0.1,14.6,0.1z M4.1-0.9L4.1-0.9c0,0.1,0,0.2-0.1,0.3c0,0,0,0,0,0C4-0.7,4-0.8,4.1-0.9L4.1-0.9z M13.1-1.5
	c0,0.1-0.1,0.1-0.1,0.2l0,0l0,0C13-1.4,13-1.5,13.1-1.5L13.1-1.5z M25.5,114c0.2,0,0.3-0.2,0.4-0.3c-0.1,0-0.3-0.1-0.7-0.2
	c0,0.1-0.1,0.3-0.2,0.4C25.2,113.9,25.4,114.1,25.5,114z M21.1,15c-0.2,0.2-0.5,0.5-0.7,0.7c0.2,0.1,0.5,0.3,0.6,0.2
	c0.2-0.2,0.3-0.5,0.3-0.7L21.1,15z M23.8,8.2c0,0,0.1,0,0.1-0.1V7.9c-0.1,0-0.2,0.1-0.3,0.2L23.8,8.2z M22.7,0.4
	c0.1-0.1,0.1-0.2,0.2-0.3l-0.2-0.2c0,0.1-0.1,0.2-0.1,0.3L22.7,0.4z M25.3,109.4L25.3,109.4c0.1,0,0.2-0.1,0.3-0.2
	C25.5,109.2,25.4,109.3,25.3,109.4z M24.7,109.3C24.7,109.3,24.7,109.3,24.7,109.3c0-0.1-0.1-0.1-0.2-0.1c-0.2-0.1-0.5,0.2-0.7,0.3
	l0.2,0.6c0.3,0,0.5,0,0.9-0.3c-0.1-0.1-0.2-0.2-0.3-0.3C24.6,109.5,24.6,109.4,24.7,109.3z M25.2,109.6c0.1,0.1,0.2,0.2,0.3,0.2
	c0-0.1,0.1-0.2,0.1-0.3l-0.1,0.1l-0.2-0.2L25.2,109.6z M20.6,109.8c0,0.1-0.1,0.2-0.1,0.3l0.2,0.2c0.1-0.1,0.1-0.2,0.2-0.3
	L20.6,109.8z M25.6,109.5l0.1-0.2C25.7,109.3,25.7,109.3,25.6,109.5z M24.3,111.8l0.2,0.2c0.5,0,1.1,0,1.4-0.5V111
	c-0.1,0-0.2-0.1-0.3-0.1c-0.4,0.2-0.8,0.3-1.2,0.5C24.4,111.5,24.4,111.7,24.3,111.8z M29.7,72.6l0.2-0.2c-0.1-0.1-0.1-0.2-0.2-0.3
	l-0.1,0.2C29.6,72.4,29.6,72.5,29.7,72.6z M30.1,102.4v-0.3C30,102.2,30,102.3,30.1,102.4L30.1,102.4z M24.8,105.6
	c0.1,0,0.2-0.1,0.3-0.2l-0.2-0.2c-0.1,0.1-0.2,0.1-0.3,0.2L24.8,105.6z M21.6,79.9c0.1-0.1,0.1-0.2,0.2-0.3l-0.2-0.2
	c0,0.1-0.1,0.2-0.1,0.3L21.6,79.9z M22.1,80.8c0-0.1,0.1-0.2,0.1-0.3l-0.2-0.2c-0.1,0.1-0.1,0.2-0.2,0.3L22.1,80.8z M27.3,106.1
	l0.1-0.2c0-0.1-0.1-0.2-0.2-0.3l-0.2,0.2C27.2,105.9,27.3,106,27.3,106.1z M23.3,105.3l0.2-0.2c-0.1-0.1-0.1-0.2-0.2-0.3l-0.1,0.2
	C23.2,105.1,23.3,105.2,23.3,105.3z"/>
</svg>
