<?xml version="1.0" encoding="utf-8"?>
<!-- Generator: Adobe Illustrator 18.0.0, SVG Export Plug-In . SVG Version: 6.00 Build 0)  -->
<!DOCTYPE svg PUBLIC "-//W3C//DTD SVG 1.1//EN" "http://www.w3.org/Graphics/SVG/1.1/DTD/svg11.dtd">
<svg version="1.1" id="Layer_1" xmlns="http://www.w3.org/2000/svg" xmlns:xlink="http://www.w3.org/1999/xlink" x="0px" y="0px"
	 viewBox="0 0 50 50" enable-background="new 0 0 50 50" xml:space="preserve">
<path fill="#FFFFFF" d="M6.6,32.5l-0.2-0.2c0,0.1-0.1,0.2-0.1,0.3l0.1,0.2C6.5,32.7,6.5,32.6,6.6,32.5z M21.4,11.6
	C21.4,11.6,21.4,11.5,21.4,11.6C21.4,11.5,21.4,11.6,21.4,11.6L21.4,11.6z M6,29.6c-0.2-0.1-0.4-0.2-0.6-0.3
	c-0.3,0.1-0.5,0.2-0.7,0.4c0.2,0.1,0.4,0.2,0.6,0.2C5.5,29.9,5.8,29.7,6,29.6z M27,11.6c0-0.1-0.1-0.2-0.2-0.3l-0.1,0.2
	c0,0,0,0.1,0.1,0.1H27z M21.1,10.1c-0.1,0.1-0.3,0.2-0.5,0.3c0.2,0.1,0.4,0.2,0.5,0.2c0.2,0,0.4-0.2,0.6-0.2
	C21.5,10.3,21.3,10.2,21.1,10.1z M7.3,27.7c-0.1,0-0.1,0.1-0.2,0.1C7,27.9,7,28,6.9,28.1c0.1,0.1,0.3,0.2,0.4,0.2c0,0,0,0,0,0V27.7z
	 M7.3,31l-0.7,0c0.1,0.1,0.1,0.3,0.2,0.3c0.1,0,0.3,0,0.4,0c0,0,0,0,0.1,0V31z M5.1,11.6c0.1-0.1,0.2-0.2,0.4-0.3
	c-0.1,0-0.3-0.1-0.7-0.2c0,0.1-0.1,0.2-0.2,0.4c0.1,0,0.1,0.1,0.2,0.1H5.1z M16.6,11.2l0.1-0.2C16.6,10.9,16.4,10.8,16.6,11.2z
	 M2.3,20.4c0.1,0.1,0.1,0.2,0.2,0.3c0.1-0.1,0.2-0.2,0.3-0.3c-0.1-0.1-0.1-0.3-0.2-0.3C2.5,20.2,2.4,20.3,2.3,20.4z M16.2,11.6h0.4
	c0,0,0,0,0,0c-0.1-0.1-0.3-0.1-0.4-0.2C16.2,11.4,16.2,11.5,16.2,11.6z M4.5,37.6l0.2-0.2c-0.1,0-0.2-0.1-0.3-0.1l-0.2,0.1
	C4.3,37.5,4.4,37.5,4.5,37.6z M16.1,10.9c0.1,0.1,0.2,0.2,0.3,0.4l0,0c-0.1-0.2-0.3-0.6-0.6-1C16,10.7,16.1,10.8,16.1,10.9z
	 M2.8,25.2L3,25c-0.1,0-0.2-0.1-0.3-0.1l-0.2,0.2C2.6,25.1,2.7,25.2,2.8,25.2z M27.7,8.6c-0.1,0.1-0.1,0.2-0.2,0.3L27.7,9
	c0-0.1,0.1-0.2,0.1-0.3L27.7,8.6z M19.9,9c0.3,0.2,0.7,0.2,1,0.3L21,9c-0.4-0.2-0.7-0.4-1.1-0.6C19.9,8.6,19.8,8.9,19.9,9z
	 M31.2,9.3l0.1-0.2c0-0.1-0.1-0.2-0.2-0.3L31,9C31,9.1,31.1,9.2,31.2,9.3z M16.8,11.6c-0.1-0.2-0.2-0.3-0.2-0.4l-0.1,0.1
	c0.1,0.1,0.1,0.2,0.1,0.3l0,0H16.8z M32.7,8.7l0.2-0.2c-0.1,0-0.2-0.1-0.3-0.1l-0.2,0.1C32.5,8.6,32.6,8.7,32.7,8.7z M40.1,5.6
	c0.1,0.1,0.3,0.1,0.5,0.3c0.1-0.2,0.3-0.3,0.4-0.6c0-0.1-0.1-0.2-0.2-0.4L40.1,5.6z M23.5,4.8l-0.2,0.1c0.2,0,0.4,0.1,0.5,0.1
	C23.9,5,24,4.9,24.1,4.9C23.9,4.8,23.7,4.8,23.5,4.8z M38.1,3.3c0,0.1,0.1,0.2,0.2,0.3l0.2-0.2c-0.1-0.1-0.1-0.2-0.2-0.3L38.1,3.3z
	 M47.8,3.2L47.9,3v0c-0.1,0-0.2-0.1-0.3-0.1L47.4,3C47.5,3.1,47.6,3.1,47.8,3.2z M1.2,44c0.5-0.4,1.1-1,0.9-1
	c-0.4-0.1-0.4-0.1-0.9-0.3c-0.1,0-0.2-0.2-0.2-0.3c0.1-0.1,0.3-0.2,0.4-0.2c0.7,0,1.4-0.1,0.6-1.1c-0.1-0.1,0.2-0.3,0.3-0.5
	c0.2-0.3,0.9-0.5-0.2-0.7c-0.7-0.2-0.5-1.5,0.2-2.2c0.2-0.2-0.7-0.5-0.8-0.7c-0.4-0.7-0.4-0.7,0.1-1.1c0.3-0.2,0.6-0.5,0.9-0.7
	c0.2-0.1,0.3-0.3,0.4-0.5c-0.2-0.1-0.4-0.1-0.7-0.1c-0.3,0-0.7,0.1-1,0c-0.1,0-0.3-0.3-0.3-0.5c0-0.1,0.1-0.3,0.2-0.3
	c0.3-0.1,0.7,0,1-0.1c0.4,0,0.8-0.1,1.2-0.2c-0.3-0.6-0.8-0.1-1.2-0.2c-0.3-0.1-0.5-0.2-0.7-0.4c-0.1-0.1,0.1-0.4,0.3-0.5
	c0.2-0.2,0.5-0.3,0.8-0.4c0.2-0.1,0.4-0.4,0.3-0.5c-0.2-0.2-0.4-0.3-0.7-0.4c-0.1-0.1-0.4,0.1-0.5,0c-0.2-0.1-0.3-0.3-0.3-0.5
	c0-0.1,0.3-0.4,0.4-0.4c0.7-0.1,1.4,0,0.4-0.8c-0.3-0.2-0.3-0.8-0.5-1.1c0.2,0,0.3-0.1,0.5-0.1c0.2,0,0.3,0,0.5,0
	c-0.1-0.2-0.1-0.5-0.2-0.6c-0.6-0.5-1-1.5-0.6-2.3c0.2-0.5,0.3-0.8-0.4-0.9c-0.5,0-0.5-0.2-0.1-0.4c0.3-0.1,0.6-0.3,0.8-0.4
	c0.3-0.3,0.3-0.4-0.2-0.5c-0.1,0-0.3-0.1-0.4-0.2l-0.2-0.1l-0.1-0.1l-0.1-0.1c-0.1-0.1,0-0.8,0-0.8c1-0.1,0.6-0.7,0.2-1.3
	c0.8-0.4-0.2-1.7,0.3-2.5c0.2-0.3-0.3-1.7-0.4-2.6c0-0.8,0.1-1.6,0.2-2.4c0.1-1.1,0.3-2.7,0.6-4c0.2-0.7,0.4-1.6,1.1-1
	c0,0,0.3-0.4,0.3-0.5C3.4,6.7,3.6,6.5,4.1,6.2C4.5,6,5.9,6.3,4.8,5.1C4.9,4.9,5,4.8,5.2,4.6c0.2-0.2,0.4-0.5,0.6-0.6
	C6.1,3.6,6.6,3.3,7,3.1c0.4-0.2,1.2-0.1,1.8,0c0.8,0.1,0.7,0.2,0.7-0.2c0-0.3,0.1-0.6,0.1-0.9c0.1-0.6,0.3-0.8,1.3-0.5
	c0.5,0.2,1,0.3,1.5,0.5c0.3,0.3,0.2,0.8,1.3,0.7c0.3,0,0.6-0.3,0.7-0.5c0.1-0.4,0.1-0.8,0.2-1.2l0.1-0.6c0.3,0.2,0.6,0.3,0.8,0.5
	c0.2,0.2,0.3,0.4,0.4,0.7c0.7,1.1,1,0.2,1.5,0.1c0.7-0.2,1.6-0.2,2.3-0.4c1.1-0.3,1.7-0.1,1.8,0.5c0.1,0.3,0,0.6,0.3,0.9
	c0.3,0.2,0.9,0.4,1.3,0.6c0.1-0.2,0.3-0.4,0.4-0.7c0.1-0.2-0.1-0.4-0.1-0.7c-0.1-0.4-0.5-0.9,1.1-0.9c0.3,0,0.6,0,0.8,0
	c0.2,0,0.4,0.1,0.5,0.1c0.1,0.1,0.2,0.3,0.2,0.6c0,0.2,0.2,0.4,0.2,0.6c0.1-0.2,0.2-0.4,0.2-0.5c0-0.3,0-0.6,0-0.9
	c0-0.1,0.1-0.2,0.2-0.4C26.8,0.7,27,0.8,27,0.9l0.1,2c0,0.1,0.2,0.2,0.3,0.3L27.6,3c-0.4-0.5,0.9-0.7,0.2-1.3
	c-0.4-0.3-0.2-0.6,0.1-0.9c0.1-0.1,0.2-0.2,0.3-0.3c0.1,0.1,0.3,0.2,0.3,0.3c0.1,0.4,0,0.7,0.1,1.1c0,0.1,0.2,0.2,0.2,0.4L29,1.7
	c0.2-0.5,0.5-0.5,0.9-0.2C30.6,1.9,31,2,31,1.1L31.4,1c0.2,0.3,0.5,0.6,0.5,0.9c0.1,0.6,0.1,1.2,0.1,1.8l0.2,0.1
	c0.1-0.1,0.3-0.2,0.3-0.2c-0.4-1.1,0.6-1.7,0.9-2.6c0-0.1,0.2-0.2,0.2-0.3c0.1,0.1,0.2,0.2,0.2,0.4c0,0.2,0,0.4,0.1,0.7
	c0.1,0.4,0.2,0.8,0.3,1.1L35,1.8c0.1-0.2,0.2-0.4,0.3-0.6C35.8,2,36.2,0.6,36.6,1c0.4,0.4,0.7,1-0.1,1.3c0-0.5-0.5-0.6-0.8-0.4
	c-0.4,0.3-0.4,0.7,0.3,0.8c0,0.1,0,0.3,0,0.4c0,0.1,0.1,0.2,0.2,0.4c0.1-0.1,0.2-0.2,0.3-0.4c0-0.1,0-0.3,0-0.4c0.2-0.4,1,1.3,1-0.2
	c0-0.4-0.1-0.9-0.1-1.3c0-0.1,0.2-0.2,0.2-0.3c0.1,0.1,0.2,0.2,0.2,0.3c0.1,0.3,0.2,0.7,0.4,1c0.1,0.2,0.3,0.2,0.5,0.4
	c0.1-0.2,0.1-0.4,0.2-0.6c0.1-0.2,0.2-0.4,0.3-0.7c0.2,0.2,0.7,0.4,0.7,0.6c0,0.5,0.3,0.2-0.2,0.7c-0.2,0.3,0.5,0.1,0.5,0.8
	c0.6-0.7,0.6-0.4,1.3-0.8c0.1-0.1,0.3,0,0.5,0c0.2,0,0.3-0.1,0.5-0.1c-0.1-0.2-0.1-0.4-0.3-0.6c-0.1-0.1-0.3,0-0.5,0
	c-0.4,0.1-0.8,0.2-1.2,0.3l-0.1-1c0.1,0,0.3,0,0.3,0c0.1,0.1,0.1,0.3,0.1,0.4c0,0.4,0,0.8,0.6,0.7c0.2,0,0.3-0.4,0.4-0.6
	C42,1.7,42,1.5,42,1.3c0.9,0.5,1.1-0.3,1.5-0.6c0.1,0.2,0.3,0.5,0.3,0.5c-0.3,0.4-0.6,0.9-0.4,1.4c0.1,0.2,0.4,0.4,0.7,0.6
	c0.1-0.2,0.3-0.4,0.3-0.6c0-0.4-0.1-0.8,0-1.1c0-0.3-0.3-0.9,0.3-0.7C45,1,45.9,0.2,45.9,1.1c0,0.2,0,0.4,0,0.6
	c-0.1,0.2-0.3,0,0.3,0.2c0.5,0.2,0.4,0.3,0.3-0.2c0-0.1-0.1-0.4,0-0.4c0.3-0.3,0.6-0.4,1-0.6c0,0,2.5-0.9,2.6-0.6h-2.1H0l0,43.4
	L0,50C0,50,0.7,44.4,1.2,44z M36.2,5.7l0.2,0.1c0.1,0,0.2-0.1,0.3-0.2l-0.2-0.1C36.4,5.6,36.3,5.7,36.2,5.7z M31.2,2.6L31.2,2.6
	l-0.2,0.1l0,0.1C31.1,2.7,31.2,2.6,31.2,2.6z M30.7,2.8c0,0,0.1,0.2,0.1,0.3c0.1,0,0.1-0.1,0.3-0.4l0-0.1
	C30.9,2.7,30.8,2.7,30.7,2.8z M31.5,2.3c0,0-0.1-0.1-0.3,0.2l0.1,0C31.4,2.5,31.4,2.4,31.5,2.3z M31,2.4l0.1,0.1
	c0-0.1,0.1-0.2,0.2-0.3L31,2.4z M41.1,6.8c0,0-0.1-0.1-0.3,0.2l0.1,0C41,7,41.1,6.9,41.1,6.8z M40.3,7.3c0,0,0.1,0.2,0.1,0.3
	c0.1,0,0.1-0.1,0.3-0.4l0-0.1C40.6,7.2,40.4,7.2,40.3,7.3z M44.4,5.1c0-0.1,0.1-0.3,0.2-0.6c-0.2-0.1-0.5-0.2-0.7-0.2
	c-0.1,0-0.2,0.1-0.4,0.2L44.4,5.1z M40.7,7.2l0,0.1c0.1-0.1,0.1-0.2,0.2-0.3L40.8,7L40.7,7.2z M40.7,6.9L40.8,7
	c0-0.1,0.1-0.2,0.2-0.3L40.7,6.9z M28,7.8c0,0.1,0.1,0.2,0.2,0.3l0.2-0.2c-0.1-0.1-0.1-0.2-0.2-0.3L28,7.8z M30.3,7.1
	c0.1-0.2,0.2-0.4,0.3-0.5c0-0.1-0.1-0.3-0.2-0.3c-0.1,0-0.4,0-0.4,0.1c-0.1,0.3-0.1,0.5-0.2,0.8C29.8,7.4,30,7.9,30,7.9
	C30.7,7.8,30.2,7.4,30.3,7.1z M37,6.4c-0.1,0.1-0.1,0.2-0.2,0.3L37,6.8c0-0.1,0.1-0.2,0.1-0.3L37,6.4z"/>
</svg>
