<?xml version="1.0" standalone="no"?>
<!DOCTYPE svg PUBLIC "-//W3C//DTD SVG 1.1//EN" "http://www.w3.org/Graphics/SVG/1.1/DTD/svg11.dtd">
<svg xmlns="http://www.w3.org/2000/svg"><metadata>This SVG WebFont was generated by YouWorkForThem.
Copyright (c) ParaType, Inc., 2005. All rights reserved.</metadata><defs><font horiz-adv-x="1024" id="ywftsvg"><font-face ascent="1638" bbox="-518 -506 2079 1966" cap-height="1475" descent="-410" font-family="" font-stretch="normal" font-weight="400" panose-1="2 12 8 6 4 0 4 0 2 4" underline-position="0" underline-thickness="0" unicode-range="U+0020-F6E2" units-per-em="2048" x-height="1176"/><missing-glyph horiz-adv-x="477"/><glyph d="M526 1417v-147q0 -31 -15 -48.5t-38 -13.5l-37 4q-23 2 -33 -14t-8 -41l2 -37l2 -10h78q49 0 49 -66v-149q0 -16 -1 -23.5t-7 -20.5t-25.5 -19.5t-50.5 -6.5h-28v-739q0 -61 -18.5 -77.5t-61.5 -12.5l-64 4l-90 -6q-33 -2 -46 14.5t-14 29.5t-1 58v723l-27 -2 q-29 -2 -40 14.5t-11 71.5v139q0 35 11 52.5t44 15.5l23 -2v186q0 57 18.5 98.5t41 61t67.5 29.5t69.5 11t75.5 1h23h45q35 0 51 -13.5t16 -64.5zM926 1034v-938q0 -66 -14.5 -83t-61.5 -15l-74 4l-100 -4q-14 0 -24.5 2t-16.5 9t-9 11.5t-5.5 17.5t-2.5 16v20v16v893l-2 92 q-2 59 22 75.5t89 16.5h37l78 2q45 2 67.5 -12t18.5 -49v-8zM811 1235h-47h-32.5h-30t-22.5 1t-19.5 5t-14.5 10t-13 16.5t-7 26t-5.5 36t-1.5 46.5v10q0 43 6.5 68t17.5 32t25.5 9t32.5 0l82 -2l62 2q53 2 68.5 -16.5t15.5 -110.5q0 -51 -5 -77.5t-22.5 -39t-33 -14.5 t-56.5 -2z" glyph-name="uniF001" horiz-adv-x="1009" unicode="fi"/><glyph d="M526 1417v-147q0 -31 -15 -48.5t-38 -13.5l-37 4q-23 2 -33 -14t-8 -41l2 -37l2 -10h78q49 0 49 -66v-149q0 -16 -1 -23.5t-7 -20.5t-25.5 -19.5t-50.5 -6.5h-28v-739q0 -61 -18.5 -77.5t-61.5 -12.5l-64 4l-90 -6q-33 -2 -46 14.5t-14 29.5t-1 58v723l-27 -2 q-29 -2 -40 14.5t-11 71.5v139q0 35 11 52.5t44 15.5l23 -2v186q0 121 65 166q49 35 230 35h45q35 0 51 -13.5t16 -64.5zM623 100v1303q0 55 22.5 74.5t83.5 17.5l37 -2l100 2q37 0 49.5 -14.5t12.5 -50.5v-1336q0 -66 -14.5 -82t-57.5 -14l-86 4l-90 -4q-14 0 -24.5 2 t-16.5 10t-9 13.5t-5 18.5t-2 17v23v18z" glyph-name="uniF002" horiz-adv-x="1009" unicode="fl"/><glyph d="M2 160l64 307q20 104 20 111q14 104 32.5 211.5t44 246t40.5 221.5l8 48q18 119 39 145q18 25 51 25h252q61 0 80 -25q12 -14 65 -264l58 -271q12 -59 30.5 -185t55.5 -337q8 -43 35.5 -160.5t27.5 -154.5t-26.5 -57.5t-67.5 -20.5h-176q-49 0 -66 47q-6 20 -10 78 q-4 53 -10 74q-20 59 -86 59q-45 0 -82 -15.5t-35 -47.5l2 -72q2 -76 -22.5 -99.5t-73.5 -23.5h-189q-78 0 -77 59q0 23 16 101zM438 1110l-57 -416q-6 -45 -8 -67v-11q6 -35 78 -34q35 0 55 11t18 46l-4 45l-65 428zM457 1538h-146q-20 0 -20 16q0 4 4 13l98 172 q12 23 58 22h233q20 0 23 -16v-4q0 -2 -9 -10l-188 -177q-16 -16 -53 -16z" glyph-name="uniF460" horiz-adv-x="894" unicode="А`"/><glyph d="M78 330v993q0 10 -1 29.5t-1 31t2 26.5t9 26.5t17 19.5q25 18 125 19h394q63 0 84.5 -22.5t23.5 -84.5v-31q0 -10 1 -32.5t1 -32.5v-10v-19q0 -45 -16.5 -68.5t-33.5 -27.5t-50 -4l-170 2q-18 0 -28.5 -3t-21 -22.5t-10.5 -56.5v-66q0 -68 72 -63l139 6q61 4 84 -21.5 t23 -115.5v-60q0 -25 -2 -44t-10.5 -43.5t-26.5 -38t-45 -11.5l-121 6q-43 2 -65.5 1t-31.5 -14t-9 -18.5v-35.5v-121q0 -51 10 -63.5t57 -12.5l180 2q53 0 72 -24.5t19 -130.5v-76q0 -43 -10.5 -69.5t-31 -36t-32.5 -11.5t-35 -2q-45 0 -131 4t-129 4q-37 0 -110.5 -4 t-112.5 -4q-53 0 -75 26.5t-20 59.5l7 98q0 4 5 36t5 110zM399 1538h-145q-20 0 -21 16q0 4 5 13l98 172q12 23 57 22h234q20 0 22 -16v-4q0 -2 -8 -10l-188 -177q-17 -16 -54 -16z" glyph-name="uniF461" horiz-adv-x="778" unicode="Е`"/><glyph d="M958 1323v-1184q0 -96 -17 -117.5t-85 -21.5h-104q-61 0 -80 19.5t-19 105.5v571h-41l-166 -571q-27 -90 -43 -107.5t-79 -17.5h-166q-57 0 -74.5 40t-17.5 132v1174l-3 45q-2 43 15.5 63.5t81.5 20.5h127q57 0 70.5 -27t13.5 -96v-574h41q90 279 174 596l12 47 q6 29 22.5 41.5t55.5 12.5h186q53 0 74.5 -27t21.5 -125zM522 1538h-145q-20 0 -21 16q0 4 4 13l99 172q12 23 57 22h234q20 0 22 -16v-4q0 -2 -8 -10l-189 -177q-16 -16 -53 -16z" glyph-name="uniF462" unicode="И`"/><glyph d="M981 924v-236q0 -330 -55 -465q-100 -248 -443 -248q-211 0 -319 146q-61 84 -87 221t-26 383q0 211 15.5 344t64.5 225q113 207 410 207q215 0 323 -127q74 -86 95.5 -194.5t21.5 -255.5zM416 934v-408q0 -137 26 -168q23 -29 64 -28q59 0 86 49q16 33 20 77t4 160v33 v346q0 70 -25.5 114t-72.5 44q-49 0 -74 -39q-28 -43 -28 -180zM526 1538h-145q-20 0 -21 16q0 4 5 13l98 172q12 23 57 22h234q20 0 22 -16v-4q0 -2 -8 -10l-188 -177q-17 -16 -54 -16z" glyph-name="uniF463" horiz-adv-x="1034" unicode="О`"/><glyph d="M664 1475h174q68 0 81 -21.5t-1 -56.5l-68 -430q-35 -221 -133 -686q-31 -147 -99 -211q-92 -88 -272 -88q-139 0 -201 22q-33 12 -42 29.5t-9 52.5l-2 197q0 47 12.5 61t34.5 14q4 0 29 -6q27 -10 37 -10q39 0 55 16q14 14 14 39q0 14 -24 99q-20 61 -29 92l-207 739 q-2 8 -7 21.5t-7 19.5q-4 18 -4 57q0 14 2 22.5t22.5 18t61.5 9.5h223q57 0 70 -29q18 -43 51 -295t47 -494h43q18 221 37 539q2 47 16 190q4 47 23 66q23 23 72 23zM485 1538h-145q-20 0 -21 16q0 4 5 13l98 172q12 23 57 22h234q20 0 22 -16v-4q0 -2 -8 -10l-188 -177 q-17 -16 -54 -16z" glyph-name="uniF464" horiz-adv-x="952" unicode="У`"/><glyph d="M391 557v-170q0 -84 68 -84q102 0 102 178q0 143 -102 144q-68 0 -68 -68zM481 0h-282q-74 0 -101 18q-25 18 -24 140v69q0 51 4 151.5t4 151.5q0 338 -9.5 500t-9.5 227v125q0 61 20.5 77t98.5 16h94q84 0 102.5 -22.5t18.5 -133.5v-283q0 -41 3 -64.5t14.5 -32.5 t18.5 -10t28 -1h80q113 0 198 -66q76 -57 108 -152.5t32 -248.5q0 -203 -62 -305q-55 -96 -141 -126t-195 -30zM1071 1475h94q84 0 102.5 -22.5t18.5 -133.5l-6 -973l4 -225q2 -76 -22.5 -98.5t-108.5 -22.5h-72q-45 0 -58 1t-36.5 10t-31 33t-7.5 65v110q0 20 3 54t1 116 q-4 266 4 776v62q0 10 -2 41.5t0 50.5q2 25 0 29t-2 14v20q0 61 20.5 77t98.5 16zM686 1538h-145q-20 0 -21 16q0 4 4 13l99 172q12 23 57 22h233q20 0 23 -16v-4q0 -2 -8 -10l-189 -177q-16 -16 -53 -16z" glyph-name="uniF465" horiz-adv-x="1351" unicode="Ы`"/><glyph d="M59 1290l-2 76q0 39 8.5 62.5t28 32.5t34.5 11.5t44 2.5q283 0 403 -127q131 -139 132 -588q0 -211 -22.5 -357.5t-92.5 -246.5q-51 -74 -125 -112t-126 -44t-136 -6q-70 0 -106 17.5t-43 37t-5 55.5l4 115q4 100 11 111q18 33 49 30l92 -4q66 -4 104 58q43 66 35 151 q-4 31 -29 31h-135q-16 0 -28.5 12.5t-12.5 32.5v225q0 41 41 41h135q29 0 29 33q0 82 -35 125q-31 37 -78 49q-29 8 -51 8h-55q-76 0 -72 92zM389 1538h-145q-20 0 -21 16q0 4 4 13l99 172q10 23 57 22h233q20 0 23 -16v-4q0 -2 -8 -10l-189 -177q-16 -16 -53 -16z" glyph-name="uniF466" horiz-adv-x="759" unicode="Э`"/><glyph d="M1421 924v-236q0 -330 -55 -465q-45 -111 -154.5 -179.5t-287.5 -68.5q-201 0 -308 146q-100 137 -100 381v24q0 39 -55 39q-25 0 -39 -5t-19.5 -22.5t-7.5 -24.5t-1 -37t1 -36v-323v-18.5v-19.5t-1 -16.5t-5 -17.5t-9 -14t-15.5 -12.5t-23.5 -9.5t-31.5 -7t-43.5 -2h-80 h-16h-18.5h-17.5t-16 2t-14.5 5t-14.5 7t-11 10.5t-9 14.5t-5.5 19.5t-2.5 25.5q0 6 1 16.5t1 14.5q2 23 3 135v1104q0 41 2 57t13 34.5t35.5 24t71.5 5.5h91q57 0 85.5 -16.5t33.5 -35t5 -49.5v-14l-14 -365q-4 -102 74 -102q18 0 35.5 14.5t17.5 36.5v10q0 307 152 443 q119 104 313 104q215 0 324 -127q74 -86 95 -194.5t21 -255.5zM856 934v-408q0 -137 27 -168q23 -29 63 -28q59 0 86 49q16 33 20.5 77t4.5 160v33v346q0 70 -25.5 114t-73.5 44q-49 0 -73 -39q-29 -43 -29 -180zM748 1538h-146q-20 0 -20 16q0 4 4 13l98 172q12 23 57 22 h234q20 0 22 -16v-4q0 -2 -8 -10l-188 -177q-16 -16 -53 -16z" glyph-name="uniF467" horiz-adv-x="1474" unicode="Ю`"/><glyph d="M934 1350v-1217q0 -90 -15.5 -111.5t-64.5 -21.5h-182q-68 0 -68 84v432h-37l-170 -438q-23 -61 -34 -69.5t-52 -8.5h-174l-45 -4q-33 -2 -52.5 15.5t-19.5 41.5q0 12 11 37l186 426q-82 47 -117 137q-37 98 -37 320q0 309 105 416q98 98 268 92l226 -6l159 4 q59 2 86 -20.5t27 -108.5zM612 913v146q0 66 -32 92q-23 18 -60 18q-66 0 -96 -45q-29 -45 -29 -243q0 -57 33 -99q35 -39 82 -39q59 0 82 33q20 35 20 137zM508 1538h-146q-20 0 -20 16q0 4 4 13l98 172q10 23 58 22h233q20 0 23 -16v-4q0 -2 -8 -10l-189 -177 q-16 -16 -53 -16z" glyph-name="uniF468" horiz-adv-x="997" unicode="Я`"/><glyph d="M479 76h-14q-37 -96 -154 -96q-119 0 -190 108q-80 123 -80 311q0 213 90 334q74 98 188 98q37 0 93 -16q37 -10 45 -10q27 0 26 33q0 51 -30 75q-31 29 -97 29q-49 0 -129 -24q-43 -12 -53 -13q-47 0 -47 68v102q0 47 8 55q6 12 47 27q121 39 244 39q197 0 270 -72 q72 -70 72 -233v-785l2 -38q0 -14 -1 -24.5t-3 -18t-9 -12.5t-9.5 -8t-14.5 -4t-15 -1h-20.5h-19.5h-141h-10.5h-10.5t-10 1t-10 4t-8.5 8t-5.5 14.5t-3 21t0 27.5zM328 483v-131q0 -102 73 -102q39 0 56.5 24.5t17.5 92.5v122q0 104 -67 105q-80 0 -80 -111zM430 1251h-145 q-20 0 -21 17q0 4 4 12l99 172q10 23 57 23h233q20 0 23 -17v-4q0 -2 -8 -10l-189 -176q-16 -17 -53 -17z" glyph-name="uniF46A" horiz-adv-x="839" unicode="а`"/><glyph d="M784 270v-157q0 -49 -20 -66q-27 -20 -99.5 -41.5t-158.5 -21.5q-139 0 -231.5 51t-151.5 166q-31 61 -46.5 135t-18.5 125t-3 139q0 178 30 312.5t124 209.5q92 74 231 74q217 0 312 -182q25 -47 36 -115t12 -114t1 -152q0 -55 -3 -84t-20.5 -54.5t-52.5 -25.5h-330 q-14 0 -22 -8q-10 -10 -11 -33q0 -45 25 -80q39 -55 139 -55q76 0 138 35q33 18 53 18q31 0 49 -20.5t18 -55.5zM403 709h64q16 0 25.5 2t17.5 14t8 35v33q0 68 -20 96q-20 33 -66 33q-72 0 -72 -115v-27q0 -71 43 -71zM438 1251h-145q-20 0 -21 17q0 4 4 12l99 172 q10 23 57 23h234q20 0 22 -17v-4q0 -2 -8 -10l-188 -176q-17 -17 -54 -17z" glyph-name="uniF46B" horiz-adv-x="858" unicode="е`"/><glyph d="M387 901l-41 -373l33 -10l203 592q23 68 55 68q8 0 23.5 -1t25.5 -1h137h10.5h10.5t10 -1t10 -3.5t9.5 -6.5t9.5 -9t6 -13t6 -19.5t3 -26t1 -32.5v-954q0 -43 -5 -68t-21.5 -33t-21.5 -9t-28 -1h-137q-63 0 -84.5 16.5t-19.5 73.5l10 184l41 373l-33 8l-203 -589 q-23 -68 -55 -68q-8 0 -23.5 1t-25.5 1h-88q-41 0 -56.5 2t-38 12.5t-29.5 37t-5 71.5l4 121v821q0 43 5 67.5t21.5 33t21.5 9.5t28 1h137q63 0 84.5 -16.5t19.5 -74.5zM498 1251h-146q-20 0 -20 17q0 4 4 12l98 172q12 23 58 23h233q20 0 23 -17v-4q0 -2 -9 -10l-188 -176 q-16 -17 -53 -17z" glyph-name="uniF46C" horiz-adv-x="974" unicode="и`"/><glyph d="M57 594q0 123 2 184.5t17.5 140t48.5 130.5q90 147 305 147q197 0 279 -122t82 -425q0 -145 -2.5 -211.5t-12.5 -141.5t-31 -124q-84 -193 -329 -192q-131 0 -205 54t-111 163q-43 127 -43 397zM352 778v-385q0 -94 72 -94q74 0 74 94v350q0 84 -17 107q-18 27 -57 27 q-72 -1 -72 -99zM434 1251h-145q-20 0 -21 17q0 4 4 12l99 172q10 23 57 23h234q20 0 22 -17v-4q0 -2 -8 -10l-189 -176q-16 -17 -53 -17z" glyph-name="uniF46D" horiz-adv-x="847" unicode="о`"/><glyph d="M51 -100v176q0 76 49 76q16 0 29 -7l10 -5t12.5 -5t14.5 -2q16 0 24.5 8.5t8.5 22.5q0 16 -6 53l-175 877q-4 20 -4 24q0 23 18.5 40.5t53.5 17.5h176q31 0 42 -13.5t18 -70.5l67 -732h37l57 758q0 31 19 45q14 12 53 13h150q82 0 81 -64q0 -12 -8 -53l-205 -965 q-31 -145 -98 -211q-72 -70 -207 -69q-113 0 -166 20q-51 17 -51 66zM406 1251h-146q-20 0 -20 17q0 4 4 12l98 172q10 23 57 23h234q20 0 22 -17v-4q0 -2 -8 -10l-188 -176q-16 -17 -53 -17z" glyph-name="uniF46E" horiz-adv-x="792" unicode="у`"/><glyph d="M377 444v-135q0 -68 59 -67q113 0 113 131q0 125 -113 125q-59 -1 -59 -54zM70 268v750v33q0 4 -1 13t-1 13q-4 55 22 80q18 18 92 19l43 -2q18 -2 50 0t40 2q39 0 54 -17q10 -12 10 -49l-2 -70v-223q0 -61 80 -61h41q152 0 243 -80q102 -90 103 -318q0 -59 -5 -99 t-30 -93t-70 -90q-96 -76 -280 -76h-273q-72 0 -98 14q-23 14 -22 111q0 45 2 89t2 54zM1042 1176h76q53 0 82 -13.5t34 -28t5 -38.5v-13l-8 -174v-817v-8q0 -31 -4 -45t-33 -26.5t-88 -12.5h-64q-45 0 -70.5 3t-36.5 15.5t-12 19.5t-1 30q0 4 1 12t1 12v107v880 q0 33 2 45.5t12 27.5t34.5 19.5t69.5 4.5zM662 1251h-146q-20 0 -20 17q0 4 4 12l98 172q12 23 57 23h234q20 0 22 -17v-4q0 -2 -8 -10l-188 -176q-16 -17 -53 -17z" glyph-name="uniF46F" horiz-adv-x="1304" unicode="ы`"/><glyph d="M66 535v135q0 37 15 48t42 11h96q31 0 31 41v14q0 51 -23 76q-27 27 -63 27l-64 2q-35 0 -53 20q-14 16 -14 56v147q0 45 20 64q23 20 97 20q111 0 184 -25q82 -29 133 -92q94 -119 94 -512q0 -309 -78 -434q-90 -145 -329 -145q-84 0 -105 24q-16 20 -16 54v157 q0 33 9 49.5t19.5 19.5t28.5 3h74q47 0 69 39q20 33 21 76v30q0 35 -45 35h-86q-16 0 -26.5 2t-20.5 16.5t-10 41.5zM319 1251h-145q-20 0 -20 17q0 4 4 12l98 172q10 23 57 23h234q20 0 22 -17v-4q0 -2 -8 -10l-188 -176q-17 -17 -54 -17z" glyph-name="uniF470" horiz-adv-x="618" unicode="э`"/><glyph d="M496 768v55q0 129 57 226q84 145 293 145q92 0 160.5 -25.5t119.5 -103.5q80 -123 80 -416q0 -215 -8 -314t-37 -163q-43 -92 -130 -141t-200 -49q-205 0 -282 163q-23 43 -38 117t-15 121v27q0 43 -43 43h-15q-37 0 -45 -22.5t-8 -80.5v-258v-8q0 -31 -4 -45t-33 -26.5 t-88 -12.5h-63q-45 0 -71 3t-37 15.5t-12 19.5t-1 30q0 4 1 12t1 12v107v880q0 33 2 45.5t12 27.5t35 19.5t70 4.5h75q53 0 82 -13.5t34 -28t5 -38.5v-13l-14 -290q-2 -29 0 -44.5t12 -26.5t31 -11h27q29 0 38 13t9 44zM768 778v-385q0 -94 72 -94q74 0 73 94v350 q0 84 -16 107q-18 27 -57 27q-72 -1 -72 -99zM641 1251h-145q-20 0 -21 17q0 4 4 12l99 172q12 23 57 23h233q20 0 23 -17v-4q0 -2 -8 -10l-189 -176q-16 -17 -53 -17z" glyph-name="uniF471" horiz-adv-x="1263" unicode="ю`"/><glyph d="M799 1075v-969q0 -63 -13.5 -84.5t-64.5 -21.5h-164q-66 0 -65 68v374h-35l-121 -381q-10 -31 -23.5 -44t-23.5 -15t-35 -2h-127l-43 -4q-25 -2 -47.5 12.5t-22.5 34.5q0 8 11 29l157 399q-61 23 -96 88q-43 82 -43 242q0 217 100 305q90 78 260 74l144 -4l141 2 q68 0 88 -21q23 -23 23 -82zM492 756v116q0 68 -62 68q-29 0 -46 -14.5t-24.5 -46t-8.5 -52t-1 -61.5v-14q0 -96 70 -97q35 0 52 19.5t18.5 34t1.5 47.5zM446 1251h-145q-20 0 -20 17q0 4 4 12l98 172q10 23 57 23h234q20 0 22 -17v-4q0 -2 -8 -10l-188 -176 q-17 -17 -54 -17z" glyph-name="uniF472" horiz-adv-x="874" unicode="я`"/><glyph glyph-name=".notdef" horiz-adv-x="477"/><glyph glyph-name="glyph1" horiz-adv-x="0"/><glyph glyph-name="glyph2" horiz-adv-x="681"/><glyph glyph-name="space" horiz-adv-x="477" unicode=" "/><glyph glyph-name="space" horiz-adv-x="477" unicode=" "/><glyph d="M422 291v-228q0 -20 -3 -31.5t-20.5 -21.5t-52.5 -10h-182q-20 0 -33.5 3t-25 20.5t-11.5 50.5v227q0 23 4 35t20.5 20.5t51.5 8.5h182q25 0 37 -3.5t22.5 -20.5t10.5 -50zM311 455h-104q-16 0 -28.5 1t-19.5 6t-12.5 7t-7.5 13.5t-3 12.5t-1 17v18l-57 900 q-2 31 15.5 46t68.5 15h192q59 0 73.5 -19.5t10.5 -82.5l-57 -859q-4 -49 -15.5 -62t-54.5 -13z" glyph-name="exclam" horiz-adv-x="516" unicode="!"/><glyph d="M80 1438h192v-559h-192v559zM406 1438h192v-559h-192v559z" glyph-name="quotedbl" horiz-adv-x="677" unicode="&quot;"/><glyph d="M588 1393l-53 -381h208l54 381q4 41 47 41h92q20 0 32.5 -12.5t10.5 -28.5l-53 -381h143q23 0 31 -8.5t6 -32.5l-10 -82q-4 -41 -49 -41h-144l-39 -262h146q43 0 37 -41l-11 -82q-4 -41 -49 -41h-145l-54 -381q-4 -41 -47 -41h-92q-20 0 -32.5 12.5t-10.5 28.5l53 381 h-208l-54 -381q-4 -41 -47 -41h-92q-20 0 -32.5 12.5t-10.5 28.5l53 381h-159q-41 0 -37 41l10 82q8 41 49 41h160l39 262h-162q-41 0 -37 41l10 82q8 41 49 41h162l54 381q4 41 47 41h92q20 0 32.5 -12.5t10.5 -28.5zM473 586h209l39 262h-209z" glyph-name="numbersign" horiz-adv-x="1177" unicode="#"/><glyph d="M61 125l-2 201q0 102 97 102q29 0 69 -31l23 -16q29 -23 82 -23q125 0 125 82q0 39 -25 68q-8 10 -98 86l-90 78q-180 156 -181 375q0 174 77 284.5t222 128.5v127q0 18 6.5 21.5t20.5 3.5h109q23 0 26.5 -8.5t3.5 -24.5v-106l95 2q53 2 83.5 -5.5t43 -31t13.5 -35.5 t1 -55v-146q0 -61 -16.5 -79.5t-53.5 -18.5q-25 0 -55 6l-27 6q-61 12 -78 12q-90 0 -90 -63q0 -35 17 -59q23 -33 114 -117l105 -96q156 -143 156 -353q0 -188 -80 -293q-84 -109 -228 -129v-141q0 -12 -1 -16t-8 -10.5t-21 -6.5h-109q-10 0 -15 1t-8.5 4.5t-3.5 4.5v7v8 v137q-76 -6 -159.5 8.5t-114.5 40.5q-6 6 -10 10.5t-7 9.5t-4.5 8t-2.5 9t-1 8v11.5v13.5z" glyph-name="dollar" horiz-adv-x="915" unicode="$"/><glyph d="M45 1141q0 94 7 150.5t33 111.5t81 80.5t143 25.5q141 0 207 -82q27 -35 40 -101t14 -119.5t1 -186.5q0 -53 -3 -89t-17 -85t-42 -79t-81 -52.5t-129 -22.5q-135 0 -201 84q-25 33 -37 92.5t-14 111.5t-2 161zM354 938v324q0 53 -47 53t-47 -53v-324q0 -55 47 -55t47 55z M311 -27l-80 37q-20 10 -20 41q0 12 12 37l744 1399q16 33 43 35h6q2 0 7 -3t7 -3l84 -41q16 -8 16 -33q0 -8 -10 -23l-739 -1409q-23 -41 -49 -41q-13 0 -21 4zM1298 469v-166q0 -80 -8 -132t-34.5 -103.5t-83 -76t-146.5 -24.5q-135 0 -201 84q-25 33 -37 92.5t-14 111.5 t-2 161q0 217 58.5 291.5t205.5 74.5q74 0 127.5 -23.5t79 -53t38.5 -80t15 -80t2 -76.5zM1081 211v324q0 53 -47 53t-47 -53v-324q0 -55 47 -55t47 55z" glyph-name="percent" horiz-adv-x="1343" unicode="%"/><glyph d="M631 788l96 -204l14 8q2 16 3 26.5t2.5 14.5t1.5 6v8v21q0 88 11 110.5t48 20.5l57 -2l80 2q86 2 86 -68q0 -86 -37 -213t-106 -225l106 -199q14 -20 15 -39q0 -23 -17.5 -41t-46.5 -16l-133 8l-74 -6q-18 -2 -37.5 24.5t-27.5 53.5q-94 -94 -244 -94q-180 0 -287.5 128 t-107.5 328q0 268 239 434q-96 145 -96 273q0 150 98.5 246t254 96t234.5 -90t79 -211q0 -195 -211 -400zM559 309l-160 307q-78 -66 -77 -163q0 -70 43 -121t98 -51q45 -1 96 28zM528 1268q-43 0 -67.5 -27t-24.5 -72q0 -74 74 -178q106 104 106 180q0 97 -88 97z" glyph-name="ampersand" horiz-adv-x="1071" unicode="&amp;"/><glyph d="M80 1438h192v-559h-192v559z" glyph-name="quotesingle" horiz-adv-x="352" unicode="'"/><glyph d="M541 1434v-230q0 -37 -21 -57q-12 -14 -28.5 -23.5t-26.5 -23.5q-41 -57 -55.5 -147.5t-14.5 -247.5q0 -375 62 -478q14 -20 33.5 -34.5t27.5 -24.5q23 -31 23 -62v-215q0 -72 -66 -71q-78 0 -154.5 53t-132.5 141q-137 223 -137 648q0 195 31 348t76 242t104.5 147.5 t111.5 79t103 20.5q64 1 64 -65z" glyph-name="parenleft" horiz-adv-x="581" unicode="("/><glyph d="M41 1204v230q0 66 63 65q51 0 103.5 -20.5t112 -79t104.5 -147.5t75.5 -242.5t30.5 -347.5q0 -424 -137 -648q-55 -88 -132 -141t-155 -53q-66 0 -65 71v215q0 31 22 62q8 10 28 24.5t34 34.5q61 102 61 478q0 158 -14 247.5t-55 147.5q-10 14 -26.5 23.5t-29.5 23.5 q-20 20 -20 57z" glyph-name="parenright" horiz-adv-x="581" unicode=")"/><glyph d="M582 1171l141 86q6 4 19.5 13.5t19.5 13.5t16 8t21 4q33 0 61.5 -44t28.5 -83q0 -57 -101 -86l-139 -41l96 -47q8 -4 35 -16t39 -18.5t29.5 -17.5t25 -24.5t7.5 -29.5q0 -47 -47 -94q-35 -35 -66 -35q-25 0 -158 117l-35 30q6 -57 20.5 -143t14.5 -115q0 -35 -20.5 -50 t-77.5 -15q-61 0 -86 37q-12 20 -12 57q0 27 4 47t4 31l12 147l-90 -61q-96 -66 -121 -66q-29 0 -57.5 45t-28.5 78q0 25 9.5 42t34 29.5t40 17.5t57 14.5t54.5 13.5l47 12q-29 12 -61.5 26.5t-39 16.5t-17.5 7t-17 7t-19.5 7.5t-21.5 9.5q-72 31 -72 72q0 39 34 84t73 47h2 q6 0 49 -33q4 -4 15 -11.5t30 -23.5q45 -37 92 -70q0 10 -2 32t-2 34q0 4 -1 14t-1 15q0 18 -10 88l-9 65q-4 35 23 58.5t76 23.5q119 0 118 -88q1 -84 -36 -238z" glyph-name="asterisk" unicode="*"/><glyph d="M254 592v61q0 31 14 45q14 12 51 13h435v422q0 37 12 51q14 14 45 14h61q57 0 68 -10q12 -12 12 -45v-432h434q37 0 52 -13q14 -14 14 -45v-61q0 -57 -10 -68q-12 -12 -45 -12h-445v-457q0 -33 -12 -45q-10 -10 -68 -10h-61q-31 0 -45 14q-12 14 -12 52v446h-445 q-33 0 -45 12q-10 11 -10 68z" glyph-name="plus" horiz-adv-x="1705" unicode="+"/><glyph d="M391 291v-228q0 -27 -20 -61l-92 -164q-16 -29 -60 -28h-84q-53 0 -29 49l17 30q43 78 57 111h-33q-57 0 -70.5 14.5t-13.5 59.5v227q0 23 4.5 35t20.5 20.5t51 8.5h183q25 0 37 -3.5t22 -20.5t10 -50z" glyph-name="comma" horiz-adv-x="454" unicode=","/><glyph d="M72 539v133q0 31 14 45q14 12 51 12h322q37 0 51 -12q14 -14 14 -45v-133q0 -57 -10 -68q-12 -12 -45 -12h-342q-33 0 -45 12q-10 11 -10 68z" glyph-name="hyphen" horiz-adv-x="595" unicode="-"/><glyph d="M391 291v-228q0 -20 -3 -31.5t-20.5 -21.5t-52.5 -10h-182q-20 0 -33.5 3t-25 20.5t-11.5 50.5v227q0 23 4.5 35t20.5 20.5t51 8.5h183q25 0 37 -3.5t22 -20.5t10 -50z" glyph-name="period" horiz-adv-x="454" unicode="."/><glyph d="M506 1597l98 -28q29 -8 17 -47l-486 -1672q-18 -57 -63 -47l-95 25q-14 2 -22 27q-8 20 2 49l489 1655q17 52 60 38z" glyph-name="slash" horiz-adv-x="569" unicode="/"/><glyph d="M858 756v-183q0 -111 -2 -163t-21.5 -131.5t-58.5 -141.5q-104 -162 -332 -162q-205 0 -305 156q-31 49 -49 111.5t-25.5 175t-8.5 174t-1 235.5q0 125 3 195t21.5 169t57.5 159q98 152 324 151q250 0 342 -198q27 -57 40 -156.5t14 -168t1 -222.5zM377 1049v-627 q0 -111 76 -111q35 0 53 24.5t18 100.5v602q0 145 -73.5 145.5t-73.5 -134.5z" glyph-name="zero" horiz-adv-x="915" unicode="0"/><glyph d="M84 1104l270 330q41 51 115 51h156q29 0 41 -17q16 -20 16 -69v-1274v-26.5v-24.5t-2 -19.5t-5 -19.5t-10.5 -13.5t-16.5 -12.5t-24.5 -6t-33.5 -3h-191q-41 0 -49 27.5t-6 119.5v70q0 31 2 91.5t2 90.5q0 49 -2 148.5t-2 148.5q0 29 3 164t-1 207l-88 -121 q-16 -20 -39 -20q-16 0 -45 22l-82 72q-29 27 -29 39q1 20 21 45z" glyph-name="one" horiz-adv-x="915" unicode="1"/><glyph d="M78 72v153q0 66 39 103l114 108q104 98 188.5 276.5t84.5 307.5q0 37 -2 58.5t-8.5 48t-23.5 39t-44 12.5q-39 0 -50 -30t-11 -89v-68v-16v-18.5t-1.5 -16.5t-3.5 -16t-7 -13.5t-11 -12.5t-16.5 -6t-22.5 -3h-156q-41 0 -54 19.5t-13 95.5v92q0 219 119 323q90 82 252 82 q186 0 280 -115q98 -115 98 -331q0 -379 -342 -713h240q35 0 55.5 -5t27.5 -24.5t8 -29t1 -43.5v-170q0 -20 -4 -33.5t-25.5 -25t-60.5 -11.5h-588q-63 0 -63 72z" glyph-name="two" horiz-adv-x="915" unicode="2"/><glyph d="M31 217l110 174q23 33 58 33q20 0 63 -33q59 -47 105 -47q47 0 81.5 32t34.5 107q0 51 -12 86t-34.5 49.5t-42 19.5t-46.5 5h-53q-39 0 -54.5 15.5t-15.5 62.5v168q0 66 78 65h35q63 0 98 35t35 80q0 47 -31.5 78t-77.5 31q-57 0 -98 -58q-23 -31 -43 -30q-18 0 -49 34 l-102 119q-16 18 -17 49q0 51 101 119q133 88 280 88q170 0 268 -106q98 -109 99 -269q0 -119 -47 -196q-35 -59 -101 -94q80 -37 123 -111q57 -94 58 -244q0 -229 -121 -364q-119 -133 -307 -133q-154 0 -312 98q-33 20 -45 29.5t-22.5 27t-10.5 41.5q1 14 15 39z" glyph-name="three" horiz-adv-x="915" unicode="3"/><glyph d="M416 317h-320q-18 0 -26.5 1t-17.5 8.5t-13 24t-4 42.5v166q0 18 14 51l227 508q121 268 162 330q6 8 11.5 15t11.5 11.5t9 6.5t10 3t10.5 1h12.5h13h184q51 0 52 -70v-786h71q39 0 39 -54v-190q0 -31 -11 -47t-20.5 -18.5t-25.5 -2.5h-53v-233q0 -53 -14.5 -68.5 t-82.5 -15.5h-166q-16 0 -27 2t-19.5 4t-13.5 7t-8 8.5t-4 12.5t-1 13v15.5v15.5v239zM432 631v366l-151 -366h151z" glyph-name="four" horiz-adv-x="915" unicode="4"/><glyph d="M121 831v529q0 37 4 59.5t26.5 44t63.5 21.5h461q72 0 92 -15.5t20 -58.5v-174q0 -20 -2 -28.5t-18 -15.5t-51 -7h-262q-31 0 -41 -33q-6 -23 -6 -49q0 -41 12 -53q10 -10 29 -11l53 2q195 8 282 -180q55 -115 56 -317q0 -262 -125 -418q-123 -152 -322 -152 q-131 0 -287 97q-88 55 -88 104q0 16 23 55l86 156q29 49 70 49q43 0 69 -41l10 -14q31 -45 82 -45q133 0 134 217q0 193 -148 192q-53 0 -100 -36q-18 -18 -35 -19q-29 0 -62.5 24.5t-31.5 45.5l2 20z" glyph-name="five" horiz-adv-x="915" unicode="5"/><glyph d="M418 961l6 -9q68 43 156 43q143 0 215 -112q59 -92 59 -410q0 -262 -106 -385q-102 -113 -289 -113q-190 0 -291 140q-113 158 -113 542q0 315 90 519q143 324 478 323q115 0 151 -31q33 -29 33 -92v-151q0 -37 -17.5 -58.5t-41.5 -15.5l-27 6q-57 14 -84 14 q-92 0 -152.5 -56t-66.5 -154zM543 391v76q0 8 1 41t0 46t-3 41t-7.5 41t-13.5 29.5t-22.5 23.5t-34.5 7q-18 0 -30.5 -6t-19.5 -21.5t-12.5 -28.5t-6.5 -37.5t-2 -39t0 -44.5t1 -40q0 -119 14.5 -157.5t61.5 -38.5q39 0 56.5 24.5t17.5 83.5z" glyph-name="six" horiz-adv-x="915" unicode="6"/><glyph d="M489 0h-235q-25 0 -40 4t-27.5 25.5t-12.5 62.5q0 209 252 918l57 161h-313h-12.5h-14.5t-12 1.5t-12 4.5t-9.5 9t-8.5 15t-5 22.5t-2 31.5v144q0 33 6 52t24.5 25.5t28 7.5t42.5 1h534h16.5h17.5t14 -1t15.5 -3t12.5 -7.5t10 -11.5q8 -16 8 -61v-109v-8q0 -14 -4 -30.5 t-8 -30t-14.5 -41t-18.5 -47.5q-109 -305 -176 -674q-39 -215 -39 -361v-28q0 -72 -74 -72z" glyph-name="seven" horiz-adv-x="915" unicode="7"/><glyph d="M227 797v8q-152 123 -151 307q0 190 125 293q109 92 291 92q160 0 260 -102q102 -102 102 -275q0 -190 -147 -315v-8q172 -113 172 -363q0 -225 -128 -338.5t-309 -113.5q-176 0 -290.5 121.5t-114.5 314.5q0 266 190 379zM549 434q0 154 -90 215q-94 -76 -94 -200 q0 -68 25.5 -101t66.5 -33q18 0 35.5 6.5t37 35t19.5 77.5zM375 1135q0 -92 100 -152q70 61 70 154q0 96 -84 96q-43 0 -64.5 -27.5t-21.5 -70.5z" glyph-name="eight" horiz-adv-x="915" unicode="8"/><glyph d="M55 999q0 293 135 412q96 84 261 84q213 0 311 -166q94 -154 94 -481q0 -348 -94 -559q-143 -313 -471 -314q-117 0 -153 26t-36 93v154q0 37 17.5 57.5t42.5 13.5l26 -6q53 -14 84 -14q96 0 154 53q57 55 66 160l-7 8q-66 -45 -155 -45q-139 0 -215 115q-60 92 -60 409z M362 1077v-86v-29.5v-33.5t1.5 -32t3.5 -32t6 -26.5t10 -24.5t14.5 -17.5t20.5 -13.5t26.5 -4t25.5 3t18.5 10.5t13.5 15.5t9 21.5t5 23.5t2 27.5v29v32v30.5q0 119 -15.5 166t-68.5 47q-72 -1 -72 -107z" glyph-name="nine" horiz-adv-x="915" unicode="9"/><glyph d="M422 291v-228q0 -20 -3 -31.5t-20.5 -21.5t-52.5 -10h-182q-20 0 -33.5 3t-25 20.5t-11.5 50.5v227q0 23 4 35t20.5 20.5t51.5 8.5h182q25 0 37 -3.5t22.5 -20.5t10.5 -50zM422 948v-227q0 -20 -3 -31.5t-20.5 -22t-52.5 -10.5h-182q-20 0 -33.5 3.5t-25 20.5t-11.5 50 v227q0 23 4 35.5t20.5 20.5t51.5 8h182q25 0 37 -3t22.5 -20.5t10.5 -50.5z" glyph-name="colon" horiz-adv-x="516" unicode=":"/><glyph d="M422 948v-227q0 -20 -3 -31.5t-20.5 -22t-52.5 -10.5h-182q-20 0 -33.5 3.5t-25 20.5t-11.5 50v227q0 23 4 35.5t20.5 20.5t51.5 8h182q25 0 37 -3t22.5 -20.5t10.5 -50.5zM422 291v-228q0 -27 -21 -61l-92 -164q-16 -29 -59 -28h-84q-53 0 -29 49l17 30q43 78 57 111 h-33q-57 0 -70.5 14.5t-13.5 59.5v227q0 23 4 35t20.5 20.5t51.5 8.5h182q25 0 37 -3.5t22.5 -20.5t10.5 -50z" glyph-name="semicolon" horiz-adv-x="485" unicode=";"/><glyph d="M422 948v-227q0 -20 -3 -31.5t-20.5 -22t-52.5 -10.5h-182q-20 0 -33.5 3.5t-25 20.5t-11.5 50v227q0 23 4 35.5t20.5 20.5t51.5 8h182q25 0 37 -3t22.5 -20.5t10.5 -50.5zM422 291v-228q0 -27 -21 -61l-92 -164q-16 -29 -59 -28h-84q-53 0 -29 49l17 30q43 78 57 111 h-33q-57 0 -70.5 14.5t-13.5 59.5v227q0 23 4 35t20.5 20.5t51.5 8.5h182q25 0 37 -3.5t22.5 -20.5t10.5 -50z" glyph-name="semicolon" horiz-adv-x="485" unicode=";"/><glyph d="M1442 1194v-219l-893 -365l893 -364v-219l-1178 485v199z" glyph-name="less" horiz-adv-x="1705" unicode="&lt;"/><glyph d="M254 377v61q0 31 14 45q14 12 51 13h1067q37 0 52 -13q14 -14 14 -45v-61q0 -57 -10 -68q-12 -12 -45 -12h-1088q-33 0 -45 12q-10 11 -10 68zM254 807v61q0 31 14 45q14 12 51 13h1067q37 0 52 -13q14 -14 14 -45v-61q0 -57 -10 -68q-12 -12 -45 -12h-1088q-33 0 -45 12 q-10 11 -10 68z" glyph-name="equal" horiz-adv-x="1705" unicode="="/><glyph d="M264 1194l1178 -483v-199l-1178 -485v219l895 364l-895 365v219z" glyph-name="greater" horiz-adv-x="1705" unicode=">"/><glyph d="M475 291v-228q0 -20 -3 -31.5t-20.5 -21.5t-52.5 -10h-182q-20 0 -33.5 3t-25 20.5t-11.5 50.5v227q0 23 4.5 35t20.5 20.5t51 8.5h183q25 0 37 -3.5t22 -20.5t10 -50zM350 455h-125q-41 0 -52 52t-11 148q0 117 39 285q18 74 18 108.5t-10 59.5q-18 37 -51 31l-56 -11 q-68 -12 -67 199q0 37 5 61.5t24.5 54.5t63.5 44t114 14q147 0 227 -61q104 -82 104 -244q0 -113 -86 -311l-20 -47q-49 -113 -45 -193l8 -123q2 -33 -12.5 -50t-67.5 -17z" glyph-name="question" horiz-adv-x="663" unicode="?"/><glyph d="M989 1092h119q16 0 26.5 -13.5t8.5 -31.5l-58 -402q-16 -109 56 -108q74 0 131 80.5t57 205.5q0 176 -125 312.5t-356 136.5q-233 0 -388 -159t-155 -396q0 -231 150.5 -392t404.5 -161q147 0 262 43l45 16q51 18 64 -14l24 -72q12 -20 11.5 -38.5t-29.5 -32.5l-25 -13 q-139 -70 -360 -69q-328 0 -545 213t-217 520t216 520t540 213q289 0 488.5 -170t199.5 -449q0 -195 -111.5 -341t-312.5 -146q-117 0 -160 64q-14 20 -18 20q-12 0 -33.5 -15.5t-64.5 -30.5t-109 -15q-229 0 -193 276l29 217q33 242 238 242q49 0 88 -15q12 -4 25.5 -11 t21.5 -7q10 0 16 6q23 17 39 17zM862 623l35 237q6 55 -41 55q-63 0 -72 -63l-32 -238q-4 -29 8 -43t28 -14q37 0 54.5 23t19.5 43z" glyph-name="at" horiz-adv-x="1622" unicode="@"/><glyph d="M2 160l64 307q20 104 20 111q14 104 32.5 211.5t44 246t40.5 221.5l8 48q18 119 39 145q18 25 51 25h252q61 0 80 -25q12 -14 65 -264l58 -271q12 -59 30.5 -185t55.5 -337q8 -43 35.5 -160.5t27.5 -154.5t-26.5 -57.5t-67.5 -20.5h-176q-49 0 -66 47q-6 20 -10 78 q-4 53 -10 74q-20 59 -86 59q-45 0 -82 -15.5t-35 -47.5l2 -72q2 -76 -22.5 -99.5t-73.5 -23.5h-189q-78 0 -77 59q0 23 16 101zM438 1110l-57 -416q-6 -45 -8 -67v-11q6 -35 78 -34q35 0 55 11t18 46l-4 45l-65 428z" glyph-name="A" horiz-adv-x="894" unicode="A"/><glyph d="M387 1143v-166q0 -37 39 -37q123 0 123 131q0 49 -21.5 77t-40 34t-36.5 6q-64 0 -64 -45zM381 557v-170q0 -84 68 -84q113 0 112 164q0 158 -112 158q-68 0 -68 -68zM285 1475h243q330 0 330 -355q0 -139 -32.5 -208.5t-104.5 -98.5q88 -41 123 -125t35 -242 q0 -193 -62 -290q-59 -96 -146 -126t-200 -30h-283q-74 0 -100 18q-25 18 -25 140v69q0 51 4.5 151.5t4.5 151.5q0 59 -4.5 180t-4.5 183q0 43 3.5 113.5t3.5 152.5t-7 201q-4 16 0.5 36.5t12.5 40t38.5 32t82.5 10.5z" glyph-name="B" horiz-adv-x="933" unicode="B"/><glyph d="M682 219l4 -115q2 -55 -24.5 -82.5t-118.5 -27.5q-135 0 -228.5 32.5t-158.5 129.5q-70 100 -92.5 246.5t-22.5 357.5q0 449 131 588q121 127 391 127q27 0 43.5 -3.5t36 -12.5t27.5 -32.5t8 -60.5l-2 -88l4 -76q4 -92 -72 -92h-43q-23 0 -51 -8q-76 -25 -94.5 -100.5 t-18.5 -247.5v-21q0 -264 35 -327q37 -63 105 -62l82 4q14 0 24 -3t16.5 -11t9.5 -16.5t5 -22.5t3 -23.5t1 -28v-24.5z" glyph-name="C" horiz-adv-x="722" unicode="C"/><glyph d="M389 442l-2 -41q-4 -96 72 -96q53 0 80 43q18 31 22 78t4 176v127v67v59v49t-1 44.5t-2 36t-4 33.5t-7 26.5t-9 26.5t-12 23q-27 45 -84 45q-33 0 -49 -21q-14 -18 -14 -67q0 -43 3 -82t3 -51v-476zM432 0h-113q-37 0 -80.5 -3t-65 -4t-45.5 5t-38 20q-25 25 -24 84v150 q0 20 2 38.5t2 47.5q0 18 1 147t1 160v156q-2 338 -9 499l-2 82q0 47 21 68q23 25 92 25q25 0 70 -2.5t67 -2.5q27 0 81 2.5t81 2.5q199 0 305 -127q63 -74 96 -216.5t38.5 -239.5t5.5 -243q0 -109 -3.5 -173t-28 -164.5t-73.5 -172.5q-96 -143 -293 -143q-6 0 -20.5 1 t-22.5 1q-6 0 -22.5 1t-22.5 1z" glyph-name="D" horiz-adv-x="966" unicode="D"/><glyph d="M78 330v993q0 10 -1 29.5t-1 31t2 26.5t9 26.5t17 19.5q25 18 125 19h394q63 0 84.5 -22.5t23.5 -84.5v-31q0 -10 1 -32.5t1 -32.5v-10v-19q0 -45 -16.5 -68.5t-33.5 -27.5t-50 -4l-170 2q-18 0 -28.5 -3t-21 -22.5t-10.5 -56.5v-66q0 -68 72 -63l139 6q61 4 84 -21.5 t23 -115.5v-60q0 -25 -2 -44t-10.5 -43.5t-26.5 -38t-45 -11.5l-121 6q-43 2 -65.5 1t-31.5 -14t-9 -18.5v-35.5v-121q0 -51 10 -63.5t57 -12.5l180 2q53 0 72 -24.5t19 -130.5v-76q0 -43 -10.5 -69.5t-31 -36t-32.5 -11.5t-35 -2q-45 0 -131 4t-129 4q-37 0 -110.5 -4 t-112.5 -4q-53 0 -75 26.5t-20 59.5l7 98q0 4 5 36t5 110z" glyph-name="E" horiz-adv-x="778" unicode="E"/><glyph d="M63 178v1102l-2 96q-2 33 2.5 50.5t25 34t63.5 16.5q16 0 51 -1t61 -1h289q6 0 45 2t49 -1t32.5 -12.5t29 -33t4.5 -60.5l-4 -96v-17.5t-1 -17.5t-2 -16.5t-3.5 -17.5t-5.5 -14t-9 -13t-13 -10.5t-17.5 -9.5t-23.5 -5t-30 -2h-137q-25 0 -36 -2t-24.5 -16.5t-13.5 -45.5 v-102q0 -57 82 -53l164 8q61 0 59 -90l-2 -80v-51q0 -61 -17 -90t-81 -27l-121 4q-49 2 -65.5 -15.5t-16.5 -88.5v-297l6 -133q2 -47 -21.5 -62.5t-57.5 -15.5q-23 0 -64 3t-61 3q-14 0 -43 -2t-43 -2q-16 0 -24.5 2t-18 19.5t-9.5 54.5q0 16 2 42.5t2 63.5z" glyph-name="F" horiz-adv-x="727" unicode="F"/><glyph d="M885 801v-645q0 -57 -5.5 -79t-23.5 -38q-72 -63 -266 -64q-240 0 -398.5 184.5t-158.5 536.5q0 367 170 580q160 199 434 199q145 0 188 -39q43 -37 43 -111v-78q0 -135 -73 -135q-12 0 -37 6t-35 8q-37 8 -78 9q-156 0 -221 -138q-43 -86 -43 -262q0 -160 29 -268 q37 -131 129 -131q29 0 44 19.5t17 39t2 54.5v114q0 6 -1 10.5t-3 8.5t-4 7t-6 6t-6 5t-7.5 5t-7.5 4t-7 3t-7 2q-66 31 -61 115l4 98q6 72 26 93q27 27 111 26h119q33 0 51 -3t39.5 -16.5t32 -44t10.5 -81.5z" glyph-name="G" horiz-adv-x="948" unicode="G"/><glyph d="M188 1475h91q57 0 85.5 -16.5t33.5 -35t5 -49.5v-14l-14 -365q-4 -98 80 -98q29 0 47.5 12.5t24.5 37t8 42t2 45.5q0 39 -3 90.5t-3 77.5v189q0 35 3 47t33.5 24.5t98.5 12.5h96q49 0 72.5 -15.5t23.5 -66.5q0 -8 -4 -74q-2 -84 -2 -127v-805q0 -82 3 -161t3 -111 q0 -66 -24.5 -90.5t-71.5 -24.5h-145q-94 0 -94 119v180q0 2 8 100q2 12 6 46t4 53q0 70 -61 69q-45 0 -68 -20.5t-27 -43t-4 -63.5v-323v-18.5v-19.5t-1 -16.5t-5 -17.5t-9 -14t-15.5 -12.5t-23.5 -9.5t-31.5 -7t-43.5 -2h-80h-16h-18.5h-17.5t-16 2t-14.5 5t-14.5 7 t-11 10.5t-9 14.5t-5.5 19.5t-2.5 25.5q0 6 1 16.5t1 14.5q2 23 3 135v1104q0 41 2 57t13 34.5t35.5 24t71.5 5.5z" glyph-name="H" horiz-adv-x="933" unicode="H"/><glyph d="M184 1475h95q84 0 102 -22.5t18 -133.5l-6 -973l4 -225q2 -76 -22.5 -98.5t-108.5 -22.5h-71q-45 0 -58.5 1t-37 10t-31 33t-7.5 65v110q0 20 3.5 54t1.5 116q-4 266 4 776v62q0 10 -2 41.5t0 50.5q2 25 0 29t-2 14v20q0 61 20 77t98 16z" glyph-name="I" horiz-adv-x="464" unicode="I"/><glyph d="M252 1475h143q16 0 29.5 -2.5t24 -4.5t18.5 -7t13 -9t8.5 -12t5.5 -12.5t3 -15.5t1 -14v-15.5v-16.5v-981q0 -113 -13.5 -190.5t-32 -118.5t-56.5 -61.5t-66.5 -24.5t-81.5 -4q-168 0 -197 30q-23 25 -22 115v92q0 45 8 66.5t16 25.5t33 11l10 2q4 0 16.5 2t18.5 3 t13.5 8t11.5 19q6 18 6 209l-2 807q0 37 5 57.5t20.5 30t26.5 10.5t40 1z" glyph-name="J" horiz-adv-x="573" unicode="J"/><glyph d="M182 1475h121q29 0 42 -3.5t25.5 -25t12.5 -66.5v-14l-8 -399h31l114 446q8 33 24.5 47.5t55.5 14.5h213q57 0 57 -39q0 -25 -22 -76l-189 -451q-12 -33 -14 -53q47 -176 105 -352l79 -248q61 -190 62 -215q0 -41 -66 -41q-16 0 -48 2t-48 2q-12 0 -37.5 -2t-38.5 -2 q-74 0 -92 15.5t-37 95.5l-118 505h-27v-501q0 -78 -20.5 -96.5t-71.5 -18.5h-97q-49 0 -74.5 4t-37.5 24.5t-13.5 38t-1.5 70.5l3 1030q0 14 -1.5 43t-1.5 43v52v84q0 51 21.5 68.5t97.5 17.5z" glyph-name="K" horiz-adv-x="890" unicode="K"/><glyph d="M193 0l-52 -4q-39 -2 -61 29q-6 10 -11.5 21t-6.5 30.5t-1 31v40v40.5v1147q0 92 15.5 117t56.5 23l90 -2l109 4q14 0 25.5 -2t17.5 -10.5t10 -14.5t5 -21.5t1 -24.5v-31.5v-35.5l-2 -243q-2 -205 0 -410q4 -139 4 -211q0 -41 4 -70q10 -70 78 -65l80 6q41 2 63.5 -19.5 t25.5 -44t3 -61.5v-108q0 -14 -3 -27.5t-12 -36t-35 -36t-65 -13.5l-83 2h-256z" glyph-name="L" horiz-adv-x="657" unicode="L"/><glyph d="M70 117v958q0 33 1 98.5t1 98.5q0 20 -2 62t-2 63q0 45 19 61.5t85 16.5h190q29 0 41.5 -2.5t30 -13.5t29.5 -38.5t22 -77.5l99 -434h24l119 490q18 76 80 76h225q45 0 66 -23q18 -20 18 -143q0 -193 -4 -260.5t-4 -114.5l4 -625v-90q4 -90 4 -100q0 -70 -11 -94.5 t-52 -24.5h-185q-45 0 -59 25.5t-14 80.5v394q0 8 -9 282h-28q-80 -401 -156 -401q-61 0 -160 317l-26 84h-25v-598q0 -147 -16 -168q-14 -16 -96 -16h-134q-75 0 -75 117z" glyph-name="M" horiz-adv-x="1185" unicode="M"/><glyph d="M63 139v1184q0 98 21.5 125t75.5 27h186q39 0 55.5 -12.5t22.5 -41.5l12 -47q84 -317 174 -596h41v574q0 49 3 69.5t21.5 37t59.5 16.5h127q63 0 81 -20.5t15 -63.5l-2 -45v-1174q0 -92 -17 -132t-75 -40h-166q-63 0 -79.5 17.5t-43.5 107.5l-165 571h-41v-571 q0 -86 -18.5 -105.5t-80.5 -19.5h-104q-68 0 -85.5 21.5t-17.5 117.5z" glyph-name="N" unicode="N"/><glyph d="M981 924v-236q0 -330 -55 -465q-100 -248 -443 -248q-211 0 -319 146q-61 84 -87 221t-26 383q0 211 15.5 344t64.5 225q113 207 410 207q215 0 323 -127q74 -86 95.5 -194.5t21.5 -255.5zM416 934v-408q0 -137 26 -168q23 -29 64 -28q59 0 86 49q16 33 20 77t4 160v33 v346q0 70 -25.5 114t-72.5 44q-49 0 -74 -39q-28 -43 -28 -180z" glyph-name="O" horiz-adv-x="1034" unicode="O"/><glyph d="M68 131l-2 164l8 678q2 162 -8 348l-3 47q-4 41 17 74q18 31 61 33l62 4q115 8 146.5 10t123.5 1t132 -11.5t96.5 -36t95.5 -66.5q121 -129 121 -430q0 -272 -111 -418q-47 -61 -126 -106t-165 -41l-39 2q-51 4 -76 -16q-23 -20 -22 -70q0 -63 4 -147l4 -72 q4 -78 -76 -78q-14 0 -39.5 3t-38.5 3q-16 0 -53 -6t-57 -4q-57 2 -57 70zM369 1057v-183q0 -41 1 -60t5 -45t13 -37t26.5 -19t44.5 -8q72 0 96 53q23 47 23 133q0 203 -37 250q-31 39 -82 39q-90 0 -90 -123z" glyph-name="P" horiz-adv-x="935" unicode="P"/><glyph d="M410 934v-422q0 -47 2 -70.5t9 -55.5t25.5 -45t49.5 -13q25 0 51 10q-59 45 -60 88q0 25 15.5 41t38.5 16q43 0 82 -41v553q0 158 -103 158q-33 0 -55.5 -15.5t-32.5 -33t-15 -53t-6 -55t-1 -62.5zM1057 160l4 -90q4 -68 -66 -68q-96 0 -194 64q-129 -90 -293 -91 q-84 0 -147.5 14.5t-130 67t-105.5 142.5q-70 160 -70 628q0 381 127 537q111 137 361 137q119 0 201.5 -35.5t142.5 -132.5q88 -143 88 -442q0 -100 -3 -219t-3 -148v-12q0 -119 -29 -176q0 -10 49 -29l29 -10q2 0 9 -2t10 -4t9.5 -5t8.5 -8.5t4 -13.5t2 -20z" glyph-name="Q" horiz-adv-x="1071" unicode="Q"/><glyph d="M76 133v1217q0 86 26.5 108.5t85.5 20.5l160 -4l225 6q170 6 269 -92q104 -106 104 -416q0 -205 -32.5 -305.5t-120.5 -151.5l186 -426q10 -16 10 -37q0 -27 -21.5 -44t-49.5 -13l-46 4h-174h-13h-11h-9.5t-8.5 2t-6 4t-7 7t-6 10.5t-7 13.5t-7.5 17t-10.5 24l-170 438 h-36v-432q0 -84 -68 -84h-182q-49 0 -64.5 21.5t-15.5 111.5zM397 1059l4 -146v-63q0 -61 31 -88q25 -18 62 -19q57 0 88 37q33 37 32 123q0 176 -28.5 221t-87.5 45q-49 0 -76 -26q-25 -27 -25 -84z" glyph-name="R" horiz-adv-x="1007" unicode="R"/><glyph d="M51 104v179q0 68 37 92q18 12 47 12q16 0 53 -16q84 -35 138 -35q59 0 84 26q20 25 20 64q0 18 -5 35.5t-10 29t-20.5 29t-24 24.5t-33 28.5t-32.5 29.5l-80 72q-172 154 -172 389q0 229 146 334q113 82 348 82q129 0 155 -29q23 -25 23 -102v-150q0 -70 -16 -86 q-23 -23 -88 -10l-41 10q-45 12 -76 12q-41 0 -68 -18q-29 -20 -28 -55q0 -29 18 -62q16 -25 33.5 -44t49.5 -49t36 -32l106 -102q74 -74 107 -152q35 -78 35 -190q0 -219 -105 -330q-59 -63 -135 -89t-197 -26q-188 0 -264 41q-41 20 -41 88z" glyph-name="S" horiz-adv-x="837" unicode="S"/><glyph d="M549 1085l2 -864l6 -135q4 -86 -74 -86h-49l-129 -4q-96 0 -92 82l4 108v531q0 250 2 373v12q0 33 -61 33h-58q-29 0 -47 8t-27.5 17t-13.5 35t-5 40t-1 53v76q0 111 96 111h86l218 -7l149 2q18 0 53 2.5t56.5 2.5t44 -3.5t32.5 -13.5q16 -16 17 -84v-104 q0 -82 -19.5 -108.5t-52.5 -26.5h-68q-41 0 -55 -10.5t-14 -39.5z" glyph-name="T" horiz-adv-x="761" unicode="T"/><glyph d="M63 539v790q0 90 14.5 118t63.5 28h168q37 0 52.5 -5.5t25.5 -30t10 -77.5v-899q0 -141 109 -141q111 0 110 112v924q0 29 1 41t9.5 34.5t30 32t58.5 9.5h159q74 0 74 -107v-893q0 -264 -119 -387q-111 -113 -354 -113q-233 0 -336 142q-35 49 -52 124.5t-20.5 131 t-3.5 166.5z" glyph-name="U" horiz-adv-x="1015" unicode="U"/><glyph d="M451 412h26l25 360q37 535 55 614q10 53 23 66q20 23 73 23h185q66 0 78 -21.5t-1 -52.5l-73 -455q-12 -76 -58.5 -331t-60.5 -367q-27 -190 -49 -221q-10 -14 -26.5 -21.5t-27 -7.5t-34 1t-31.5 1h-244q-37 0 -49 25q-16 37 -37 178l-14 96q-4 29 -64 338 q-39 188 -41 201q-10 51 -38 215l-50 274q-16 88 -16 98q0 14 2 22.5t23.5 18t62.5 9.5h205q55 0 67 -29q23 -53 66 -690z" glyph-name="V" horiz-adv-x="919" unicode="V"/><glyph d="M369 1317l75 -696h25l90 346l-80 432q-12 74 60 80q23 2 63.5 -1t56.5 -3q12 0 41 2t41 2q43 0 56.5 -20.5t19.5 -96.5l57 -741h23l90 735q0 6 1 29.5t5 41t14.5 29.5t27 17.5t31.5 5.5t50 -2t62 -2h53l65 2q41 0 41 -41q0 -35 -16 -109l-227 -1218q-14 -76 -29 -91 q-18 -20 -59 -20q-12 0 -35 3t-33 3q-12 0 -39 -4t-39 -4q-31 0 -53 22q-10 10 -17.5 22.5t-12.5 30t-7 28t-5 32t-5 27.5l-80 411h-23l-69 -467q-6 -55 -29 -77q-25 -25 -88 -25q-8 0 -25.5 1t-25.5 1q-10 0 -32.5 -2t-35.5 -2q-66 0 -90 37q-12 18 -17 32.5t-8.5 41 t-5.5 34.5l-211 1227q-10 47 -10 68q0 37 62 37h139q8 0 30.5 1t35 1t29 -4.5t26.5 -14.5q25 -22 37 -141z" glyph-name="W" horiz-adv-x="1337" unicode="W"/><glyph d="M653 768l248 -676q16 -47 17 -63q0 -8 -13 -21q-12 -10 -45 -10q-23 0 -66.5 1t-64.5 1q-18 0 -55 -1t-56 -1q-27 0 -42 11t-27 59l-94 352h-19l-78 -357q-12 -63 -84 -63q-18 0 -54 3t-52 3t-50 -3t-50 -3h-37q-37 0 -37 41q0 10 18 65l234 662l-74 223 q-18 59 -37.5 113.5t-23.5 64.5q-14 45 -58 170q-25 76 -24 86q0 49 67 50q18 0 52 -1t51 -1q14 0 43.5 1t46.5 1q37 0 57.5 -11.5t26.5 -24t10 -32.5l72 -330h22l64 336q12 68 69 64l49 -4q4 0 10.5 -1.5t10.5 -1.5t13 -1t14 -1q6 0 16 -1t14 -1q14 0 47 4.5t52 2.5 q29 0 41 -12.5t12 -33.5q0 -10 -17 -57z" glyph-name="X" horiz-adv-x="919" unicode="X"/><glyph d="M446 924h17l65 415q14 106 52 123q29 12 153 13h68q98 0 98 -54q0 -23 -18 -78l-232 -702q-29 -86 -28 -190v-295l4 -88q2 -35 -14.5 -51.5t-73.5 -16.5h-80l-117 -2q-39 0 -51 20q-6 10 -8 24.5t0 47.5t2 53v379q0 61 -23 123l-237 696q-16 33 -17 76q0 57 76 58 q16 0 48 -2.5t46 -2.5t47 2.5t49 2.5q39 0 61.5 -13.5t29 -28t10.5 -40.5z" glyph-name="Y" horiz-adv-x="890" unicode="Y"/><glyph d="M762 1190l-328 -801q-10 -23 -10 -35q0 -16 70 -16h94q63 0 112 6l31 2q20 2 37.5 -17.5t19.5 -56.5q2 -23 -1 -63.5t-3 -54.5q0 -10 1 -30t1 -30q0 -35 -6 -55.5t-20.5 -28.5t-22.5 -9t-26 -1h-123q-27 0 -81 2t-81 2q-41 0 -121 -4t-121 -4h-86q-18 0 -28.5 3 t-20.5 22.5t-10 56.5v168q0 29 6 55.5t12 42.5t20.5 48t22.5 50l115 277q8 18 94 211q61 137 66 149q10 35 10 41q0 8 -4 14.5t-13.5 8.5t-14.5 2h-19h-15l-178 -4q-47 -2 -66.5 23.5t-17.5 88.5q0 8 1 20.5t1 20.5q0 16 -1 51t-1 52q2 39 22.5 58.5t88.5 19.5h545 q39 0 51 -13q20 -20 20 -116v-74q1 -27 -22 -82z" glyph-name="Z" horiz-adv-x="833" unicode="Z"/><glyph d="M80 -80v1434q0 57 11 83.5t24.5 32t46.5 5.5h287q23 0 35 -4.5t22 -22.5t10 -55v-150q0 -37 -14.5 -49t-34.5 -10l-27 2q-27 2 -35 -21.5t-8 -54.5v-922q0 -59 43 -59h21q55 0 55 -53v-201q0 -16 -3 -23.5t-18.5 -12.5t-45.5 -5h-312h-8h-9t-8.5 1t-8.5 2t-7 4t-5 7.5 t-4 10.5t-4 15t-2 20.5t-1 25.5z" glyph-name="bracketleft" horiz-adv-x="587" unicode="["/><glyph d="M-29 1569l99 28q43 14 59 -38l489 -1655q10 -29 3 -49q-8 -25 -23 -27l-94 -25q-45 -10 -64 47l-485 1672q-13 39 16 47z" glyph-name="backslash" horiz-adv-x="569" unicode="\"/><glyph d="M502 1354v-1434q0 -18 -1 -31.5t-3 -22.5t-6.5 -15.5t-6.5 -9.5t-9 -5t-9 -2h-11.5h-11.5h-311q-31 0 -46 5t-18 12.5t-3 23.5v201q0 53 55 53h20q43 0 43 59v922q0 18 -2 32.5t-12 30t-29 13.5l-26 -2q-20 -2 -34.5 10t-14.5 49v150q0 53 17 67.5t50 14.5h287 q33 0 46 -5.5t24.5 -32t11.5 -83.5z" glyph-name="bracketright" horiz-adv-x="587" unicode="]"/><glyph d="M426 983l242 426q23 41 61 41q37 0 62 -41l241 -426q10 -20 10 -31q0 -31 -28 -30h-125q-8 0 -13.5 1t-10.5 2t-7 3t-5 6t-4 6t-4 7t-5 9l-111 195l-111 -195q-2 -2 -4 -7t-4 -7t-4 -6t-4 -5l-6 -3t-7 -3t-8.5 -2t-11.5 -1h-125q-29 0 -28 30q0 11 10 31z" glyph-name="asciicircum" horiz-adv-x="1460" unicode="^"/><glyph d="M0 -279h1024v-204h-1024v204z" glyph-name="underscore" unicode="_"/><glyph d="M449 1268l-191 176q-8 8 -8 12v2q0 16 22 17h234q23 0 43 -11q10 -6 14 -12l99 -172q4 -8 4 -12q0 -16 -21 -17h-145q-35 1 -51 17z" glyph-name="grave" unicode="`"/><glyph d="M479 76h-14q-37 -96 -154 -96q-119 0 -190 108q-80 123 -80 311q0 213 90 334q74 98 188 98q37 0 93 -16q37 -10 45 -10q27 0 26 33q0 51 -30 75q-31 29 -97 29q-49 0 -129 -24q-43 -12 -53 -13q-47 0 -47 68v102q0 47 8 55q6 12 47 27q121 39 244 39q197 0 270 -72 q72 -70 72 -233v-785l2 -38q0 -14 -1 -24.5t-3 -18t-9 -12.5t-9.5 -8t-14.5 -4t-15 -1h-20.5h-19.5h-141h-10.5h-10.5t-10 1t-10 4t-8.5 8t-5.5 14.5t-3 21t0 27.5zM328 483v-131q0 -102 73 -102q39 0 56.5 24.5t17.5 92.5v122q0 104 -67 105q-80 0 -80 -111z" glyph-name="a" horiz-adv-x="839" unicode="a"/><glyph d="M377 1141q66 55 151 55q170 0 236 -215q43 -141 43 -342q0 -279 -39 -432q-55 -217 -233 -217q-96 0 -170 84q-4 -47 -16.5 -60.5t-59.5 -13.5h-125q-61 0 -77.5 19.5t-14.5 60.5l4 127v1184v24.5v21.5t1 15t4 13t9 9.5t15.5 8.5t22.5 3t32 1h131h19.5h17.5t13 -1t11 -4 t9.5 -8.5t8.5 -12.5t3 -18t3 -25.5t1 -35.5v-241zM367 723v-303q0 -121 73 -121q45 0 58.5 34t13.5 120v288q0 51 -2 74t-18.5 42.5t-51.5 19.5q-14 0 -26.5 -4.5t-20.5 -10.5t-13 -18.5t-8 -19.5t-4 -24.5t-1 -24.5v-27.5v-24.5z" glyph-name="b" horiz-adv-x="868" unicode="b"/><glyph d="M535 1112v-168q0 -20 -4.5 -34.5t-8.5 -21.5t-13 -12.5t-14.5 -7.5t-15.5 -3t-12 -1l-12 -2q-59 -10 -73.5 -57t-14.5 -209q0 -152 18 -199t70 -47h22q18 0 28.5 -3t20 -19.5t9.5 -48.5v-213q0 -20 -4.5 -35t-29 -28t-67.5 -13q-209 0 -295 127q-82 115 -82 450 q0 395 95 512q51 63 133 92q74 25 159 25q43 0 64.5 -17.5t24 -30.5t2.5 -36z" glyph-name="c" horiz-adv-x="575" unicode="c"/><glyph d="M487 1141v241q0 23 2.5 38.5t3.5 27.5t8 19.5t8 11.5t13.5 6t14.5 2h19h19h130q20 0 34.5 -1t24.5 -6l15 -7.5t7 -14.5t2 -16v-23.5v-27.5v-1184l5 -127q2 -39 -16.5 -59.5t-78.5 -20.5h-120q-43 0 -59.5 13.5t-18.5 60.5q-72 -84 -178 -84q-49 0 -88 16.5t-66 54 t-46.5 71.5t-30.5 96.5t-18 95t-9.5 104.5t-2.5 90.5v79.5q0 92 4.5 164t21.5 158t46 142t83 95t130 39q73 0 141 -55zM356 745v-290q0 -88 13.5 -122t58.5 -34q74 0 74 123v305q0 45 -1 62.5t-7.5 44t-22.5 37t-43 10.5q-49 0 -60.5 -31t-11.5 -105z" glyph-name="d" horiz-adv-x="868" unicode="d"/><glyph d="M784 270v-157q0 -49 -20 -66q-27 -20 -99.5 -41.5t-158.5 -21.5q-139 0 -231.5 51t-151.5 166q-31 61 -46.5 135t-18.5 125t-3 139q0 178 30 312.5t124 209.5q92 74 231 74q217 0 312 -182q25 -47 36 -115t12 -114t1 -152q0 -55 -3 -84t-20.5 -54.5t-52.5 -25.5h-330 q-14 0 -22 -8q-10 -10 -11 -33q0 -45 25 -80q39 -55 139 -55q76 0 138 35q33 18 53 18q31 0 49 -20.5t18 -55.5zM403 709h64q16 0 25.5 2t17.5 14t8 35v33q0 68 -20 96q-20 33 -66 33q-72 0 -72 -115v-27q0 -71 43 -71z" glyph-name="e" horiz-adv-x="858" unicode="e"/><glyph d="M530 1417v-147q0 -31 -13 -47.5t-38 -14.5l-37 4q-23 2 -33 -14t-8 -41l2 -37l3 -10h77q47 0 47 -66v-149q0 -25 -3 -37t-21.5 -22.5t-56.5 -10.5h-29v-739q0 -61 -17.5 -76.5t-62.5 -13.5l-70 4l-77 -6q-10 0 -18.5 1t-14.5 3t-11.5 7t-8.5 9t-5 12.5t-3 12.5t-2 14 t-1 14.5v15.5v13v725l-27 -2q-23 -2 -34 8.5t-13 23.5t-2 42v10v141q0 33 11.5 51.5t41.5 16.5l23 -2v186q0 199 207 199h84q45 0 68.5 -2t32.5 -17.5t9 -20.5v-38z" glyph-name="f" horiz-adv-x="569" unicode="f"/><glyph d="M487 616v172q0 92 -73 93q-37 0 -55.5 -33t-20.5 -64.5t-2 -91.5v-12v-12q0 -49 2 -75t8 -60.5t24.5 -51t49.5 -16.5t46 20.5t18 42t3 60.5v10v18zM768 1071l2 -887q0 -106 -14.5 -158.5t-65.5 -97.5q-117 -104 -360 -104q-66 0 -103 6q-61 10 -82 33q-27 29 -26 117v6 q0 131 63 131q6 0 62 -23q53 -23 106 -22q72 0 103 34q27 31 26 82v9l-2 45q-74 -59 -143 -60q-113 0 -184 92q-94 125 -94.5 399.5t79.5 401.5q70 113 201 113q80 0 143 -76v18q0 45 35 46h197h6q51 -1 51 -105z" glyph-name="g" horiz-adv-x="845" unicode="g"/><glyph d="M748 0h-78q-80 0 -99 16q-29 23 -28 99v536v27q0 49 -1 73.5t-7.5 56.5t-22.5 46t-43 14q-88 0 -88 -151v-443l10 -184q2 -57 -19.5 -73.5t-84.5 -16.5h-137h-10.5h-10.5t-10 1t-10.5 3t-9.5 6t-9 9.5t-6 13.5t-6 19t-3 25.5t-1 33.5v1128l-4 121q-2 45 5 71.5t29.5 37 t38 12.5t56.5 2h116q43 0 56.5 -9.5t13.5 -43.5v-336l14 -2q74 104 201 104q57 0 102.5 -19.5t71 -56.5t41.5 -73.5t22.5 -90t8.5 -85t2 -76.5v-631q0 -109 -19.5 -136.5t-80.5 -27.5z" glyph-name="h" horiz-adv-x="921" unicode="h"/><glyph d="M70 90v901l-2 92q-2 59 21.5 76t88.5 17h39l84 4q49 2 69.5 -10.5t20.5 -53.5v-1020q0 -70 -15.5 -86t-60.5 -14l-88 4l-100 -2q-23 0 -35 4t-17 21.5t-5 25.5v41zM274 1241h-55q-106 0 -129 25q-20 23 -20 125q0 43 7 68.5t18 32.5t26.5 9t34.5 0l84 -2l65 2 q55 2 71.5 -16.5t16.5 -110.5q0 -51 -5 -77.5t-23.5 -39t-34 -14.5t-56.5 -2z" glyph-name="i" horiz-adv-x="468" unicode="i"/><glyph d="M315 1243h-63q-102 0 -125 27q-18 20 -18 125q0 74 19 92t67 16l84 -2l65 2q29 0 40 -1t25.5 -12t18.5 -38t4 -76q0 -51 -5 -77.5t-23.5 -39t-34 -14.5t-54.5 -2zM430 1116v-991q0 -168 -57 -229q-59 -66 -207 -66q-100 0 -135 29q-23 20 -26 55t1 70l2 61l-2 68 q0 8 1 16t2 13t3 10.5t4 8.5t6.5 5t6.5 3t7 2t6 1h7l6 2l25 2q29 2 29 98v717l-3 94q0 55 25 76q20 16 66 17q12 0 35.5 -1t35.5 -1q14 0 42 1t42 1q78 -1 78 -62z" glyph-name="j" horiz-adv-x="503" unicode="j"/><glyph d="M72 1309l-2 88q-2 59 22.5 79.5t91.5 18.5l43 -2q25 -2 53.5 -2h40t25.5 -2t17.5 -9t5.5 -18.5t2 -31.5l-2 -70v-588h26q61 117 107 289l16 65q6 29 21.5 39.5t60.5 10.5h129q29 0 45.5 -2.5t34.5 -19.5t18 -52q0 -90 -178 -488l191 -520q12 -29 12 -59q0 -10 -3 -17.5 t-6 -10.5t-12.5 -5t-12.5 -2h-15h-10h-197q-37 0 -54.5 19.5t-35.5 82.5l-103 363h-34v-371q0 -4 1 -18.5t1 -22.5t-4.5 -20.5t-11.5 -19.5t-21.5 -11t-36.5 -4l-78 4l-90 -4q-37 -2 -47 21.5t-10 80.5v1209z" glyph-name="k" horiz-adv-x="864" unicode="k"/><glyph d="M78 1309l-2 88q-2 98 76 98l75 -2l99 2q29 0 43 -10t17 -22.5t3 -32.5v-1336q0 -68 -15.5 -84t-58.5 -14l-88 4l-90 -4q-39 -2 -49 20.5t-10 98.5v1194z" glyph-name="l" horiz-adv-x="454" unicode="l"/><glyph d="M74 111v821l-4 121q-2 45 5 71.5t29.5 36.5t38 12.5t56.5 2.5h116q35 0 52.5 -11.5t19.5 -23t2 -37.5v-14l10 -3q70 106 197 107q158 0 238 -131q14 20 35.5 45t79 55.5t122.5 30.5q57 0 102.5 -19.5t71 -57.5t42 -74.5t22.5 -90t8 -84t2 -73.5v-631q0 -109 -19.5 -136.5 t-80.5 -27.5h-78q-82 0 -101 16q-29 23 -28 99v536v33q0 47 -1 70.5t-7.5 55.5t-21.5 45t-42 13q-90 0 -90 -139v-565q0 -109 -20.5 -136.5t-81.5 -27.5h-78q-80 0 -99 16q-29 23 -28 99v536v27q0 49 -1 73.5t-7.5 56.5t-22.5 46t-43 14q-88 0 -88 -151v-443l10 -184 q2 -57 -19.5 -73.5t-84.5 -16.5h-137h-10.5h-10.5t-10 1t-10.5 3t-9.5 6t-9 9.5t-6 13.5t-6 19t-3 26t-1 33z" glyph-name="m" horiz-adv-x="1388" unicode="m"/><glyph d="M748 0h-78q-80 0 -99 16q-29 23 -28 99v536v27q0 49 -1 73.5t-7.5 56.5t-22.5 46t-43 14q-88 0 -88 -151v-443l10 -184q2 -57 -19.5 -73.5t-84.5 -16.5h-137h-10.5h-10.5t-10 1t-10.5 3t-9.5 6t-9 9.5t-6 13.5t-6 19t-3 25.5t-1 33.5v821l-4 121q-2 45 5 71.5t29.5 36.5 t38 12.5t56.5 2.5h116q35 0 52.5 -11.5t19.5 -23t2 -37.5v-14l10 -3q80 109 201 109q57 0 102.5 -19.5t71 -56.5t41.5 -73.5t22.5 -90t8.5 -85t2 -76.5v-631q0 -109 -19.5 -136.5t-80.5 -27.5z" glyph-name="n" horiz-adv-x="923" unicode="n"/><glyph d="M57 594q0 123 2 184.5t17.5 140t48.5 130.5q90 147 305 147q197 0 279 -122t82 -425q0 -145 -2.5 -211.5t-12.5 -141.5t-31 -124q-84 -193 -329 -192q-131 0 -205 54t-111 163q-43 127 -43 397zM352 778v-385q0 -94 72 -94q74 0 74 94v350q0 84 -17 107q-18 27 -57 27 q-72 -1 -72 -99z" glyph-name="o" horiz-adv-x="847" unicode="o"/><glyph d="M76 1055l-2 47q-2 35 10 51t28.5 19.5t51.5 3.5h125q43 0 60.5 -15.5t15.5 -58.5q74 84 178 84q137 0 200 -144q61 -135 62 -434q0 -393 -90 -518q-70 -100 -195 -100q-80 0 -143 53v-119q0 -18 -1 -33.5t-4 -26.5t-4 -18.5t-8.5 -12.5t-9.5 -8t-12 -4t-13 -1h-16.5 h-17.5h-131q-20 0 -34.5 1t-25 6t-15.5 7t-7 14.5t-2 16.5v23.5v27.5v1139zM365 760v-320q0 -76 13 -108.5t62 -32.5q47 0 58.5 30.5t11.5 104.5v291q0 57 -3 85t-19.5 49.5t-49.5 21.5q-73 0 -73 -121z" glyph-name="p" horiz-adv-x="862" unicode="p"/><glyph d="M786 1055v-1139v-24.5v-21.5t-1 -15.5t-4 -13.5l-9 -9t-15 -8t-22.5 -3t-32.5 -1h-129h-17h-16t-13.5 1t-12.5 4t-9 8t-8 12.5t-4.5 18.5t-4.5 26.5t-1 33.5v119q-63 -53 -143 -53q-125 0 -194 100q-90 125 -91 518q0 299 62 434q63 143 201 144q104 0 178 -84 q-2 43 15 58.5t60 15.5h123q35 0 51.5 -3.5t29 -19.5t9.5 -51zM500 440v320q0 121 -74 121q-33 0 -49.5 -21.5t-19.5 -49.5t-3 -85v-291q0 -51 2 -73.5t18.5 -42t49.5 -19.5q49 0 62.5 32.5t13.5 108.5z" glyph-name="q" horiz-adv-x="860" unicode="q"/><glyph d="M311 0h-164q-29 0 -40 3t-23 27.5t-12 78.5v827l-4 119q-2 45 4 70.5t27.5 37t37 12.5t58.5 1h100q29 0 39 -4.5t18 -28t8 -76.5v-10l15 -2q12 51 43 98t65 47q63 0 64 -117v-219q0 -35 -6 -53t-13.5 -22.5t-21.5 -6.5l-14 -2q-53 -8 -80 -36.5t-27 -96.5v-375l8 -172 q2 -66 -14.5 -83t-67.5 -17z" glyph-name="r" horiz-adv-x="567" unicode="r"/><glyph d="M45 111v129q0 90 53 90q2 0 35 -8q47 -14 94 -15q57 0 76 29q12 18 12 45q0 23 -10 43t-18 28.5t-31 28.5l-23 21l-38 35q-147 133 -148 319q0 147 90 244q92 96 262 96q121 0 156 -22.5t35 -79.5v-119q0 -47 -20.5 -69.5t-49.5 -16.5l-18 4q-31 6 -39 6h-19 q-31 0 -53 -16q-20 -16 -20 -52q0 -20 18 -49q10 -16 35 -41l25 -24l61 -66q127 -137 127 -303q0 -174 -96 -270q-98 -98 -271 -98q-164 0 -200 38q-25 27 -25 93z" glyph-name="s" horiz-adv-x="671" unicode="s"/><glyph d="M121 291v530h-12q-61 0 -82 25q-16 20 -17 94q0 113 17 139q20 35 73 35h21v172q0 49 3 74.5t20.5 36t26.5 11.5t48 1h33l115 2q25 0 40 -6t20 -23.5t6 -30t1 -42.5v-193h15q33 0 53 -6t28.5 -20.5t10.5 -25.5t2 -34v-121q0 -61 -17 -75q-23 -20 -92 -15v-444 q0 -47 37 -47h14q14 2 15 0q23 -2 29 -21.5t6 -58.5v-160q0 -41 -13.5 -61.5t-29 -23.5t-43.5 -3h-82q-158 0 -197 37q-25 23 -36 71t-12 80.5t-1 102.5z" glyph-name="t" horiz-adv-x="583" unicode="t"/><glyph d="M166 1176h78q47 0 72.5 -5.5t38 -21.5t14.5 -31.5t2 -54.5v-539v-26q0 -49 1 -74t7 -56.5t22.5 -46t42.5 -14.5q88 0 88 152v442l-10 184q-2 57 19.5 74t85.5 17h137q29 0 40 -3.5t23.5 -28t12.5 -77.5v-823l4 -121q2 -47 -4 -72.5t-29 -36t-38 -12.5t-58 -2h-117 q-35 0 -52.5 11.5t-19.5 22.5t-2 38v14l-10 2q-72 -104 -201 -104q-57 0 -102 19.5t-70.5 56t-42 73.5t-22.5 89t-8 83t-2 76v631q0 109 19.5 136.5t80.5 27.5z" glyph-name="u" horiz-adv-x="915" unicode="u"/><glyph d="M78 1176h160q6 0 23.5 2t21.5 0t14 -11.5t15 -31t7 -56.5l66 -723h21l71 731q6 59 28.5 74t92.5 15h127q63 0 63 -58q0 -4 -3 -17.5t-5 -29.5l-24 -147q-10 -63 -51 -266t-89 -459q-4 -20 -9 -51t-7 -44.5t-6 -33t-8 -26.5t-10.5 -17.5t-13.5 -13.5t-19.5 -7t-26.5 -5 t-35 -1h-188q-20 0 -34.5 1t-25 7t-16.5 8t-11 15.5t-6 17.5t-4 24.5t-6 28.5l-116 613q-33 164 -47 246q-2 10 -5.5 29.5t-5.5 29.5l-12 70q-2 20 -5 39.5t16.5 33t62.5 13.5z" glyph-name="v" horiz-adv-x="796" unicode="v"/><glyph d="M909 0h-209q-23 0 -35 4t-24 26.5t-14 65.5l-35 312h-31l-53 -359q-4 -31 -21.5 -40t-70.5 -9h-150q-31 0 -41 1t-25.5 9t-20.5 28.5t-11 57.5l-148 1018q-4 33 22 47.5t75 14.5h137q31 0 41 -16.5t16 -65.5l80 -658h35l53 264l-45 385q0 20 -1 40t16.5 35.5t54.5 15.5 h135q25 0 35 -1t21.5 -10.5t14.5 -28t5 -53.5l35 -647h38l74 662q0 6 1 20.5t2 19.5t5 14t11.5 13t19.5 7.5t31 3.5h147q37 0 53.5 -10.5t15.5 -23t-1 -22.5l-21 -153q-35 -268 -80 -511t-65 -380q-4 -27 -8 -44.5t-13.5 -23.5t-12.5 -8t-19.5 -1t-18.5 1z" glyph-name="w" horiz-adv-x="1165" unicode="w"/><glyph d="M444 854l60 270q4 20 12 31.5t22.5 16t18.5 4.5h23h184q55 0 55 -46q0 -20 -28 -90l-166 -403l178 -502q16 -43 16 -82q0 -16 -5 -27.5t-11 -16.5t-19.5 -8t-21.5 -3t-26.5 1t-26.5 1h-121q-25 0 -38 2t-31.5 24.5t-26.5 65.5l-56 283h-24l-62 -303q-6 -31 -20 -47 q-23 -25 -86 -25h-185q-47 0 -47 45q0 25 23 78l215 506l-207 444q-12 20 -12 60q0 43 78 43h190q57 0 66 -35l59 -287h20z" glyph-name="x" horiz-adv-x="849" unicode="x"/><glyph d="M51 -100v176q0 76 49 76q16 0 29 -7l10 -5t12.5 -5t14.5 -2q16 0 24.5 8.5t8.5 22.5q0 16 -6 53l-175 877q-4 20 -4 24q0 23 18.5 40.5t53.5 17.5h176q31 0 42 -13.5t18 -70.5l67 -732h37l57 758q0 31 19 45q14 12 53 13h150q82 0 81 -64q0 -12 -8 -53l-205 -965 q-31 -145 -98 -211q-72 -70 -207 -69q-113 0 -166 20q-51 17 -51 66z" glyph-name="y" horiz-adv-x="792" unicode="y"/><glyph d="M639 203v-90q0 -70 -12.5 -91.5t-42.5 -21.5q-6 0 -60 4q-6 0 -53 2t-61 2q-68 0 -121 -2t-93 -6t-57 -4l-45 -2q-39 -2 -51 19.5t-12 68.5v68q0 66 18 112l51 135q14 41 52 132.5t53 129.5q43 111 55 138q20 53 21 69q0 8 -3.5 13.5t-11.5 7.5t-14 2t-22.5 -2t-24.5 -2 l-86 -2q-16 0 -28.5 2t-20 7t-11.5 9t-6 13.5t-2 12.5v14v13v58q0 14 -2 29.5t-2 37.5q0 66 26.5 83.5t90.5 17.5q57 0 145 -4q35 0 71 -2.5t48 -2.5q35 0 68.5 3.5t38.5 3.5l38 2q31 2 41.5 -21.5t10.5 -79.5v-63q0 -39 -13 -84q-8 -29 -22.5 -61.5t-16.5 -36.5l-165 -441 q-12 -37 -13 -39v-8q0 -25 62 -24q49 0 104 6l31 4q16 2 26.5 -10.5t14.5 -38t5 -40.5t1 -40z" glyph-name="z" horiz-adv-x="669" unicode="z"/><glyph d="M211 807v448q0 53 6 91t26.5 88.5t72 78t130.5 27.5h109q57 0 57 -57v-94q0 -45 -45 -46h-16q-74 0 -74 -79v-478q0 -76 -17.5 -111.5t-74.5 -72.5v-8q57 -35 74.5 -72t17.5 -112v-478q0 -80 74 -79h16q45 0 45 -46v-94q0 -35 -15 -46t-42 -11h-109q-80 0 -131 27.5 t-71.5 78t-26.5 88t-6 91.5v448q0 100 -72 100h-20q-57 0 -58 58v102q0 57 58 58h20q72 0 72 100z" glyph-name="braceleft" horiz-adv-x="673" unicode="{"/><glyph d="M410 1565h206v-2048h-206v2048z" glyph-name="bar" unicode="|"/><glyph d="M463 1255v-448q0 -100 72 -100h20q57 0 57 -58v-102q0 -35 -15 -46.5t-42 -11.5h-20q-72 0 -72 -100v-448q0 -53 -6 -91t-26.5 -88.5t-72 -78t-131.5 -27.5h-108q-57 0 -58 57v94q0 45 45 46h17q74 0 74 79v478q0 76 17 112.5t75 71.5v8q-57 37 -74.5 73t-17.5 111v478 q0 80 -74 79h-17q-45 0 -45 46v94q0 57 58 57h108q80 0 131.5 -27.5t72 -78t26.5 -88.5t6 -91z" glyph-name="braceright" horiz-adv-x="673" unicode="}"/><glyph d="M809 838l61 -43q31 -23 -22 -109q-41 -63 -87 -98t-126 -35q-74 0 -156 45q-10 6 -35.5 20.5t-39 21.5t-35 14.5t-39.5 7.5q-43 0 -72 -27q-8 -8 -30.5 -42t-41.5 -34q-6 0 -30 14l-62 43q-35 25 23 111q90 131 213 131q78 0 192 -67q68 -41 117 -41q41 0 74 32 q10 10 20 27.5t15 24.5q14 18 30 18q6 0 31 -14z" glyph-name="asciitilde" horiz-adv-x="964" unicode="~"/><glyph d="M94 1184v229q0 23 4 35t20.5 20.5t51.5 8.5h182q25 0 37 -3.5t22.5 -20.5t10.5 -50v-227q0 -20 -3 -31.5t-20.5 -22t-52.5 -10.5h-182q-47 0 -58.5 18.5t-11.5 53.5zM207 1022h104q45 0 58 -12q8 -8 12 -64l57 -858q4 -63 -10 -82.5t-74 -19.5h-192q-43 0 -64.5 12 t-19.5 53l57 895q2 31 4 43t18.5 22.5t49.5 10.5z" glyph-name="exclamdown" horiz-adv-x="516" unicode="¡"/><glyph d="M430 1178v133q0 18 6 21t21 3h108q18 0 24.5 -6t6.5 -26v-119q72 2 92.5 -13.5t20.5 -58.5v-168q0 -53 -23.5 -68.5t-73.5 -15.5h-30q-51 0 -72 -13t-31 -67.5t-10 -183.5v-41v-41v-37.5t3 -37t8 -31t13.5 -27.5t19.5 -19.5t28.5 -12.5t38.5 -1l69 4q29 2 44.5 -12 t15.5 -61v-213q0 -37 -21.5 -56.5t-60.5 -17.5l-31 2v-117q0 -12 -1 -16t-8 -10.5t-22 -6.5h-108q-10 0 -15.5 1t-8.5 4.5t-3 4.5v7v8v131q-135 18 -201 139q-74 137 -73 430q0 315 63.5 448.5t210.5 160.5z" glyph-name="cent" horiz-adv-x="915" unicode="¢"/><glyph d="M174 584h-98q-23 0 -23 18v164q0 20 21 20h71q-59 164 -59 308q0 201 111 311q100 100 286 100q104 0 161.5 -30.5t103.5 -83.5q57 -72 75.5 -149t18.5 -218v-14q0 -78 -13.5 -97.5t-56.5 -19.5h-160q-39 0 -51 16.5t-12 81.5v39q0 88 -14 121q-14 31 -50 31 q-27 0 -43 -25q-23 -35 -22 -147q0 -111 51 -224h231q33 0 33 -32v-140q0 -31 -26 -30h-213l2 -17l2 -59q2 -82 -39 -166h297q14 0 26.5 -2t22.5 -2t16 -6t11.5 -7t8.5 -10.5t5 -11.5t3 -14.5t1 -13.5v-17v-18v-170q0 -70 -92 -70h-654q-35 0 -34 43v150q0 33 34 67l9 8 q29 29 43 61.5t16 53t4 66.5v45q0 6 -1 24.5t-3 65.5z" glyph-name="sterling" horiz-adv-x="915" unicode="£"/><glyph d="M172 1438l205 -203q111 78 244 78q137 0 247 -78l203 203l105 -107l-203 -205q76 -109 76 -241q0 -137 -76 -242l203 -205l-105 -104l-203 203q-111 -78 -245 -78q-139 0 -246 78l-205 -203l-104 104l202 205q-76 100 -75 242q0 135 75 241l-202 205zM622.5 1161 q-114.5 0 -195.5 -82t-81 -194.5t81 -193.5t195.5 -81t195.5 81t81 193.5t-81 194.5t-195.5 82z" glyph-name="currency" horiz-adv-x="1241" unicode="¤"/><glyph d="M291 139v336q0 94 -17 135h-151q-45 0 -51 17q-2 6 -2 16v139q0 12 2 17.5t14 10.5t37 5h92l-188 535q-16 33 -17 75q0 59 82 58l107 -2l108 2q66 2 74 -70l70 -555h22l66 506q10 76 34 100q18 16 68 17q14 0 45 -1t45 -1t41 2t41 2q90 -2 90 -51q0 -20 -18 -80 l-178 -537h84q35 0 44 -8t9 -25v-139q0 -18 -9.5 -25.5t-43.5 -7.5h-142q-31 -76 -31 -172v-32l13 -336q0 -35 -17 -52q-18 -18 -57 -18h-203q-37 0 -51 12.5t-14 46.5v13q0 12 1 33.5t1 33.5z" glyph-name="yen" horiz-adv-x="915" unicode="¥"/><glyph d="M410 1432h206v-758h-206v758zM410 408h206v-758h-206v758z" glyph-name="brokenbar" unicode="¦"/><glyph d="M205 -100v190q0 18 19.5 30.5t45.5 12.5q12 0 72 -29q37 -16 78 -16q86 0 86 64q0 8 -1 15t-4 14t-5 11.5t-9.5 11.5t-9.5 9t-13 9t-13 9t-15.5 10.5t-17.5 10.5q-125 76 -127 78q-59 43 -93 72.5t-66 92t-32 138.5q0 219 172 295q-102 102 -102 235q0 170 127 258 q111 76 319 76q106 0 148 -14q66 -25 65 -92v-166q0 -33 -20.5 -52.5t-40.5 -19.5q-14 0 -31 12q-2 2 -10 7.5t-10 7.5q-6 4 -14.5 10t-14.5 10q-43 29 -92 29q-39 0 -66 -19q-29 -23 -28.5 -55.5t24.5 -60.5q14 -16 107 -80l65 -45q82 -57 121 -89t71 -89.5t32 -128.5 q0 -106 -57.5 -175t-129.5 -104q109 -76 109 -236q0 -133 -86 -219q-104 -102 -320 -102q-170 0 -205 27q-28 16 -28 47zM395 668q0 -37 41 -78q47 -47 103 -47q31 0 53 23.5t22 54.5q0 47 -73 100q-37 27 -72 27q-33 0 -53.5 -24.5t-20.5 -55.5z" glyph-name="section" unicode="§"/><glyph d="M457 1423v-127q0 -35 -54 -34h-124q-31 0 -40.5 9t-9.5 29v127q0 37 54 37h125q49 0 49 -41zM795 1423v-127q0 -35 -54 -34h-127q-47 0 -47 38v127q0 37 54 37h124q50 0 50 -41z" glyph-name="dieresis" unicode="¨"/><glyph d="M244 733.5q0 -237.5 165.5 -404.5t405.5 -167t405.5 167t165.5 404.5t-166.5 405.5t-404 168t-404.5 -168t-167 -405.5zM82 733q0 303 215 518t518 215t518 -215t215 -518t-215 -518t-518 -215t-518 215t-215 518zM942 1094v-117q0 -57 -55 -57h-29q-35 0 -51 -26 t-18.5 -51.5t-2.5 -84.5v-25q0 -111 21.5 -141.5t71.5 -30.5h16q29 0 38 -11t9 -40v-150q0 -31 -22.5 -42t-83.5 -11q-164 0 -232 90q-66 82 -65 316q0 272 75 358q39 43 107 64q55 16 129 16q43 0 63.5 -8t24.5 -18.5t4 -30.5z" glyph-name="copyright" horiz-adv-x="1630" unicode="©"/><glyph d="M360 705h-10q-29 -66 -117 -66q-86 0 -144 74.5t-58 216.5q0 147 63.5 225t155.5 78q27 0 57 -12l15 -4q14 -2 20 -3q20 0 20 27q0 33 -22 49q-27 20 -70 21q-35 0 -75.5 -12.5t-51.5 -14.5h-10q-37 4 -37 47v72q0 43 25 53q74 31 203 31q158 0 211 -60q43 -47 43 -153 v-576q0 -8 -1.5 -15t-3.5 -12t-4 -8.5t-6 -5.5t-7 -4t-10 -2h-10.5h-12.5h-13h-121q-16 0 -22.5 8.5t-6.5 38.5v7zM246 989v-92q0 -72 55 -72q10 0 17.5 2t17.5 8.5t15 25t5 46.5v86q0 74 -49 74q-61 0 -61 -78z" glyph-name="ordfeminine" horiz-adv-x="634" unicode="ª"/><glyph d="M406 1030v-258q0 -31 -17 -47l-104 -111q-12 -18 -13 -20q0 -10 9 -19l100 -110q27 -29 27 -57v-252q0 -20 -21 -21q-10 0 -20 10l-275 273q-18 18 -18 43v256q0 27 16 43l281 280q6 6 12 9h4q19 -3 19 -19zM819 1030v-258q0 -31 -16 -47l-105 -111q-12 -18 -12 -20 q0 -10 8 -19l101 -110q27 -29 26 -57v-252q0 -20 -20 -21q-10 0 -21 10l-274 273q-18 18 -19 43v256q0 27 17 43l280 280q6 6 13 9h4q18 -3 18 -19z" glyph-name="guillemotleft" horiz-adv-x="901" unicode="«"/><glyph d="M254 864h1198v-502h-199v306h-999v196z" glyph-name="logicalnot" horiz-adv-x="1705" unicode="¬"/><glyph d="M244 716.5q0 -237.5 165.5 -404.5t405.5 -167t405.5 167t165.5 404.5t-166.5 405.5t-404 168t-404.5 -168t-167 -405.5zM82 717q0 303 215 518t518 215t518 -215t215 -518t-215 -518t-518 -215t-518 215t-215 518zM590 1108h244q141 0 204 -59q63 -57 64 -191 q0 -164 -115 -225l113 -254q16 -41 -25 -41h-143q-43 0 -51 24l-90 242q-4 14 -27 14h-10q-14 0 -15 -12v-229q0 -39 -45 -39h-104q-47 0 -47 39v692q0 39 47 39zM739 893v-82q0 -47 43 -47h37q25 0 43.5 23.5t18.5 62.5q0 84 -82 84h-21q-14 0 -26.5 -12.5t-12.5 -28.5z " glyph-name="registered" horiz-adv-x="1630" unicode="®"/><glyph d="M305 1446h422q49 0 49 -33v-100q0 -29 -53 -29h-424q-39 0 -45 14q-2 6 -2 19v100q0 18 11 23.5t42 5.5z" glyph-name="macron" unicode="¯"/><glyph d="M305 1446h422q49 0 49 -33v-100q0 -29 -53 -29h-424q-39 0 -45 14q-2 6 -2 19v100q0 18 11 23.5t42 5.5z" glyph-name="macron" unicode="ˉ"/><glyph d="M338 1464q127 0 215 -89t88 -216q0 -125 -88 -214t-217 -89q-127 0 -214 88t-87 215t88 216t215 89zM338 1335q-72 0 -124 -50t-52 -124q0 -72 52 -124t124 -52q74 0 124 52.5t50 123.5q0 74 -50 124t-124 50z" glyph-name="degree" horiz-adv-x="673" unicode="°"/><glyph d="M254 778v62q0 31 14 45q14 12 51 12h435v260q0 37 12 51q14 14 45 15h61q57 0 68 -11q12 -12 12 -45v-270h434q37 0 52 -12q14 -14 14 -45v-62q0 -57 -10 -67q-12 -12 -45 -13h-445v-270q0 -33 -12 -45q-10 -10 -68 -10h-61q-31 0 -45 14q-12 14 -12 51v260h-445 q-33 0 -45 13q-10 10 -10 67zM254 78v61q0 31 14 45q14 12 51 13h1067q37 0 52 -13q14 -14 14 -45v-61q0 -57 -10 -68q-12 -12 -45 -12h-1088q-33 0 -45 12q-10 11 -10 68z" glyph-name="plusminus" horiz-adv-x="1705" unicode="±"/><glyph d="M47 635v92q0 27 8 41t34 34.5t28 22.5l33 31q72 66 125 166t53 182q0 51 -13 76q-12 18 -39 18q-23 0 -30 -14q-10 -14 -10 -57v-41q0 -39 -7.5 -50.5t-31.5 -11.5h-103q-18 0 -25.5 2t-13.5 18.5t-6 49.5v16q0 92 13.5 135.5t52.5 84.5q59 63 172 63q121 0 186 -66 q70 -74 70 -202q0 -223 -211 -428h143h14.5h13.5t11 -2t10 -5.5t6.5 -10.5t5.5 -18t1 -26v-102q0 -41 -60 -41h-387q-43 0 -43 43z" glyph-name="uni00B2" horiz-adv-x="604" unicode="²"/><glyph d="M141 1024v100q0 20 15.5 31.5t40.5 9.5l16 -2q31 -4 62.5 16.5t31.5 53.5q0 25 -19.5 45t-51.5 20q-41 0 -66 -34q-14 -18 -25 -19q-16 0 -36 21l-68 71q-10 10 -10 31q0 29 67 70q88 53 185 53q121 0 181 -66.5t60 -158.5q0 -115 -96 -174q119 -49 119 -215 q0 -131 -82 -213t-201 -82q-59 0 -121 20q-6 2 -96 47q-41 20 -41 49q0 10 10 25l74 104q12 18 37 19q12 0 45 -23.5t66 -23.5q78 0 77 84q0 94 -79 94h-48q-27 0 -37 10t-10 37z" glyph-name="uni00B3" horiz-adv-x="604" unicode="³"/><glyph d="M522 1251h-145q-20 0 -21 17q0 4 4 12l99 172q12 23 57 23h234q20 0 22 -17v-4q0 -2 -8 -10l-189 -176q-16 -17 -53 -17z" glyph-name="acute" unicode="´"/><glyph d="M205 1092h289l-76 -435q-29 -143 -29 -206v-21q0 -8 -1 -20.5t-1 -20.5q0 -88 44 -136t126 -48q51 0 90 22.5t63.5 54t44 88t29 97.5t21.5 111l90 514h289l-193 -1092h-268l18 117q-72 -150 -215 -150q-135 0 -213 121l-90 -526h-286z" glyph-name="uni00B5" horiz-adv-x="1249" unicode="µ"/><glyph d="M393 1479h150q16 0 27.5 -3t20.5 -16.5t9 -38.5v-1614q0 -35 -15.5 -46t-41.5 -11h-80q-16 0 -27.5 3t-20.5 16.5t-9 37.5v1057q-172 -12 -268.5 85.5t-96.5 221.5q0 121 90 214.5t262 93.5zM741 -193v1614q0 57 58 58h80q57 0 57 -58v-1614q0 -35 -15.5 -46t-41.5 -11 h-80q-16 0 -27.5 3t-21 16t-9.5 38z" glyph-name="paragraph" horiz-adv-x="976" unicode="¶"/><glyph d="M227.5 897q65.5 0 111.5 -47t46 -110.5t-47 -110.5t-111 -47q-66 0 -112.5 47t-46.5 110q0 66 47 112t112.5 46z" glyph-name="periodcentered" horiz-adv-x="454" unicode="·"/><glyph d="M227.5 897q65.5 0 111.5 -47t46 -110.5t-47 -110.5t-111 -47q-66 0 -112.5 47t-46.5 110q0 66 47 112t112.5 46z" glyph-name="periodcentered" horiz-adv-x="454" unicode="⋅"/><glyph d="M227.5 897q65.5 0 111.5 -47t46 -110.5t-47 -110.5t-111 -47q-66 0 -112.5 47t-46.5 110q0 66 47 112t112.5 46z" glyph-name="periodcentered" horiz-adv-x="454" unicode="∙"/><glyph d="M569 14l-2 -45q-2 -25 14.5 -31t51.5 -6h26q78 0 121 -51q35 -37 35 -92q0 -82 -70 -119q-70 -39 -229 -39q-176 0 -215 27q-35 25 -35 70q0 39 33 39q8 0 27.5 -4.5t27.5 -6.5l35 -6q68 -12 133 -12q76 0 76 45q0 49 -68 49h-12q-45 0 -56 9t-11 38l2 135h116z" glyph-name="cedilla" unicode="¸"/><glyph d="M264 1483h148q39 0 39 -51v-764v-18.5v-17.5t-2.5 -13.5t-5.5 -12.5t-10 -7t-18.5 -6t-25.5 -1h-125q-35 0 -35 47l-2 84l2 108l-2 179l2 155l-2 68l-57 -74q-10 -12 -27 -12q-10 0 -28 14l-58 45q-16 12 -16 21q0 6 14 26z" glyph-name="uni00B9" horiz-adv-x="604" unicode="¹"/><glyph d="M39 1067v42v42t1 36.5t2 38t3 34t6 35t9.5 29.5t12.5 31.5t17 28.5q68 102 229 103q141 0 205 -82q66 -86 66 -299q0 -106 -1 -152.5t-9.5 -97.5t-24.5 -84q-63 -133 -248 -133q-72 0 -120 21.5t-87 78.5q-14 23 -25.5 44.5t-17.5 48t-11 45t-6 50t-1 45v50.5v45z M260 1196v-270q0 -66 51 -66q16 0 26.5 3t21 20.5t10.5 50.5v237q0 33 -2 50.5t-16.5 31t-41.5 13.5q-49 0 -49 -70z" glyph-name="ordmasculine" horiz-adv-x="636" unicode="º"/><glyph d="M487 772v258q0 16 19 19h4q6 -2 12 -9l281 -280q16 -16 16 -43v-256q0 -25 -18 -43l-275 -273q-10 -10 -20 -10q-20 0 -21 21v252q0 29 27 57l100 110q8 8 9 19q0 2 -13 20l-104 111q-17 16 -17 47zM82 772v258q0 16 18 19h4q6 -2 13 -9l280 -280q16 -16 17 -43v-256 q0 -25 -19 -43l-274 -273q-10 -10 -21 -10q-20 0 -20 21v252q0 29 26 57l101 110q8 8 8 19q0 2 -12 20l-105 111q-16 16 -16 47z" glyph-name="guillemotright" horiz-adv-x="901" unicode="»"/><glyph d="M1178 178h-201q-10 0 -16.5 1t-10.5 4t-7 6.5t-4 8.5t-1 7v8v8v92q0 10 8 29l144 285q43 84 63.5 124t37.5 59t23.5 20t26.5 1h115q33 0 33 -38v-441h45q25 0 24 -30v-107q0 -37 -35 -37h-34v-131q0 -10 -1.5 -17t-3.5 -12.5t-6 -8.5t-6 -5t-9 -3t-9 -1h-12.5h-12.5h-104 q-12 0 -20.5 1t-13.5 3t-8 4t-4 7t-1 7.5v10.5v10v135zM1188 352v207l-96 -207h96zM252 1483h141q37 0 37 -49v-713q0 -47 -10 -57q-14 -12 -49 -13h-119q-33 0 -33 45v19q0 10 -1 28.5t-1 28.5l2 102l-2 166l2 148l-2 61l-55 -67q-10 -12 -25 -13q-16 0 -28 13l-52 41 q-18 14 -18 22q0 4 14 25zM399 -27l-80 37q-16 6 -20 41v8q0 8 10 29l746 1399q18 35 41 35q4 0 22 -6l84 -41q16 -8 17 -33q0 -4 -15 -33l-735 -1399q-23 -41 -49 -41q-13 0 -21 4z" glyph-name="onequarter" horiz-adv-x="1495" unicode="¼"/><glyph d="M252 1483h141q37 0 37 -49v-713q0 -47 -10 -57q-14 -12 -49 -13h-119q-33 0 -33 45v19q0 10 -1 28.5t-1 28.5l2 102l-2 166l2 148l-2 61l-55 -67q-10 -12 -25 -13q-16 0 -28 13l-52 41q-18 14 -18 22q0 4 14 25zM385 -27l-80 37q-16 6 -20 41v8q0 8 10 29l745 1399 q18 35 41 35q4 0 23 -6l84 -41q16 -8 16 -33q0 -4 -14 -33l-735 -1399q-23 -41 -49 -41q-13 0 -21 4zM965 41v86q0 18 5 30.5t11 18.5t31.5 26.5t48.5 41.5q68 61 120 159.5t52 167.5q0 55 -12.5 71.5t-36.5 16.5q-23 0 -31 -14t-8 -51v-39v-9v-9v-9.5t-2 -8.5t-3 -6t-4 -7 t-7.5 -4t-10.5 -3t-12 -1h-98q-16 0 -22.5 2t-12.5 16t-6 45v17q0 262 213 262q258 0 258 -250q0 -197 -201 -397h137q37 0 47.5 -10.5t10.5 -47.5v-96q0 -39 -58 -39h-370q-39 0 -39 41z" glyph-name="onehalf" horiz-adv-x="1495" unicode="½"/><glyph d="M141 1024v100q0 20 15.5 31.5t40.5 9.5l16 -2q31 -4 62.5 16.5t31.5 53.5q0 25 -19.5 45t-51.5 20q-41 0 -66 -34q-14 -18 -25 -19q-16 0 -36 21l-68 71q-10 10 -10 31q0 29 67 70q88 53 185 53q121 0 181 -66.5t60 -158.5q0 -115 -96 -174q119 -49 119 -215 q0 -127 -79 -211t-204 -84q-23 0 -44 2t-40.5 7t-34 10t-32 13.5t-24.5 11.5t-23.5 12t-18.5 11q-41 20 -41 49q0 10 10 25l74 104q12 18 37 19q12 0 45 -23.5t66 -23.5q78 0 77 84q0 94 -79 94h-48q-27 0 -37 10t-10 37zM1178 178h-201q-10 0 -16.5 1t-10.5 4t-7 6.5 t-4 8.5t-1 7v8v8v92q0 10 8 29l144 285q43 84 63.5 124t37.5 59t23.5 20t26.5 1h115q33 0 33 -38v-441h45q25 0 24 -30v-107q0 -37 -35 -37h-34v-131q0 -10 -1.5 -17t-3.5 -12.5t-6 -8.5t-6 -5t-9 -3t-9 -1h-12.5h-12.5h-104q-12 0 -20.5 1t-13.5 3t-8 4t-4 7t-1 7.5v10.5 v10v135zM1188 352v207l-96 -207h96zM418 -27l-80 37q-16 6 -21 41v8q0 8 11 29l745 1399q18 35 41 35q4 0 23 -6l84 -41q16 -8 16 -33q0 -4 -14 -33l-736 -1399q-23 -41 -49 -41q-12 0 -20 4z" glyph-name="threequarters" horiz-adv-x="1495" unicode="¾"/><glyph d="M160 1186v227q0 20 3 31.5t20.5 22t52.5 10.5h182q20 0 33.5 -3.5t24.5 -20.5t11 -50v-227q0 -23 -4 -35.5t-20.5 -20.5t-50.5 -8h-183q-25 0 -37 3t-22 20.5t-10 50.5zM285 1022h125q41 0 52 -52t11 -149q0 -117 -39 -284q-18 -74 -18 -109t10 -59q18 -37 51 -31l55 10 q68 12 68 -198q0 -37 -5 -62t-24.5 -54.5t-63.5 -44t-114 -14.5q-147 0 -227 62q-104 82 -105 244q0 113 86 311l21 47q49 113 45 192l-8 123q-2 33 12.5 50.5t67.5 17.5z" glyph-name="questiondown" horiz-adv-x="690" unicode="¿"/><glyph d="M2 160l64 307q20 104 20 111q14 104 32.5 211.5t44 246t40.5 221.5l8 48q18 119 39 145q18 25 51 25h252q61 0 80 -25q12 -14 65 -264l58 -271q12 -59 30.5 -185t55.5 -337q8 -43 35.5 -160.5t27.5 -154.5t-26.5 -57.5t-67.5 -20.5h-176q-49 0 -66 47q-6 20 -10 78 q-4 53 -10 74q-20 59 -86 59q-45 0 -82 -15.5t-35 -47.5l2 -72q2 -76 -22.5 -99.5t-73.5 -23.5h-189q-78 0 -77 59q0 23 16 101zM438 1110l-57 -416q-6 -45 -8 -67v-11q6 -35 78 -34q35 0 55 11t18 46l-4 45l-65 428zM385 1554l-190 177q-8 8 -9 12v2q0 16 23 16h233 q23 0 43 -10q10 -6 15 -12l98 -172q4 -8 4 -13q0 -16 -20 -16h-146q-35 0 -51 16z" glyph-name="Agrave" horiz-adv-x="894" unicode="À"/><glyph d="M2 160l64 307q20 104 20 111q14 104 32.5 211.5t44 246t40.5 221.5l8 48q18 119 39 145q18 25 51 25h252q61 0 80 -25q12 -14 65 -264l58 -271q12 -59 30.5 -185t55.5 -337q8 -43 35.5 -160.5t27.5 -154.5t-26.5 -57.5t-67.5 -20.5h-176q-49 0 -66 47q-6 20 -10 78 q-4 53 -10 74q-20 59 -86 59q-45 0 -82 -15.5t-35 -47.5l2 -72q2 -76 -22.5 -99.5t-73.5 -23.5h-189q-78 0 -77 59q0 23 16 101zM438 1110l-57 -416q-6 -45 -8 -67v-11q6 -35 78 -34q35 0 55 11t18 46l-4 45l-65 428zM459 1538h-146q-20 0 -20 16q0 4 4 13l98 172 q10 23 58 22h233q20 0 23 -16v-4q0 -2 -9 -10l-188 -177q-16 -16 -53 -16z" glyph-name="Aacute" horiz-adv-x="894" unicode="Á"/><glyph d="M2 160l64 307q20 104 20 111q14 104 32.5 211.5t44 246t40.5 221.5l8 48q18 119 39 145q18 25 51 25h252q61 0 80 -25q12 -14 65 -264l58 -271q12 -59 30.5 -185t55.5 -337q8 -43 35.5 -160.5t27.5 -154.5t-26.5 -57.5t-67.5 -20.5h-176q-49 0 -66 47q-6 20 -10 78 q-4 53 -10 74q-20 59 -86 59q-45 0 -82 -15.5t-35 -47.5l2 -72q2 -76 -22.5 -99.5t-73.5 -23.5h-189q-78 0 -77 59q0 23 16 101zM438 1110l-57 -416q-6 -45 -8 -67v-11q6 -35 78 -34q35 0 55 11t18 46l-4 45l-65 428zM178 1567l146 172q18 23 51 22h149q33 0 51 -22 l140 -172q4 -6 4 -12.5t-5 -11.5t-14 -5h-135q-33 0 -49 16l-53 58q-14 14 -29 0l-57 -58q-16 -16 -49 -16h-135q-18 0 -19 16q0 9 4 13z" glyph-name="Acircumflex" horiz-adv-x="894" unicode="Â"/><glyph d="M2 160l64 307q20 104 20 111q14 104 32.5 211.5t44 246t40.5 221.5l8 48q18 119 39 145q18 25 51 25h252q61 0 80 -25q12 -14 65 -264l58 -271q12 -59 30.5 -185t55.5 -337q8 -43 35.5 -160.5t27.5 -154.5t-26.5 -57.5t-67.5 -20.5h-176q-49 0 -66 47q-6 20 -10 78 q-4 53 -10 74q-20 59 -86 59q-45 0 -82 -15.5t-35 -47.5l2 -72q2 -76 -22.5 -99.5t-73.5 -23.5h-189q-78 0 -77 59q0 23 16 101zM438 1110l-57 -416q-6 -45 -8 -67v-11q6 -35 78 -34q35 0 55 11t18 46l-4 45l-65 428zM641 1751h82q27 0 27 -37q0 -63 -45 -108 q-57 -57 -144 -58q-49 0 -104 23l-31 12q-66 29 -88 29q-31 0 -51 -25q-6 -10 -8.5 -18t-4.5 -13q-8 -12 -22 -12h-86q-18 0 -19 23q0 82 50 131q49 53 139 53q57 0 135 -35l37 -16q25 -12 49 -12q37 0 51 22q4 4 8.5 14.5t6.5 14.5q8 12 18 12z" glyph-name="Atilde" horiz-adv-x="894" unicode="Ã"/><glyph d="M2 160l64 307q20 104 20 111q14 104 32.5 211.5t44 246t40.5 221.5l8 48q18 119 39 145q18 25 51 25h252q61 0 80 -25q12 -14 65 -264l58 -271q12 -59 30.5 -185t55.5 -337q8 -43 35.5 -160.5t27.5 -154.5t-26.5 -57.5t-67.5 -20.5h-176q-49 0 -66 47q-6 20 -10 78 q-4 53 -10 74q-20 59 -86 59q-45 0 -82 -15.5t-35 -47.5l2 -72q2 -76 -22.5 -99.5t-73.5 -23.5h-189q-78 0 -77 59q0 23 16 101zM438 1110l-57 -416q-6 -45 -8 -67v-11q6 -35 78 -34q35 0 55 11t18 46l-4 45l-65 428zM393 1710v-127q0 -35 -53 -35h-125q-31 0 -40 9.5 t-9 29.5v127q0 37 53 37h125q49 0 49 -41zM731 1710v-127q0 -35 -53 -35h-127q-47 0 -47 39v127q0 37 53 37h125q49 0 49 -41z" glyph-name="Adieresis" horiz-adv-x="894" unicode="Ä"/><glyph d="M2 160l64 307q20 104 20 111q14 104 32.5 211.5t44 246t40.5 221.5l8 48q18 119 39 145q18 25 51 25h252q61 0 80 -25q12 -14 65 -264l58 -271q12 -59 30.5 -185t55.5 -337q8 -43 35.5 -160.5t27.5 -154.5t-26.5 -57.5t-67.5 -20.5h-176q-49 0 -66 47q-6 20 -10 78 q-4 53 -10 74q-20 59 -86 59q-45 0 -82 -15.5t-35 -47.5l2 -72q2 -76 -22.5 -99.5t-73.5 -23.5h-189q-78 0 -77 59q0 23 16 101zM438 1110l-57 -416q-6 -45 -8 -67v-11q6 -35 78 -34q35 0 55 11t18 46l-4 45l-65 428zM233 1753q0 88 63.5 150.5t152 62.5t152 -62.5 t63.5 -150.5t-63.5 -151.5t-152 -63.5t-152 63.5t-63.5 151.5zM367 1753q0 -35 22.5 -58.5t59.5 -23.5q35 0 58 22.5t23 57.5q0 39 -25.5 60.5t-55.5 21.5q-33 0 -57.5 -22.5t-24.5 -57.5z" glyph-name="Aring" horiz-adv-x="894" unicode="Å"/><glyph d="M354 223l-6 -86q-6 -90 -19.5 -114.5t-64.5 -22.5q-14 0 -45 3t-47 3t-55 -4t-60 -2q-57 4 -57 66q0 25 5 50t13.5 49.5t10.5 35.5l225 1161q6 35 12 55.5t9.5 33.5t13.5 17.5t11 6.5t19.5 1t24.5 -1h676q59 0 80.5 -17.5t21.5 -77.5v-118q0 -123 -92 -121l-63 2 q-27 0 -44.5 2t-41.5 4q-80 0 -125 2h-11q-20 0 -14 -27l29 -184h274q74 0 74 -53v-189q0 -41 -26.5 -64.5t-71.5 -21.5l-37 2h-158l45 -262h213q70 0 70 -102v-172q0 -78 -125 -78l-240 6q-25 0 -75 -3t-74 -3q-47 0 -60.5 19.5t-13.5 54.5v63q0 123 -18.5 150.5 t-75.5 27.5q-59 0 -81 -15.5t-26 -76.5zM457 1128l-68 -411q-6 -33 -6 -78q0 -70 70 -70q74 0 73 76q0 14 -4 55l-47 428h-18z" glyph-name="AE" horiz-adv-x="1189" unicode="Æ"/><glyph d="M682 219l4 -115q2 -66 -39 -91t-176 -19l-2 -25q-2 -25 14.5 -31t51.5 -6h26q78 0 121 -51q35 -37 35 -92q0 -82 -70 -119q-70 -39 -229 -39q-176 0 -215 27q-35 25 -35 70q0 39 33 39q8 0 27.5 -4.5t27.5 -6.5l35 -6q68 -12 133 -12q76 0 76 45q0 49 -68 49h-12 q-27 0 -41 2t-19.5 10.5t-6.5 13.5t-1 21v133q-119 33 -196 144q-115 168 -115 604q0 449 131 588q121 127 391 127q27 0 43.5 -3.5t36 -12.5t27.5 -32.5t8 -60.5l-2 -88l4 -76q4 -92 -72 -92h-43q-23 0 -51 -8q-76 -25 -94.5 -100.5t-18.5 -247.5v-21q0 -264 35 -327 q37 -63 105 -62l82 4q14 0 24 -3t16.5 -11t9.5 -16.5t5 -22.5t3 -23.5t1 -28v-24.5z" glyph-name="Ccedilla" horiz-adv-x="722" unicode="Ç"/><glyph d="M78 330v993q0 10 -1 29.5t-1 31t2 26.5t9 26.5t17 19.5q25 18 125 19h394q63 0 84.5 -22.5t23.5 -84.5v-31q0 -10 1 -32.5t1 -32.5v-10v-19q0 -45 -16.5 -68.5t-33.5 -27.5t-50 -4l-170 2q-18 0 -28.5 -3t-21 -22.5t-10.5 -56.5v-66q0 -68 72 -63l139 6q61 4 84 -21.5 t23 -115.5v-60q0 -25 -2 -44t-10.5 -43.5t-26.5 -38t-45 -11.5l-121 6q-43 2 -65.5 1t-31.5 -14t-9 -18.5v-35.5v-121q0 -51 10 -63.5t57 -12.5l180 2q53 0 72 -24.5t19 -130.5v-76q0 -43 -10.5 -69.5t-31 -36t-32.5 -11.5t-35 -2q-45 0 -131 4t-129 4q-37 0 -110.5 -4 t-112.5 -4q-53 0 -75 26.5t-20 59.5l7 98q0 4 5 36t5 110zM326 1554l-191 177q-8 8 -8 12v2q0 16 23 16h233q23 0 43 -10q10 -6 14 -12l99 -172q4 -8 4 -13q0 -16 -21 -16h-145q-35 0 -51 16z" glyph-name="Egrave" horiz-adv-x="778" unicode="È"/><glyph d="M78 330v993q0 10 -1 29.5t-1 31t2 26.5t9 26.5t17 19.5q25 18 125 19h394q63 0 84.5 -22.5t23.5 -84.5v-31q0 -10 1 -32.5t1 -32.5v-10v-19q0 -45 -16.5 -68.5t-33.5 -27.5t-50 -4l-170 2q-18 0 -28.5 -3t-21 -22.5t-10.5 -56.5v-66q0 -68 72 -63l139 6q61 4 84 -21.5 t23 -115.5v-60q0 -25 -2 -44t-10.5 -43.5t-26.5 -38t-45 -11.5l-121 6q-43 2 -65.5 1t-31.5 -14t-9 -18.5v-35.5v-121q0 -51 10 -63.5t57 -12.5l180 2q53 0 72 -24.5t19 -130.5v-76q0 -43 -10.5 -69.5t-31 -36t-32.5 -11.5t-35 -2q-45 0 -131 4t-129 4q-37 0 -110.5 -4 t-112.5 -4q-53 0 -75 26.5t-20 59.5l7 98q0 4 5 36t5 110zM399 1538h-145q-20 0 -21 16q0 4 5 13l98 172q12 23 57 22h234q20 0 22 -16v-4q0 -2 -8 -10l-188 -177q-17 -16 -54 -16z" glyph-name="Eacute" horiz-adv-x="778" unicode="É"/><glyph d="M78 330v993q0 10 -1 29.5t-1 31t2 26.5t9 26.5t17 19.5q25 18 125 19h394q63 0 84.5 -22.5t23.5 -84.5v-31q0 -10 1 -32.5t1 -32.5v-10v-19q0 -45 -16.5 -68.5t-33.5 -27.5t-50 -4l-170 2q-18 0 -28.5 -3t-21 -22.5t-10.5 -56.5v-66q0 -68 72 -63l139 6q61 4 84 -21.5 t23 -115.5v-60q0 -25 -2 -44t-10.5 -43.5t-26.5 -38t-45 -11.5l-121 6q-43 2 -65.5 1t-31.5 -14t-9 -18.5v-35.5v-121q0 -51 10 -63.5t57 -12.5l180 2q53 0 72 -24.5t19 -130.5v-76q0 -43 -10.5 -69.5t-31 -36t-32.5 -11.5t-35 -2q-45 0 -131 4t-129 4q-37 0 -110.5 -4 t-112.5 -4q-53 0 -75 26.5t-20 59.5l7 98q0 4 5 36t5 110zM119 1567l145 172q18 23 51 22h150q33 0 51 -22l139 -172q4 -6 4 -12.5t-5 -11.5t-13 -5h-135q-33 0 -49 16l-54 58q-14 14 -28 0l-58 -58q-16 -16 -49 -16h-135q-18 0 -18 16q0 9 4 13z" glyph-name="Ecircumflex" horiz-adv-x="778" unicode="Ê"/><glyph d="M78 330v993q0 10 -1 29.5t-1 31t2 26.5t9 26.5t17 19.5q25 18 125 19h394q63 0 84.5 -22.5t23.5 -84.5v-31q0 -10 1 -32.5t1 -32.5v-10v-19q0 -45 -16.5 -68.5t-33.5 -27.5t-50 -4l-170 2q-18 0 -28.5 -3t-21 -22.5t-10.5 -56.5v-66q0 -68 72 -63l139 6q61 4 84 -21.5 t23 -115.5v-60q0 -25 -2 -44t-10.5 -43.5t-26.5 -38t-45 -11.5l-121 6q-43 2 -65.5 1t-31.5 -14t-9 -18.5v-35.5v-121q0 -51 10 -63.5t57 -12.5l180 2q53 0 72 -24.5t19 -130.5v-76q0 -43 -10.5 -69.5t-31 -36t-32.5 -11.5t-35 -2q-45 0 -131 4t-129 4q-37 0 -110.5 -4 t-112.5 -4q-53 0 -75 26.5t-20 59.5l7 98q0 4 5 36t5 110zM334 1710v-127q0 -35 -53 -35h-125q-31 0 -40.5 9.5t-9.5 29.5v127q0 37 54 37h125q49 0 49 -41zM672 1710v-127q0 -35 -54 -35h-126q-47 0 -48 39v127q0 37 54 37h125q49 0 49 -41z" glyph-name="Edieresis" horiz-adv-x="778" unicode="Ë"/><glyph d="M184 1475h95q84 0 102 -22.5t18 -133.5l-6 -973l4 -225q2 -76 -22.5 -98.5t-108.5 -22.5h-71q-45 0 -58.5 1t-37 10t-31 33t-7.5 65v110q0 20 3.5 54t1.5 116q-4 266 4 776v62q0 10 -2 41.5t0 50.5q2 25 0 29t-2 14v20q0 61 20 77t98 16zM170 1554l-190 177q-8 8 -9 12v2 q0 16 23 16h233q23 0 43 -10q10 -6 15 -12l98 -172q4 -8 4 -13q0 -16 -20 -16h-146q-35 0 -51 16z" glyph-name="Igrave" horiz-adv-x="464" unicode="Ì"/><glyph d="M184 1475h95q84 0 102 -22.5t18 -133.5l-6 -973l4 -225q2 -76 -22.5 -98.5t-108.5 -22.5h-71q-45 0 -58.5 1t-37 10t-31 33t-7.5 65v110q0 20 3.5 54t1.5 116q-4 266 4 776v62q0 10 -2 41.5t0 50.5q2 25 0 29t-2 14v20q0 61 20 77t98 16zM244 1538h-146q-20 0 -20 16 q0 4 4 13l98 172q12 23 58 22h233q20 0 23 -16v-4q0 -2 -9 -10l-188 -177q-16 -16 -53 -16z" glyph-name="Iacute" horiz-adv-x="464" unicode="Í"/><glyph d="M184 1475h95q84 0 102 -22.5t18 -133.5l-6 -973l4 -225q2 -76 -22.5 -98.5t-108.5 -22.5h-71q-45 0 -58.5 1t-37 10t-31 33t-7.5 65v110q0 20 3.5 54t1.5 116q-4 266 4 776v62q0 10 -2 41.5t0 50.5q2 25 0 29t-2 14v20q0 61 20 77t98 16zM-37 1567l146 172q18 23 51 22 h149q33 0 51 -22l140 -172q4 -6 4 -12.5t-5 -11.5t-14 -5h-135q-33 0 -49 16l-53 58q-14 14 -29 0l-57 -58q-16 -16 -49 -16h-136q-18 0 -18 16q0 9 4 13z" glyph-name="Icircumflex" horiz-adv-x="464" unicode="Î"/><glyph d="M184 1475h95q84 0 102 -22.5t18 -133.5l-6 -973l4 -225q2 -76 -22.5 -98.5t-108.5 -22.5h-71q-45 0 -58.5 1t-37 10t-31 33t-7.5 65v110q0 20 3.5 54t1.5 116q-4 266 4 776v62q0 10 -2 41.5t0 50.5q2 25 0 29t-2 14v20q0 61 20 77t98 16zM178 1710v-127q0 -35 -53 -35 h-125q-31 0 -40 9.5t-9 29.5v127q0 37 53 37h125q49 0 49 -41zM516 1710v-127q0 -35 -53 -35h-127q-47 0 -47 39v127q0 37 53 37h125q49 0 49 -41z" glyph-name="Idieresis" horiz-adv-x="464" unicode="Ï"/><glyph d="M6 641v143q0 29 11.5 37t56.5 8h30q0 27 -1 80.5t-1 79.5q0 80 -2 119q-2 80 -3 107.5t-1 78.5v39q0 8 -1 24.5t-1 24.5q0 45 23.5 69t89.5 24q25 0 70 -2.5t67 -2.5q20 0 63.5 2.5t65.5 2.5q262 0 371 -175q51 -82 76.5 -222t27.5 -217t2 -206q0 -102 -3 -165.5 t-26.5 -165t-68.5 -174.5q-94 -154 -281 -154q-20 0 -60 2t-60 2q-16 0 -49 -1t-50 -1l-153 -4q-45 -2 -72 19.5t-29 88.5v76q8 344 6 410l-32 -2q-41 0 -53.5 12t-12.5 43zM420 588l2 -146l-2 -41q-4 -55 20 -79q16 -16 52 -17q53 0 79 43q18 31 22.5 78t4.5 176v127 q0 176 -5 249t-30 116q-27 45 -84 45q-66 0 -63 -74l4 -147v-89h29q72 0 71 -32v-176q0 -39 -65 -35z" glyph-name="Eth" horiz-adv-x="1003" unicode="Ð"/><glyph d="M63 139v1184q0 98 21.5 125t75.5 27h186q39 0 55.5 -12.5t22.5 -41.5l12 -47q84 -317 174 -596h41v574q0 49 3 69.5t21.5 37t59.5 16.5h127q63 0 81 -20.5t15 -63.5l-2 -45v-1174q0 -92 -17 -132t-75 -40h-166q-63 0 -79.5 17.5t-43.5 107.5l-165 571h-41v-571 q0 -86 -18.5 -105.5t-80.5 -19.5h-104q-68 0 -85.5 21.5t-17.5 117.5zM705 1751h81q27 0 27 -37q0 -63 -45 -108q-57 -57 -143 -58q-49 0 -105 23l-31 12q-66 29 -88 29q-31 0 -51 -25q-6 -10 -8 -18t-4 -13q-8 -12 -23 -12h-86q-18 0 -18 23q0 82 49 131q49 53 139 53 q57 0 136 -35l36 -16q25 -12 50 -12q37 0 51 22q4 4 8 14.5t6 14.5q9 12 19 12z" glyph-name="Ntilde" unicode="Ñ"/><glyph d="M981 924v-236q0 -330 -55 -465q-100 -248 -443 -248q-211 0 -319 146q-61 84 -87 221t-26 383q0 211 15.5 344t64.5 225q113 207 410 207q215 0 323 -127q74 -86 95.5 -194.5t21.5 -255.5zM416 934v-408q0 -137 26 -168q23 -29 64 -28q59 0 86 49q16 33 20 77t4 160v33 v346q0 70 -25.5 114t-72.5 44q-49 0 -74 -39q-28 -43 -28 -180zM453 1554l-191 177q-8 8 -8 12v2q0 16 22 16h234q23 0 43 -10q10 -6 14 -12l99 -172q4 -8 4 -13q0 -16 -21 -16h-145q-35 0 -51 16z" glyph-name="Ograve" horiz-adv-x="1034" unicode="Ò"/><glyph d="M981 924v-236q0 -330 -55 -465q-100 -248 -443 -248q-211 0 -319 146q-61 84 -87 221t-26 383q0 211 15.5 344t64.5 225q113 207 410 207q215 0 323 -127q74 -86 95.5 -194.5t21.5 -255.5zM416 934v-408q0 -137 26 -168q23 -29 64 -28q59 0 86 49q16 33 20 77t4 160v33 v346q0 70 -25.5 114t-72.5 44q-49 0 -74 -39q-28 -43 -28 -180zM526 1538h-145q-20 0 -21 16q0 4 5 13l98 172q12 23 57 22h234q20 0 22 -16v-4q0 -2 -8 -10l-188 -177q-17 -16 -54 -16z" glyph-name="Oacute" horiz-adv-x="1034" unicode="Ó"/><glyph d="M981 924v-236q0 -330 -55 -465q-100 -248 -443 -248q-211 0 -319 146q-61 84 -87 221t-26 383q0 211 15.5 344t64.5 225q113 207 410 207q215 0 323 -127q74 -86 95.5 -194.5t21.5 -255.5zM416 934v-408q0 -137 26 -168q23 -29 64 -28q59 0 86 49q16 33 20 77t4 160v33 v346q0 70 -25.5 114t-72.5 44q-49 0 -74 -39q-28 -43 -28 -180zM246 1567l145 172q18 23 51 22h150q33 0 51 -22l139 -172q4 -6 4 -12.5t-5 -11.5t-13 -5h-135q-33 0 -49 16l-54 58q-14 14 -28 0l-58 -58q-16 -16 -49 -16h-135q-18 0 -18 16q0 9 4 13z" glyph-name="Ocircumflex" horiz-adv-x="1034" unicode="Ô"/><glyph d="M981 924v-236q0 -330 -55 -465q-100 -248 -443 -248q-211 0 -319 146q-61 84 -87 221t-26 383q0 211 15.5 344t64.5 225q113 207 410 207q215 0 323 -127q74 -86 95.5 -194.5t21.5 -255.5zM416 934v-408q0 -137 26 -168q23 -29 64 -28q59 0 86 49q16 33 20 77t4 160v33 v346q0 70 -25.5 114t-72.5 44q-49 0 -74 -39q-28 -43 -28 -180zM709 1751h82q27 0 26 -37q0 -63 -45 -108q-57 -57 -143 -58q-49 0 -105 23l-30 12q-66 29 -88 29q-31 0 -52 -25q-6 -10 -8 -18t-4 -13q-8 -12 -23 -12h-86q-18 0 -18 23q0 82 49 131q49 53 139 53 q57 0 136 -35l36 -16q25 -12 50 -12q37 0 51 22q4 4 8 14.5t6 14.5q9 12 19 12z" glyph-name="Otilde" horiz-adv-x="1034" unicode="Õ"/><glyph d="M981 924v-236q0 -330 -55 -465q-100 -248 -443 -248q-211 0 -319 146q-61 84 -87 221t-26 383q0 211 15.5 344t64.5 225q113 207 410 207q215 0 323 -127q74 -86 95.5 -194.5t21.5 -255.5zM416 934v-408q0 -137 26 -168q23 -29 64 -28q59 0 86 49q16 33 20 77t4 160v33 v346q0 70 -25.5 114t-72.5 44q-49 0 -74 -39q-28 -43 -28 -180zM461 1710v-127q0 -35 -53 -35h-125q-31 0 -40.5 9.5t-9.5 29.5v127q0 37 54 37h125q49 0 49 -41zM799 1710v-127q0 -35 -54 -35h-127q-47 0 -47 39v127q0 37 54 37h125q49 0 49 -41z" glyph-name="Odieresis" horiz-adv-x="1034" unicode="Ö"/><glyph d="M317 135l-43 43q-20 20 -20 41q0 18 27 45l344 344l-336 334q-27 27 -27 45q0 23 21 43l45 43q43 41 55 41q14 0 39 -24l342 -342l344 344q27 27 45 26q20 0 41 -20l43 -43q39 -39 41 -56q0 -18 -23 -41l-350 -350l359 -360q25 -31 24 -39q0 -12 -41 -55l-43 -45 q-20 -20 -43 -21q-18 0 -45 27l-352 352l-350 -350q-23 -23 -41 -23q-17 2 -56 41z" glyph-name="multiply" horiz-adv-x="1542" unicode="×"/><glyph d="M739 1636l99 -28q20 -6 20 -27q0 -4 -2 -12l-2 -8l-41 -140l51 -47q117 -109 117 -450v-236q0 -330 -55 -465q-100 -248 -434 -248q-41 0 -97 7l-26 -93q-12 -49 -50 -49q-4 0 -8 1t-6 1l-94 25q-14 2 -23 27q-4 8 -4 20t6 29l35 114l-61 64q-68 70 -90.5 201t-22.5 403 q0 422 80 569q113 207 408 207q49 0 110 -8l31 104q14 41 45 41q10 0 14 -2zM416 934v-408q0 -137 26 -168q23 -29 64 -28q59 0 86 49q25 47 24 211v59v346q0 70 -25.5 114t-72.5 44q-49 0 -74 -39q-29 -45 -28 -164v-16z" glyph-name="Oslash" horiz-adv-x="1034" unicode="Ø"/><glyph d="M63 539v790q0 90 14.5 118t63.5 28h168q37 0 52.5 -5.5t25.5 -30t10 -77.5v-899q0 -141 109 -141q111 0 110 112v924q0 29 1 41t9.5 34.5t30 32t58.5 9.5h159q74 0 74 -107v-893q0 -264 -119 -387q-111 -113 -354 -113q-233 0 -336 142q-35 49 -52 124.5t-20.5 131 t-3.5 166.5zM444 1554l-190 177q-8 8 -8 12v2q0 16 22 16h234q23 0 43 -10q10 -6 14 -12l98 -172q4 -8 5 -13q0 -16 -21 -16h-145q-36 0 -52 16z" glyph-name="Ugrave" horiz-adv-x="1015" unicode="Ù"/><glyph d="M63 539v790q0 90 14.5 118t63.5 28h168q37 0 52.5 -5.5t25.5 -30t10 -77.5v-899q0 -141 109 -141q111 0 110 112v924q0 29 1 41t9.5 34.5t30 32t58.5 9.5h159q74 0 74 -107v-893q0 -264 -119 -387q-111 -113 -354 -113q-233 0 -336 142q-35 49 -52 124.5t-20.5 131 t-3.5 166.5zM518 1538h-145q-20 0 -21 16q0 4 4 13l99 172q12 23 57 22h233q20 0 23 -16v-4q0 -2 -8 -10l-189 -177q-16 -16 -53 -16z" glyph-name="Uacute" horiz-adv-x="1015" unicode="Ú"/><glyph d="M63 539v790q0 90 14.5 118t63.5 28h168q37 0 52.5 -5.5t25.5 -30t10 -77.5v-899q0 -141 109 -141q111 0 110 112v924q0 29 1 41t9.5 34.5t30 32t58.5 9.5h159q74 0 74 -107v-893q0 -264 -119 -387q-111 -113 -354 -113q-233 0 -336 142q-35 49 -52 124.5t-20.5 131 t-3.5 166.5zM238 1567l145 172q18 23 51 22h150q33 0 51 -22l139 -172q4 -6 4 -12.5t-5 -11.5t-13 -5h-135q-33 0 -50 16l-53 58q-14 14 -28 0l-58 -58q-16 -16 -49 -16h-135q-18 0 -19 16q1 9 5 13z" glyph-name="Ucircumflex" horiz-adv-x="1015" unicode="Û"/><glyph d="M63 539v790q0 90 14.5 118t63.5 28h168q37 0 52.5 -5.5t25.5 -30t10 -77.5v-899q0 -141 109 -141q111 0 110 112v924q0 29 1 41t9.5 34.5t30 32t58.5 9.5h159q74 0 74 -107v-893q0 -264 -119 -387q-111 -113 -354 -113q-233 0 -336 142q-35 49 -52 124.5t-20.5 131 t-3.5 166.5zM453 1710v-127q0 -35 -54 -35h-125q-31 0 -40 9.5t-9 29.5v127q0 37 54 37h124q50 0 50 -41zM791 1710v-127q0 -35 -54 -35h-127q-47 0 -47 39v127q0 37 53 37h125q50 0 50 -41z" glyph-name="Udieresis" horiz-adv-x="1015" unicode="Ü"/><glyph d="M446 924h17l65 415q14 106 52 123q29 12 153 13h68q98 0 98 -54q0 -23 -18 -78l-232 -702q-29 -86 -28 -190v-295l4 -88q2 -35 -14.5 -51.5t-73.5 -16.5h-80l-117 -2q-39 0 -51 20q-6 10 -8 24.5t0 47.5t2 53v379q0 61 -23 123l-237 696q-16 33 -17 76q0 57 76 58 q16 0 48 -2.5t46 -2.5t47 2.5t49 2.5q39 0 61.5 -13.5t29 -28t10.5 -40.5zM457 1538h-146q-20 0 -20 16q0 4 4 13l98 172q12 23 58 22h233q20 0 23 -16v-4q0 -2 -9 -10l-188 -177q-16 -16 -53 -16z" glyph-name="Yacute" horiz-adv-x="890" unicode="Ý"/><glyph d="M547 215h-45q-23 0 -35 -2t-29.5 -9t-24.5 -28.5t-5 -54.5l2 -58q2 -61 -72 -61l-78 4l-110 -10q-59 -4 -58 70l2 65l-2 164l8 678q2 162 -8 348l-2 47q-4 72 34 93.5t165 21.5h82q31 0 44 -3t24.5 -16.5t13.5 -40.5v-21.5t1 -29.5t4 -27.5t9 -22.5t16 -7l76 6 q156 12 266 -119q63 -78 91 -174t28 -248q0 -281 -137 -442q-106 -123 -260 -123zM395 889v-180q0 -92 15 -129q18 -43 75 -43q68 0 97 55q23 47 22 170q0 172 -37 213q-35 37 -82 37q-43 0 -65 -31q-25 -35 -25 -92z" glyph-name="Thorn" horiz-adv-x="1013" unicode="Þ"/><glyph d="M63 98v1002q0 100 12.5 159.5t61.5 116.5q106 125 332 125q172 0 272 -94q90 -84 90 -219q0 -29 -3 -53.5t-12 -48t-14 -36t-17.5 -37t-14.5 -26.5q-23 -45 -25 -61v-8q2 -14 35 -82l35 -76q84 -178 84 -371q0 -201 -90 -307q-78 -90 -207 -90q-100 0 -131 35 q-23 27 -22 94v180q0 39 6 49t30 15q43 6 52.5 20t9.5 47v14q0 29 -41 144l-19 51q-53 145 -53 236q0 51 35 153q29 76 29 111q0 63 -60 63q-57 0 -57 -84v-1040q0 -20 -2 -31.5t-11.5 -25t-32 -18.5t-59.5 -5h-161q-52 0 -52 98z" glyph-name="germandbls" horiz-adv-x="937" unicode="ß"/><glyph d="M479 76h-14q-37 -96 -154 -96q-119 0 -190 108q-80 123 -80 311q0 213 90 334q74 98 188 98q37 0 93 -16q37 -10 45 -10q27 0 26 33q0 51 -30 75q-31 29 -97 29q-49 0 -129 -24q-43 -12 -53 -13q-47 0 -47 68v102q0 47 8 55q6 12 47 27q121 39 244 39q197 0 270 -72 q72 -70 72 -233v-785l2 -38q0 -14 -1 -24.5t-3 -18t-9 -12.5t-9.5 -8t-14.5 -4t-15 -1h-20.5h-19.5h-141h-10.5h-10.5t-10 1t-10 4t-8.5 8t-5.5 14.5t-3 21t0 27.5zM328 483v-131q0 -102 73 -102q39 0 56.5 24.5t17.5 92.5v122q0 104 -67 105q-80 0 -80 -111zM360 1268 l-190 176q-8 8 -8 12v2q0 16 22 17h234q23 0 43 -11q10 -6 14 -12l98 -172q4 -8 5 -12q0 -16 -21 -17h-145q-36 1 -52 17z" glyph-name="agrave" horiz-adv-x="839" unicode="à"/><glyph d="M479 76h-14q-37 -96 -154 -96q-119 0 -190 108q-80 123 -80 311q0 213 90 334q74 98 188 98q37 0 93 -16q37 -10 45 -10q27 0 26 33q0 51 -30 75q-31 29 -97 29q-49 0 -129 -24q-43 -12 -53 -13q-47 0 -47 68v102q0 47 8 55q6 12 47 27q121 39 244 39q197 0 270 -72 q72 -70 72 -233v-785l2 -38q0 -14 -1 -24.5t-3 -18t-9 -12.5t-9.5 -8t-14.5 -4t-15 -1h-20.5h-19.5h-141h-10.5h-10.5t-10 1t-10 4t-8.5 8t-5.5 14.5t-3 21t0 27.5zM328 483v-131q0 -102 73 -102q39 0 56.5 24.5t17.5 92.5v122q0 104 -67 105q-80 0 -80 -111zM434 1251h-145 q-20 0 -21 17q0 4 4 12l99 172q10 23 57 23h234q20 0 22 -17v-4q0 -2 -8 -10l-189 -176q-16 -17 -53 -17z" glyph-name="aacute" horiz-adv-x="839" unicode="á"/><glyph d="M479 76h-14q-37 -96 -154 -96q-119 0 -190 108q-80 123 -80 311q0 213 90 334q74 98 188 98q37 0 93 -16q37 -10 45 -10q27 0 26 33q0 51 -30 75q-31 29 -97 29q-49 0 -129 -24q-43 -12 -53 -13q-47 0 -47 68v102q0 47 8 55q6 12 47 27q121 39 244 39q197 0 270 -72 q72 -70 72 -233v-785l2 -38q0 -14 -1 -24.5t-3 -18t-9 -12.5t-9.5 -8t-14.5 -4t-15 -1h-20.5h-19.5h-141h-10.5h-10.5t-10 1t-10 4t-8.5 8t-5.5 14.5t-3 21t0 27.5zM328 483v-131q0 -102 73 -102q39 0 56.5 24.5t17.5 92.5v122q0 104 -67 105q-80 0 -80 -111zM154 1280 l145 172q18 23 51 23h150q33 0 51 -23l139 -172q4 -6 4 -12t-5 -11.5t-13 -5.5h-135q-33 0 -49 17l-54 57q-14 14 -28 0l-58 -57q-16 -16 -49 -17h-135q-18 0 -18 17q0 8 4 12z" glyph-name="acircumflex" horiz-adv-x="839" unicode="â"/><glyph d="M479 76h-14q-37 -96 -154 -96q-119 0 -190 108q-80 123 -80 311q0 213 90 334q74 98 188 98q37 0 93 -16q37 -10 45 -10q27 0 26 33q0 51 -30 75q-31 29 -97 29q-49 0 -129 -24q-43 -12 -53 -13q-47 0 -47 68v102q0 47 8 55q6 12 47 27q121 39 244 39q197 0 270 -72 q72 -70 72 -233v-785l2 -38q0 -14 -1 -24.5t-3 -18t-9 -12.5t-9.5 -8t-14.5 -4t-15 -1h-20.5h-19.5h-141h-10.5h-10.5t-10 1t-10 4t-8.5 8t-5.5 14.5t-3 21t0 27.5zM328 483v-131q0 -102 73 -102q39 0 56.5 24.5t17.5 92.5v122q0 104 -67 105q-80 0 -80 -111zM616 1464h82 q27 0 27 -37q0 -63 -45 -108q-57 -57 -143 -57q-49 0 -105 22l-31 12q-66 29 -88 29q-31 0 -51 -25q-6 -10 -8 -18t-4 -12q-8 -12 -23 -13h-86q-18 0 -18 23q0 82 49 131q49 53 139 53q57 0 135 -34l37 -17q25 -12 49 -12q37 0 52 22q4 4 8 14.5t6 14.5q8 12 18 12z" glyph-name="atilde" horiz-adv-x="839" unicode="ã"/><glyph d="M479 76h-14q-37 -96 -154 -96q-119 0 -190 108q-80 123 -80 311q0 213 90 334q74 98 188 98q37 0 93 -16q37 -10 45 -10q27 0 26 33q0 51 -30 75q-31 29 -97 29q-49 0 -129 -24q-43 -12 -53 -13q-47 0 -47 68v102q0 47 8 55q6 12 47 27q121 39 244 39q197 0 270 -72 q72 -70 72 -233v-785l2 -38q0 -14 -1 -24.5t-3 -18t-9 -12.5t-9.5 -8t-14.5 -4t-15 -1h-20.5h-19.5h-141h-10.5h-10.5t-10 1t-10 4t-8.5 8t-5.5 14.5t-3 21t0 27.5zM328 483v-131q0 -102 73 -102q39 0 56.5 24.5t17.5 92.5v122q0 104 -67 105q-80 0 -80 -111zM369 1423v-127 q0 -35 -54 -34h-125q-31 0 -40 9t-9 29v127q0 37 54 37h124q50 0 50 -41zM707 1423v-127q0 -35 -54 -34h-127q-47 0 -47 38v127q0 37 53 37h125q50 0 50 -41z" glyph-name="adieresis" horiz-adv-x="839" unicode="ä"/><glyph d="M479 76h-14q-37 -96 -154 -96q-119 0 -190 108q-80 123 -80 311q0 213 90 334q74 98 188 98q37 0 93 -16q37 -10 45 -10q27 0 26 33q0 51 -30 75q-31 29 -97 29q-49 0 -129 -24q-43 -12 -53 -13q-47 0 -47 68v102q0 47 8 55q6 12 47 27q121 39 244 39q197 0 270 -72 q72 -70 72 -233v-785l2 -38q0 -14 -1 -24.5t-3 -18t-9 -12.5t-9.5 -8t-14.5 -4t-15 -1h-20.5h-19.5h-141h-10.5h-10.5t-10 1t-10 4t-8.5 8t-5.5 14.5t-3 21t0 27.5zM328 483v-131q0 -102 73 -102q39 0 56.5 24.5t17.5 92.5v122q0 104 -67 105q-80 0 -80 -111zM209 1466 q0 88 63.5 150.5t151.5 62.5t151.5 -62.5t63.5 -150.5t-63.5 -151.5t-151.5 -63.5t-151.5 63.5t-63.5 151.5zM342 1466.5q0 -34.5 22.5 -58.5t59.5 -24q35 0 58.5 23t23.5 57q0 39 -25.5 60.5t-56.5 21.5q-33 0 -57.5 -22.5t-24.5 -57z" glyph-name="aring" horiz-adv-x="839" unicode="å"/><glyph d="M496 80h-17q-41 -98 -163.5 -98t-192.5 110q-76 119 -76 307q0 217 90 334q78 98 195 98q45 0 86 -16q27 -10 43 -10q27 0 28 24v15q-8 98 -124 98q-47 0 -108.5 -18.5t-74.5 -18.5q-49 0 -49 68v102q0 37 6 51.5t27 22.5q39 20 124 32.5t142 12.5q133 0 236 -57 q82 55 178 55q100 0 183 -46t128 -132q35 -63 43 -141t8 -240q0 -55 -3 -84t-20.5 -54.5t-51.5 -25.5h-332q-31 0 -33 -27v-12q2 -27 8 -45t22.5 -42t52.5 -37t89 -13q55 0 102 20q12 6 33 17.5t31 13.5q31 8 57.5 -11.5t26.5 -62.5v-157q0 -59 -63.5 -92t-155.5 -33 q-135 0 -183 92h-20l2 -27v-17t-4 -13.5t-7 -10.5t-10.5 -6t-11.5 -3t-14 -2t-14 -1h-17.5h-17.5h-119h-11h-12.5t-10.5 1t-9 4t-8 9t-6 14.5t-3 22t1 29.5zM334 483v-131q0 -102 74 -102q39 0 56 24.5t17 92.5v122q0 104 -67 105q-80 0 -80 -111zM811 709h63q45 0 50 39v26 q-4 96 -27 123q-23 25 -61 25q-68 0 -68 -115v-37q0 -61 43 -61z" glyph-name="ae" horiz-adv-x="1265" unicode="æ"/><glyph d="M528 1112v-168q0 -20 -4 -34.5t-8 -21.5t-13 -12.5t-14.5 -7.5t-15.5 -3t-12 -1l-12 -2q-59 -10 -74 -57t-15 -209q0 -152 18.5 -199t70.5 -47h22q18 0 28.5 -3t19.5 -19.5t9 -48.5v-213q0 -16 -2 -25.5t-17 -29t-48 -20.5t-92 1l-2 -23q-2 -25 14 -31t51 -6h27 q78 0 121 -51q35 -37 34 -92q0 -82 -69 -119q-70 -39 -230 -39q-176 0 -215 27q-35 25 -34 70q0 39 32 39q8 0 27.5 -4.5t28.5 -6.5l34 -6q68 -12 134 -12q76 0 75 45q0 49 -67 49h-13q-45 0 -56 9t-11 38l2 141q-70 29 -119 97q-82 121 -82 450q0 395 94 512q51 63 134 92 q68 23 159 23q33 0 53.5 -8t27.5 -24.5t8 -25t1 -24.5z" glyph-name="ccedilla" horiz-adv-x="583" unicode="ç"/><glyph d="M784 270v-157q0 -49 -20 -66q-27 -20 -99.5 -41.5t-158.5 -21.5q-139 0 -231.5 51t-151.5 166q-31 61 -46.5 135t-18.5 125t-3 139q0 178 30 312.5t124 209.5q92 74 231 74q217 0 312 -182q25 -47 36 -115t12 -114t1 -152q0 -55 -3 -84t-20.5 -54.5t-52.5 -25.5h-330 q-14 0 -22 -8q-10 -10 -11 -33q0 -45 25 -80q39 -55 139 -55q76 0 138 35q33 18 53 18q31 0 49 -20.5t18 -55.5zM403 709h64q16 0 25.5 2t17.5 14t8 35v33q0 68 -20 96q-20 33 -66 33q-72 0 -72 -115v-27q0 -71 43 -71zM367 1268l-191 176q-8 8 -8 12v2q0 16 22 17h234 q23 0 43 -11q10 -6 14 -12l99 -172q4 -8 4 -12q0 -16 -21 -17h-145q-35 1 -51 17z" glyph-name="egrave" horiz-adv-x="858" unicode="è"/><glyph d="M784 270v-157q0 -49 -20 -66q-27 -20 -99.5 -41.5t-158.5 -21.5q-139 0 -231.5 51t-151.5 166q-31 61 -46.5 135t-18.5 125t-3 139q0 178 30 312.5t124 209.5q92 74 231 74q217 0 312 -182q25 -47 36 -115t12 -114t1 -152q0 -55 -3 -84t-20.5 -54.5t-52.5 -25.5h-330 q-14 0 -22 -8q-10 -10 -11 -33q0 -45 25 -80q39 -55 139 -55q76 0 138 35q33 18 53 18q31 0 49 -20.5t18 -55.5zM403 709h64q16 0 25.5 2t17.5 14t8 35v33q0 68 -20 96q-20 33 -66 33q-72 0 -72 -115v-27q0 -71 43 -71zM453 1251h-146q-20 0 -20 17q0 4 4 12l98 172 q12 23 57 23h234q20 0 22 -17v-4q0 -2 -8 -10l-188 -176q-16 -17 -53 -17z" glyph-name="eacute" horiz-adv-x="858" unicode="é"/><glyph d="M784 270v-157q0 -49 -20 -66q-27 -20 -99.5 -41.5t-158.5 -21.5q-139 0 -231.5 51t-151.5 166q-31 61 -46.5 135t-18.5 125t-3 139q0 178 30 312.5t124 209.5q92 74 231 74q217 0 312 -182q25 -47 36 -115t12 -114t1 -152q0 -55 -3 -84t-20.5 -54.5t-52.5 -25.5h-330 q-14 0 -22 -8q-10 -10 -11 -33q0 -45 25 -80q39 -55 139 -55q76 0 138 35q33 18 53 18q31 0 49 -20.5t18 -55.5zM403 709h64q16 0 25.5 2t17.5 14t8 35v33q0 68 -20 96q-20 33 -66 33q-72 0 -72 -115v-27q0 -71 43 -71zM178 1280l146 172q18 23 51 23h149q33 0 51 -23 l140 -172q4 -6 4 -12t-5 -11.5t-14 -5.5h-135q-33 0 -49 17l-53 57q-14 14 -29 0l-57 -57q-16 -16 -49 -17h-135q-18 0 -19 17q0 8 4 12z" glyph-name="ecircumflex" horiz-adv-x="858" unicode="ê"/><glyph d="M784 270v-157q0 -49 -20 -66q-27 -20 -99.5 -41.5t-158.5 -21.5q-139 0 -231.5 51t-151.5 166q-31 61 -46.5 135t-18.5 125t-3 139q0 178 30 312.5t124 209.5q92 74 231 74q217 0 312 -182q25 -47 36 -115t12 -114t1 -152q0 -55 -3 -84t-20.5 -54.5t-52.5 -25.5h-330 q-14 0 -22 -8q-10 -10 -11 -33q0 -45 25 -80q39 -55 139 -55q76 0 138 35q33 18 53 18q31 0 49 -20.5t18 -55.5zM403 709h64q16 0 25.5 2t17.5 14t8 35v33q0 68 -20 96q-20 33 -66 33q-72 0 -72 -115v-27q0 -71 43 -71zM381 1423v-127q0 -35 -53 -34h-125q-31 0 -40 9t-9 29 v127q0 37 53 37h125q49 0 49 -41zM719 1423v-127q0 -35 -53 -34h-127q-47 0 -47 38v127q0 37 53 37h125q49 0 49 -41z" glyph-name="edieresis" horiz-adv-x="858" unicode="ë"/><glyph d="M70 90v901l-2 92q-2 59 21.5 76t88.5 17h39l84 4q49 2 69.5 -10.5t20.5 -53.5v-1020q0 -70 -15.5 -86t-60.5 -14l-88 4l-100 -2q-23 0 -35 4t-17 21.5t-5 25.5v41zM170 1268l-190 176q-8 8 -9 12v2q0 16 23 17h233q23 0 43 -11q10 -6 15 -12l98 -172q4 -8 4 -12 q0 -16 -20 -17h-146q-35 1 -51 17z" glyph-name="igrave" horiz-adv-x="466" unicode="ì"/><glyph d="M70 90v901l-2 92q-2 59 21.5 76t88.5 17h39l84 4q49 2 69.5 -10.5t20.5 -53.5v-1020q0 -70 -15.5 -86t-60.5 -14l-88 4l-100 -2q-23 0 -35 4t-17 21.5t-5 25.5v41zM244 1251h-146q-20 0 -20 17q0 4 4 12l98 172q12 23 58 23h233q20 0 23 -17v-4q0 -2 -9 -10l-188 -176 q-16 -17 -53 -17z" glyph-name="iacute" horiz-adv-x="466" unicode="í"/><glyph d="M70 90v901l-2 92q-2 59 21.5 76t88.5 17h39l84 4q49 2 69.5 -10.5t20.5 -53.5v-1020q0 -70 -15.5 -86t-60.5 -14l-88 4l-100 -2q-23 0 -35 4t-17 21.5t-5 25.5v41zM-37 1280l146 172q18 23 51 23h149q33 0 51 -23l140 -172q4 -6 4 -12t-5 -11.5t-14 -5.5h-135 q-33 0 -49 17l-53 57q-14 14 -29 0l-57 -57q-16 -16 -49 -17h-136q-18 0 -18 17q0 8 4 12z" glyph-name="icircumflex" horiz-adv-x="466" unicode="î"/><glyph d="M70 90v901l-2 92q-2 59 21.5 76t88.5 17h39l84 4q49 2 69.5 -10.5t20.5 -53.5v-1020q0 -70 -15.5 -86t-60.5 -14l-88 4l-100 -2q-23 0 -35 4t-17 21.5t-5 25.5v41zM178 1423v-127q0 -35 -53 -34h-125q-31 0 -40 9t-9 29v127q0 37 53 37h125q49 0 49 -41zM516 1423v-127 q0 -35 -53 -34h-127q-47 0 -47 38v127q0 37 53 37h125q49 0 49 -41z" glyph-name="idieresis" horiz-adv-x="466" unicode="ï"/><glyph d="M383 1282l-117 -27q-33 -8 -43 -5t-16 24l-23 69q0 4 -1 10.5t12.5 15.5t40.5 15l71 17q-12 23 -49 67q-29 29 33 48q45 14 137 14q106 0 141 -72l82 19q31 8 42.5 4t17.5 -25l22 -74q2 -8 -1 -15t-14 -12t-16.5 -6t-19.5 -6l-45 -12q96 -162 133 -327.5t37 -397.5 q0 -332 -47 -434q-88 -190 -344 -190q-223 0 -305 161q-70 139 -70 459q0 328 68 430q39 61 113.5 102.5t156.5 34.5l65 -4q-24 66 -61 117zM365 778v-385q0 -94 55 -94q63 0 63 104v340v9q0 37 -2 58t-16 45t-43 24q-57 -1 -57 -101z" glyph-name="eth" horiz-adv-x="847" unicode="ð"/><glyph d="M748 0h-78q-80 0 -99 16q-29 23 -28 99v536v27q0 49 -1 73.5t-7.5 56.5t-22.5 46t-43 14q-88 0 -88 -151v-443l10 -184q2 -57 -19.5 -73.5t-84.5 -16.5h-137h-10.5h-10.5t-10 1t-10.5 3t-9.5 6t-9 9.5t-6 13.5t-6 19t-3 25.5t-1 33.5v821l-4 121q-2 45 5 71.5t29.5 36.5 t38 12.5t56.5 2.5h116q35 0 52.5 -11.5t19.5 -23t2 -37.5v-14l10 -3q80 109 201 109q57 0 102.5 -19.5t71 -56.5t41.5 -73.5t22.5 -90t8.5 -85t2 -76.5v-631q0 -109 -19.5 -136.5t-80.5 -27.5zM655 1464h82q27 0 27 -37q0 -63 -45 -108q-57 -57 -144 -57q-49 0 -104 22 l-31 12q-66 29 -88 29q-31 0 -51 -25q-6 -10 -8 -18t-4 -12q-8 -12 -23 -13h-86q-18 0 -18 23q0 82 49 131q49 53 139 53q57 0 135 -34l37 -17q25 -12 49 -12q37 0 52 22q4 4 8 14.5t6 14.5q8 12 18 12z" glyph-name="ntilde" horiz-adv-x="923" unicode="ñ"/><glyph d="M57 594q0 123 2 184.5t17.5 140t48.5 130.5q90 147 305 147q197 0 279 -122t82 -425q0 -145 -2.5 -211.5t-12.5 -141.5t-31 -124q-84 -193 -329 -192q-131 0 -205 54t-111 163q-43 127 -43 397zM352 778v-385q0 -94 72 -94q74 0 74 94v350q0 84 -17 107q-18 27 -57 27 q-72 -1 -72 -99zM360 1268l-190 176q-8 8 -8 12v2q0 16 22 17h234q23 0 43 -11q10 -6 14 -12l98 -172q4 -8 5 -12q0 -16 -21 -17h-145q-36 1 -52 17z" glyph-name="ograve" horiz-adv-x="847" unicode="ò"/><glyph d="M57 594q0 123 2 184.5t17.5 140t48.5 130.5q90 147 305 147q197 0 279 -122t82 -425q0 -145 -2.5 -211.5t-12.5 -141.5t-31 -124q-84 -193 -329 -192q-131 0 -205 54t-111 163q-43 127 -43 397zM352 778v-385q0 -94 72 -94q74 0 74 94v350q0 84 -17 107q-18 27 -57 27 q-72 -1 -72 -99zM434 1251h-145q-20 0 -21 17q0 4 4 12l99 172q10 23 57 23h234q20 0 22 -17v-4q0 -2 -8 -10l-189 -176q-16 -17 -53 -17z" glyph-name="oacute" horiz-adv-x="847" unicode="ó"/><glyph d="M57 594q0 123 2 184.5t17.5 140t48.5 130.5q90 147 305 147q197 0 279 -122t82 -425q0 -145 -2.5 -211.5t-12.5 -141.5t-31 -124q-84 -193 -329 -192q-131 0 -205 54t-111 163q-43 127 -43 397zM352 778v-385q0 -94 72 -94q74 0 74 94v350q0 84 -17 107q-18 27 -57 27 q-72 -1 -72 -99zM154 1280l145 172q18 23 51 23h150q33 0 51 -23l139 -172q4 -6 4 -12t-5 -11.5t-13 -5.5h-135q-33 0 -49 17l-54 57q-14 14 -28 0l-58 -57q-16 -16 -49 -17h-135q-18 0 -18 17q0 8 4 12z" glyph-name="ocircumflex" horiz-adv-x="847" unicode="ô"/><glyph d="M57 594q0 123 2 184.5t17.5 140t48.5 130.5q90 147 305 147q197 0 279 -122t82 -425q0 -145 -2.5 -211.5t-12.5 -141.5t-31 -124q-84 -193 -329 -192q-131 0 -205 54t-111 163q-43 127 -43 397zM352 778v-385q0 -94 72 -94q74 0 74 94v350q0 84 -17 107q-18 27 -57 27 q-72 -1 -72 -99zM616 1464h82q27 0 27 -37q0 -63 -45 -108q-57 -57 -143 -57q-49 0 -105 22l-31 12q-66 29 -88 29q-31 0 -51 -25q-6 -10 -8 -18t-4 -12q-8 -12 -23 -13h-86q-18 0 -18 23q0 82 49 131q49 53 139 53q57 0 135 -34l37 -17q25 -12 49 -12q37 0 52 22 q4 4 8 14.5t6 14.5q8 12 18 12z" glyph-name="otilde" horiz-adv-x="847" unicode="õ"/><glyph d="M57 594q0 123 2 184.5t17.5 140t48.5 130.5q90 147 305 147q197 0 279 -122t82 -425q0 -145 -2.5 -211.5t-12.5 -141.5t-31 -124q-84 -193 -329 -192q-131 0 -205 54t-111 163q-43 127 -43 397zM352 778v-385q0 -94 72 -94q74 0 74 94v350q0 84 -17 107q-18 27 -57 27 q-72 -1 -72 -99zM369 1423v-127q0 -35 -54 -34h-125q-31 0 -40 9t-9 29v127q0 37 54 37h124q50 0 50 -41zM707 1423v-127q0 -35 -54 -34h-127q-47 0 -47 38v127q0 37 53 37h125q50 0 50 -41z" glyph-name="odieresis" horiz-adv-x="847" unicode="ö"/><glyph d="M854.5 1155q63.5 0 107.5 -44t44 -107.5t-43 -107.5t-109 -44q-63 0 -107.5 43t-44.5 108.5t44.5 108.5t108 43zM854 371v-2q63 0 107.5 -44t44.5 -108q0 -61 -44 -105t-107.5 -44t-108 43t-44.5 106q0 66 44.5 110t107.5 44zM254 592v61q0 31 14 45q14 12 51 13h1067 q37 0 52 -13q14 -14 14 -45v-61q0 -57 -10 -68q-12 -12 -45 -12h-1088q-33 0 -45 12q-10 11 -10 68z" glyph-name="divide" horiz-adv-x="1705" unicode="÷"/><glyph d="M352 778v-385q0 -94 68 -94q78 0 78 104v340q0 74 -14.5 104t-65.5 30q-66 -1 -66 -99zM662 1120l49 86q16 16 30 17q27 0 55.5 -22.5t28.5 -43.5q0 -12 -16 -47l-61 -102q43 -131 43 -359q0 -219 -8.5 -310t-37.5 -167q-12 -25 -29.5 -50.5t-53 -61t-96 -58 t-136.5 -22.5q-150 0 -240 77l-55 -92q-14 -14 -29 -16h-6q-33 2 -57.5 25.5t-24.5 48.5q0 12 17 38l71 115q-49 125 -49 418q0 201 14.5 292t53.5 163q94 145 303 145q152 0 234 -74z" glyph-name="oslash" horiz-adv-x="847" unicode="ø"/><glyph d="M166 1176h78q47 0 72.5 -5.5t38 -21.5t14.5 -31.5t2 -54.5v-539v-26q0 -49 1 -74t7 -56.5t22.5 -46t42.5 -14.5q88 0 88 152v442l-10 184q-2 57 19.5 74t85.5 17h137q29 0 40 -3.5t23.5 -28t12.5 -77.5v-823l4 -121q2 -47 -4 -72.5t-29 -36t-38 -12.5t-58 -2h-117 q-35 0 -52.5 11.5t-19.5 22.5t-2 38v14l-10 2q-72 -104 -201 -104q-57 0 -102 19.5t-70.5 56t-42 73.5t-22.5 89t-8 83t-2 76v631q0 109 19.5 136.5t80.5 27.5zM399 1268l-190 176q-8 8 -8 12v2q0 16 22 17h234q23 0 43 -11q10 -6 14 -12l98 -172q4 -8 4 -12q0 -16 -20 -17 h-145q-36 1 -52 17z" glyph-name="ugrave" horiz-adv-x="915" unicode="ù"/><glyph d="M166 1176h78q47 0 72.5 -5.5t38 -21.5t14.5 -31.5t2 -54.5v-539v-26q0 -49 1 -74t7 -56.5t22.5 -46t42.5 -14.5q88 0 88 152v442l-10 184q-2 57 19.5 74t85.5 17h137q29 0 40 -3.5t23.5 -28t12.5 -77.5v-823l4 -121q2 -47 -4 -72.5t-29 -36t-38 -12.5t-58 -2h-117 q-35 0 -52.5 11.5t-19.5 22.5t-2 38v14l-10 2q-72 -104 -201 -104q-57 0 -102 19.5t-70.5 56t-42 73.5t-22.5 89t-8 83t-2 76v631q0 109 19.5 136.5t80.5 27.5zM473 1251h-145q-20 0 -21 17q0 4 4 12l99 172q12 23 57 23h233q20 0 23 -17v-4q0 -2 -8 -10l-189 -176 q-16 -17 -53 -17z" glyph-name="uacute" horiz-adv-x="915" unicode="ú"/><glyph d="M166 1176h78q47 0 72.5 -5.5t38 -21.5t14.5 -31.5t2 -54.5v-539v-26q0 -49 1 -74t7 -56.5t22.5 -46t42.5 -14.5q88 0 88 152v442l-10 184q-2 57 19.5 74t85.5 17h137q29 0 40 -3.5t23.5 -28t12.5 -77.5v-823l4 -121q2 -47 -4 -72.5t-29 -36t-38 -12.5t-58 -2h-117 q-35 0 -52.5 11.5t-19.5 22.5t-2 38v14l-10 2q-72 -104 -201 -104q-57 0 -102 19.5t-70.5 56t-42 73.5t-22.5 89t-8 83t-2 76v631q0 109 19.5 136.5t80.5 27.5zM193 1280l145 172q18 23 51 23h150q33 0 51 -23l139 -172q4 -6 4 -12t-5 -11.5t-13 -5.5h-135q-33 0 -50 17 l-53 57q-14 14 -28 0l-58 -57q-16 -16 -49 -17h-135q-18 0 -19 17q1 8 5 12z" glyph-name="ucircumflex" horiz-adv-x="915" unicode="û"/><glyph d="M166 1176h78q47 0 72.5 -5.5t38 -21.5t14.5 -31.5t2 -54.5v-539v-26q0 -49 1 -74t7 -56.5t22.5 -46t42.5 -14.5q88 0 88 152v442l-10 184q-2 57 19.5 74t85.5 17h137q29 0 40 -3.5t23.5 -28t12.5 -77.5v-823l4 -121q2 -47 -4 -72.5t-29 -36t-38 -12.5t-58 -2h-117 q-35 0 -52.5 11.5t-19.5 22.5t-2 38v14l-10 2q-72 -104 -201 -104q-57 0 -102 19.5t-70.5 56t-42 73.5t-22.5 89t-8 83t-2 76v631q0 109 19.5 136.5t80.5 27.5zM408 1423v-127q0 -35 -54 -34h-125q-31 0 -40 9t-9 29v127q0 37 53 37h125q50 0 50 -41zM745 1423v-127 q0 -35 -53 -34h-127q-47 0 -47 38v127q0 37 53 37h125q49 0 49 -41z" glyph-name="udieresis" horiz-adv-x="915" unicode="ü"/><glyph d="M51 -100v176q0 76 49 76q16 0 29 -7l10 -5t12.5 -5t14.5 -2q16 0 24.5 8.5t8.5 22.5q0 16 -6 53l-175 877q-4 20 -4 24q0 23 18.5 40.5t53.5 17.5h176q31 0 42 -13.5t18 -70.5l67 -732h37l57 758q0 31 19 45q14 12 53 13h150q82 0 81 -64q0 -12 -8 -53l-205 -965 q-31 -145 -98 -211q-72 -70 -207 -69q-113 0 -166 20q-51 17 -51 66zM408 1251h-146q-20 0 -20 17q0 4 4 12l98 172q12 23 57 23h234q20 0 22 -17v-4q0 -2 -8 -10l-188 -176q-16 -17 -53 -17z" glyph-name="yacute" horiz-adv-x="792" unicode="ý"/><glyph d="M365 760v-305v-51.5t4 -41t11 -36t22.5 -18.5t37.5 -9q47 0 58.5 30.5t11.5 104.5v291q0 33 -1 50.5t-4 41t-10.5 34.5t-21.5 20.5t-35 9.5q-73 0 -73 -121zM78 -84v1458l-2 47q-2 35 10 51.5t28.5 19.5t51.5 3h123h20t17.5 -2t17.5 -8t9 -16.5t9.5 -29t2.5 -44.5v-293 q76 84 178 84q59 0 104 -24.5t73 -72t45 -100.5t25.5 -129t11.5 -136t3 -142q0 -70 -2 -113t-8.5 -124t-24.5 -133t-47 -108.5t-79 -85t-116 -28.5q-92 0 -151 53v-119q0 -18 -1 -33.5t-4 -26.5t-4 -18.5t-8.5 -12.5t-9.5 -8t-12 -4t-13 -1h-16.5h-17.5h-129q-20 0 -34.5 1 t-25 6t-15.5 7t-7 14.5t-2 16.5v23.5v27.5z" glyph-name="thorn" horiz-adv-x="862" unicode="þ"/><glyph d="M51 -100v176q0 76 49 76q16 0 29 -7l10 -5t12.5 -5t14.5 -2q16 0 24.5 8.5t8.5 22.5q0 16 -6 53l-175 877q-4 20 -4 24q0 23 18.5 40.5t53.5 17.5h176q31 0 42 -13.5t18 -70.5l67 -732h37l57 758q0 31 19 45q14 12 53 13h150q82 0 81 -64q0 -12 -8 -53l-205 -965 q-31 -145 -98 -211q-72 -70 -207 -69q-113 0 -166 20q-51 17 -51 66zM342 1423v-127q0 -35 -53 -34h-125q-31 0 -40 9t-9 29v127q0 37 53 37h125q49 0 49 -41zM680 1423v-127q0 -35 -53 -34h-127q-47 0 -47 38v127q0 37 53 37h125q49 0 49 -41z" glyph-name="ydieresis" horiz-adv-x="792" unicode="ÿ"/><glyph d="M2 160l64 307q20 104 20 111q14 104 32.5 211.5t44 246t40.5 221.5l8 48q18 119 39 145q18 25 51 25h252q61 0 80 -25q12 -14 65 -264l58 -271q12 -59 30.5 -185t55.5 -337q8 -43 35.5 -160.5t27.5 -154.5t-26.5 -57.5t-67.5 -20.5h-176q-49 0 -66 47q-6 20 -10 78 q-4 53 -10 74q-20 59 -86 59q-45 0 -82 -15.5t-35 -47.5l2 -72q2 -76 -22.5 -99.5t-73.5 -23.5h-189q-78 0 -77 59q0 23 16 101zM438 1110l-57 -416q-6 -45 -8 -67v-11q6 -35 78 -34q35 0 55 11t18 46l-4 45l-65 428zM242 1733h422q49 0 49 -33v-101q0 -29 -54 -28h-423 q-39 0 -46 14q-2 6 -2 19v100q0 18 11.5 23.5t42.5 5.5z" glyph-name="Amacron" horiz-adv-x="894" unicode="Ā"/><glyph d="M479 76h-14q-37 -96 -154 -96q-119 0 -190 108q-80 123 -80 311q0 213 90 334q74 98 188 98q37 0 93 -16q37 -10 45 -10q27 0 26 33q0 51 -30 75q-31 29 -97 29q-49 0 -129 -24q-43 -12 -53 -13q-47 0 -47 68v102q0 47 8 55q6 12 47 27q121 39 244 39q197 0 270 -72 q72 -70 72 -233v-785l2 -38q0 -14 -1 -24.5t-3 -18t-9 -12.5t-9.5 -8t-14.5 -4t-15 -1h-20.5h-19.5h-141h-10.5h-10.5t-10 1t-10 4t-8.5 8t-5.5 14.5t-3 21t0 27.5zM328 483v-131q0 -102 73 -102q39 0 56.5 24.5t17.5 92.5v122q0 104 -67 105q-80 0 -80 -111zM217 1446h422 q49 0 49 -33v-100q0 -29 -53 -29h-424q-39 0 -45 14q-2 6 -2 19v100q0 18 11 23.5t42 5.5z" glyph-name="amacron" horiz-adv-x="839" unicode="ā"/><glyph d="M2 160l64 307q20 104 20 111q14 104 32.5 211.5t44 246t40.5 221.5l8 48q18 119 39 145q18 25 51 25h252q61 0 80 -25q12 -14 65 -264l58 -271q12 -59 30.5 -185t55.5 -337q8 -43 35.5 -160.5t27.5 -154.5t-26.5 -57.5t-67.5 -20.5h-176q-49 0 -66 47q-6 20 -10 78 q-4 53 -10 74q-20 59 -86 59q-45 0 -82 -15.5t-35 -47.5l2 -72q2 -76 -22.5 -99.5t-73.5 -23.5h-189q-78 0 -77 59q0 23 16 101zM438 1110l-57 -416q-6 -45 -8 -67v-11q6 -35 78 -34q35 0 55 11t18 46l-4 45l-65 428zM225 1761h103q16 0 28 -30q20 -63 93 -64q31 0 50 10.5 t25 19.5t15 29l6 15q8 20 30 20h105q20 0 20 -37q0 -80 -59 -131q-70 -59 -192 -59q-125 0 -191 57q-55 49 -61 129v15q3 26 28 26z" glyph-name="Abreve" horiz-adv-x="894" unicode="Ă"/><glyph d="M479 76h-14q-37 -96 -154 -96q-119 0 -190 108q-80 123 -80 311q0 213 90 334q74 98 188 98q37 0 93 -16q37 -10 45 -10q27 0 26 33q0 51 -30 75q-31 29 -97 29q-49 0 -129 -24q-43 -12 -53 -13q-47 0 -47 68v102q0 47 8 55q6 12 47 27q121 39 244 39q197 0 270 -72 q72 -70 72 -233v-785l2 -38q0 -14 -1 -24.5t-3 -18t-9 -12.5t-9.5 -8t-14.5 -4t-15 -1h-20.5h-19.5h-141h-10.5h-10.5t-10 1t-10 4t-8.5 8t-5.5 14.5t-3 21t0 27.5zM328 483v-131q0 -102 73 -102q39 0 56.5 24.5t17.5 92.5v122q0 104 -67 105q-80 0 -80 -111zM201 1475h102 q16 0 29 -31q20 -63 92 -64q31 0 50.5 10.5t25.5 19.5t14 30l6 14q8 20 31 21h104q20 0 21 -37q0 -80 -60 -131q-70 -59 -192 -60q-125 0 -191 58q-55 49 -61 129v14q4 27 29 27z" glyph-name="abreve" horiz-adv-x="839" unicode="ă"/><glyph d="M2 160l64 307q20 104 20 111q14 104 32.5 211.5t44 246t40.5 221.5l8 48q18 119 39 145q18 25 51 25h252q61 0 80 -25q12 -14 65 -264l58 -271q12 -59 30.5 -185t55.5 -337q8 -49 35.5 -162.5t27.5 -152.5q0 -33 -24 -55q-31 -25 -68 -23q-37 -25 -55 -59 q-25 -43 -25 -103q0 -25 5 -39t12.5 -23t9.5 -20v-10q-4 -12 -23 -12h-172q-31 0 -43 12q-16 14 -16 68q0 57 38 107t91 79q-27 0 -45 16q-14 12 -21 31q-6 20 -10 78q-4 53 -10 74q-20 59 -86 59q-45 0 -82 -15.5t-35 -47.5l2 -72q2 -76 -22.5 -99.5t-73.5 -23.5h-189 q-78 0 -77 59q0 23 16 101zM438 1110l-57 -416q-6 -45 -8 -67v-11q6 -35 78 -34q35 0 55 11t18 46l-4 45l-65 428z" glyph-name="Aogonek" horiz-adv-x="894" unicode="Ą"/><glyph d="M485 76h-14q-37 -94 -153.5 -94t-193.5 108.5t-77 308.5q0 209 83 320.5t196 111.5q35 0 92 -16q35 -10 45 -10q27 0 26 33q0 104 -127 104q-49 0 -129 -24q-43 -12 -53 -13q-47 0 -47 68v102q0 37 15.5 59.5t85 41t198.5 18.5q109 0 179.5 -20.5t104.5 -64.5t46 -93 t12 -125v-785l2 -38q2 -68 -45 -68q-27 -31 -45 -66q-23 -43 -22 -96q0 -35 12 -55.5t14 -26.5v-10q-4 -12 -22 -12h-172q-31 0 -43 12q-16 14 -16.5 67.5t30.5 96.5q35 53 96 90h-33q-27 0 -38 20q-6 10 -7 46v10zM334 483v-131q0 -102 74 -102q39 0 56 24.5t17 92.5v122 q0 104 -67 105q-80 0 -80 -111z" glyph-name="aogonek" horiz-adv-x="845" unicode="ą"/><glyph d="M682 219l4 -115q2 -55 -24.5 -82.5t-118.5 -27.5q-135 0 -228.5 32.5t-158.5 129.5q-70 100 -92.5 246.5t-22.5 357.5q0 449 131 588q121 127 391 127q27 0 43.5 -3.5t36 -12.5t27.5 -32.5t8 -60.5l-2 -88l4 -76q4 -92 -72 -92h-43q-23 0 -51 -8q-76 -25 -94.5 -100.5 t-18.5 -247.5v-21q0 -264 35 -327q37 -63 105 -62l82 4q14 0 24 -3t16.5 -11t9.5 -16.5t5 -22.5t3 -23.5t1 -28v-24.5zM442 1538h-145q-20 0 -21 16q0 4 5 13l98 172q10 23 57 22h234q20 0 22 -16v-4q0 -2 -8 -10l-188 -177q-17 -16 -54 -16z" glyph-name="Cacute" horiz-adv-x="722" unicode="Ć"/><glyph d="M535 1112v-168q0 -20 -4.5 -34.5t-8.5 -21.5t-13 -12.5t-14.5 -7.5t-15.5 -3t-12 -1l-12 -2q-59 -10 -73.5 -57t-14.5 -209q0 -152 18 -199t70 -47h22q18 0 28.5 -3t20 -19.5t9.5 -48.5v-213q0 -20 -4.5 -35t-29 -28t-67.5 -13q-209 0 -295 127q-82 115 -82 450 q0 395 95 512q51 63 133 92q74 25 159 25q43 0 64.5 -17.5t24 -30.5t2.5 -36zM346 1251h-145q-20 0 -21 17q0 4 4 12l99 172q12 23 57 23h233q20 0 23 -17v-4q0 -2 -8 -10l-189 -176q-16 -17 -53 -17z" glyph-name="cacute" horiz-adv-x="575" unicode="ć"/><glyph d="M682 219l4 -115q2 -55 -24.5 -82.5t-118.5 -27.5q-135 0 -228.5 32.5t-158.5 129.5q-70 100 -92.5 246.5t-22.5 357.5q0 449 131 588q121 127 391 127q27 0 43.5 -3.5t36 -12.5t27.5 -32.5t8 -60.5l-2 -88l4 -76q4 -92 -72 -92h-43q-23 0 -51 -8q-76 -25 -94.5 -100.5 t-18.5 -247.5v-21q0 -264 35 -327q37 -63 105 -62l82 4q14 0 24 -3t16.5 -11t9.5 -16.5t5 -22.5t3 -23.5t1 -28v-24.5zM121 1567l145 172q18 23 51 22h150q33 0 51 -22l139 -172q4 -6 4.5 -12.5t-5 -11.5t-13.5 -5h-135q-33 0 -49 16l-53 58q-14 14 -29 0l-58 -58 q-16 -16 -49 -16h-135q-18 0 -18 16q0 9 4 13z" glyph-name="Ccircumflex" horiz-adv-x="722" unicode="Ĉ"/><glyph d="M535 1112v-168q0 -20 -4.5 -34.5t-8.5 -21.5t-13 -12.5t-14.5 -7.5t-15.5 -3t-12 -1l-12 -2q-59 -10 -73.5 -57t-14.5 -209q0 -152 18 -199t70 -47h22q18 0 28.5 -3t20 -19.5t9.5 -48.5v-213q0 -20 -4.5 -35t-29 -28t-67.5 -13q-209 0 -295 127q-82 115 -82 450 q0 395 95 512q51 63 133 92q74 25 159 25q43 0 64.5 -17.5t24 -30.5t2.5 -36zM84 1280l145 172q18 23 52 23h149q33 0 51 -23l140 -172q4 -6 4 -12t-5.5 -11.5t-13.5 -5.5h-135q-33 0 -49 17l-53 57q-14 14 -29 0l-57 -57q-16 -16 -50 -17h-135q-18 0 -18 17q0 8 4 12z" glyph-name="ccircumflex" horiz-adv-x="575" unicode="ĉ"/><glyph d="M682 219l4 -115q2 -55 -24.5 -82.5t-118.5 -27.5q-135 0 -228.5 32.5t-158.5 129.5q-70 100 -92.5 246.5t-22.5 357.5q0 449 131 588q121 127 391 127q27 0 43.5 -3.5t36 -12.5t27.5 -32.5t8 -60.5l-2 -88l4 -76q4 -92 -72 -92h-43q-23 0 -51 -8q-76 -25 -94.5 -100.5 t-18.5 -247.5v-21q0 -264 35 -327q37 -63 105 -62l82 4q14 0 24 -3t16.5 -11t9.5 -16.5t5 -22.5t3 -23.5t1 -28v-24.5zM301 1561l-145 172q-4 4 -4 12q0 16 18 16h135q33 0 49 -16l58 -57q14 -14 28 0l54 57q16 16 49 16h135q12 0 16 -10t-2 -18l-139 -172q-18 -23 -51 -23 h-150q-33 0 -51 23z" glyph-name="Ccaron" horiz-adv-x="722" unicode="Č"/><glyph d="M535 1112v-168q0 -20 -4.5 -34.5t-8.5 -21.5t-13 -12.5t-14.5 -7.5t-15.5 -3t-12 -1l-12 -2q-59 -10 -73.5 -57t-14.5 -209q0 -152 18 -199t70 -47h22q18 0 28.5 -3t20 -19.5t9.5 -48.5v-213q0 -20 -4.5 -35t-29 -28t-67.5 -13q-209 0 -295 127q-82 115 -82 450 q0 395 95 512q51 63 133 92q74 25 159 25q43 0 64.5 -17.5t24 -30.5t2.5 -36zM236 1274l-146 172q-4 4 -4 12q0 16 18 17h136q33 0 49 -17l57 -57q14 -14 29 0l53 57q16 16 49 17h135q12 0 16.5 -10.5t-1.5 -18.5l-140 -172q-18 -23 -51 -23h-149q-33 0 -51 23z" glyph-name="ccaron" horiz-adv-x="575" unicode="č"/><glyph d="M389 442l-2 -41q-4 -96 72 -96q53 0 80 43q18 31 22 78t4 176v127v67v59v49t-1 44.5t-2 36t-4 33.5t-7 26.5t-9 26.5t-12 23q-27 45 -84 45q-33 0 -49 -21q-14 -18 -14 -67q0 -43 3 -82t3 -51v-476zM432 0h-113q-37 0 -80.5 -3t-65 -4t-45.5 5t-38 20q-25 25 -24 84v150 q0 20 2 38.5t2 47.5q0 18 1 147t1 160v156q-2 338 -9 499l-2 82q0 47 21 68q23 25 92 25q25 0 70 -2.5t67 -2.5q27 0 81 2.5t81 2.5q199 0 305 -127q63 -74 96 -216.5t38.5 -239.5t5.5 -243q0 -109 -3.5 -173t-28 -164.5t-73.5 -172.5q-96 -143 -293 -143q-6 0 -20.5 1 t-22.5 1q-6 0 -22.5 1t-22.5 1zM311 1561l-145 172q-4 4 -4 12q0 16 18 16h135q33 0 50 -16l57 -57q14 -14 29 0l53 57q16 16 49 16h135q12 0 16.5 -10t-2.5 -18l-139 -172q-18 -23 -51 -23h-150q-33 0 -51 23z" glyph-name="Dcaron" horiz-adv-x="966" unicode="Ď"/><glyph d="M487 1141v241q0 23 2.5 38.5t3.5 27.5t8 19.5t8 11.5t13.5 6t14.5 2h19h19h130q20 0 34.5 -1t24.5 -6l15 -7.5t7 -14.5t2 -16v-23.5v-27.5v-1184l5 -127q2 -39 -16.5 -59.5t-78.5 -20.5h-120q-43 0 -59.5 13.5t-18.5 60.5q-72 -84 -178 -84q-49 0 -88 16.5t-66 54 t-46.5 71.5t-30.5 96.5t-18 95t-9.5 104.5t-2.5 90.5v79.5q0 92 4.5 164t21.5 158t46 142t83 95t130 39q73 0 141 -55zM356 745v-290q0 -88 13.5 -122t58.5 -34q74 0 74 123v305q0 45 -1 62.5t-7.5 44t-22.5 37t-43 10.5q-49 0 -60.5 -31t-11.5 -105zM1145 1407v-205 q0 -18 -19 -55l-82 -148q-12 -25 -55 -24h-74q-47 0 -26 43l14 29q10 23 18.5 36t10.5 17t5 8t6 12t11 25h-28q-37 0 -54.5 9t-19.5 20.5t-2 37.5v205q0 18 3 28.5t18.5 20t46.5 9.5h163q33 0 48.5 -13.5t15.5 -54.5z" glyph-name="dcaron" horiz-adv-x="1224" unicode="ď"/><glyph d="M6 641v143q0 29 11.5 37t56.5 8h30q0 27 -1 80.5t-1 79.5q0 80 -2 119q-2 80 -3 107.5t-1 78.5v39q0 8 -1 24.5t-1 24.5q0 43 22.5 67t90.5 24q25 0 70 -1.5t67 -1.5q20 0 63.5 2.5t65.5 2.5q262 0 371 -175q51 -82 76.5 -222t27.5 -217t2 -206q0 -102 -3 -165.5 t-26.5 -165t-68.5 -174.5q-94 -154 -281 -154q-20 0 -60 2t-60 2q-16 0 -49 -1t-50 -1l-153 -4q-45 -2 -72 19.5t-29 88.5v76q8 344 6 410l-32 -2q-41 0 -53.5 12t-12.5 43zM420 588l2 -146l-2 -41q-4 -55 20 -79q16 -16 52 -17q53 0 79 43q18 31 22.5 78t4.5 176v127 q0 176 -5 249t-30 116q-27 45 -84 45q-66 0 -63 -74l4 -147v-89h29q72 0 71 -32v-176q0 -39 -65 -35z" glyph-name="Dcroat" horiz-adv-x="1003" unicode="Đ"/><glyph d="M487 1141v114h-135q-39 0 -45 15q-2 6 -2 18v60q0 18 11.5 23t41.5 5h129v29q0 45 13 61q16 20 75 21h130q53 0 69 -12q14 -12 14 -62v-37h29q49 0 49 -33v-59q0 -29 -53 -29h-25v-1048l5 -127q2 -39 -16.5 -59.5t-78.5 -20.5h-120q-43 0 -59.5 13.5t-18.5 60.5 q-72 -84 -178 -84q-49 0 -88 16.5t-66 54t-46.5 71.5t-30.5 96.5t-18 95t-9.5 104.5t-2.5 90.5v79.5q0 119 9.5 207t35 185t87 150.5t153.5 53.5q75 0 141 -53zM356 745v-290q0 -88 13.5 -122t58.5 -34q74 0 74 123v305q0 45 -1 62.5t-7.5 44t-22.5 37t-43 10.5 q-49 0 -60.5 -31t-11.5 -105z" glyph-name="dcroat" horiz-adv-x="880" unicode="đ"/><glyph d="M78 330v993q0 10 -1 29.5t-1 31t2 26.5t9 26.5t17 19.5q25 18 125 19h394q63 0 84.5 -22.5t23.5 -84.5v-31q0 -10 1 -32.5t1 -32.5v-10v-19q0 -45 -16.5 -68.5t-33.5 -27.5t-50 -4l-170 2q-18 0 -28.5 -3t-21 -22.5t-10.5 -56.5v-66q0 -68 72 -63l139 6q61 4 84 -21.5 t23 -115.5v-60q0 -25 -2 -44t-10.5 -43.5t-26.5 -38t-45 -11.5l-121 6q-43 2 -65.5 1t-31.5 -14t-9 -18.5v-35.5v-121q0 -51 10 -63.5t57 -12.5l180 2q53 0 72 -24.5t19 -130.5v-76q0 -43 -10.5 -69.5t-31 -36t-32.5 -11.5t-35 -2q-45 0 -131 4t-129 4q-37 0 -110.5 -4 t-112.5 -4q-53 0 -75 26.5t-20 59.5l7 98q0 4 5 36t5 110zM182 1733h422q49 0 49 -33v-101q0 -29 -53 -28h-424q-39 0 -45 14q-2 6 -2 19v100q0 18 11 23.5t42 5.5z" glyph-name="Emacron" horiz-adv-x="778" unicode="Ē"/><glyph d="M784 270v-157q0 -49 -20 -66q-27 -20 -99.5 -41.5t-158.5 -21.5q-139 0 -231.5 51t-151.5 166q-31 61 -46.5 135t-18.5 125t-3 139q0 178 30 312.5t124 209.5q92 74 231 74q217 0 312 -182q25 -47 36 -115t12 -114t1 -152q0 -55 -3 -84t-20.5 -54.5t-52.5 -25.5h-330 q-14 0 -22 -8q-10 -10 -11 -33q0 -45 25 -80q39 -55 139 -55q76 0 138 35q33 18 53 18q31 0 49 -20.5t18 -55.5zM403 709h64q16 0 25.5 2t17.5 14t8 35v33q0 68 -20 96q-20 33 -66 33q-72 0 -72 -115v-27q0 -71 43 -71zM233 1446h422q49 0 50 -33v-100q0 -29 -54 -29h-424 q-39 0 -45 14q-2 6 -2 19v100q0 18 11 23.5t42 5.5z" glyph-name="emacron" horiz-adv-x="858" unicode="ē"/><glyph d="M78 330v993q0 10 -1 29.5t-1 31t2 26.5t9 26.5t17 19.5q25 18 125 19h394q63 0 84.5 -22.5t23.5 -84.5v-31q0 -10 1 -32.5t1 -32.5v-10v-19q0 -45 -16.5 -68.5t-33.5 -27.5t-50 -4l-170 2q-18 0 -28.5 -3t-21 -22.5t-10.5 -56.5v-66q0 -68 72 -63l139 6q61 4 84 -21.5 t23 -115.5v-60q0 -25 -2 -44t-10.5 -43.5t-26.5 -38t-45 -11.5l-121 6q-43 2 -65.5 1t-31.5 -14t-9 -18.5v-35.5v-121q0 -51 10 -63.5t57 -12.5l180 2q53 0 72 -24.5t19 -130.5v-76q0 -43 -10.5 -69.5t-31 -36t-32.5 -11.5t-35 -2q-45 0 -131 4t-129 4q-37 0 -110.5 -4 t-112.5 -4q-53 0 -75 26.5t-20 59.5l7 98q0 4 5 36t5 110zM514 1710v-127q0 -10 -2 -16t-15.5 -12.5t-39.5 -6.5h-142q-18 0 -26 1t-17.5 10.5t-9.5 27.5v127q0 37 60 37h139q53 0 53 -41z" glyph-name="Edotaccent" horiz-adv-x="778" unicode="Ė"/><glyph d="M784 270v-157q0 -49 -20 -66q-27 -20 -99.5 -41.5t-158.5 -21.5q-139 0 -231.5 51t-151.5 166q-31 61 -46.5 135t-18.5 125t-3 139q0 178 30 312.5t124 209.5q92 74 231 74q217 0 312 -182q25 -47 36 -115t12 -114t1 -152q0 -55 -3 -84t-20.5 -54.5t-52.5 -25.5h-330 q-14 0 -22 -8q-10 -10 -11 -33q0 -45 25 -80q39 -55 139 -55q76 0 138 35q33 18 53 18q31 0 49 -20.5t18 -55.5zM403 709h64q16 0 25.5 2t17.5 14t8 35v33q0 68 -20 96q-20 33 -66 33q-72 0 -72 -115v-27q0 -71 43 -71zM555 1423v-127q0 -10 -2 -16t-15.5 -12t-39.5 -6h-142 q-18 0 -26 1t-17.5 10t-9.5 27v127q0 37 59 37h140q53 0 53 -41z" glyph-name="edotaccent" horiz-adv-x="858" unicode="ė"/><glyph d="M78 330v993q0 10 -1 29.5t-1 31t2 26.5t9 26.5t17 19.5q25 18 125 19h394q63 0 84.5 -22.5t23.5 -84.5v-31q0 -10 1 -32.5t1 -32.5v-10v-19q0 -45 -16.5 -68.5t-33.5 -27.5t-50 -4l-170 2q-18 0 -28.5 -3t-21 -22.5t-10.5 -56.5v-66q0 -68 72 -63l139 6q61 4 84 -21.5 t23 -115.5v-60q0 -25 -2 -44t-10.5 -43.5t-26.5 -38t-45 -11.5l-121 6q-43 2 -65.5 1t-31.5 -14t-9 -18.5v-35.5v-121q0 -51 10 -63.5t57 -12.5l180 2q51 0 72 -26q18 -27 19 -129v-76q0 -76 -33 -101q-23 -18 -62 -18q-27 -31 -45 -66q-23 -43 -22 -96q0 -35 12 -55.5 t14 -26.5v-10q-4 -12 -22 -12h-172q-31 0 -43 12q-16 14 -17 68q0 94 123 192q-35 0 -63.5 1t-38.5 1q-37 0 -110.5 -4t-112.5 -4q-47 0 -72 24.5t-23 61.5l7 98q0 4 5 36t5 110z" glyph-name="Eogonek" horiz-adv-x="778" unicode="Ę"/><glyph d="M784 270v-157q0 -49 -20 -66q-31 -23 -72 -33q-37 -33 -59 -80q-23 -43 -23 -96q0 -35 12.5 -55.5t14.5 -26.5v-10q-4 -12 -23 -12h-172q-31 0 -43 12q-16 14 -16 68q0 94 100 170q-250 0 -360 217q-68 131 -68 399q0 397 154 522q86 70 231 70q219 0 312 -178 q25 -47 36 -115t12 -114t1 -152q0 -55 -3 -84t-20.5 -54.5t-52.5 -25.5h-330q-14 0 -22 -8q-10 -10 -11 -33q0 -45 25 -80q39 -55 139 -55q76 0 138 35q33 18 53 18q31 0 49 -20.5t18 -55.5zM403 709h64q16 0 25.5 2t17.5 14t8 35v33q0 68 -20 96q-20 33 -66 33 q-72 0 -72 -115v-27q0 -71 43 -71z" glyph-name="eogonek" horiz-adv-x="858" unicode="ę"/><glyph d="M78 330v993q0 10 -1 29.5t-1 31t2 26.5t9 26.5t17 19.5q25 18 125 19h394q63 0 84.5 -22.5t23.5 -84.5v-31q0 -10 1 -32.5t1 -32.5v-10v-19q0 -45 -16.5 -68.5t-33.5 -27.5t-50 -4l-170 2q-18 0 -28.5 -3t-21 -22.5t-10.5 -56.5v-66q0 -68 72 -63l139 6q61 4 84 -21.5 t23 -115.5v-60q0 -25 -2 -44t-10.5 -43.5t-26.5 -38t-45 -11.5l-121 6q-43 2 -65.5 1t-31.5 -14t-9 -18.5v-35.5v-121q0 -51 10 -63.5t57 -12.5l180 2q53 0 72 -24.5t19 -130.5v-76q0 -43 -10.5 -69.5t-31 -36t-32.5 -11.5t-35 -2q-45 0 -131 4t-129 4q-37 0 -110.5 -4 t-112.5 -4q-53 0 -75 26.5t-20 59.5l7 98q0 4 5 36t5 110zM264 1561l-145 172q-4 4 -4 12q0 16 18 16h135q33 0 49 -16l58 -57q14 -14 28 0l54 57q16 16 49 16h135q12 0 16.5 -10t-2.5 -18l-139 -172q-18 -23 -51 -23h-150q-33 0 -51 23z" glyph-name="Ecaron" horiz-adv-x="778" unicode="Ě"/><glyph d="M784 270v-157q0 -49 -20 -66q-27 -20 -99.5 -41.5t-158.5 -21.5q-139 0 -231.5 51t-151.5 166q-31 61 -46.5 135t-18.5 125t-3 139q0 178 30 312.5t124 209.5q92 74 231 74q217 0 312 -182q25 -47 36 -115t12 -114t1 -152q0 -55 -3 -84t-20.5 -54.5t-52.5 -25.5h-330 q-14 0 -22 -8q-10 -10 -11 -33q0 -45 25 -80q39 -55 139 -55q76 0 138 35q33 18 53 18q31 0 49 -20.5t18 -55.5zM403 709h64q16 0 25.5 2t17.5 14t8 35v33q0 68 -20 96q-20 33 -66 33q-72 0 -72 -115v-27q0 -71 43 -71zM317 1274l-145 172q-4 4 -4 12q0 16 18 17h136 q33 0 49 -17l57 -57q14 -14 29 0l53 57q16 16 49 17h135q12 0 16.5 -10.5t-1.5 -18.5l-140 -172q-18 -23 -51 -23h-149q-34 0 -52 23z" glyph-name="ecaron" horiz-adv-x="858" unicode="ě"/><glyph d="M885 801v-645q0 -57 -5.5 -79t-23.5 -38q-72 -63 -266 -64q-240 0 -398.5 184.5t-158.5 536.5q0 367 170 580q160 199 434 199q145 0 188 -39q43 -37 43 -111v-78q0 -135 -73 -135q-12 0 -37 6t-35 8q-37 8 -78 9q-156 0 -221 -138q-43 -86 -43 -262q0 -160 29 -268 q37 -131 129 -131q29 0 44 19.5t17 39t2 54.5v114q0 6 -1 10.5t-3 8.5t-4 7t-6 6t-6 5t-7.5 5t-7.5 4t-7 3t-7 2q-66 31 -61 115l4 98q6 72 26 93q27 27 111 26h119q33 0 51 -3t39.5 -16.5t32 -44t10.5 -81.5zM252 1567l145 172q18 23 52 22h149q33 0 51 -22l139 -172 q4 -6 4.5 -12.5t-5 -11.5t-13.5 -5h-135q-33 0 -49 16l-53 58q-14 14 -29 0l-57 -58q-16 -16 -50 -16h-135q-18 0 -18 16q0 9 4 13z" glyph-name="Gcircumflex" horiz-adv-x="948" unicode="Ĝ"/><glyph d="M487 616v172q0 92 -73 93q-37 0 -55.5 -33t-20.5 -64.5t-2 -91.5v-12v-12q0 -49 2 -75t8 -60.5t24.5 -51t49.5 -16.5t46 20.5t18 42t3 60.5v10v18zM768 1071l2 -887q0 -106 -14.5 -158.5t-65.5 -97.5q-117 -104 -360 -104q-66 0 -103 6q-61 10 -82 33q-27 29 -26 117v6 q0 131 63 131q6 0 62 -23q53 -23 106 -22q72 0 103 34q27 31 26 82v9l-2 45q-74 -59 -143 -60q-113 0 -184 92q-94 125 -94.5 399.5t79.5 401.5q70 113 201 113q80 0 143 -76v18q0 45 35 46h197h6q51 -1 51 -105zM178 1280l146 172q18 23 51 23h149q33 0 51 -23l140 -172 q4 -6 4 -12t-5 -11.5t-14 -5.5h-135q-33 0 -49 17l-53 57q-14 14 -29 0l-57 -57q-16 -16 -49 -17h-135q-18 0 -19 17q0 8 4 12z" glyph-name="gcircumflex" horiz-adv-x="845" unicode="ĝ"/><glyph d="M885 801v-645q0 -57 -5.5 -79t-23.5 -38q-72 -63 -266 -64q-240 0 -398.5 184.5t-158.5 536.5q0 367 170 580q160 199 434 199q145 0 188 -39q43 -37 43 -111v-78q0 -135 -73 -135q-12 0 -37 6t-35 8q-37 8 -78 9q-156 0 -221 -138q-43 -86 -43 -262q0 -160 29 -268 q37 -131 129 -131q29 0 44 19.5t17 39t2 54.5v114q0 6 -1 10.5t-3 8.5t-4 7t-6 6t-6 5t-7.5 5t-7.5 4t-7 3t-7 2q-66 31 -61 115l4 98q6 72 26 93q27 27 111 26h119q33 0 51 -3t39.5 -16.5t32 -44t10.5 -81.5zM315 1761h103q16 0 28 -30q20 -63 93 -64q31 0 50 10.5 t25.5 19.5t14.5 29l6 15q8 20 31 20h104q20 0 21 -37q0 -80 -60 -131q-70 -59 -192 -59q-125 0 -191 57q-55 49 -61 129v15q3 26 28 26z" glyph-name="Gbreve" horiz-adv-x="948" unicode="Ğ"/><glyph d="M487 616v172q0 92 -73 93q-37 0 -55.5 -33t-20.5 -64.5t-2 -91.5v-12v-12q0 -49 2 -75t8 -60.5t24.5 -51t49.5 -16.5t46 20.5t18 42t3 60.5v10v18zM768 1071l2 -887q0 -106 -14.5 -158.5t-65.5 -97.5q-117 -104 -360 -104q-66 0 -103 6q-61 10 -82 33q-27 29 -26 117v6 q0 131 63 131q6 0 62 -23q53 -23 106 -22q72 0 103 34q27 31 26 82v9l-2 45q-74 -59 -143 -60q-113 0 -184 92q-94 125 -94.5 399.5t79.5 401.5q70 113 201 113q80 0 143 -76v18q0 45 35 46h197h6q51 -1 51 -105zM240 1475h102q16 0 29 -31q20 -63 92 -64q31 0 50 10.5 t25.5 19.5t14.5 30l6 14q8 20 31 21h104q20 0 21 -37q0 -80 -60 -131q-70 -59 -192 -60q-125 0 -191 58q-55 49 -61 129v14q4 27 29 27z" glyph-name="gbreve" horiz-adv-x="845" unicode="ğ"/><glyph d="M885 801v-645q0 -57 -5.5 -79t-23.5 -38q-72 -63 -266 -64q-240 0 -398.5 184.5t-158.5 536.5q0 367 170 580q160 199 434 199q145 0 188 -39q43 -37 43 -111v-78q0 -135 -73 -135q-12 0 -37 6t-35 8q-37 8 -78 9q-156 0 -221 -138q-43 -86 -43 -262q0 -160 29 -268 q37 -131 129 -131q29 0 44 19.5t17 39t2 54.5v114q0 6 -1 10.5t-3 8.5t-4 7t-6 6t-6 5t-7.5 5t-7.5 4t-7 3t-7 2q-66 31 -61 115l4 98q6 72 26 93q27 27 111 26h119q33 0 51 -3t39.5 -16.5t32 -44t10.5 -81.5zM711 -150v-135q0 -18 -21 -53l-88 -141q-16 -27 -57 -27h-80 q-35 0 -35 14q0 20 6 29l17 27l55 96h-31q-39 0 -57.5 7t-21.5 18.5t-3 38.5v118q0 43 16.5 57.5t57.5 14.5h174q37 0 53 -18q15 -17 15 -46z" glyph-name="Gcommaaccent" horiz-adv-x="948" unicode="Ģ"/><glyph d="M487 616l-4 172q0 92 -69 93q-29 0 -46.5 -15.5t-23.5 -54.5t-7 -59.5t-1 -71.5v-12q0 -49 1 -75t8 -60.5t25.5 -51t49.5 -16.5q35 0 51 23.5t16 57v70.5zM768 1071v-887q0 -109 -13.5 -160t-64.5 -96q-119 -104 -348 -104q-111 0 -160 16q-33 12 -48 46t-15 122 q0 109 63 109q10 0 62 -21q61 -25 106 -24q70 0 105 37q29 31 24 88l-2 45q-74 -59 -143 -60q-113 0 -184 92q-94 125 -95 400q0 289 92 413q74 100 189 101q82 0 143 -76v18q0 47 35 48h12l70 -2l115 2q43 0 50 -12.5t7 -94.5zM334 1307v135q0 18 20 53l88 141q16 27 58 27 h80q35 0 34 -14q0 -18 -6 -29l-16 -27l-55 -96h30q39 0 57.5 -7t21.5 -18.5t3 -37.5v-119q0 -43 -16.5 -57.5t-57.5 -14.5h-174q-37 0 -53 19q-14 16 -14 45z" glyph-name="gcommaaccent" horiz-adv-x="833" unicode="ģ"/><glyph d="M188 1475h91q57 0 85.5 -16.5t33.5 -35t5 -49.5v-14l-14 -365q-4 -98 80 -98q29 0 47.5 12.5t24.5 37t8 42t2 45.5q0 39 -3 90.5t-3 77.5v189q0 35 3 47t33.5 24.5t98.5 12.5h96q49 0 72.5 -15.5t23.5 -66.5q0 -8 -4 -74q-2 -84 -2 -127v-805q0 -82 3 -161t3 -111 q0 -66 -24.5 -90.5t-71.5 -24.5h-145q-94 0 -94 119v180q0 2 8 100q2 12 6 46t4 53q0 70 -61 69q-45 0 -68 -20.5t-27 -43t-4 -63.5v-323v-18.5v-19.5t-1 -16.5t-5 -17.5t-9 -14t-15.5 -12.5t-23.5 -9.5t-31.5 -7t-43.5 -2h-80h-16h-18.5h-17.5t-16 2t-14.5 5t-14.5 7 t-11 10.5t-9 14.5t-5.5 19.5t-2.5 25.5q0 6 1 16.5t1 14.5q2 23 3 135v1104q0 41 2 57t13 34.5t35.5 24t71.5 5.5zM197 1567l145 172q18 23 51 22h150q33 0 51 -22l139 -172q4 -6 4 -12.5t-5 -11.5t-13 -5h-135q-33 0 -49 16l-54 58q-14 14 -28 0l-58 -58q-16 -16 -49 -16 h-135q-18 0 -18 16q0 9 4 13z" glyph-name="Hcircumflex" horiz-adv-x="933" unicode="Ĥ"/><glyph d="M748 0h-78q-80 0 -99 16q-29 23 -28 99v536v27q0 49 -1 73.5t-7.5 56.5t-22.5 46t-43 14q-88 0 -88 -151v-443l10 -184q2 -57 -19.5 -73.5t-84.5 -16.5h-137h-10.5h-10.5t-10 1t-10.5 3t-9.5 6t-9 9.5t-6 13.5t-6 19t-3 25.5t-1 33.5v1128l-4 121q-2 45 5 71.5t29.5 37 t38 12.5t56.5 2h116q43 0 56.5 -9.5t13.5 -43.5v-336l14 -2q74 104 201 104q57 0 102.5 -19.5t71 -56.5t41.5 -73.5t22.5 -90t8.5 -85t2 -76.5v-631q0 -109 -19.5 -136.5t-80.5 -27.5zM61 1556l146 173q18 23 51 22h150q33 0 51 -22l139 -173q4 -6 4 -12t-5 -11t-13 -5h-135 q-33 0 -50 16l-53 58q-14 14 -29 0l-57 -58q-16 -16 -49 -16h-135q-18 0 -19 16q0 8 4 12z" glyph-name="hcircumflex" horiz-adv-x="921" unicode="ĥ"/><glyph d="M184 1475h95q84 0 102 -22.5t18 -133.5l-6 -973l4 -225q2 -76 -22.5 -98.5t-108.5 -22.5h-71q-45 0 -58.5 1t-37 10t-31 33t-7.5 65v110q0 20 3.5 54t1.5 116q-4 266 4 776v62q0 10 -2 41.5t0 50.5q2 25 0 29t-2 14v20q0 61 20 77t98 16zM27 1733h422q49 0 49 -33v-101 q0 -29 -54 -28h-424q-39 0 -45 14q-2 6 -2 19v100q0 18 11.5 23.5t42.5 5.5z" glyph-name="Imacron" horiz-adv-x="464" unicode="Ī"/><glyph d="M70 90v901l-2 92q-2 59 21.5 76t88.5 17h39l84 4q49 2 69.5 -10.5t20.5 -53.5v-1020q0 -70 -15.5 -86t-60.5 -14l-88 4l-100 -2q-23 0 -35 4t-17 21.5t-5 25.5v41zM27 1446h422q49 0 49 -33v-100q0 -29 -54 -29h-424q-39 0 -45 14q-2 6 -2 19v100q0 18 11.5 23.5 t42.5 5.5z" glyph-name="imacron" horiz-adv-x="466" unicode="ī"/><glyph d="M184 1475h95q84 0 102 -22.5t18 -133.5l-6 -973l4 -225q0 -61 -16 -88q-16 -25 -43 -33q-18 -20 -43 -66q-23 -43 -23 -96q0 -35 12.5 -55.5t14.5 -26.5v-10q-4 -12 -23 -12h-172q-31 0 -43 12q-16 14 -16 67.5t31 96.5q33 49 88 90h-31q-33 0 -51 23q-20 25 -21 86v110 q0 20 3.5 54t1.5 116q-4 266 4 776v62q0 10 -2 41.5t0 50.5q2 25 0 29t-2 14v20q0 61 20 77t98 16z" glyph-name="Iogonek" horiz-adv-x="464" unicode="Į"/><glyph d="M70 90v901l-2 92q-2 59 21.5 76t88.5 17h39l84 4q49 2 69.5 -10.5t20.5 -53.5v-1020q0 -51 -7 -69.5t-28 -26.5q-27 -31 -39 -53q-27 -45 -26 -109q0 -25 5 -39t12 -23t9 -20v-10q-4 -12 -22 -12h-172q-31 0 -43 12q-16 14 -17 68q0 104 121 186h-51q-39 0 -51 16 q-12 19 -12 74z" glyph-name="iogonek" horiz-adv-x="466" unicode="į"/><glyph d="M184 1475h95q84 0 102 -22.5t18 -133.5l-6 -973l4 -225q2 -76 -22.5 -98.5t-108.5 -22.5h-71q-45 0 -58.5 1t-37 10t-31 33t-7.5 65v110q0 20 3.5 54t1.5 116q-4 266 4 776v62q0 10 -2 41.5t0 50.5q2 25 0 29t-2 14v20q0 61 20 77t98 16zM358 1710v-127q0 -10 -2 -16 t-15 -12.5t-40 -6.5h-141q-18 0 -26.5 1t-18 10.5t-9.5 27.5v127q0 37 60 37h139q53 0 53 -41z" glyph-name="Idotaccent" horiz-adv-x="464" unicode="İ"/><glyph d="M70 90v901l-2 92q-2 59 21.5 76t88.5 17h39l84 4q49 2 69.5 -10.5t20.5 -53.5v-1020q0 -70 -15.5 -86t-60.5 -14l-88 4l-100 -2q-23 0 -35 4t-17 21.5t-5 25.5v41z" glyph-name="dotlessi" horiz-adv-x="466" unicode="ı"/><glyph d="M252 1475h143q16 0 29.5 -2.5t24 -4.5t18.5 -7t13 -9t8.5 -12t5.5 -12.5t3 -15.5t1 -14v-15.5v-16.5v-981q0 -113 -13.5 -190.5t-32 -118.5t-56.5 -61.5t-66.5 -24.5t-81.5 -4q-168 0 -197 30q-23 25 -22 115v92q0 45 8 66.5t16 25.5t33 11l10 2q4 0 16.5 2t18.5 3 t13.5 8t11.5 19q6 18 6 209l-2 807q0 37 5 57.5t20.5 30t26.5 10.5t40 1zM16 1567l146 172q18 23 51 22h149q33 0 52 -22l139 -172q4 -6 4 -12.5t-5 -11.5t-13 -5h-136q-33 0 -49 16l-53 58q-14 14 -29 0l-57 -58q-16 -16 -49 -16h-135q-18 0 -19 16q0 9 4 13z" glyph-name="Jcircumflex" horiz-adv-x="573" unicode="Ĵ"/><glyph d="M430 1116v-991q0 -176 -62.5 -235.5t-201.5 -59.5q-66 0 -101.5 12.5t-46 33t-13.5 48t1 60.5l2 61l-2 68q0 8 1 16t2 13t3 10.5t4 8.5t6.5 5t6.5 3t7 2t6 1h7l6 2l25 2q29 2 29 98v717l-3 94q0 33 6.5 53.5t26 28t32.5 9.5t48 1t49 -1l84 2q78 -1 78 -62zM-20 1280 l147 172q18 23 51 23h150q33 0 51 -23l139 -172q4 -6 4 -12t-5 -11.5t-13 -5.5h-135q-33 0 -50 17l-53 57q-14 14 -28 0l-58 -57q-16 -16 -49 -17h-137q-18 0 -19 17q1 8 5 12z" glyph-name="jcircumflex" horiz-adv-x="501" unicode="ĵ"/><glyph d="M182 1475h121q29 0 42 -3.5t25.5 -25t12.5 -66.5v-14l-8 -399h31l114 446q8 33 24.5 47.5t55.5 14.5h213q57 0 57 -39q0 -25 -22 -76l-189 -451q-12 -33 -14 -53q47 -176 105 -352l79 -248q61 -190 62 -215q0 -41 -66 -41q-16 0 -48 2t-48 2q-12 0 -37.5 -2t-38.5 -2 q-74 0 -92 15.5t-37 95.5l-118 505h-27v-501q0 -78 -20.5 -96.5t-71.5 -18.5h-97q-49 0 -74.5 4t-37.5 24.5t-13.5 38t-1.5 70.5l3 1030q0 14 -1.5 43t-1.5 43v52v84q0 51 21.5 68.5t97.5 17.5zM602 -150v-135q0 -18 -20 -53l-88 -141q-16 -27 -58 -27h-80q-35 0 -34 14 q0 20 6 29l16 27l55 96h-30q-39 0 -57.5 7t-21.5 18.5t-3 38.5v118q0 43 16 57.5t57 14.5h175q37 0 53 -18q14 -17 14 -46z" glyph-name="Kcommaaccent" horiz-adv-x="890" unicode="Ķ"/><glyph d="M72 1309l-2 88q-2 59 22.5 79.5t91.5 18.5l43 -2q25 -2 53.5 -2h40t25.5 -2t17.5 -9t5.5 -18.5t2 -31.5l-2 -70v-588h26q61 117 107 289l16 65q6 29 21.5 39.5t60.5 10.5h129q29 0 45.5 -2.5t34.5 -19.5t18 -52q0 -90 -178 -488l191 -520q12 -29 12 -59q0 -10 -3 -17.5 t-6 -10.5t-12.5 -5t-12.5 -2h-15h-10h-197q-37 0 -54.5 19.5t-35.5 82.5l-103 363h-34v-371q0 -4 1 -18.5t1 -22.5t-4.5 -20.5t-11.5 -19.5t-21.5 -11t-36.5 -4l-78 4l-90 -4q-37 -2 -47 21.5t-10 80.5v1209zM604 -150v-135q0 -18 -20 -53l-88 -141q-16 -27 -58 -27h-80 q-35 0 -34 14q0 20 6 29l16 27l55 96h-30q-39 0 -57.5 7t-21.5 18.5t-3 38.5v118q0 43 16.5 57.5t56.5 14.5h175q37 0 53 -18q14 -17 14 -46z" glyph-name="kcommaaccent" horiz-adv-x="864" unicode="ķ"/><glyph d="M193 0l-52 -4q-39 -2 -61 29q-6 10 -11.5 21t-6.5 30.5t-1 31v40v40.5v1147q0 92 15.5 117t56.5 23l90 -2l109 4q14 0 25.5 -2t17.5 -10.5t10 -14.5t5 -21.5t1 -24.5v-31.5v-35.5l-2 -243q-2 -205 0 -410q4 -139 4 -211q0 -41 4 -70q10 -70 78 -65l80 6q41 2 63.5 -19.5 t25.5 -44t3 -61.5v-108q0 -14 -3 -27.5t-12 -36t-35 -36t-65 -13.5l-83 2h-256zM344 1538h-145q-20 0 -21 16q0 4 4 13l99 172q10 23 57 22h233q20 0 23 -16v-4q0 -2 -8 -10l-189 -177q-16 -16 -53 -16z" glyph-name="Lacute" horiz-adv-x="657" unicode="Ĺ"/><glyph d="M78 1309l-2 88q-2 98 76 98l75 -2l99 2q29 0 43 -10t17 -22.5t3 -32.5v-1336q0 -68 -15.5 -84t-58.5 -14l-88 4l-90 -4q-39 -2 -49 20.5t-10 98.5v1194zM248 1530h-146q-20 0 -20 16q0 4 4 13l98 172q12 23 58 22h233q20 0 23 -16v-4q0 -2 -9 -11l-188 -176 q-16 -16 -53 -16z" glyph-name="lacute" horiz-adv-x="454" unicode="ĺ"/><glyph d="M193 0l-52 -4q-39 -2 -61 29q-6 10 -11.5 21t-6.5 30.5t-1 31v40v40.5v1147q0 92 15.5 117t56.5 23l90 -2l109 4q14 0 25.5 -2t17.5 -10.5t10 -14.5t5 -21.5t1 -24.5v-31.5v-35.5l-2 -243q-2 -205 0 -410q4 -139 4 -211q0 -41 4 -70q10 -70 78 -65l80 6q41 2 63.5 -19.5 t25.5 -44t3 -61.5v-108q0 -14 -3 -27.5t-12 -36t-35 -36t-65 -13.5l-83 2h-256zM492 -150v-135q0 -18 -21 -53l-88 -141q-16 -27 -57 -27h-80q-35 0 -35 14q0 20 6 29l16 27l56 96h-31q-39 0 -57.5 7t-21.5 18.5t-3 38.5v118q0 43 16.5 57.5t57.5 14.5h174q37 0 53 -18 q15 -17 15 -46z" glyph-name="Lcommaaccent" horiz-adv-x="657" unicode="Ļ"/><glyph d="M78 1309l-2 88q-2 98 76 98l75 -2l99 2q29 0 43 -10t17 -22.5t3 -32.5v-1336q0 -68 -15.5 -84t-58.5 -14l-88 4l-90 -4q-39 -2 -49 20.5t-10 98.5v1194zM391 -150v-135q0 -18 -20 -53l-88 -141q-16 -27 -58 -27h-80q-35 0 -34 14q0 20 6 29l16 27l55 96h-30 q-39 0 -57.5 7t-21.5 18.5t-3 38.5v118q0 43 16.5 57.5t57.5 14.5h174q37 0 53 -18q14 -17 14 -46z" glyph-name="lcommaaccent" horiz-adv-x="454" unicode="ļ"/><glyph d="M193 0l-52 -4q-39 -2 -61 29q-6 10 -11.5 21t-6.5 30.5t-1 31v40v40.5v1147q0 92 15.5 117t56.5 23l90 -2l109 4q14 0 25.5 -2t17.5 -10.5t10 -14.5t5 -21.5t1 -24.5v-31.5v-35.5l-2 -243q-2 -205 0 -410q4 -139 4 -211q0 -41 4 -70q10 -70 78 -65l80 6q41 2 63.5 -19.5 t25.5 -44t3 -61.5v-108q0 -14 -3 -27.5t-12 -36t-35 -36t-65 -13.5l-83 2h-256zM743 1407v-205q0 -18 -18 -55l-82 -148q-12 -25 -55 -24h-74q-47 0 -27 43l15 29q10 23 18 36t10 17t5.5 8t6.5 12t11 25h-29q-37 0 -54 9t-19 20.5t-2 37.5v205q0 18 3 28.5t18 20t46 9.5h164 q33 0 48 -13.5t15 -54.5z" glyph-name="Lcaron" horiz-adv-x="667" unicode="Ľ"/><glyph d="M78 1309l-2 88q-2 98 76 98l75 -2l99 2q29 0 43 -10t17 -22.5t3 -32.5v-1336q0 -68 -15.5 -84t-58.5 -14l-88 4l-90 -4q-39 -2 -49 20.5t-10 98.5v1194zM764 1407v-205q0 -18 -19 -55l-81 -148q-12 -25 -56 -24h-73q-47 0 -27 43l14 29q10 23 18.5 36t10.5 17t5 8t6 12 t11 25h-28q-37 0 -54.5 9t-19.5 20.5t-2 37.5v205q0 18 3 28.5t18.5 20t46.5 9.5h163q33 0 48.5 -13.5t15.5 -54.5z" glyph-name="lcaron" horiz-adv-x="731" unicode="ľ"/><glyph d="M494 0h-254l-52 -4q-35 -2 -53 19.5t-22 45t-4 54.5v137l2 299l-62 -39q-6 -4 -22 -4q-8 0 -9 24v197q0 35 21 45l72 41q6 168 4 217l-6 311q-4 141 69 132h12l80 -2l103 4q43 2 55 -23q10 -27 10 -111l-2 -204l2 -123l97 57q8 4 10 4h6q20 0 20 -24v-193q0 -27 -22 -39 l-111 -63v-242q0 -47 2 -72.5t9.5 -55.5t26 -41t46.5 -9l80 6q41 2 63.5 -19.5t25.5 -44t3 -61.5v-108q0 -14 -3 -27.5t-12 -36t-35 -36t-64 -13.5z" glyph-name="Lslash" horiz-adv-x="729" unicode="Ł"/><glyph d="M96 1309l-2 88q0 20 2 36.5t12.5 33t36 24.5t62.5 4h137q18 0 30.5 -2t24 -18.5t11.5 -44.5l-2 -70v-354l67 47q6 4 17.5 -1t11.5 -16v-209q0 -16 -23 -30l-73 -39v-664q0 -27 -4.5 -46t-7.5 -28.5t-13 -14.5t-14 -6t-18.5 0t-16.5 1l-86 2l-92 -2q-27 0 -36 3 t-16.5 27.5t-7.5 84.5v458l-76 -53l-8 -2q-12 -2 -12 27v196q0 20 16 33l80 47v488z" glyph-name="lslash" horiz-adv-x="512" unicode="ł"/><glyph d="M63 139v1184q0 98 21.5 125t75.5 27h186q39 0 55.5 -12.5t22.5 -41.5l12 -47q84 -317 174 -596h41v574q0 49 3 69.5t21.5 37t59.5 16.5h127q63 0 81 -20.5t15 -63.5l-2 -45v-1174q0 -92 -17 -132t-75 -40h-166q-63 0 -79.5 17.5t-43.5 107.5l-165 571h-41v-571 q0 -86 -18.5 -105.5t-80.5 -19.5h-104q-68 0 -85.5 21.5t-17.5 117.5zM522 1538h-145q-20 0 -21 16q0 4 4 13l99 172q12 23 57 22h234q20 0 22 -16v-4q0 -2 -8 -10l-189 -177q-16 -16 -53 -16z" glyph-name="Nacute" unicode="Ń"/><glyph d="M748 0h-78q-80 0 -99 16q-29 23 -28 99v536v27q0 49 -1 73.5t-7.5 56.5t-22.5 46t-43 14q-88 0 -88 -151v-443l10 -184q2 -57 -19.5 -73.5t-84.5 -16.5h-137h-10.5h-10.5t-10 1t-10.5 3t-9.5 6t-9 9.5t-6 13.5t-6 19t-3 25.5t-1 33.5v821l-4 121q-2 45 5 71.5t29.5 36.5 t38 12.5t56.5 2.5h116q35 0 52.5 -11.5t19.5 -23t2 -37.5v-14l10 -3q80 109 201 109q57 0 102.5 -19.5t71 -56.5t41.5 -73.5t22.5 -90t8.5 -85t2 -76.5v-631q0 -109 -19.5 -136.5t-80.5 -27.5zM473 1251h-145q-20 0 -21 17q0 4 4 12l99 172q12 23 57 23h233q20 0 23 -17v-4 q0 -2 -8 -10l-189 -176q-16 -17 -53 -17z" glyph-name="nacute" horiz-adv-x="923" unicode="ń"/><glyph d="M63 139v1184q0 98 21.5 125t75.5 27h186q39 0 55.5 -12.5t22.5 -41.5l12 -47q84 -317 174 -596h41v574q0 49 3 69.5t21.5 37t59.5 16.5h127q63 0 81 -20.5t15 -63.5l-2 -45v-1174q0 -92 -17 -132t-75 -40h-166q-63 0 -79.5 17.5t-43.5 107.5l-165 571h-41v-571 q0 -86 -18.5 -105.5t-80.5 -19.5h-104q-68 0 -85.5 21.5t-17.5 117.5zM670 -150v-135q0 -18 -21 -53l-88 -141q-16 -27 -57 -27h-80q-35 0 -35 14q0 20 6 29l17 27l55 96h-31q-39 0 -57.5 7t-21.5 18.5t-3 38.5v118q0 43 16.5 57.5t57.5 14.5h174q37 0 53 -18q15 -17 15 -46 z" glyph-name="Ncommaaccent" unicode="Ņ"/><glyph d="M748 0h-78q-80 0 -99 16q-29 23 -28 99v536v27q0 49 -1 73.5t-7.5 56.5t-22.5 46t-43 14q-88 0 -88 -151v-443l10 -184q2 -57 -19.5 -73.5t-84.5 -16.5h-137h-10.5h-10.5t-10 1t-10.5 3t-9.5 6t-9 9.5t-6 13.5t-6 19t-3 25.5t-1 33.5v821l-4 121q-2 45 5 71.5t29.5 36.5 t38 12.5t56.5 2.5h116q35 0 52.5 -11.5t19.5 -23t2 -37.5v-14l10 -3q80 109 201 109q57 0 102.5 -19.5t71 -56.5t41.5 -73.5t22.5 -90t8.5 -85t2 -76.5v-631q0 -109 -19.5 -136.5t-80.5 -27.5zM618 -150v-135q0 -18 -20 -53l-88 -141q-16 -27 -57 -27h-80q-35 0 -35 14 q0 20 6 29l16 27l56 96h-31q-39 0 -57.5 7t-21.5 18.5t-3 38.5v118q0 43 16.5 57.5t57.5 14.5h174q37 0 53 -18q14 -17 14 -46z" glyph-name="ncommaaccent" horiz-adv-x="923" unicode="ņ"/><glyph d="M63 139v1184q0 98 21.5 125t75.5 27h186q39 0 55.5 -12.5t22.5 -41.5l12 -47q84 -317 174 -596h41v574q0 49 3 69.5t21.5 37t59.5 16.5h127q63 0 81 -20.5t15 -63.5l-2 -45v-1174q0 -92 -17 -132t-75 -40h-166q-63 0 -79.5 17.5t-43.5 107.5l-165 571h-41v-571 q0 -86 -18.5 -105.5t-80.5 -19.5h-104q-68 0 -85.5 21.5t-17.5 117.5zM387 1561l-145 172q-4 4 -4 12q0 16 18 16h135q33 0 49 -16l58 -57q14 -14 28 0l54 57q16 16 49 16h135q12 0 16 -10t-2 -18l-139 -172q-18 -23 -51 -23h-150q-33 0 -51 23z" glyph-name="Ncaron" unicode="Ň"/><glyph d="M748 0h-78q-80 0 -99 16q-29 23 -28 99v536v27q0 49 -1 73.5t-7.5 56.5t-22.5 46t-43 14q-88 0 -88 -151v-443l10 -184q2 -57 -19.5 -73.5t-84.5 -16.5h-137h-10.5h-10.5t-10 1t-10.5 3t-9.5 6t-9 9.5t-6 13.5t-6 19t-3 25.5t-1 33.5v821l-4 121q-2 45 5 71.5t29.5 36.5 t38 12.5t56.5 2.5h116q35 0 52.5 -11.5t19.5 -23t2 -37.5v-14l10 -3q80 109 201 109q57 0 102.5 -19.5t71 -56.5t41.5 -73.5t22.5 -90t8.5 -85t2 -76.5v-631q0 -109 -19.5 -136.5t-80.5 -27.5zM338 1274l-145 172q-4 4 -5 12q0 16 19 17h135q33 0 49 -17l58 -57q14 -14 28 0 l53 57q16 16 50 17h135q12 0 16 -10.5t-2 -18.5l-139 -172q-18 -23 -51 -23h-150q-33 0 -51 23z" glyph-name="ncaron" horiz-adv-x="923" unicode="ň"/><glyph d="M981 924v-236q0 -330 -55 -465q-100 -248 -443 -248q-211 0 -319 146q-61 84 -87 221t-26 383q0 211 15.5 344t64.5 225q113 207 410 207q215 0 323 -127q74 -86 95.5 -194.5t21.5 -255.5zM416 934v-408q0 -137 26 -168q23 -29 64 -28q59 0 86 49q16 33 20 77t4 160v33 v346q0 70 -25.5 114t-72.5 44q-49 0 -74 -39q-28 -43 -28 -180zM309 1733h422q49 0 49 -33v-101q0 -29 -53 -28h-424q-39 0 -45 14q-2 6 -2 19v100q0 18 11 23.5t42 5.5z" glyph-name="Omacron" horiz-adv-x="1034" unicode="Ō"/><glyph d="M57 594q0 123 2 184.5t17.5 140t48.5 130.5q90 147 305 147q197 0 279 -122t82 -425q0 -145 -2.5 -211.5t-12.5 -141.5t-31 -124q-84 -193 -329 -192q-131 0 -205 54t-111 163q-43 127 -43 397zM352 778v-385q0 -94 72 -94q74 0 74 94v350q0 84 -17 107q-18 27 -57 27 q-72 -1 -72 -99zM217 1446h422q49 0 49 -33v-100q0 -29 -53 -29h-424q-39 0 -45 14q-2 6 -2 19v100q0 18 11 23.5t42 5.5z" glyph-name="omacron" horiz-adv-x="847" unicode="ō"/><glyph d="M981 924v-236q0 -330 -55 -465q-100 -248 -443 -248q-211 0 -319 146q-61 84 -87 221t-26 383q0 211 15.5 344t64.5 225q113 207 410 207q215 0 323 -127q74 -86 95.5 -194.5t21.5 -255.5zM416 934v-408q0 -137 26 -168q23 -29 64 -28q59 0 86 49q16 33 20 77t4 160v33 v346q0 70 -25.5 114t-72.5 44q-49 0 -74 -39q-28 -43 -28 -180zM293 1761h102q16 0 29 -30q20 -63 92 -64q31 0 50.5 10.5t25.5 19.5t14 29l6 15q8 20 31 20h105q20 0 20 -37q0 -80 -59 -131q-70 -59 -193 -59q-125 0 -190 57q-55 49 -62 129v15q4 26 29 26z" glyph-name="Obreve" horiz-adv-x="1034" unicode="Ŏ"/><glyph d="M57 594q0 123 2 184.5t17.5 140t48.5 130.5q90 147 305 147q197 0 279 -122t82 -425q0 -145 -2.5 -211.5t-12.5 -141.5t-31 -124q-84 -193 -329 -192q-131 0 -205 54t-111 163q-43 127 -43 397zM352 778v-385q0 -94 72 -94q74 0 74 94v350q0 84 -17 107q-18 27 -57 27 q-72 -1 -72 -99zM201 1475h102q16 0 29 -31q20 -63 92 -64q31 0 50.5 10.5t25.5 19.5t14 30l6 14q8 20 31 21h104q20 0 21 -37q0 -80 -60 -131q-70 -59 -192 -60q-125 0 -191 58q-55 49 -61 129v14q4 27 29 27z" glyph-name="obreve" horiz-adv-x="847" unicode="ŏ"/><glyph d="M981 924v-236q0 -330 -55 -465q-100 -248 -443 -248q-211 0 -319 146q-61 84 -87 221t-26 383q0 211 15.5 344t64.5 225q113 207 410 207q215 0 323 -127q74 -86 95.5 -194.5t21.5 -255.5zM416 934v-408q0 -137 26 -168q23 -29 64 -28q59 0 86 49q16 33 20 77t4 160v33 v346q0 70 -25.5 114t-72.5 44q-49 0 -74 -39q-28 -43 -28 -180zM242 1567l82 172q12 23 49 22h192q12 0 16.5 -10t-3.5 -20l-158 -177q-14 -16 -43 -16h-121q-8 0 -14 8.5t0 20.5zM596 1567l84 172q12 23 47 22h193q20 0 20 -16q0 -4 -4 -8l-4 -6l-158 -177q-14 -16 -43 -16 h-121q-8 0 -14 8.5t0 20.5z" glyph-name="Ohungarumlaut" horiz-adv-x="1034" unicode="Ő"/><glyph d="M57 594q0 123 2 184.5t17.5 140t48.5 130.5q90 147 305 147q197 0 279 -122t82 -425q0 -145 -2.5 -211.5t-12.5 -141.5t-31 -124q-84 -193 -329 -192q-131 0 -205 54t-111 163q-43 127 -43 397zM352 778v-385q0 -94 72 -94q74 0 74 94v350q0 84 -17 107q-18 27 -57 27 q-72 -1 -72 -99zM152 1280l81 172q12 23 50 23h192q12 0 16.5 -10.5t-4.5 -20.5l-157 -176q-14 -16 -43 -17h-121q-8 0 -14 8.5t0 20.5zM506 1280l84 172q12 23 47 23h192q20 0 21 -17q0 -4 -4 -8l-4 -6l-158 -176q-14 -16 -43 -17h-121q-8 0 -14 8.5t0 20.5z" glyph-name="ohungarumlaut" horiz-adv-x="847" unicode="ő"/><glyph d="M57 449v555q0 94 3 142t29 120.5t77 119.5q113 106 299 107q18 0 147 -14q37 -4 166 -4h344q27 0 42.5 -4.5t28.5 -27t13 -65.5v-125q0 -35 -6 -54t-33.5 -33.5t-83.5 -14.5h-155q-14 0 -24.5 -3t-20 -19.5t-9.5 -49.5v-41q0 -57 11.5 -78.5t52.5 -19.5l164 12 q37 2 59.5 -5t31.5 -25.5t11 -33t2 -38.5v-143q0 -94 -100 -91l-133 5q-37 2 -58.5 -14.5t-21.5 -39.5v-137q0 -80 74 -78l59 2h160q61 0 61 -108v-160q0 -49 -24.5 -67.5t-114.5 -18.5h-389l-43 2q-39 0 -90 -10q-88 -16 -146 -17q-188 0 -284 119q-99 122 -99 355z M401 1022v-545q0 -96 13.5 -128t64.5 -32q35 0 51.5 21.5t16.5 95.5v578q0 166 -76 166q-47 0 -58.5 -37t-11.5 -119z" glyph-name="OE" horiz-adv-x="1290" unicode="Œ"/><glyph d="M352 778v-385q0 -94 68 -94q78 0 78 104v340q0 74 -14.5 104t-65.5 30q-66 -1 -66 -99zM1141 469h-330q-12 0 -22.5 -8t-10.5 -19q0 -63 29 -98q41 -51 151 -51q66 0 123 35q29 18 47 18q31 0 51.5 -20.5t20.5 -55.5v-157q0 -47 -20 -66q-82 -63 -271 -63q-150 0 -247 69 q-102 -72 -246 -71q-233 0 -310 198q-49 127 -49 414q0 301 37 395q78 205 314 205q82 0 139 -18q18 -6 40.5 -16.5t37 -15.5t26.5 -5q14 0 43 15t62 26q39 12 100 12q213 0 309 -178q35 -70 43.5 -140.5t8.5 -240.5q0 -55 -3.5 -84t-20.5 -54.5t-52 -25.5zM819 709h64 q49 0 49 39v26q0 31 -2 49.5t-9.5 45t-27 40t-49.5 13.5q-68 0 -68 -115v-37q0 -61 43 -61z" glyph-name="oe" horiz-adv-x="1265" unicode="œ"/><glyph d="M76 133v1217q0 86 26.5 108.5t85.5 20.5l160 -4l225 6q170 6 269 -92q104 -106 104 -416q0 -205 -32.5 -305.5t-120.5 -151.5l186 -426q10 -16 10 -37q0 -27 -21.5 -44t-49.5 -13l-46 4h-174h-13h-11h-9.5t-8.5 2t-6 4t-7 7t-6 10.5t-7 13.5t-7.5 17t-10.5 24l-170 438 h-36v-432q0 -84 -68 -84h-182q-49 0 -64.5 21.5t-15.5 111.5zM397 1059l4 -146v-63q0 -61 31 -88q25 -18 62 -19q57 0 88 37q33 37 32 123q0 176 -28.5 221t-87.5 45q-49 0 -76 -26q-25 -27 -25 -84zM524 1538h-145q-20 0 -21 16q0 4 4 13l99 172q10 23 57 22h234 q20 0 22 -16v-4q0 -2 -8 -10l-188 -177q-17 -16 -54 -16z" glyph-name="Racute" horiz-adv-x="1007" unicode="Ŕ"/><glyph d="M311 0h-164q-29 0 -40 3t-23 27.5t-12 78.5v827l-4 119q-2 45 4 70.5t27.5 37t37 12.5t58.5 1h100q29 0 39 -4.5t18 -28t8 -76.5v-10l15 -2q12 51 43 98t65 47q63 0 64 -117v-219q0 -35 -6 -53t-13.5 -22.5t-21.5 -6.5l-14 -2q-53 -8 -80 -36.5t-27 -96.5v-375l8 -172 q2 -66 -14.5 -83t-67.5 -17zM305 1251h-145q-20 0 -21 17q0 4 4 12l99 172q12 23 57 23h233q20 0 23 -17v-4q0 -2 -8 -10l-189 -176q-16 -17 -53 -17z" glyph-name="racute" horiz-adv-x="567" unicode="ŕ"/><glyph d="M76 133v1217q0 86 26.5 108.5t85.5 20.5l160 -4l225 6q170 6 269 -92q104 -106 104 -416q0 -205 -32.5 -305.5t-120.5 -151.5l186 -426q10 -16 10 -37q0 -27 -21.5 -44t-49.5 -13l-46 4h-174h-13h-11h-9.5t-8.5 2t-6 4t-7 7t-6 10.5t-7 13.5t-7.5 17t-10.5 24l-170 438 h-36v-432q0 -84 -68 -84h-182q-49 0 -64.5 21.5t-15.5 111.5zM397 1059l4 -146v-63q0 -61 31 -88q25 -18 62 -19q57 0 88 37q33 37 32 123q0 176 -28.5 221t-87.5 45q-49 0 -76 -26q-25 -27 -25 -84zM672 -150v-135q0 -18 -21 -53l-88 -141q-16 -27 -57 -27h-80 q-35 0 -35 14q0 20 6 29l17 27l55 96h-31q-39 0 -57.5 7t-21.5 18.5t-3 38.5v118q0 43 16.5 57.5t57.5 14.5h174q37 0 53 -18q15 -17 15 -46z" glyph-name="Rcommaaccent" horiz-adv-x="1007" unicode="Ŗ"/><glyph d="M311 0h-164q-29 0 -40 3t-23 27.5t-12 78.5v827l-4 119q-2 45 4 70.5t27.5 37t37 12.5t58.5 1h100q29 0 39 -4.5t18 -28t8 -76.5v-10l15 -2q12 51 43 98t65 47q63 0 64 -117v-219q0 -35 -6 -53t-13.5 -22.5t-21.5 -6.5l-14 -2q-53 -8 -80 -36.5t-27 -96.5v-375l8 -172 q2 -66 -14.5 -83t-67.5 -17zM451 -150v-135q0 -18 -21 -53l-88 -141q-16 -27 -57 -27h-80q-35 0 -35 14q0 20 6 29l17 27l55 96h-31q-39 0 -57.5 7t-21.5 18.5t-3 38.5v118q0 43 16.5 57.5t57.5 14.5h174q37 0 53 -18q15 -17 15 -46z" glyph-name="rcommaaccent" horiz-adv-x="567" unicode="ŗ"/><glyph d="M76 133v1217q0 86 26.5 108.5t85.5 20.5l160 -4l225 6q170 6 269 -92q104 -106 104 -416q0 -205 -32.5 -305.5t-120.5 -151.5l186 -426q10 -16 10 -37q0 -27 -21.5 -44t-49.5 -13l-46 4h-174h-13h-11h-9.5t-8.5 2t-6 4t-7 7t-6 10.5t-7 13.5t-7.5 17t-10.5 24l-170 438 h-36v-432q0 -84 -68 -84h-182q-49 0 -64.5 21.5t-15.5 111.5zM397 1059l4 -146v-63q0 -61 31 -88q25 -18 62 -19q57 0 88 37q33 37 32 123q0 176 -28.5 221t-87.5 45q-49 0 -76 -26q-25 -27 -25 -84zM389 1561l-145 172q-4 4 -4 12q0 16 18 16h135q33 0 49 -16l58 -57 q14 -14 28 0l54 57q16 16 49 16h135q12 0 16 -10t-2 -18l-139 -172q-18 -23 -51 -23h-150q-33 0 -51 23z" glyph-name="Rcaron" horiz-adv-x="1007" unicode="Ř"/><glyph d="M311 0h-164q-29 0 -40 3t-23 27.5t-12 78.5v827l-4 119q-2 45 4 70.5t27.5 37t37 12.5t58.5 1h100q29 0 39 -4.5t18 -28t8 -76.5v-10l15 -2q12 51 43 98t65 47q63 0 64 -117v-219q0 -35 -6 -53t-13.5 -22.5t-21.5 -6.5l-14 -2q-53 -8 -80 -36.5t-27 -96.5v-375l8 -172 q2 -66 -14.5 -83t-67.5 -17zM170 1274l-145 172q-4 4 -5 12q0 16 19 17h135q33 0 49 -17l58 -57q14 -14 28 0l53 57q16 16 50 17h135q12 0 16 -10.5t-2 -18.5l-139 -172q-18 -23 -51 -23h-150q-33 0 -51 23z" glyph-name="rcaron" horiz-adv-x="567" unicode="ř"/><glyph d="M51 104v179q0 68 37 92q18 12 47 12q16 0 53 -16q84 -35 138 -35q59 0 84 26q20 25 20 64q0 18 -5 35.5t-10 29t-20.5 29t-24 24.5t-33 28.5t-32.5 29.5l-80 72q-172 154 -172 389q0 229 146 334q113 82 348 82q129 0 155 -29q23 -25 23 -102v-150q0 -70 -16 -86 q-23 -23 -88 -10l-41 10q-45 12 -76 12q-41 0 -68 -18q-29 -20 -28 -55q0 -29 18 -62q16 -25 33.5 -44t49.5 -49t36 -32l106 -102q74 -74 107 -152q35 -78 35 -190q0 -219 -105 -330q-59 -63 -135 -89t-197 -26q-188 0 -264 41q-41 20 -41 88zM432 1538h-145q-20 0 -21 16 q0 4 4 13l99 172q12 23 57 22h233q20 0 23 -16v-4q0 -2 -8 -10l-189 -177q-16 -16 -53 -16z" glyph-name="Sacute" horiz-adv-x="837" unicode="Ś"/><glyph d="M45 111v129q0 90 53 90q2 0 35 -8q47 -14 94 -15q57 0 76 29q12 18 12 45q0 23 -10 43t-18 28.5t-31 28.5l-23 21l-38 35q-147 133 -148 319q0 147 90 244q92 96 262 96q121 0 156 -22.5t35 -79.5v-119q0 -47 -20.5 -69.5t-49.5 -16.5l-18 4q-31 6 -39 6h-19 q-31 0 -53 -16q-20 -16 -20 -52q0 -20 18 -49q10 -16 35 -41l25 -24l61 -66q127 -137 127 -303q0 -174 -96 -270q-98 -98 -271 -98q-164 0 -200 38q-25 27 -25 93zM352 1251h-145q-20 0 -21 17q0 4 4 12l99 172q10 23 57 23h234q20 0 22 -17v-4q0 -2 -8 -10l-188 -176 q-17 -17 -54 -17z" glyph-name="sacute" horiz-adv-x="671" unicode="ś"/><glyph d="M51 104v179q0 68 37 92q18 12 47 12q16 0 53 -16q84 -35 138 -35q59 0 84 26q20 25 20 64q0 18 -5 35.5t-10 29t-20.5 29t-24 24.5t-33 28.5t-32.5 29.5l-80 72q-172 154 -172 389q0 229 146 334q113 82 348 82q129 0 155 -29q23 -25 23 -102v-150q0 -70 -16 -86 q-23 -23 -88 -10l-41 10q-45 12 -76 12q-41 0 -68 -18q-29 -20 -28 -55q0 -29 18 -62q16 -25 33.5 -44t49.5 -49t36 -32l106 -102q74 -74 107 -152q35 -78 35 -190q0 -219 -105 -330q-59 -63 -135 -89t-197 -26q-188 0 -264 41q-41 20 -41 88zM152 1567l145 172q18 23 51 22 h150q33 0 51 -22l139 -172q4 -6 4 -12.5t-5 -11.5t-13 -5h-135q-33 0 -50 16l-53 58q-14 14 -28 0l-58 -58q-16 -16 -49 -16h-135q-18 0 -19 16q1 9 5 13z" glyph-name="Scircumflex" horiz-adv-x="837" unicode="Ŝ"/><glyph d="M45 111v129q0 90 53 90q2 0 35 -8q47 -14 94 -15q57 0 76 29q12 18 12 45q0 23 -10 43t-18 28.5t-31 28.5l-23 21l-38 35q-147 133 -148 319q0 147 90 244q92 96 262 96q121 0 156 -22.5t35 -79.5v-119q0 -47 -20.5 -69.5t-49.5 -16.5l-18 4q-31 6 -39 6h-19 q-31 0 -53 -16q-20 -16 -20 -52q0 -20 18 -49q10 -16 35 -41l25 -24l61 -66q127 -137 127 -303q0 -174 -96 -270q-98 -98 -271 -98q-164 0 -200 38q-25 27 -25 93zM72 1280l145 172q18 23 51 23h150q33 0 51 -23l139 -172q4 -6 4 -12t-5 -11.5t-13 -5.5h-135q-33 0 -49 17 l-54 57q-14 14 -28 0l-58 -57q-16 -16 -49 -17h-135q-18 0 -18 17q0 8 4 12z" glyph-name="scircumflex" horiz-adv-x="671" unicode="ŝ"/><glyph d="M51 104v179q0 68 37 92q18 12 47 12q16 0 53 -16q74 -35 138 -35q104 0 104 90q0 16 -2 29.5t-10 28t-13.5 22.5t-20.5 23.5t-21.5 21.5t-29 25.5t-28.5 25.5l-80 72q-172 154 -172 389q0 416 461 416q45 0 79 -3t57.5 -5.5t39 -11.5t22.5 -14t11 -19.5t4 -21.5t-1 -26.5 t-1 -29.5v-150q0 -70 -16 -86q-23 -23 -88 -10l-41 10q-45 12 -76 12q-49 0 -72.5 -21.5t-23.5 -51.5q0 -29 18 -62q16 -25 33.5 -44t49.5 -49t36 -32l106 -102q141 -137 142 -342q0 -219 -105 -330q-104 -109 -262 -113v-8q0 -6 1 -12t4 -9t5 -6t7.5 -5.5t8.5 -3.5t10 -1h9 h10h11h26q78 0 121 -51q35 -37 35 -92q0 -82 -70 -119q-70 -39 -229.5 -39t-198.5 19l-16 8q-35 25 -35 70q0 39 33 39q8 0 27.5 -4.5t27.5 -6.5l35 -6q68 -12 133 -12q76 0 76 45q0 49 -68 49h-12q-45 0 -56.5 9t-11.5 38l2 96q-158 6 -219 41q-41 20 -41 88z" glyph-name="Scedilla" horiz-adv-x="843" unicode="Ş"/><glyph d="M51 104v179q0 68 37 92q18 12 47 12q16 0 53 -16q74 -35 138 -35q104 0 104 90q0 16 -2 29.5t-10 28t-13.5 22.5t-20.5 23.5t-21.5 21.5t-29 25.5t-28.5 25.5l-80 72q-172 154 -172 389q0 416 461 416q45 0 79 -3t57.5 -5.5t39 -11.5t22.5 -14t11 -19.5t4 -21.5t-1 -26.5 t-1 -29.5v-150q0 -70 -16 -86q-23 -23 -88 -10l-41 10q-45 12 -76 12q-49 0 -72.5 -21.5t-23.5 -51.5q0 -29 18 -62q16 -25 33.5 -44t49.5 -49t36 -32l106 -102q141 -137 142 -342q0 -219 -105 -330q-104 -109 -262 -113v-8q0 -6 1 -12t4 -9t5 -6t7.5 -5.5t8.5 -3.5t10 -1h9 h10h11h26q78 0 121 -51q35 -37 35 -92q0 -82 -70 -119q-70 -39 -229.5 -39t-198.5 19l-16 8q-35 25 -35 70q0 39 33 39q8 0 27.5 -4.5t27.5 -6.5l35 -6q68 -12 133 -12q76 0 76 45q0 49 -68 49h-12q-45 0 -56.5 9t-11.5 38l2 96q-158 6 -219 41q-41 20 -41 88z" glyph-name="Scedilla" horiz-adv-x="843" unicode=""/><glyph d="M45 111v129q0 90 53 90q31 0 57.5 -11.5t71.5 -11.5q88 0 88 74q0 23 -10 43t-18 29.5t-29.5 28t-24.5 20.5l-38 35q-147 131 -148 319q0 39 6 77t28.5 88t58.5 87t102.5 62.5t156.5 25.5q121 0 156 -22.5t35 -79.5v-119q0 -47 -20.5 -69.5t-49.5 -16.5l-18 4 q-31 6 -39 6h-19q-74 -4 -73 -68q0 -16 9 -34.5t17.5 -27.5t27.5 -28.5t24 -23.5l61 -66q127 -133 127 -303q0 -158 -86 -256t-227 -108v-15q0 -6 1 -12t4 -9t5 -6t7 -5.5t8 -3.5t10.5 -1h9.5h10h10h27q78 0 121 -51q35 -37 34 -92q0 -82 -69 -119q-70 -39 -229.5 -39 t-198.5 19q-8 4 -17 8q-35 25 -34 70q0 39 32 39q8 0 27.5 -4.5t28.5 -6.5l34 -6q68 -12 134 -12q76 0 75 45q0 49 -67 49h-13q-45 0 -56 9t-11 38l2 101q-86 0 -125 26.5t-39 104.5z" glyph-name="scedilla" horiz-adv-x="681" unicode="ş"/><glyph d="M45 111v129q0 90 53 90q31 0 57.5 -11.5t71.5 -11.5q88 0 88 74q0 23 -10 43t-18 29.5t-29.5 28t-24.5 20.5l-38 35q-147 131 -148 319q0 39 6 77t28.5 88t58.5 87t102.5 62.5t156.5 25.5q121 0 156 -22.5t35 -79.5v-119q0 -47 -20.5 -69.5t-49.5 -16.5l-18 4 q-31 6 -39 6h-19q-74 -4 -73 -68q0 -16 9 -34.5t17.5 -27.5t27.5 -28.5t24 -23.5l61 -66q127 -133 127 -303q0 -158 -86 -256t-227 -108v-15q0 -6 1 -12t4 -9t5 -6t7 -5.5t8 -3.5t10.5 -1h9.5h10h10h27q78 0 121 -51q35 -37 34 -92q0 -82 -69 -119q-70 -39 -229.5 -39 t-198.5 19q-8 4 -17 8q-35 25 -34 70q0 39 32 39q8 0 27.5 -4.5t28.5 -6.5l34 -6q68 -12 134 -12q76 0 75 45q0 49 -67 49h-13q-45 0 -56 9t-11 38l2 101q-86 0 -125 26.5t-39 104.5z" glyph-name="scedilla" horiz-adv-x="681" unicode=""/><glyph d="M51 104v179q0 68 37 92q18 12 47 12q16 0 53 -16q84 -35 138 -35q59 0 84 26q20 25 20 64q0 18 -5 35.5t-10 29t-20.5 29t-24 24.5t-33 28.5t-32.5 29.5l-80 72q-172 154 -172 389q0 229 146 334q113 82 348 82q129 0 155 -29q23 -25 23 -102v-150q0 -70 -16 -86 q-23 -23 -88 -10l-41 10q-45 12 -76 12q-41 0 -68 -18q-29 -20 -28 -55q0 -29 18 -62q16 -25 33.5 -44t49.5 -49t36 -32l106 -102q74 -74 107 -152q35 -78 35 -190q0 -219 -105 -330q-59 -63 -135 -89t-197 -26q-188 0 -264 41q-41 20 -41 88zM297 1561l-145 172q-4 4 -5 12 q0 16 19 16h135q33 0 49 -16l58 -57q14 -14 28 0l53 57q16 16 50 16h135q12 0 16 -10t-2 -18l-139 -172q-18 -23 -51 -23h-150q-33 0 -51 23z" glyph-name="Scaron" horiz-adv-x="837" unicode="Š"/><glyph d="M45 111v129q0 90 53 90q2 0 35 -8q47 -14 94 -15q57 0 76 29q12 18 12 45q0 23 -10 43t-18 28.5t-31 28.5l-23 21l-38 35q-147 133 -148 319q0 147 90 244q92 96 262 96q121 0 156 -22.5t35 -79.5v-119q0 -47 -20.5 -69.5t-49.5 -16.5l-18 4q-31 6 -39 6h-19 q-31 0 -53 -16q-20 -16 -20 -52q0 -20 18 -49q10 -16 35 -41l25 -24l61 -66q127 -137 127 -303q0 -174 -96 -270q-98 -98 -271 -98q-164 0 -200 38q-25 27 -25 93zM217 1274l-145 172q-4 4 -4 12q0 16 18 17h135q33 0 49 -17l58 -57q14 -14 28 0l54 57q16 16 49 17h135 q12 0 16 -10.5t-2 -18.5l-139 -172q-18 -23 -51 -23h-150q-33 0 -51 23z" glyph-name="scaron" horiz-adv-x="671" unicode="š"/><glyph d="M549 1085l2 -864l6 -135q4 -51 -25 -72q-18 -14 -49 -14h-43v-31q0 -6 1 -12t4.5 -9t5.5 -6t7 -5.5t8 -3.5t10 -1h9h10.5h10.5h26q78 0 121 -51q35 -37 35 -92q0 -82 -70 -119q-70 -39 -229.5 -39t-198.5 19l-16 8q-35 25 -35 70q0 39 33 39q8 0 27.5 -4.5t27.5 -6.5 l35 -6q68 -12 133 -12q76 0 76 45q0 49 -68 49h-12q-45 0 -56 9t-11 38l2 121h-21q-59 0 -76 20q-16 23 -16 52q0 14 2 43.5t2 70.5v531q0 250 2 373v12q0 33 -61 33h-58q-29 0 -47 8t-27.5 17t-13.5 35t-5 40t-1 53v76q0 111 96 111h86l218 -7l149 2q158 2 176 -6 q27 -10 27 -65v-25v-104q0 -82 -19.5 -108.5t-52.5 -26.5h-68q-41 0 -55 -10.5t-14 -39.5z" glyph-name="Tcommaaccent" horiz-adv-x="768" unicode="Ţ"/><glyph d="M121 291v530h-12q-31 0 -45.5 2t-29 13.5t-19.5 36t-5 67.5q0 113 17 139q20 35 73 35h21v172q0 49 3 74.5t20.5 36t26.5 11.5t48 1h33l115 2q25 0 40 -6t20 -23.5t6 -30t1 -42.5v-193h15q33 0 53 -6t28.5 -20.5t10.5 -25.5t2 -34v-121q0 -31 -2 -43t-11.5 -27.5 t-32 -18.5t-63.5 -1v-444q0 -47 37 -47h14q14 2 15 0q23 -2 29 -21.5t6 -58.5v-160q0 -41 -13.5 -61.5t-29 -23.5t-43.5 -3h-76v-31q0 -16 10 -26q12 -10 55 -11h27q78 0 121 -51q35 -37 35 -92q0 -82 -70 -119q-70 -39 -229.5 -39t-198.5 19q-8 4 -17 8q-35 25 -34 70 q0 39 32 39q8 0 28 -4.5t28 -6.5l35 -6q68 -12 133 -12q76 0 75 45q0 49 -67 49h-12q-27 0 -41.5 2t-19.5 10.5t-6 13.5t-1 21v127q-51 0 -86 31q-25 20 -36 69.5t-12 82t-1 102.5z" glyph-name="tcommaaccent" horiz-adv-x="583" unicode="ţ"/><glyph d="M549 1085l2 -864l6 -135q4 -86 -74 -86h-49l-129 -4q-96 0 -92 82l4 108v531q0 250 2 373v12q0 33 -61 33h-58q-29 0 -47 8t-27.5 17t-13.5 35t-5 40t-1 53v76q0 111 96 111h86l218 -7l149 2q18 0 53 2.5t56.5 2.5t44 -3.5t32.5 -13.5q16 -16 17 -84v-104 q0 -82 -19.5 -108.5t-52.5 -26.5h-68q-41 0 -55 -10.5t-14 -39.5zM260 1561l-145 172q-4 4 -4 12q0 16 18 16h135q33 0 49 -16l58 -57q14 -14 28 0l54 57q16 16 49 16h135q12 0 16 -10t-2 -18l-139 -172q-18 -23 -51 -23h-150q-33 0 -51 23z" glyph-name="Tcaron" horiz-adv-x="761" unicode="Ť"/><glyph d="M121 291v530h-12q-61 0 -82 25q-16 20 -17 94q0 113 17 139q20 35 73 35h21v172q0 49 3 74.5t20.5 36t26.5 11.5t48 1h33l115 2q25 0 40 -6t20 -23.5t6 -30t1 -42.5v-193h15q33 0 53 -6t28.5 -20.5t10.5 -25.5t2 -34v-121q0 -61 -17 -75q-23 -20 -92 -15v-444 q0 -47 37 -47h14q14 2 15 0q23 -2 29 -21.5t6 -58.5v-160q0 -41 -13.5 -61.5t-29 -23.5t-43.5 -3h-82q-158 0 -197 37q-25 23 -36 71t-12 80.5t-1 102.5zM842 1407v-205q0 -18 -19 -55l-82 -148q-12 -25 -55 -24h-74q-47 0 -26 43l14 29q10 23 18.5 36t10.5 17t5 8t6 12 t11 25h-28q-37 0 -54.5 9t-19.5 20.5t-2 37.5v205q0 18 3 28.5t18.5 20t45.5 9.5h164q33 0 48.5 -13.5t15.5 -54.5z" glyph-name="tcaron" horiz-adv-x="792" unicode="ť"/><glyph d="M63 539v790q0 90 14.5 118t63.5 28h168q37 0 52.5 -5.5t25.5 -30t10 -77.5v-899q0 -141 109 -141q111 0 110 112v924q0 29 1 41t9.5 34.5t30 32t58.5 9.5h159q74 0 74 -107v-893q0 -264 -119 -387q-111 -113 -354 -113q-233 0 -336 142q-35 49 -52 124.5t-20.5 131 t-3.5 166.5zM301 1733h422q49 0 49 -33v-101q0 -29 -53 -28h-424q-39 0 -45 14q-2 6 -2 19v100q0 18 11 23.5t42 5.5z" glyph-name="Umacron" horiz-adv-x="1015" unicode="Ū"/><glyph d="M166 1176h78q47 0 72.5 -5.5t38 -21.5t14.5 -31.5t2 -54.5v-539v-26q0 -49 1 -74t7 -56.5t22.5 -46t42.5 -14.5q88 0 88 152v442l-10 184q-2 57 19.5 74t85.5 17h137q29 0 40 -3.5t23.5 -28t12.5 -77.5v-823l4 -121q2 -47 -4 -72.5t-29 -36t-38 -12.5t-58 -2h-117 q-35 0 -52.5 11.5t-19.5 22.5t-2 38v14l-10 2q-72 -104 -201 -104q-57 0 -102 19.5t-70.5 56t-42 73.5t-22.5 89t-8 83t-2 76v631q0 109 19.5 136.5t80.5 27.5zM256 1446h422q49 0 49 -33v-100q0 -29 -53 -29h-424q-39 0 -45 14q-2 6 -2 19v100q0 18 11 23.5t42 5.5z" glyph-name="umacron" horiz-adv-x="915" unicode="ū"/><glyph d="M63 539v790q0 90 14.5 118t63.5 28h168q37 0 52.5 -5.5t25.5 -30t10 -77.5v-899q0 -141 109 -141q111 0 110 112v924q0 29 1 41t9.5 34.5t30 32t58.5 9.5h159q74 0 74 -107v-893q0 -264 -119 -387q-111 -113 -354 -113q-233 0 -336 142q-35 49 -52 124.5t-20.5 131 t-3.5 166.5zM285 1761h102q16 0 29 -30q20 -63 92 -64q31 0 50.5 10.5t25.5 19.5t14 29l6 15q8 20 31 20h104q20 0 21 -37q0 -80 -60 -131q-70 -59 -192 -59q-125 0 -191 57q-55 49 -61 129v15q4 26 29 26z" glyph-name="Ubreve" horiz-adv-x="1015" unicode="Ŭ"/><glyph d="M166 1176h78q47 0 72.5 -5.5t38 -21.5t14.5 -31.5t2 -54.5v-539v-26q0 -49 1 -74t7 -56.5t22.5 -46t42.5 -14.5q88 0 88 152v442l-10 184q-2 57 19.5 74t85.5 17h137q29 0 40 -3.5t23.5 -28t12.5 -77.5v-823l4 -121q2 -47 -4 -72.5t-29 -36t-38 -12.5t-58 -2h-117 q-35 0 -52.5 11.5t-19.5 22.5t-2 38v14l-10 2q-72 -104 -201 -104q-57 0 -102 19.5t-70.5 56t-42 73.5t-22.5 89t-8 83t-2 76v631q0 109 19.5 136.5t80.5 27.5zM240 1475h102q16 0 29 -31q20 -63 92 -64q31 0 50 10.5t25.5 19.5t14.5 30l6 14q8 20 31 21h104q20 0 21 -37 q0 -80 -60 -131q-70 -59 -192 -60q-125 0 -191 58q-55 49 -61 129v14q4 27 29 27z" glyph-name="ubreve" horiz-adv-x="915" unicode="ŭ"/><glyph d="M63 539v790q0 90 14.5 118t63.5 28h168q37 0 52.5 -5.5t25.5 -30t10 -77.5v-899q0 -141 109 -141q111 0 110 112v924q0 29 1 41t9.5 34.5t30 32t58.5 9.5h159q74 0 74 -107v-893q0 -264 -119 -387q-111 -113 -354 -113q-233 0 -336 142q-35 49 -52 124.5t-20.5 131 t-3.5 166.5zM293 1753q0 88 63.5 150.5t151.5 62.5t151.5 -62.5t63.5 -150.5t-63.5 -151.5t-151.5 -63.5t-151.5 63.5t-63.5 151.5zM426 1753q0 -35 22.5 -58.5t59.5 -23.5q35 0 58.5 22.5t23.5 57.5q0 39 -25.5 60.5t-56.5 21.5q-33 0 -57.5 -22.5t-24.5 -57.5z" glyph-name="Uring" horiz-adv-x="1015" unicode="Ů"/><glyph d="M166 1176h78q47 0 72.5 -5.5t38 -21.5t14.5 -31.5t2 -54.5v-539v-26q0 -49 1 -74t7 -56.5t22.5 -46t42.5 -14.5q88 0 88 152v442l-10 184q-2 57 19.5 74t85.5 17h137q29 0 40 -3.5t23.5 -28t12.5 -77.5v-823l4 -121q2 -47 -4 -72.5t-29 -36t-38 -12.5t-58 -2h-117 q-35 0 -52.5 11.5t-19.5 22.5t-2 38v14l-10 2q-72 -104 -201 -104q-57 0 -102 19.5t-70.5 56t-42 73.5t-22.5 89t-8 83t-2 76v631q0 109 19.5 136.5t80.5 27.5zM248 1466q0 88 63.5 150.5t151.5 62.5t151.5 -62.5t63.5 -150.5t-63.5 -151.5t-151.5 -63.5t-151.5 63.5 t-63.5 151.5zM381 1466.5q0 -34.5 22.5 -58.5t59.5 -24q35 0 58.5 23t23.5 57q0 39 -25.5 60.5t-56.5 21.5q-33 0 -57.5 -22.5t-24.5 -57z" glyph-name="uring" horiz-adv-x="915" unicode="ů"/><glyph d="M63 539v790q0 90 14.5 118t63.5 28h168q37 0 52.5 -5.5t25.5 -30t10 -77.5v-899q0 -141 109 -141q111 0 110 112v924q0 29 1 41t9.5 34.5t30 32t58.5 9.5h159q74 0 74 -107v-893q0 -264 -119 -387q-111 -113 -354 -113q-233 0 -336 142q-35 49 -52 124.5t-20.5 131 t-3.5 166.5zM190 1565l82 172q10 23 50 22h192q12 0 16.5 -11t-4.5 -19l-157 -177q-14 -16 -43 -16h-121q-8 0 -14.5 8.5t-0.5 20.5zM545 1565l84 172q10 23 47 22h192q20 0 21 -16q0 -4 -4 -10l-4 -4l-158 -177q-14 -16 -43 -16h-121q-8 0 -14 8.5t0 20.5z" glyph-name="Uhungarumlaut" horiz-adv-x="1015" unicode="Ű"/><glyph d="M166 1176h78q47 0 72.5 -5.5t38 -21.5t14.5 -31.5t2 -54.5v-539v-26q0 -49 1 -74t7 -56.5t22.5 -46t42.5 -14.5q88 0 88 152v442l-10 184q-2 57 19.5 74t85.5 17h137q29 0 40 -3.5t23.5 -28t12.5 -77.5v-823l4 -121q2 -47 -4 -72.5t-29 -36t-38 -12.5t-58 -2h-117 q-35 0 -52.5 11.5t-19.5 22.5t-2 38v14l-10 2q-72 -104 -201 -104q-57 0 -102 19.5t-70.5 56t-42 73.5t-22.5 89t-8 83t-2 76v631q0 109 19.5 136.5t80.5 27.5zM176 1280l82 172q12 23 49 23h193q12 0 16 -10.5t-4 -20.5l-158 -176q-14 -16 -43 -17h-121q-8 0 -14 8.5 t0 20.5zM530 1280l84 172q12 23 48 23h192q20 0 20 -17q0 -4 -4 -8l-4 -6l-157 -176q-14 -16 -43 -17h-121q-8 0 -14.5 8.5t-0.5 20.5z" glyph-name="uhungarumlaut" horiz-adv-x="915" unicode="ű"/><glyph d="M63 539v790q0 90 14.5 118t63.5 28h168q37 0 52.5 -5.5t25.5 -30t10 -77.5v-899q0 -141 109 -141q111 0 110 112v924q0 29 1 41t9.5 34.5t30 32t58.5 9.5h159q74 0 74 -107v-893q0 -246 -86 -358q-49 -68 -129 -94q-43 -43 -65 -89q-23 -43 -23 -96q0 -35 12.5 -55.5 t14.5 -26.5v-10q-4 -12 -23 -12h-172q-31 0 -43 12q-16 14 -16 68q0 90 90 161q-262 -6 -369 142q-35 49 -52 124.5t-20.5 131t-3.5 166.5z" glyph-name="Uogonek" horiz-adv-x="1015" unicode="Ų"/><glyph d="M166 1176h78q47 0 72.5 -5.5t38 -21.5t14.5 -31.5t2 -54.5v-539v-26q0 -49 1 -74t7 -56.5t22.5 -46t42.5 -14.5q88 0 88 152v442l-10 184q-2 57 19.5 74t85.5 17h137q29 0 40 -3.5t23.5 -28t12.5 -77.5v-823q0 -45 2 -68q0 -12 1 -32.5t1 -32.5q0 -59 -17 -82 q-18 -20 -49 -29q-35 -29 -51 -61q-23 -45 -22 -101q0 -25 5 -39t12 -23t9 -20v-10q-4 -12 -22 -12h-172q-31 0 -43 12q-16 14 -17 68q0 98 119 186h-18q-27 0 -41 18q-12 16 -13 54v14l-10 2q-29 -45 -80 -74q-57 -31 -121 -30q-123 0 -186 94q-61 90 -61 303v631 q0 109 19.5 136.5t80.5 27.5z" glyph-name="uogonek" horiz-adv-x="923" unicode="ų"/><glyph d="M446 924h17l65 415q14 106 52 123q29 12 153 13h68q98 0 98 -54q0 -23 -18 -78l-232 -702q-29 -86 -28 -190v-295l4 -88q2 -35 -14.5 -51.5t-73.5 -16.5h-80l-117 -2q-39 0 -51 20q-6 10 -8 24.5t0 47.5t2 53v379q0 61 -23 123l-237 696q-16 33 -17 76q0 57 76 58 q16 0 48 -2.5t46 -2.5t47 2.5t49 2.5q39 0 61.5 -13.5t29 -28t10.5 -40.5zM391 1710v-127q0 -35 -53 -35h-125q-31 0 -40 9.5t-9 29.5v127q0 37 53 37h125q49 0 49 -41zM729 1710v-127q0 -35 -53 -35h-127q-47 0 -47 39v127q0 37 53 37h125q49 0 49 -41z" glyph-name="Ydieresis" horiz-adv-x="890" unicode="Ÿ"/><glyph d="M762 1190l-328 -801q-10 -23 -10 -35q0 -16 70 -16h94q63 0 112 6l31 2q20 2 37.5 -17.5t19.5 -56.5q2 -23 -1 -63.5t-3 -54.5q0 -10 1 -30t1 -30q0 -35 -6 -55.5t-20.5 -28.5t-22.5 -9t-26 -1h-123q-27 0 -81 2t-81 2q-41 0 -121 -4t-121 -4h-86q-18 0 -28.5 3 t-20.5 22.5t-10 56.5v168q0 29 6 55.5t12 42.5t20.5 48t22.5 50l115 277q8 18 94 211q61 137 66 149q10 35 10 41q0 8 -4 14.5t-13.5 8.5t-14.5 2h-19h-15l-178 -4q-47 -2 -66.5 23.5t-17.5 88.5q0 8 1 20.5t1 20.5q0 16 -1 51t-1 52q2 39 22.5 58.5t88.5 19.5h545 q39 0 51 -13q20 -20 20 -116v-74q1 -27 -22 -82zM428 1538h-145q-20 0 -21 16q0 4 4 13l99 172q12 23 57 22h233q20 0 23 -16v-4q0 -2 -8 -10l-189 -177q-16 -16 -53 -16z" glyph-name="Zacute" horiz-adv-x="833" unicode="Ź"/><glyph d="M639 203v-90q0 -70 -12.5 -91.5t-42.5 -21.5q-6 0 -60 4q-6 0 -53 2t-61 2q-68 0 -121 -2t-93 -6t-57 -4l-45 -2q-39 -2 -51 19.5t-12 68.5v68q0 66 18 112l51 135q14 41 52 132.5t53 129.5q43 111 55 138q20 53 21 69q0 8 -3.5 13.5t-11.5 7.5t-14 2t-22.5 -2t-24.5 -2 l-86 -2q-16 0 -28.5 2t-20 7t-11.5 9t-6 13.5t-2 12.5v14v13v58q0 14 -2 29.5t-2 37.5q0 66 26.5 83.5t90.5 17.5q57 0 145 -4q35 0 71 -2.5t48 -2.5q35 0 68.5 3.5t38.5 3.5l38 2q31 2 41.5 -21.5t10.5 -79.5v-63q0 -39 -13 -84q-8 -29 -22.5 -61.5t-16.5 -36.5l-165 -441 q-12 -37 -13 -39v-8q0 -25 62 -24q49 0 104 6l31 4q16 2 26.5 -10.5t14.5 -38t5 -40.5t1 -40zM346 1251h-145q-20 0 -21 17q0 4 4 12l99 172q12 23 57 23h233q20 0 23 -17v-4q0 -2 -8 -10l-189 -176q-16 -17 -53 -17z" glyph-name="zacute" horiz-adv-x="669" unicode="ź"/><glyph d="M762 1190l-328 -801q-10 -23 -10 -35q0 -16 70 -16h94q63 0 112 6l31 2q20 2 37.5 -17.5t19.5 -56.5q2 -23 -1 -63.5t-3 -54.5q0 -10 1 -30t1 -30q0 -35 -6 -55.5t-20.5 -28.5t-22.5 -9t-26 -1h-123q-27 0 -81 2t-81 2q-41 0 -121 -4t-121 -4h-86q-18 0 -28.5 3 t-20.5 22.5t-10 56.5v168q0 29 6 55.5t12 42.5t20.5 48t22.5 50l115 277q8 18 94 211q61 137 66 149q10 35 10 41q0 8 -4 14.5t-13.5 8.5t-14.5 2h-19h-15l-178 -4q-47 -2 -66.5 23.5t-17.5 88.5q0 8 1 20.5t1 20.5q0 16 -1 51t-1 52q2 39 22.5 58.5t88.5 19.5h545 q39 0 51 -13q20 -20 20 -116v-74q1 -27 -22 -82zM543 1710v-127q0 -10 -2 -16t-15.5 -12.5t-40.5 -6.5h-141q-18 0 -26.5 1t-17.5 10.5t-9 27.5v127q0 37 59 37h139q54 0 54 -41z" glyph-name="Zdotaccent" horiz-adv-x="833" unicode="Ż"/><glyph d="M639 203v-90q0 -70 -12.5 -91.5t-42.5 -21.5q-6 0 -60 4q-6 0 -53 2t-61 2q-68 0 -121 -2t-93 -6t-57 -4l-45 -2q-39 -2 -51 19.5t-12 68.5v68q0 66 18 112l51 135q14 41 52 132.5t53 129.5q43 111 55 138q20 53 21 69q0 8 -3.5 13.5t-11.5 7.5t-14 2t-22.5 -2t-24.5 -2 l-86 -2q-16 0 -28.5 2t-20 7t-11.5 9t-6 13.5t-2 12.5v14v13v58q0 14 -2 29.5t-2 37.5q0 66 26.5 83.5t90.5 17.5q57 0 145 -4q35 0 71 -2.5t48 -2.5q35 0 68.5 3.5t38.5 3.5l38 2q31 2 41.5 -21.5t10.5 -79.5v-63q0 -39 -13 -84q-8 -29 -22.5 -61.5t-16.5 -36.5l-165 -441 q-12 -37 -13 -39v-8q0 -25 62 -24q49 0 104 6l31 4q16 2 26.5 -10.5t14.5 -38t5 -40.5t1 -40zM461 1423v-127q0 -10 -2 -16t-15.5 -12t-40.5 -6h-141q-18 0 -26.5 1t-17.5 10t-9 27v127q0 37 59 37h140q53 0 53 -41z" glyph-name="zdotaccent" horiz-adv-x="669" unicode="ż"/><glyph d="M762 1190l-328 -801q-10 -23 -10 -35q0 -16 70 -16h94q63 0 112 6l31 2q20 2 37.5 -17.5t19.5 -56.5q2 -23 -1 -63.5t-3 -54.5q0 -10 1 -30t1 -30q0 -35 -6 -55.5t-20.5 -28.5t-22.5 -9t-26 -1h-123q-27 0 -81 2t-81 2q-41 0 -121 -4t-121 -4h-86q-18 0 -28.5 3 t-20.5 22.5t-10 56.5v168q0 29 6 55.5t12 42.5t20.5 48t22.5 50l115 277q8 18 94 211q61 137 66 149q10 35 10 41q0 8 -4 14.5t-13.5 8.5t-14.5 2h-19h-15l-178 -4q-47 -2 -66.5 23.5t-17.5 88.5q0 8 1 20.5t1 20.5q0 16 -1 51t-1 52q2 39 22.5 58.5t88.5 19.5h545 q39 0 51 -13q20 -20 20 -116v-74q1 -27 -22 -82zM293 1561l-146 172q-4 4 -4 12q0 16 19 16h135q33 0 49 -16l57 -57q14 -14 29 0l53 57q16 16 50 16h135q12 0 16 -10t-2 -18l-139 -172q-18 -23 -51 -23h-150q-33 0 -51 23z" glyph-name="Zcaron" horiz-adv-x="833" unicode="Ž"/><glyph d="M639 203v-90q0 -70 -12.5 -91.5t-42.5 -21.5q-6 0 -60 4q-6 0 -53 2t-61 2q-68 0 -121 -2t-93 -6t-57 -4l-45 -2q-39 -2 -51 19.5t-12 68.5v68q0 66 18 112l51 135q14 41 52 132.5t53 129.5q43 111 55 138q20 53 21 69q0 8 -3.5 13.5t-11.5 7.5t-14 2t-22.5 -2t-24.5 -2 l-86 -2q-16 0 -28.5 2t-20 7t-11.5 9t-6 13.5t-2 12.5v14v13v58q0 14 -2 29.5t-2 37.5q0 66 26.5 83.5t90.5 17.5q57 0 145 -4q35 0 71 -2.5t48 -2.5q35 0 68.5 3.5t38.5 3.5l38 2q31 2 41.5 -21.5t10.5 -79.5v-63q0 -39 -13 -84q-8 -29 -22.5 -61.5t-16.5 -36.5l-165 -441 q-12 -37 -13 -39v-8q0 -25 62 -24q49 0 104 6l31 4q16 2 26.5 -10.5t14.5 -38t5 -40.5t1 -40zM211 1274l-145 172q-4 4 -5 12q0 16 19 17h135q33 0 49 -17l58 -57q14 -14 28 0l53 57q16 16 50 17h135q12 0 16 -10.5t-2 -18.5l-139 -172q-18 -23 -51 -23h-150q-33 0 -51 23z " glyph-name="zcaron" horiz-adv-x="669" unicode="ž"/><glyph d="M283 725h-168q-33 0 -33 33v145q0 27 27 27h174v170q0 125 22.5 205.5t71.5 124t112.5 58.5t161.5 15h45q90 0 112.5 -9t22.5 -44v-190v-18.5t-5 -14.5t-17 -12.5t-35 -2.5h-20q-14 0 -58 -6q-31 -6 -48 -16t-25.5 -36t-9.5 -46.5t-1 -71.5v-20v-86h189q31 0 30 -33v-145 q0 -27 -24 -27h-195v-506q0 -295 -145 -371q-16 -8 -34.5 -14t-42 -10t-40 -7t-47.5 -4t-45 -1t-52 -1t-50 -1h-31q-51 2 -51 38v203q0 35 13 45t60 13q47 0 65.5 3t39 18t26 48t5.5 92v455z" glyph-name="florin" horiz-adv-x="915" unicode="ƒ"/><glyph d="M184 1475h95q84 0 102 -22.5t18 -133.5l-6 -973l4 -225q2 -76 -22.5 -98.5t-108.5 -22.5h-71q-45 0 -58.5 1t-37 10t-31 33t-7.5 65v110q0 20 3.5 54t1.5 116q-4 266 4 776v62q0 10 -2 41.5t0 50.5q2 25 0 29t-2 14v20q0 61 20 77t98 16zM109 1561l-146 172q-4 4 -4 12 q0 16 18 16h136q33 0 49 -16l57 -57q14 -14 29 0l53 57q16 16 49 16h135q12 0 16.5 -10t-1.5 -18l-140 -172q-18 -23 -51 -23h-149q-33 0 -51 23z" glyph-name="uni01CF" horiz-adv-x="464" unicode="Ǐ"/><glyph d="M70 90v901l-2 92q-2 59 21.5 76t88.5 17h39l84 4q49 2 69.5 -10.5t20.5 -53.5v-1020q0 -70 -15.5 -86t-60.5 -14l-88 4l-100 -2q-23 0 -35 4t-17 21.5t-5 25.5v41zM109 1274l-146 172q-4 4 -4 12q0 16 18 17h136q33 0 49 -17l57 -57q14 -14 29 0l53 57q16 16 49 17h135 q12 0 16.5 -10.5t-1.5 -18.5l-140 -172q-18 -23 -51 -23h-149q-33 0 -51 23z" glyph-name="uni01D0" horiz-adv-x="466" unicode="ǐ"/><glyph d="M885 801v-645q0 -57 -5.5 -79t-23.5 -38q-72 -63 -266 -64q-240 0 -398.5 184.5t-158.5 536.5q0 367 170 580q160 199 434 199q145 0 188 -39q43 -37 43 -111v-78q0 -135 -73 -135q-12 0 -37 6t-35 8q-37 8 -78 9q-156 0 -221 -138q-43 -86 -43 -262q0 -160 29 -268 q37 -131 129 -131q29 0 44 19.5t17 39t2 54.5v114q0 6 -1 10.5t-3 8.5t-4 7t-6 6t-6 5t-7.5 5t-7.5 4t-7 3t-7 2q-66 31 -61 115l4 98q6 72 26 93q27 27 111 26h119q33 0 51 -3t39.5 -16.5t32 -44t10.5 -81.5zM416 1561l-146 172q-4 4 -4 12q0 16 19 16h135q33 0 49 -16 l57 -57q14 -14 29 0l53 57q16 16 49 16h136q12 0 16 -10t-2 -18l-139 -172q-18 -23 -52 -23h-149q-33 0 -51 23z" glyph-name="Gcaron" horiz-adv-x="948" unicode="Ǧ"/><glyph d="M487 616v172q0 92 -73 93q-37 0 -55.5 -33t-20.5 -64.5t-2 -91.5v-12v-12q0 -49 2 -75t8 -60.5t24.5 -51t49.5 -16.5t46 20.5t18 42t3 60.5v10v18zM768 1071l2 -887q0 -106 -14.5 -158.5t-65.5 -97.5q-117 -104 -360 -104q-66 0 -103 6q-61 10 -82 33q-27 29 -26 117v6 q0 131 63 131q6 0 62 -23q53 -23 106 -22q72 0 103 34q27 31 26 82v9l-2 45q-74 -59 -143 -60q-113 0 -184 92q-94 125 -94.5 399.5t79.5 401.5q70 113 201 113q80 0 143 -76v18q0 45 35 46h197h6q51 -1 51 -105zM299 1274l-145 172q-4 4 -4 12q0 16 18 17h135q33 0 49 -17 l58 -57q14 -14 28 0l54 57q16 16 49 17h135q12 0 16 -10.5t-2 -18.5l-139 -172q-18 -23 -51 -23h-150q-33 0 -51 23z" glyph-name="gcaron" horiz-adv-x="845" unicode="ǧ"/><glyph d="M51 104v179q0 68 37 92q18 12 47 12q16 0 53 -16q84 -35 138 -35q59 0 84 26q20 25 20 64q0 18 -5 35.5t-10 29t-20.5 29t-24 24.5t-33 28.5t-32.5 29.5l-80 72q-172 154 -172 389q0 229 146 334q113 82 348 82q129 0 155 -29q23 -25 23 -102v-150q0 -70 -16 -86 q-23 -23 -88 -10l-41 10q-45 12 -76 12q-41 0 -68 -18q-29 -20 -28 -55q0 -29 18 -62q16 -25 33.5 -44t49.5 -49t36 -32l106 -102q74 -74 107 -152q35 -78 35 -190q0 -219 -105 -330q-59 -63 -135 -89t-197 -26q-188 0 -264 41q-41 20 -41 88zM580 -150v-135q0 -18 -21 -53 l-88 -141q-16 -27 -57 -27h-80q-35 0 -35 14q0 20 6 29l17 27l55 96h-31q-39 0 -57.5 7t-21.5 18.5t-3 38.5v118q0 43 16.5 57.5t57.5 14.5h174q37 0 53 -18q15 -17 15 -46z" glyph-name="Scommaaccent" horiz-adv-x="837" unicode="Ș"/><glyph d="M45 111v129q0 90 53 90q2 0 35 -8q47 -14 94 -15q57 0 76 29q12 18 12 45q0 23 -10 43t-18 28.5t-31 28.5l-23 21l-38 35q-147 133 -148 319q0 147 90 244q92 96 262 96q121 0 156 -22.5t35 -79.5v-119q0 -47 -20.5 -69.5t-49.5 -16.5l-18 4q-31 6 -39 6h-19 q-31 0 -53 -16q-20 -16 -20 -52q0 -20 18 -49q10 -16 35 -41l25 -24l61 -66q127 -137 127 -303q0 -174 -96 -270q-98 -98 -271 -98q-164 0 -200 38q-25 27 -25 93zM498 -150v-135q0 -18 -21 -53l-88 -141q-16 -27 -57 -27h-80q-35 0 -35 14q0 20 6 29l17 27l55 96h-31 q-39 0 -57.5 7t-21.5 18.5t-3 38.5v118q0 43 16.5 57.5t57.5 14.5h174q37 0 53 -18q15 -17 15 -46z" glyph-name="scommaaccent" horiz-adv-x="671" unicode="ș"/><glyph d="M549 1085l2 -864l6 -135q4 -86 -74 -86h-49l-129 -4q-96 0 -92 82l4 108v531q0 250 2 373v12q0 33 -61 33h-58q-29 0 -47 8t-27.5 17t-13.5 35t-5 40t-1 53v76q0 111 96 111h86l218 -7l149 2q18 0 53 2.5t56.5 2.5t44 -3.5t32.5 -13.5q16 -16 17 -84v-104 q0 -82 -19.5 -108.5t-52.5 -26.5h-68q-41 0 -55 -10.5t-14 -39.5zM541 -150v-135q0 -18 -21 -53l-88 -141q-16 -27 -57 -27h-80q-35 0 -35 14q0 20 6 29l17 27l55 96h-31q-39 0 -57.5 7t-21.5 18.5t-3 38.5v118q0 43 16.5 57.5t57.5 14.5h174q37 0 53 -18q15 -17 15 -46z " glyph-name="uni021A" horiz-adv-x="761" unicode="Ț"/><glyph d="M121 291v530h-12q-61 0 -82 25q-16 20 -17 94q0 113 17 139q20 35 73 35h21v172q0 49 3 74.5t20.5 36t26.5 11.5t48 1h33l115 2q25 0 40 -6t20 -23.5t6 -30t1 -42.5v-193h15q33 0 53 -6t28.5 -20.5t10.5 -25.5t2 -34v-121q0 -61 -17 -75q-23 -20 -92 -15v-444 q0 -47 37 -47h14q14 2 15 0q23 -2 29 -21.5t6 -58.5v-160q0 -41 -13.5 -61.5t-29 -23.5t-43.5 -3h-82q-158 0 -197 37q-25 23 -36 71t-12 80.5t-1 102.5zM487 -150v-135q0 -18 -20 -53l-88 -141q-16 -27 -57 -27h-80q-35 0 -35 14q0 20 6 29l16 27l56 96h-31q-39 0 -57.5 7 t-21.5 18.5t-3 38.5v118q0 43 16.5 57.5t57.5 14.5h174q37 0 53 -18q14 -17 14 -46z" glyph-name="uni021B" horiz-adv-x="583" unicode="ț"/><glyph d="M358 1407v-205q0 -18 -18 -55l-82 -148q-12 -25 -55 -24h-74q-47 0 -27 43l15 29q10 23 18 36t10 17t5.5 8t6.5 12t11 25h-29q-37 0 -54 9t-19.5 20.5t-2.5 37.5v205q0 18 3.5 28.5t18.5 20t46 9.5h164q33 0 48 -13.5t15 -54.5z" glyph-name="afii57929" horiz-adv-x="419" unicode="ʼ"/><glyph d="M242 1280l145 172q18 23 51 23h150q33 0 51 -23l139 -172q4 -6 4 -12t-5 -11.5t-13 -5.5h-135q-33 0 -49 17l-54 57q-14 14 -28 0l-58 -57q-16 -16 -49 -17h-135q-18 0 -18 17q0 8 4 12z" glyph-name="circumflex" unicode="ˆ"/><glyph d="M387 1274l-145 172q-4 4 -4 12q0 16 18 17h135q33 0 49 -17l58 -57q14 -14 28 0l54 57q16 16 49 17h135q12 0 16 -10.5t-2 -18.5l-139 -172q-18 -23 -51 -23h-150q-33 0 -51 23z" glyph-name="caron" unicode="ˇ"/><glyph d="M289 1475h102q16 0 29 -31q20 -63 92 -64q31 0 50.5 10.5t25.5 19.5t14 30l6 14q8 20 31 21h104q20 0 21 -37q0 -80 -59 -131q-70 -59 -193 -60q-125 0 -190 58q-55 49 -62 129v14q4 27 29 27z" glyph-name="breve" unicode="˘"/><glyph d="M637 1423v-127q0 -10 -2 -16t-15.5 -12t-39.5 -6h-142q-18 0 -26.5 1t-17.5 10t-9 27v127q0 37 59 37h140q53 0 53 -41z" glyph-name="dotaccent" unicode="˙"/><glyph d="M297 1466q0 88 63.5 150.5t151.5 62.5t151.5 -62.5t63.5 -150.5t-63.5 -151.5t-151.5 -63.5t-151.5 63.5t-63.5 151.5zM430 1466.5q0 -34.5 22.5 -58.5t59.5 -24q35 0 58.5 23t23.5 57q0 39 -25.5 60.5t-56.5 21.5q-33 0 -57.5 -22.5t-24.5 -57z" glyph-name="ring" unicode="˚"/><glyph d="M500 0h174q-31 -31 -47 -66q-23 -43 -23 -96q0 -35 12.5 -55.5t14.5 -26.5v-10q-4 -12 -23 -12h-172q-31 0 -43 12q-16 14 -16 68q0 106 123 186z" glyph-name="ogonek" unicode="˛"/><glyph d="M705 1464h81q27 0 27 -37q0 -63 -45 -108q-57 -57 -143 -57q-49 0 -105 22l-31 12q-66 29 -88 29q-31 0 -51 -25q-6 -10 -8 -18t-4 -12q-8 -12 -23 -13h-86q-18 0 -18 23q0 82 49 131q49 53 139 53q57 0 136 -34l36 -17q25 -12 50 -12q37 0 51 22q4 4 8 14.5t6 14.5 q9 12 19 12z" glyph-name="tilde" unicode="˜"/><glyph d="M233 1280l82 172q12 23 50 23h192q12 0 16.5 -10.5t-4.5 -20.5l-157 -176q-14 -16 -43 -17h-121q-8 0 -14.5 8.5t-0.5 20.5zM588 1280l84 172q12 23 47 23h192q20 0 21 -17q0 -4 -4 -8l-4 -6l-158 -176q-14 -16 -43 -17h-121q-8 0 -14 8.5t0 20.5z" glyph-name="hungarumlaut" horiz-adv-x="1183" unicode="˝"/><glyph d="M-258 1251h-145q-20 0 -21 17q0 4 4 12l98 172q10 23 58 23h233q20 0 23 -17v-4q0 -2 -8 -10l-189 -176q-16 -17 -53 -17z" glyph-name="acutecomb" horiz-adv-x="4" unicode="́"/><glyph d="M2 160l64 307q20 104 20 111q14 104 32.5 211.5t44 246t40.5 221.5l8 48q18 119 39 145q18 25 51 25h252q61 0 80 -25q12 -14 65 -264l58 -271q12 -59 30.5 -185t55.5 -337q8 -43 35.5 -160.5t27.5 -154.5t-26.5 -57.5t-67.5 -20.5h-748q-78 0 -77 59q0 23 16 101z M438 1110l-106 -690q-4 -33 -8 -68v-10q2 -10 17 -22.5t30 -12.5h147q8 0 19.5 3t23.5 17.5t10 37.5l-4 45l-112 702z" glyph-name="Delta" horiz-adv-x="894" unicode="Δ"/><glyph d="M2 160l64 307q20 104 20 111q14 104 32.5 211.5t44 246t40.5 221.5l8 48q18 119 39 145q18 25 51 25h252q61 0 80 -25q12 -14 65 -264l58 -271q12 -59 30.5 -185t55.5 -337q8 -43 35.5 -160.5t27.5 -154.5t-26.5 -57.5t-67.5 -20.5h-748q-78 0 -77 59q0 23 16 101z M438 1110l-106 -690q-4 -33 -8 -68v-10q2 -10 17 -22.5t30 -12.5h147q8 0 19.5 3t23.5 17.5t10 37.5l-4 45l-112 702z" glyph-name="Delta" horiz-adv-x="894" unicode="∆"/><glyph d="M1030 0h-297q-68 0 -67 57v363q53 12 75 57q20 41 21 160v287q0 127 -47 180q-45 49 -106.5 49t-106.5 -49q-47 -53 -47 -180v-287q0 -119 20 -160q23 -45 76 -57v-363q0 -57 -68 -57h-297q-49 0 -60 15.5t-11 58.5v180q0 72 51 72h88v57q-80 35 -123 126t-43 308 q0 84 3 131t16.5 144.5t52.5 174t102 130.5q123 104 346 104t346 -104q63 -53 102.5 -130t52.5 -174.5t16 -144.5t3 -131q0 -217 -43 -308t-122 -126v-57h88q51 0 51 -72v-180q0 -29 -3 -41.5t-18.5 -22.5t-50.5 -10z" glyph-name="Omega" horiz-adv-x="1216" unicode="Ω"/><glyph d="M1030 0h-297q-68 0 -67 57v363q53 12 75 57q20 41 21 160v287q0 127 -47 180q-45 49 -106.5 49t-106.5 -49q-47 -53 -47 -180v-287q0 -119 20 -160q23 -45 76 -57v-363q0 -57 -68 -57h-297q-49 0 -60 15.5t-11 58.5v180q0 72 51 72h88v57q-80 35 -123 126t-43 308 q0 84 3 131t16.5 144.5t52.5 174t102 130.5q123 104 346 104t346 -104q63 -53 102.5 -130t52.5 -174.5t16 -144.5t3 -131q0 -217 -43 -308t-122 -126v-57h88q51 0 51 -72v-180q0 -29 -3 -41.5t-18.5 -22.5t-50.5 -10z" glyph-name="Omega" horiz-adv-x="1216" unicode="Ω"/><glyph d="M512 877v-877h-289v877h-20q-68 0 -137 -43v225q86 43 202 43h981v-225h-112v-523q0 -92 20 -112q23 -20 55 -19l35 2v-225q-111 -18 -186 -18q-129 0 -180 73q-33 45 -33 181v641h-336z" glyph-name="pi" horiz-adv-x="1310" unicode="π"/><glyph d="M80 330v993q0 10 -1 29.5t-1 31t2 26.5t9 26.5t17 19.5q25 18 125 19h394q63 0 84.5 -22.5t23.5 -84.5v-31q0 -10 1 -32.5t1 -32.5v-10v-19q0 -45 -16.5 -68.5t-33.5 -27.5t-50 -4l-170 2q-18 0 -28.5 -3t-20.5 -22.5t-10 -56.5v-66q0 -68 71 -63l139 6q61 4 84 -21.5 t23 -115.5v-60q0 -25 -2 -44t-10.5 -43.5t-26.5 -38t-45 -11.5l-121 6q-43 2 -65.5 1t-31.5 -14t-9 -18.5v-35.5v-121q0 -51 10 -63.5t57 -12.5l180 2q53 0 72 -24.5t19 -130.5v-76q0 -43 -10.5 -69.5t-31 -36t-32.5 -11.5t-35 -2q-45 0 -131 4t-129 4q-37 0 -110.5 -4 t-112.5 -4q-53 0 -75 26.5t-20 59.5l7 98q0 4 5 36t5 110zM711 1694v-129q0 -29 -12.5 -35t-39.5 -6h-8h-139q-37 0 -45 10t-8 37v127q0 45 59 45h139q29 0 41.5 -10t12.5 -39zM358 1694v-129q0 -29 -12 -35t-39 -6h-8h-139q-37 0 -45.5 10t-8.5 37v127q0 45 60 45h139 q29 0 41 -10t12 -39z" glyph-name="afii10023" horiz-adv-x="798" unicode="Ё"/><glyph d="M530 1085l-2 -90v-65q0 -61 35 -62q8 0 29.5 10.5t36.5 14.5q49 16 104 16q158 0 228 -90q66 -84 65 -309v-363q0 -45 -5 -81.5t-25.5 -85t-55.5 -81t-103.5 -56t-162.5 -23.5q-49 0 -76 30q-25 31 -25 105v106q0 27 2.5 42.5t13.5 28.5t32 13q8 0 15 -3t17 -3 q25 0 35 23q10 20 10 104v195q0 70 -18 96q-20 29 -55 29q-41 0 -64 -29q-29 -35 -29 -129v-207l7 -135q4 -86 -74 -86h-49l-129 -4q-96 0 -92 82l4 108v531q0 250 2 373v12q0 33 -62 33h-35q-29 0 -47 8t-27.5 17t-13.5 35t-5 40t-1 53v76q0 111 96 111h87l217 -7l149 2 q158 2 176 -6q27 -10 27 -65v-25v-104q0 -82 -19.5 -108.5t-52.5 -26.5h-90q-43 0 -56.5 -11.5t-13.5 -38.5z" glyph-name="afii10051" horiz-adv-x="1067" unicode="Ђ"/><glyph d="M63 178v1102l-2 96q-2 33 2.5 50.5t25 34t63.5 16.5q16 0 51 -1t61 -1h252q12 0 40 1t40 1t31.5 -5.5t28 -16.5t14.5 -32.5t6 -52.5l-4 -115v-17t-1 -17t-2 -16.5t-3 -17.5t-5.5 -14.5t-9.5 -13.5t-13 -10t-17.5 -9t-23.5 -5t-30 -2h-100q-23 0 -34 -2.5t-24.5 -16.5 t-13.5 -45v-864l6 -133q2 -47 -21.5 -62.5t-57.5 -15.5q-23 0 -64 4t-61 4q-14 0 -43 -3t-43 -3q-16 0 -24.5 2t-18 19.5t-9.5 54.5q0 16 2 42.5t2 63.5zM352 1538h-145q-20 0 -21 16q0 4 4 13l99 172q10 23 57 22h234q20 0 22 -16v-4q0 -2 -8 -10l-188 -177 q-17 -16 -54 -16z" glyph-name="afii10052" horiz-adv-x="681" unicode="Ѓ"/><glyph d="M686 1278l4 -76q4 -92 -72 -92h-43q-23 0 -51 -8q-113 -33 -112 -174q0 -33 28 -33h135q41 0 41 -41v-225q0 -20 -12 -32.5t-29 -12.5h-135q-25 0 -28 -31q-8 -86 34 -152q39 -61 105 -57l82 4q14 0 24.5 -3t16.5 -11t9 -16.5t5 -22.5t3 -23.5t1 -28v-24.5l4 -115 q2 -55 -24.5 -82.5t-118.5 -27.5q-135 0 -228.5 32.5t-158.5 129.5q-70 100 -92.5 246.5t-22.5 357.5q0 449 131 588q121 127 391 127q27 0 43.5 -3.5t36 -12.5t27.5 -32.5t8 -60.5z" glyph-name="afii10053" horiz-adv-x="749" unicode="Є"/><glyph d="M51 104v179q0 68 37 92q18 12 47 12q16 0 53 -16q74 -35 138 -35q104 0 104 90q0 16 -2 29.5t-10 28t-13.5 22.5t-20.5 23.5t-21.5 21.5t-29 25.5t-28.5 25.5l-104 94q-66 57 -107 155.5t-41 211.5q0 416 461 416q45 0 79 -3t57.5 -5.5t39 -11.5t22.5 -14t11 -19.5 t4 -21.5t-1 -26.5t-1 -29.5v-150q0 -70 -16 -86q-23 -23 -88 -10l-41 10q-45 12 -76 12q-49 0 -72.5 -21.5t-23.5 -51.5q0 -29 18 -62q16 -25 33.5 -44t49.5 -49t36 -32l106 -102q141 -137 142 -342q0 -219 -105 -330q-59 -63 -135 -89t-197 -26q-188 0 -264 41 q-41 20 -41 88z" glyph-name="afii10054" horiz-adv-x="843" unicode="Ѕ"/><glyph d="M184 1475h95q84 0 102 -22.5t18 -133.5l-6 -973l4 -225q2 -76 -22.5 -98.5t-108.5 -22.5h-71q-45 0 -58.5 1t-37 10t-31 33t-7.5 65v110q0 20 3.5 54t1.5 116q-4 266 4 776v62q0 10 -2 41.5t0 50.5q2 25 0 29t-2 14v20q0 61 20 77t98 16z" glyph-name="afii10055" horiz-adv-x="464" unicode="І"/><glyph d="M184 1475h95q84 0 102 -22.5t18 -133.5l-6 -973l4 -225q2 -76 -22.5 -98.5t-108.5 -22.5h-71q-45 0 -58.5 1t-37 10t-31 33t-7.5 65v110q0 20 3.5 54t1.5 116q-4 266 4 776v62q0 10 -2 41.5t0 50.5q2 25 0 29t-2 14v20q0 61 20 77t98 16zM178 1710v-127q0 -35 -53 -35 h-125q-31 0 -40 9.5t-9 29.5v127q0 37 53 37h125q49 0 49 -41zM516 1710v-127q0 -35 -53 -35h-127q-47 0 -47 39v127q0 37 53 37h125q49 0 49 -41z" glyph-name="afii10056" horiz-adv-x="464" unicode="Ї"/><glyph d="M252 1475h143q16 0 29.5 -2.5t24 -4.5t18.5 -7t13 -9t8.5 -12t5.5 -12.5t3 -15.5t1 -14v-15.5v-16.5v-981q0 -113 -13.5 -190.5t-32 -118.5t-56.5 -61.5t-66.5 -24.5t-81.5 -4q-168 0 -197 30q-23 25 -22 115v92q0 45 8 66.5t16 25.5t33 11l10 2q4 0 16.5 2t18.5 3 t13.5 8t11.5 19q6 18 6 209l-2 807q0 37 5 57.5t20.5 30t26.5 10.5t40 1z" glyph-name="afii10057" horiz-adv-x="573" unicode="Ј"/><glyph d="M920 557v-170q0 -84 67 -84q53 0 78 45t25 119q0 88 -31 125q-27 33 -72 33q-67 0 -67 -68zM1010 0h-283q-74 0 -100 18q-18 12 -21.5 47t-3.5 162v781q0 41 2 64.5t2 35.5q0 31 -9 47t-19.5 19.5t-26.5 3.5h-33q-16 0 -25.5 -5.5t-13.5 -18.5t-5 -21.5t0 -27t1 -20.5 v-137q0 -430 -24 -631q-20 -186 -123 -262q-84 -61 -199 -61q-78 0 -103.5 14.5t-25.5 52.5v218q0 23 8 34t41 11h10q49 0 76 45q20 33 31 231q10 180 10 475v283q0 27 2 40t11.5 34.5t35 32t66.5 10.5h543q49 0 72.5 -15.5t23.5 -66.5q0 -41 -4 -77t-2 -124l2 -174 q0 -82 20 -96q8 -8 66 -9h18q70 0 144 -24q117 -39 176 -137q23 -35 35 -69t17 -83t5 -68.5v-85.5q0 -190 -61 -290q-59 -96 -142 -126t-194 -30z" glyph-name="afii10058" horiz-adv-x="1437" unicode="Љ"/><glyph d="M872 557v-170q0 -84 68 -84q53 0 80 49q23 45 22 115q0 86 -30 123q-29 35 -72 35q-68 0 -68 -68zM963 0h-293q-74 0 -101 18q-25 16 -24 136v145q0 23 5 91.5t5 107.5q0 70 -61 69q-45 0 -68 -20.5t-27 -43t-4 -63.5v-323v-18.5v-19.5t-1 -16.5t-5 -17.5t-9 -14 t-15.5 -12.5t-23.5 -9.5t-31.5 -7t-43.5 -2h-80h-16h-18.5h-17.5t-16 2t-14.5 5t-14.5 7t-11 10.5t-9 14.5t-5.5 19.5t-2.5 25.5q0 6 1 16.5t1 14.5q2 23 3 135v1104q0 41 2 57t13 34.5t35.5 24t71.5 5.5h91q57 0 85.5 -16.5t33.5 -35t5 -49.5v-14l-14 -365q-4 -98 80 -98 q29 0 47.5 12.5t24.5 37t8 42t2 45.5q0 39 -3 90.5t-3 77.5v180q0 61 20.5 77t98.5 16h94q84 0 102.5 -22.5t18.5 -133.5v-301q0 -80 20 -96q12 -8 66 -9h30q53 0 131 -24q115 -37 177 -137q23 -35 35 -69t17 -83t5 -68.5v-85.5q0 -190 -62 -290q-59 -96 -141.5 -126 t-193.5 -30z" glyph-name="afii10059" horiz-adv-x="1390" unicode="Њ"/><glyph d="M530 1085l-2 -90v-65q0 -61 35 -62q8 0 29.5 10.5t36.5 14.5q49 16 104 16q158 0 228 -90q66 -84 65 -309v-305q0 -18 4 -60q0 -8 2 -23.5t3 -27.5t1 -22q0 -31 -12 -52q-16 -27 -68 -26q-23 0 -63.5 4t-61.5 4q-14 0 -42.5 -3t-43.5 -3q-16 0 -24 2t-17.5 19.5 t-9.5 54.5q0 16 2 42.5t2 63.5v283q0 70 -18 96q-20 29 -55 29q-41 0 -64 -29q-29 -35 -29 -129v-207l7 -135q4 -86 -74 -86h-49l-129 -4q-96 0 -92 82l4 108v531q0 250 2 373v12q0 33 -62 33h-35q-29 0 -47 8t-27.5 17t-13.5 35t-5 40t-1 53v76q0 111 96 111h87l217 -7 l149 2q158 2 176 -6q27 -10 27 -65v-25v-104q0 -82 -19.5 -108.5t-52.5 -26.5h-90q-43 0 -56.5 -11.5t-13.5 -38.5z" glyph-name="afii10060" horiz-adv-x="1069" unicode="Ћ"/><glyph d="M182 1475h121q29 0 42 -3.5t25.5 -25t12.5 -66.5v-14l-8 -399h31l114 446q8 33 24.5 47.5t55.5 14.5h213q57 0 57 -39q0 -25 -22 -76l-189 -451q-12 -33 -14 -53q47 -176 105 -352l79 -248q61 -190 62 -215q0 -41 -66 -41q-16 0 -48 2t-48 2q-12 0 -37.5 -2t-38.5 -2 q-74 0 -92 15.5t-37 95.5l-118 505h-27v-501q0 -78 -20.5 -96.5t-71.5 -18.5h-97q-49 0 -74.5 4t-37.5 24.5t-13.5 38t-1.5 70.5l3 1030q0 14 -1.5 43t-1.5 43v52v84q0 51 21.5 68.5t97.5 17.5zM457 1538h-146q-20 0 -20 16q0 4 4 13l98 172q12 23 58 22h233q20 0 23 -16v-4 q0 -2 -9 -10l-188 -177q-16 -16 -53 -16z" glyph-name="afii10061" horiz-adv-x="890" unicode="Ќ"/><glyph d="M664 1475h174q68 0 81 -21.5t-1 -56.5l-68 -430q-35 -221 -133 -686q-31 -147 -99 -211q-92 -88 -272 -88q-139 0 -201 22q-33 12 -42 29.5t-9 52.5l-2 197q0 47 12.5 61t34.5 14q4 0 29 -6q27 -10 37 -10q39 0 55 16q14 14 14 39q0 14 -24 99q-20 61 -29 92l-207 739 q-2 8 -7 21.5t-7 19.5q-4 18 -4 57q0 14 2 22.5t22.5 18t61.5 9.5h223q57 0 70 -29q18 -43 51 -295t47 -494h43q18 221 37 539q2 47 16 190q4 47 23 66q23 23 72 23zM229 1776h113q16 0 25 -17q2 -6 7 -18t9 -21q27 -49 92 -49q61 0 92 49q4 6 6 12.5t5.5 14.5t5.5 12 q6 16 24 17h113q29 0 31 -29v-16q-6 -90 -76 -147.5t-201 -57.5q-145 0 -215 67q-57 55 -61 138v16q5 29 30 29z" glyph-name="afii10062" horiz-adv-x="952" unicode="Ў"/><glyph d="M745 0h-32q-37 0 -60 -23q-16 -18 -16 -63v-18q0 -35 -12.5 -52.5t-24.5 -19.5t-33 -2h-196q-20 0 -32.5 2t-25 19.5t-12.5 52.5v18q0 47 -16 63q-23 23 -60 23h-67q-49 0 -73 15.5t-24 66.5q0 8 5 74q2 84 2 127v804q0 45 -2.5 99.5t-4.5 88.5t-2 70.5t5.5 57t15.5 39 t29.5 26t48.5 7.5h145q94 0 94 -119v-791q0 -2 -8 -100q-2 -12 -6 -46t-4 -52q0 -70 61 -70q45 0 67.5 20.5t27 43t4.5 63.5v934v18.5v19.5t1 16t5 17.5t9 14.5t15.5 12t23.5 9t31.5 7.5t43.5 2.5h80h16h18h17.5t16.5 -2.5t14.5 -5.5t14.5 -7t11 -10t9 -14.5t5 -19.5t2 -25 q0 -6 -1 -16.5t-1 -14.5q-2 -23 -2 -135v-1104q0 -41 -2 -57.5t-13 -35t-36 -23.5t-72 -5z" glyph-name="afii10145" horiz-adv-x="933" unicode="Џ"/><glyph d="M2 160l64 307q20 104 20 111q14 104 32.5 211.5t44 246t40.5 221.5l8 48q18 119 39 145q18 25 51 25h252q61 0 80 -25q12 -14 65 -264l58 -271q12 -59 30.5 -185t55.5 -337q8 -43 35.5 -160.5t27.5 -154.5t-26.5 -57.5t-67.5 -20.5h-176q-49 0 -66 47q-6 20 -10 78 q-4 53 -10 74q-20 59 -86 59q-45 0 -82 -15.5t-35 -47.5l2 -72q2 -76 -22.5 -99.5t-73.5 -23.5h-189q-78 0 -77 59q0 23 16 101zM438 1110l-57 -416q-6 -45 -8 -67v-11q6 -35 78 -34q35 0 55 11t18 46l-4 45l-65 428z" glyph-name="afii10017" horiz-adv-x="894" unicode="А"/><glyph d="M381 557v-170q0 -84 68 -84q100 0 100 164q0 158 -100 158q-68 0 -68 -68zM197 1479l-52 -2q45 2 73 0t40 -2h379q6 0 45 2t49 -1t32.5 -12.5t29 -33t4.5 -60.5l-4 -96v-17.5t-1 -17.5t-2.5 -16.5t-3.5 -17.5t-5 -14t-9 -13t-13 -10.5t-17.5 -9.5t-23.5 -5t-30 -2h-227 q-25 0 -36 -2t-24.5 -16.5t-13.5 -45.5v-77q0 -47 10 -62q8 -12 23.5 -15t41 -1t66.5 -2q109 -8 181.5 -48t108.5 -110t48.5 -145.5t12.5 -180.5q0 -115 -26 -199.5t-64.5 -130.5t-96 -74t-107.5 -35t-114 -7h-283q-74 0 -100 18q-25 18 -25 140v69q0 51 4.5 151.5 t4.5 151.5q0 59 -4.5 180t-4.5 183q0 43 3.5 113.5t3.5 152.5t-7 201q0 23 2.5 41t13.5 40.5t41 33t77 4.5z" glyph-name="afii10018" horiz-adv-x="929" unicode="Б"/><glyph d="M387 1143v-166q0 -37 39 -37q123 0 123 131q0 49 -21.5 77t-40 34t-36.5 6q-64 0 -64 -45zM381 557v-170q0 -84 68 -84q113 0 112 164q0 158 -112 158q-68 0 -68 -68zM285 1475h243q330 0 330 -355q0 -139 -32.5 -208.5t-104.5 -98.5q88 -41 123 -125t35 -242 q0 -193 -62 -290q-59 -96 -146 -126t-200 -30h-283q-74 0 -100 18q-25 18 -25 140v69q0 51 4.5 151.5t4.5 151.5q0 59 -4.5 180t-4.5 183q0 43 3.5 113.5t3.5 152.5t-7 201q-4 16 0.5 36.5t12.5 40t38.5 32t82.5 10.5z" glyph-name="afii10019" horiz-adv-x="933" unicode="В"/><glyph d="M63 178v1102l-2 96q-2 33 2.5 50.5t25 34t63.5 16.5q16 0 51 -1t61 -1h252q12 0 40 1t40 1t31.5 -5.5t28 -16.5t14.5 -32.5t6 -52.5l-4 -115v-17t-1 -17t-2 -16.5t-3 -17.5t-5.5 -14.5t-9.5 -13.5t-13 -10t-17.5 -9t-23.5 -5t-30 -2h-100q-23 0 -34 -2.5t-24.5 -16.5 t-13.5 -45v-864l6 -133q2 -47 -21.5 -62.5t-57.5 -15.5q-23 0 -64 4t-61 4q-14 0 -43 -3t-43 -3q-16 0 -24.5 2t-18 19.5t-9.5 54.5q0 16 2 42.5t2 63.5z" glyph-name="afii10020" horiz-adv-x="681" unicode="Г"/><glyph d="M319 1475h498q39 0 60.5 -21.5t24.5 -42t3 -51.5v-311q0 -57 -4 -177v-90v-92q4 -135 4 -205v-92q0 -88 47 -88h6q68 0 66 -92q0 -25 -3 -69t-3 -64q0 -29 3 -90.5t3 -93.5q0 -35 -12.5 -52.5t-24.5 -19.5t-37 -2h-192q-45 0 -61.5 22.5t-8.5 51.5l4 18q0 23 3 38 t-9 25.5t-18 15.5t-24.5 7t-29 2t-31 -1t-28.5 -1h-98q-12 0 -34 3t-37 3t-30 -8q-12 -8 -19 -19.5t-8 -18.5t-1 -26l-2 -20l-4 -39q-6 -53 -86 -53q-14 0 -47 3t-47.5 3t-42 -3t-44.5 -3q-20 0 -32.5 3t-22.5 20.5t-10 50.5q0 27 2 80t2 77q0 29 -1 88.5t-1 89.5 q0 74 61 74h17q23 0 53 123q80 299 96 834l4 131q2 82 96 82zM463 287h41q55 0 76 28q12 16 12 129q2 123 -8 351q-4 80 1 158.5t5 113.5q0 102 -25 102h-20q-6 0 -10.5 -1t-7.5 -4l-5 -5t-4 -8t-3 -8t-2 -9.5t-1 -9.5t-1 -9t-1 -9l-10 -170q-10 -176 -41 -356 q-27 -147 -45 -207q-12 -33 -13 -51q0 -16 17 -25q20 -10 45 -10z" glyph-name="afii10021" horiz-adv-x="1034" unicode="Д"/><glyph d="M78 330v993q0 10 -1 29.5t-1 31t2 26.5t9 26.5t17 19.5q25 18 125 19h394q63 0 84.5 -22.5t23.5 -84.5v-31q0 -10 1 -32.5t1 -32.5v-10v-19q0 -45 -16.5 -68.5t-33.5 -27.5t-50 -4l-170 2q-18 0 -28.5 -3t-21 -22.5t-10.5 -56.5v-66q0 -68 72 -63l139 6q61 4 84 -21.5 t23 -115.5v-60q0 -25 -2 -44t-10.5 -43.5t-26.5 -38t-45 -11.5l-121 6q-43 2 -65.5 1t-31.5 -14t-9 -18.5v-35.5v-121q0 -51 10 -63.5t57 -12.5l180 2q53 0 72 -24.5t19 -130.5v-76q0 -43 -10.5 -69.5t-31 -36t-32.5 -11.5t-35 -2q-45 0 -131 4t-129 4q-37 0 -110.5 -4 t-112.5 -4q-53 0 -75 26.5t-20 59.5l7 98q0 4 5 36t5 110z" glyph-name="afii10022" horiz-adv-x="778" unicode="Е"/><glyph d="M635 1475h121q29 0 42 -3.5t25.5 -25t12.5 -66.5v-14l-19 -399h41l115 446q8 33 24.5 47.5t55.5 14.5h202q57 0 58 -39q0 -25 -23 -76l-188 -451q-14 -37 -15 -63q55 -193 105 -342l80 -248q61 -190 61 -215q0 -41 -65 -41q-14 0 -43 2t-43 2q-12 0 -38 -2t-38 -2 q-74 0 -92.5 15.5t-36.5 95.5l-119 505h-41l14 -501q2 -41 -4 -65.5t-21 -35t-28.5 -12.5t-38.5 -2h-96q-84 0 -106.5 20.5t-20.5 116.5l14 479h-41l-118 -505q-18 -80 -37 -95.5t-92 -15.5q-12 0 -38 2t-38 2q-14 0 -43 -2t-43 -2q-66 0 -66 41q0 25 62 215l80 248 q49 150 104 342q-8 51 -14 63l-189 451q-23 51 -22 76q0 39 57 39h203q39 0 55.5 -14.5t24.5 -47.5l114 -446h41l-12 233q-2 55 -2 105v84q0 51 21.5 68.5t97.5 17.5z" glyph-name="afii10024" horiz-adv-x="1347" unicode="Ж"/><glyph d="M31 1208v140v18v19.5t2 17.5t5 19.5t11 16.5t19 17q31 23 135 23q70 0 113.5 -5.5t108 -31t118.5 -76.5q121 -119 121 -303q0 -233 -162 -303v-6q188 -63 188 -334q0 -199 -108 -320q-111 -125 -310 -125q-119 0 -198 33q-53 23 -54 96v164q0 63 52 70q14 2 28 0 q72 -14 78 -14q92 0 127 51q25 35 25 86q0 55 -29 86q-33 37 -90 37h-33q-23 0 -36 3t-24.5 19.5t-11.5 48.5v181q0 20 3.5 31.5t19.5 20.5t49 9h29q35 0 67 25q35 31 35 84q0 39 -18 67q-33 45 -103 45q-25 0 -47 -7t-49 -7q-37 0 -49 19t-12 85z" glyph-name="afii10025" horiz-adv-x="743" unicode="З"/><glyph d="M958 1323v-1184q0 -96 -17 -117.5t-85 -21.5h-104q-61 0 -80 19.5t-19 105.5v571h-41l-166 -571q-27 -90 -43 -107.5t-79 -17.5h-166q-57 0 -74.5 40t-17.5 132v1174l-3 45q-2 43 15.5 63.5t81.5 20.5h127q57 0 70.5 -27t13.5 -96v-574h41q90 279 174 596l12 47 q6 29 22.5 41.5t55.5 12.5h186q53 0 74.5 -27t21.5 -125z" glyph-name="afii10026" unicode="И"/><glyph d="M266 1774h113q18 0 24 -11q2 -4 7.5 -18t11.5 -29q25 -51 92 -51q61 0 92 51q8 12 12.5 24.5t6.5 16.5q6 16 24 17h113q27 0 31 -29v-19q-6 -94 -74 -153q-70 -61 -205 -62q-143 0 -213 68q-57 55 -65 147v19q5 29 30 29zM961 1323v-1184q0 -96 -17.5 -117.5t-85.5 -21.5 h-104q-61 0 -80 19.5t-19 105.5v571h-41l-165 -571q-27 -90 -43.5 -107.5t-79.5 -17.5h-166q-57 0 -74.5 40t-17.5 132v1174l-2 45q-2 43 15 63.5t81 20.5h127q57 0 70.5 -27t13.5 -96v-574h41q90 279 174 596l12 47q6 29 22.5 41.5t55.5 12.5h186q53 0 75 -27t22 -125z" glyph-name="afii10027" horiz-adv-x="1026" unicode="Й"/><glyph d="M182 1475h121q29 0 42 -3.5t25.5 -25t12.5 -66.5v-14l-8 -399h31l114 446q8 33 24.5 47.5t55.5 14.5h213q57 0 57 -39q0 -25 -22 -76l-189 -451q-12 -33 -14 -53q47 -176 105 -352l79 -248q61 -190 62 -215q0 -41 -66 -41q-16 0 -48 2t-48 2q-12 0 -37.5 -2t-38.5 -2 q-74 0 -92 15.5t-37 95.5l-118 505h-27v-501q0 -78 -20.5 -96.5t-71.5 -18.5h-97q-49 0 -74.5 4t-37.5 24.5t-13.5 38t-1.5 70.5l3 1030q0 14 -1.5 43t-1.5 43v52v84q0 51 21.5 68.5t97.5 17.5z" glyph-name="afii10028" horiz-adv-x="890" unicode="К"/><glyph d="M924 1192l2 -938q0 -29 2 -72t2 -63.5t-5 -45t-18 -42.5q-23 -31 -73 -31h-146q-94 0 -94 119v790q0 88 6 128t6 71t-9 47t-19.5 19.5t-26.5 3.5h-33q-16 0 -25.5 -5.5t-13.5 -18.5t-5 -21.5t0 -27t1 -20.5v-137q0 -240 -4 -313q-8 -217 -20 -318q-20 -186 -123 -262 q-84 -61 -199 -61q-78 0 -103.5 14.5t-25.5 52.5v218q0 23 8 34t41 11h10q63 0 80 51t25 198q2 16 2 27q10 180 10 475v283q0 27 2 40t11.5 34.5t35 32t66.5 10.5h543q49 0 72.5 -15.5t23.5 -66.5q0 -8 -4 -74q-2 -76 -2 -127z" glyph-name="afii10029" horiz-adv-x="991" unicode="Л"/><glyph d="M70 117v958q0 33 1 98.5t1 98.5q0 20 -2 62t-2 63q0 45 19 61.5t85 16.5h190q29 0 41.5 -2.5t30 -13.5t29.5 -38.5t22 -77.5l99 -434h24l119 490q18 76 80 76h225q45 0 66 -23q18 -20 18 -143q0 -193 -4 -260.5t-4 -114.5l4 -625v-90q4 -90 4 -100q0 -70 -11 -94.5 t-52 -24.5h-185q-45 0 -59 25.5t-14 80.5v394q0 8 -9 282h-28q-80 -401 -156 -401q-61 0 -160 317l-26 84h-25v-598q0 -147 -16 -168q-14 -16 -96 -16h-134q-75 0 -75 117z" glyph-name="afii10030" horiz-adv-x="1185" unicode="М"/><glyph d="M188 1475h91q57 0 85.5 -16.5t33.5 -35t5 -49.5v-14l-14 -365q-4 -98 80 -98q29 0 47.5 12.5t24.5 37t8 42t2 45.5q0 39 -3 90.5t-3 77.5v189q0 35 3 47t33.5 24.5t98.5 12.5h96q49 0 72.5 -15.5t23.5 -66.5q0 -8 -4 -74q-2 -84 -2 -127v-805q0 -82 3 -161t3 -111 q0 -66 -24.5 -90.5t-71.5 -24.5h-145q-94 0 -94 119v180q0 2 8 100q2 12 6 46t4 53q0 70 -61 69q-45 0 -68 -20.5t-27 -43t-4 -63.5v-323v-18.5v-19.5t-1 -16.5t-5 -17.5t-9 -14t-15.5 -12.5t-23.5 -9.5t-31.5 -7t-43.5 -2h-80h-16h-18.5h-17.5t-16 2t-14.5 5t-14.5 7 t-11 10.5t-9 14.5t-5.5 19.5t-2.5 25.5q0 6 1 16.5t1 14.5q2 23 3 135v1104q0 41 2 57t13 34.5t35.5 24t71.5 5.5z" glyph-name="afii10031" horiz-adv-x="933" unicode="Н"/><glyph d="M981 924v-236q0 -330 -55 -465q-100 -248 -443 -248q-211 0 -319 146q-61 84 -87 221t-26 383q0 211 15.5 344t64.5 225q113 207 410 207q215 0 323 -127q74 -86 95.5 -194.5t21.5 -255.5zM416 934v-408q0 -137 26 -168q23 -29 64 -28q59 0 86 49q16 33 20 77t4 160v33 v346q0 70 -25.5 114t-72.5 44q-49 0 -74 -39q-28 -43 -28 -180z" glyph-name="afii10032" horiz-adv-x="1034" unicode="О"/><glyph d="M188 1475h588q49 0 72.5 -15.5t23.5 -66.5q0 -8 -4 -74q-2 -84 -2 -127v-805q0 -100 3 -165.5t3 -106.5q0 -68 -26.5 -91.5t-69.5 -23.5h-145q-94 0 -94 119v790q0 2 8 101q2 12 6 46t4 52q0 70 -61 70q-45 0 -68 -20.5t-27 -43t-4 -63.5v-934v-18.5v-19.5t-1 -16.5 t-5 -17.5t-9 -14t-15.5 -12.5t-23.5 -9.5t-31.5 -7t-43.5 -2h-80h-16h-18.5h-17.5t-16 2t-14.5 5t-14.5 7t-11 10.5t-9 14.5t-5.5 19.5t-2.5 25.5q0 6 1 16.5t1 14.5q2 23 3 135v1104q0 41 2 57t13 34.5t35.5 24t71.5 5.5z" glyph-name="afii10033" horiz-adv-x="933" unicode="П"/><glyph d="M68 131l-2 164l8 678q2 162 -8 348l-3 47q-4 41 17 74q18 31 61 33l62 4q115 8 146.5 10t123.5 1t132 -11.5t96.5 -36t95.5 -66.5q121 -129 121 -430q0 -272 -111 -418q-47 -61 -126 -106t-165 -41l-39 2q-51 4 -76 -16q-23 -20 -22 -70q0 -63 4 -147l4 -72 q4 -78 -76 -78q-14 0 -39.5 3t-38.5 3q-16 0 -53 -6t-57 -4q-57 2 -57 70zM369 1057v-183q0 -41 1 -60t5 -45t13 -37t26.5 -19t44.5 -8q72 0 96 53q23 47 23 133q0 203 -37 250q-31 39 -82 39q-90 0 -90 -123z" glyph-name="afii10034" horiz-adv-x="935" unicode="Р"/><glyph d="M684 219l4 -115q2 -55 -24.5 -82.5t-118.5 -27.5q-135 0 -228.5 32.5t-158.5 129.5q-70 100 -92.5 246.5t-22.5 357.5q0 449 131 588q121 127 391 127q27 0 43.5 -3.5t36 -12.5t27.5 -32.5t8 -60.5l-2 -88l4 -76q4 -92 -72 -92h-43q-23 0 -51 -8q-76 -25 -94.5 -100.5 t-18.5 -247.5v-21q0 -264 35 -327q37 -63 105 -62l82 4q14 0 24 -3t16.5 -11t9.5 -16.5t5 -22.5t3 -23.5t1 -28v-24.5z" glyph-name="afii10035" horiz-adv-x="724" unicode="С"/><glyph d="M549 1085l2 -864l6 -135q4 -86 -74 -86h-49l-129 -4q-96 0 -92 82l4 108v531q0 250 2 373v12q0 33 -61 33h-58q-29 0 -47 8t-27.5 17t-13.5 35t-5 40t-1 53v76q0 111 96 111h86l218 -7l149 2q18 0 53 2.5t56.5 2.5t44 -3.5t32.5 -13.5q16 -16 17 -84v-104 q0 -82 -19.5 -108.5t-52.5 -26.5h-68q-41 0 -55 -10.5t-14 -39.5z" glyph-name="afii10036" horiz-adv-x="761" unicode="Т"/><glyph d="M664 1475h174q68 0 81 -21.5t-1 -56.5l-68 -430q-35 -221 -133 -686q-31 -147 -99 -211q-92 -88 -272 -88q-139 0 -201 22q-33 12 -42 29.5t-9 52.5l-2 197q0 47 12.5 61t34.5 14q4 0 29 -6q27 -10 37 -10q39 0 55 16q14 14 14 39q0 14 -24 99q-20 61 -29 92l-207 739 q-2 8 -7 21.5t-7 19.5q-4 18 -4 57q0 14 2 22.5t22.5 18t61.5 9.5h223q57 0 70 -29q18 -43 51 -295t47 -494h43q18 221 37 539q2 47 16 190q4 47 23 66q23 23 72 23z" glyph-name="afii10037" horiz-adv-x="952" unicode="У"/><glyph d="M836 827v-233v-10q0 -35 2 -54.5t19 -40t50 -20.5q14 0 25.5 5t18.5 14.5t13.5 19.5t9.5 26.5t5 28.5t3 30.5t1 28v27v21.5v116q0 14 1 47t1 52.5t-2 48.5t-6 46t-11.5 34.5t-20.5 26t-29.5 8.5t-27.5 -3.5t-20.5 -10.5t-14.5 -14t-9 -21.5t-6 -25.5t-2 -31.5v-34v-39.5 v-42zM639 1559h94q76 0 99.5 -20.5t19.5 -76.5l-4 -73q-2 -29 29 -29h57q387 0 387 -481v-224q0 -162 -34 -269t-96.5 -154.5t-119.5 -62.5t-137 -15h-57q-33 0 -29 -39l4 -64q4 -63 -28.5 -80.5t-102.5 -17.5h-72h-10q-41 0 -62.5 3t-42 23.5t-18.5 63.5l4 72q4 39 -28 39 h-58q-80 0 -137 15t-119.5 62.5t-96.5 155t-34 268.5v224q0 481 387 481h58q31 0 28 29l-4 61q-4 70 19.5 89.5t103.5 19.5zM532 594v233v42v39.5v34t-2 31.5t-6 25.5t-9 21.5t-14 14t-20.5 10.5t-28 3.5t-29.5 -8.5t-20.5 -26t-11.5 -34.5t-6 -46t-2 -48.5t1 -52t1 -47.5 v-116v-21.5v-27t1 -28t3 -30.5t5 -28.5t9.5 -26.5t13.5 -19.5t18 -14.5t26 -5q33 0 50 20.5t19 40t2 54.5v10z" glyph-name="afii10038" horiz-adv-x="1368" unicode="Ф"/><glyph d="M653 768l248 -676q16 -47 17 -63q0 -8 -13 -21q-12 -10 -45 -10q-23 0 -66.5 1t-64.5 1q-18 0 -55 -1t-56 -1q-27 0 -42 11t-27 59l-94 352h-19l-78 -357q-12 -63 -84 -63q-18 0 -54 3t-52 3t-50 -3t-50 -3h-37q-37 0 -37 41q0 10 18 65l234 662l-74 223 q-18 59 -37.5 113.5t-23.5 64.5q-14 45 -58 170q-25 76 -24 86q0 49 67 50q18 0 52 -1t51 -1q14 0 43.5 1t46.5 1q37 0 57.5 -11.5t26.5 -24t10 -32.5l72 -330h22l64 336q12 68 69 64l49 -4q4 0 10.5 -1.5t10.5 -1.5t13 -1t14 -1q6 0 16 -1t14 -1q14 0 47 4.5t52 2.5 q29 0 41 -12.5t12 -33.5q0 -10 -17 -57z" glyph-name="afii10039" horiz-adv-x="919" unicode="Х"/><glyph d="M66 121v1104q0 113 -3 135q0 4 -1 14t-1 17q0 84 78 84q8 0 24.5 -2.5t24.5 -2.5q16 0 48 2.5t49 2.5q41 0 64.5 -8.5t32.5 -30t11 -36t2 -42.5v-934q0 -39 3 -60.5t22.5 -44t58.5 -22.5q76 0 76 70q0 2 -10 98q-8 98 -8 100v791q0 119 94 119h145q45 0 70 -25 q27 -27 26 -90q0 -29 -3 -96.5t-3 -176.5v-694q0 -88 47 -88h7q31 0 49 -25.5t16 -66.5q0 -18 -7 -54t-7 -53q0 -37 7 -107.5t7 -102.5q0 -35 -13.5 -52.5t-25.5 -19.5t-35 -2h-192q-20 0 -32.5 2t-25 19.5t-12.5 52.5v18q0 41 -4 53.5t-34.5 24.5t-102.5 12q-23 0 -72 1 t-74 1q-31 0 -88 -3t-86 -3q-88 2 -105 23.5t-17 97.5z" glyph-name="afii10040" horiz-adv-x="985" unicode="Ц"/><glyph d="M158 1475h90q57 0 85.5 -16.5t34 -35t5.5 -49.5v-14l-15 -453q0 -61 23 -82q16 -16 57 -16q33 0 56 22q27 27 26 93q0 39 -3 79.5t-3 110.5v277q0 35 3 47t34 24.5t98 12.5h96q49 0 73 -15.5t24 -66.5q0 -8 -4 -74q-2 -84 -2 -127v-805l6 -266q0 -57 -15 -80 q-23 -41 -82 -41h-145q-27 0 -40 2t-27.5 12.5t-20.5 36t-6 68.5v117q0 88 6 159.5t6 81.5q0 45 -31 45q-8 0 -30.5 -9t-38.5 -13q-53 -14 -99 -15q-147 0 -215 78q-33 37 -49 101.5t-18 103.5t-2 113v473q0 41 2 57t13 34.5t36 24t72 5.5z" glyph-name="afii10041" horiz-adv-x="903" unicode="Ч"/><glyph d="M1247 0h-1059q-47 0 -71.5 5t-35.5 23.5t-13 35t-2 57.5v1104q0 113 -3 135q0 4 -1 14t-1 17q0 14 2.5 27.5t7.5 21.5t10 14t14 10t15.5 6.5t18.5 3.5t17.5 1h20.5h19h80q27 0 47.5 -3.5t33.5 -7.5t23.5 -13t15.5 -13t7 -18.5t2 -19.5v-22.5v-19.5v-834q0 -156 13 -182 q20 -45 75 -45q66 0 66 70q0 18 -4 51q0 4 -1 14t-1 14v39q0 6 -3 29t-3 51v791q0 119 94 119h145q43 0 69.5 -24t26.5 -91q0 -37 -3 -113t-3 -160v-600q0 -115 13 -145q20 -45 73 -45q68 0 68 70q0 18 -4 51q0 4 -1 14t-1 14v39q0 6 -3 29t-3 51v791q0 119 94 119h145 q96 0 96 -115q0 -51 -3 -131t-3 -142v-804q0 -43 2 -127q4 -66 4 -74q0 -51 -23.5 -66.5t-72.5 -15.5z" glyph-name="afii10042" horiz-adv-x="1404" unicode="Ш"/><glyph d="M1337 1087v-694q0 -88 47 -88h7q31 0 49 -25.5t16 -66.5q0 -18 -7 -54t-7 -53q0 -37 7 -107.5t7 -102.5q0 -35 -13 -52.5t-25.5 -19.5t-35.5 -2h-192q-20 0 -32.5 2t-25 19.5t-12.5 52.5v18q0 6 1 20.5t0 18.5t-3 14t-8 13.5t-15.5 8.5t-25.5 6t-37.5 3t-52.5 2h-848 q-66 0 -65 121v1104q0 113 -3 135q0 4 -1 14t-1 17q0 14 2.5 27.5t7.5 21.5t10 14t14 10t15.5 6.5t18.5 3.5t17.5 1h20.5h19h80q27 0 47.5 -3.5t33.5 -7.5t23.5 -13t15.5 -13t7 -18.5t2 -19.5v-22.5v-19.5v-823l2 -52q0 -51 -2 -51q0 -10 -1 -29.5t-1 -29.5 q0 -33 13.5 -51.5t26.5 -21.5t32 -3q84 0 84 70q0 47 -6 70.5t-6 127.5v791q0 119 94 119h145q43 0 69.5 -24t26.5 -91q0 -94 -3 -137t-3 -136v-552q0 -166 13 -193q20 -45 73 -45q68 0 68 70q0 18 -4 51q0 4 -1 14t-1 14v39q0 6 -3 29t-3 51v791q0 119 94 119h145 q43 0 69.5 -24t26.5 -91q0 -37 -3 -113t-3 -160z" glyph-name="afii10043" horiz-adv-x="1456" unicode="Щ"/><glyph d="M518 557v-170q0 -84 68 -84q53 0 82 49q20 37 20 115q0 88 -26 123q-25 35 -76 35q-68 0 -68 -68zM608 0h-272q-74 0 -100 18q-25 18 -25 140v69q0 51 4 151.5t4 151.5q0 31 -3 93.5t-3 93.5v373q0 16 -1 22t-15.5 14.5t-44.5 8.5h-58q-29 0 -47 8t-27.5 17t-13.5 35 t-5 40t-1 53v76q0 111 96 111h318q84 0 102.5 -22.5t18.5 -133.5v-283q0 -41 3 -64.5t14 -32.5t18.5 -10t27.5 -1h80q188 0 274 -162q63 -117 64 -279q0 -229 -62 -331q-94 -156 -346 -156z" glyph-name="afii10044" horiz-adv-x="1046" unicode="Ъ"/><glyph d="M391 557v-170q0 -84 68 -84q102 0 102 178q0 143 -102 144q-68 0 -68 -68zM481 0h-282q-74 0 -101 18q-25 18 -24 140v69q0 51 4 151.5t4 151.5q0 338 -9.5 500t-9.5 227v125q0 61 20.5 77t98.5 16h94q84 0 102.5 -22.5t18.5 -133.5v-283q0 -41 3 -64.5t14.5 -32.5 t18.5 -10t28 -1h80q113 0 198 -66q76 -57 108 -152.5t32 -248.5q0 -203 -62 -305q-55 -96 -141 -126t-195 -30zM1071 1475h94q84 0 102.5 -22.5t18.5 -133.5l-6 -973l4 -225q2 -76 -22.5 -98.5t-108.5 -22.5h-72q-45 0 -58 1t-36.5 10t-31 33t-7.5 65v110q0 20 3 54t1 116 q-4 266 4 776v62q0 10 -2 41.5t0 50.5q2 25 0 29t-2 14v20q0 61 20.5 77t98.5 16z" glyph-name="afii10045" horiz-adv-x="1351" unicode="Ы"/><glyph d="M391 557v-170q0 -84 68 -84q53 0 82 47q20 35 20 117q0 84 -33 127q-25 31 -69 31q-68 0 -68 -68zM481 0h-282q-74 0 -101 18q-25 18 -24 140v69q0 51 3 151.5t3 151.5l-6 363q0 31 -1 86t-2 100t-3 86q-4 61 -5 92v125q0 61 20.5 77t98.5 16h94q84 0 102.5 -22.5 t18.5 -133.5v-301q0 -80 21 -96q12 -8 82 -9h24q43 0 107.5 -20.5t103.5 -46.5q143 -98 144 -377q0 -215 -62 -313q-59 -96 -142 -126t-194 -30z" glyph-name="afii10046" horiz-adv-x="909" unicode="Ь"/><glyph d="M59 1290l-2 76q0 39 8.5 62.5t28 32.5t34.5 11.5t44 2.5q283 0 403 -127q131 -139 132 -588q0 -211 -22.5 -357.5t-92.5 -246.5q-51 -74 -125 -112t-126 -44t-136 -6q-70 0 -106 17.5t-43 37t-5 55.5l4 115q4 100 11 111q18 33 49 30l92 -4q66 -4 104 58q43 66 35 151 q-4 31 -29 31h-135q-16 0 -28.5 12.5t-12.5 32.5v225q0 41 41 41h135q29 0 29 33q0 82 -35 125q-31 37 -78 49q-29 8 -51 8h-55q-76 0 -72 92z" glyph-name="afii10047" horiz-adv-x="759" unicode="Э"/></font>
</defs>
</svg>
